<?xml version="1.0" standalone="no"?>
<!DOCTYPE svg PUBLIC "-//W3C//DTD SVG 1.1//EN" "http://www.w3.org/Graphics/SVG/1.1/DTD/svg11.dtd" >
<svg xmlns="http://www.w3.org/2000/svg">
<metadata></metadata>
<defs>
<font id="kiddysansbold_italic" horiz-adv-x="1089" >
<font-face units-per-em="2048" ascent="1536" descent="-512" />
<missing-glyph horiz-adv-x="819" />
<glyph horiz-adv-x="2048" />
<glyph horiz-adv-x="2048" />
<glyph unicode="&#xd;" horiz-adv-x="2048" />
<glyph unicode=" "  horiz-adv-x="819" />
<glyph unicode="&#x09;" horiz-adv-x="819" />
<glyph unicode="&#xa0;" horiz-adv-x="819" />
<glyph unicode="!" horiz-adv-x="360" d="M61 115l2 4q0 13 3 28l2 15l2 8q1 3 3 8t3 8q6 21 28 43l9 9q6 6 10 8q5 7 24 18q15 9 27 15l14 6q8 3 54 8h8h4q4 0 11 -1t9 -1q22 -4 35 -17l6 -8l7 -6q4 -2 6.5 -5.5t6 -9t5.5 -7.5q2 -3 2 -5l10 -20q2 -8 2 -25v-2v-16l-2 -8l-2 -15l-10 -28l-4 -10l-10 -19l-7 -10 l-6 -6l-12 -17l-8 -8q-10 -12 -33 -26l-12 -7q-2 -1 -29 -12q-3 0 -7.5 -1t-6.5 -1t-6 -1t-6 -1h-5q-14 0 -20 2q-10 0 -14 2h-7l-6 2l-16 6l-12 4l-17 13l-8 8l-6 12q-6 4 -14 25v6l-5 10zM207 434l203 932q6 18 21 30.5t32 12.5h35q31 -12 24 -43l-203 -932 q-6 -18 -20.5 -29.5t-32.5 -11.5h-35q-32 4 -24 41z" />
<glyph unicode="&#x22;" horiz-adv-x="720" d="M340 969l106 493q5 18 20.5 31.5t33.5 13.5h35q37 -6 28 -45l-108 -493q-5 -19 -20 -32t-34 -13h-34q-33 8 -27 45zM657 969l107 493q5 18 19.5 31.5t33.5 13.5h35q38 -7 29 -45l-109 -493q-5 -19 -20 -32t-33 -13h-35q-33 8 -27 45z" />
<glyph unicode="#" horiz-adv-x="1046" d="M137 475l6 29q3 16 21 30.5t31 14.5l165 -2q14 39 52.5 143t60.5 168h-162q-18 0 -28 13t-7 32l9 35q14 35 49 35h178q6 17 61.5 171t81.5 232q36 41 60 33q4 -4 20 -4q18 0 28 -15t5 -34l-141 -383h229q11 31 64 178.5t79 224.5q36 41 60 33q4 -4 20 -4q18 0 28 -15 t5 -34l-141 -385h180q16 0 28 -13t9 -32l-8 -27q-4 -21 -19.5 -33t-34.5 -12l-194 2q-23 -64 -63.5 -175t-49.5 -136q33 0 97.5 -1t97.5 -1q20 0 29 -11.5t4 -31.5l-7 -29q-4 -21 -19.5 -32t-31.5 -11h-211q-49 -141 -141 -393q-14 -35 -51 -35l-29 4q-18 0 -27 14t-4 33 l136 379h-226q-27 -75 -79 -215.5t-68 -185.5q-10 -29 -45 -29l-31 4q-21 0 -30 15.5t1 35.5v-4l135 379q-25 0 -75 1t-74 1q-18 0 -27.5 12.5t-5.5 30.5zM475 547q44 0 113.5 -1t113.5 -1q10 29 50.5 137t62.5 174q-35 0 -110 1t-115 1z" />
<glyph unicode="$" horiz-adv-x="880" d="M45 152l21 26q28 36 55 21q6 0 12 -6q17 -10 49 -24t97.5 -31t128.5 -19l106 504q-29 9 -52.5 18t-51 22.5t-48 29t-40.5 36t-33 46t-21 56t-7.5 68.5t9.5 82q13 49 29 94q28 70 81.5 129t117.5 96q91 43 170 48l53 245q3 18 19 31.5t36 13.5h31q15 0 26.5 -14t8.5 -31 l-51 -243q80 -5 156 -25.5t112 -36.5q21 -3 24 -25.5t-10 -37.5l4 4l-16 -29q-8 -13 -21 -19t-21 -6.5t-26 -0.5q2 2 -29 13t-88.5 24.5t-111.5 17.5l-111 -518q70 -16 101 -31q74 -37 118.5 -113.5t40.5 -160.5q-13 -177 -208 -312q-94 -69 -201 -86l-53 -250 q-3 -19 -20 -32t-34 -13h-30q-20 0 -30 12.5t-7 32.5l51 240q-79 2 -163 26t-120 41.5t-49 26.5l4 -4q-37 18 -8 64zM391 977q-21 -96 21.5 -149.5t128.5 -84.5l102 486q-58 -8 -106 -33q-83 -41 -121 -143q-20 -49 -25 -76zM530 133q64 18 119 55q133 94 142 201 q4 62 -28.5 110.5t-78.5 67.5q-19 9 -55 21zM633 717q4 -2 8 -2q-2 2 -8 2z" />
<glyph unicode="%" horiz-adv-x="1624" d="M287 950q22 103 73 195t130 154.5t167 62.5q75 0 127.5 -35t75.5 -91t29 -127t-12 -142q-37 -160 -127 -267q-114 -135 -258 -135q-141 0 -195 129q-40 109 -10 256zM356 43q-9 20 15 41l-4 -8q171 218 515 654t515 654q28 39 61 19l29 -21l5 -2q6 -1 3.5 -4.5 t-2.5 -19.5q-1 -5 -5 -14t-5 -11l-1039 -1319q-15 -12 -32 -12q-20 0 -27 10l-16 8q-13 13 -13 25zM399 950q-24 -116 9 -196q28 -76 108 -76q77 0 150 82q73 86 98 207q12 71 8 134t-40.5 105.5t-98.5 42.5q-79 0 -144 -90t-90 -209zM999 428q16 77 50.5 150.5t81.5 132.5 t110 95t129 36q60 0 105.5 -23t72 -62t39.5 -91t12.5 -108t-12.5 -114q-16 -73 -49.5 -142.5t-81 -127t-114 -92.5t-140.5 -35q-66 0 -116.5 33.5t-75.5 93.5q-43 105 -11 254zM1112 428q-23 -114 6 -195q33 -75 109 -75q86 0 151 82q72 81 97 204q13 52 10.5 103.5t-15 92 t-45 66t-79.5 25.5q-53 0 -102.5 -46t-82.5 -113.5t-49 -143.5z" />
<glyph unicode="&#x26;" horiz-adv-x="1316" d="M215 299q-6 83 6 141q15 72 51.5 130t91.5 100.5t107 70.5t123 58q-55 113 -80 196v-2q-27 71 -12 142q18 85 100 157q60 54 145.5 85.5t170.5 31.5q77 0 141 -33v2q72 -38 92.5 -111t-14.5 -171q-24 -69 -67 -126t-99 -98.5t-105.5 -68.5t-111.5 -53q118 -218 245 -400 q97 108 167 227.5t73 198.5q4 19 14 29t31 20l35 4q14 0 26 -7t13 -19q-7 -108 -95.5 -261.5t-203.5 -279.5q30 -43 71 -93t44 -54l18 -23q5 -16 1 -33t-11 -28l-25 -19q-17 -15 -36 -13t-27 17l14 -8q-14 12 -54.5 58.5t-84.5 109.5q-65 -48 -82 -57q-59 -35 -166 -72 t-211 -37q-83 0 -137 25h2q-142 58 -160 264zM328 330q16 -149 110 -191q45 -18 92 -18q142 0 316 94v-2q24 13 63 45q-162 234 -268 442q-58 -24 -91 -39t-75.5 -39.5t-66 -48t-44.5 -57t-30 -74.5q-9 -50 -6 -112zM614 1130q-9 -33 9 -79q51 -139 84 -211 q124 53 206.5 117t116.5 153q36 120 -41 168l2 -2q-45 20 -98 20q-62 0 -122 -21t-101 -58q-48 -38 -56 -87z" />
<glyph unicode="'" horiz-adv-x="337" d="M317 969l107 493q5 18 20 31.5t33 13.5h35q38 -7 29 -45l-109 -493q-5 -19 -20 -32t-33 -13h-29q-21 0 -29 14.5t-4 30.5z" />
<glyph unicode="(" horiz-adv-x="804" d="M444 604q31 144 90.5 287.5t120 245t120.5 185t94 122.5t40 43l-2 -2q13 18 33 22q28 4 35 -10l16 -14q13 -13 11 -30t-13 -32q-12 -12 -37 -40t-84.5 -110t-112.5 -171.5t-108 -224t-84 -269.5q-86 -422 82 -813v-2q4 -12 0 -31q-19 -23 -29 -28l-26 -17q-14 -6 -27 -6 q-16 0 -28 15q-187 428 -91 880z" />
<glyph unicode=")" horiz-adv-x="806" d="M37 -240q4 18 10 31v2q343 395 428 813q29 135 31.5 268t-13 226t-38 169.5t-38.5 112t-20 39.5q-5 15 1 33t22 29l22 14q26 18 39 10q21 -3 27 -22h-2q38 -87 53 -135q112 -344 41 -717q-3 -15 -6 -29q-96 -452 -463 -880q-18 -15 -37 -15q-12 0 -22 6l-19 17 q-16 8 -16 28z" />
<glyph unicode="*" horiz-adv-x="995" d="M299 1085l6 29q3 15 21 33q12 10 28 10q1 0 3 1t3 1l220 -2l-121 156q-8 21 -6 33q2 14 18 30l25 19q17 14 37 12.5t26 -18.5v6l172 -217l266 215l-6 -7q25 25 43 19q17 0 25 -12l12 -13q6 -15 1.5 -37.5t-17.5 -37.5l-181 -148q42 0 109 -1t109 -1q17 0 28 -14t8 -31 l-6 -29q-4 -17 -20 -30q-11 -11 -35 -11h-233l131 -168q9 -9 6 -30q-4 -20 -21 -33l-20 -18q-17 -13 -37 -13q-21 0 -27 13l-172 219l-264 -217q-17 -13 -35 -13q-8 0 -30 13l-15 20q-23 33 12 61l203 166q-44 0 -115.5 1t-115.5 1q-19 0 -28.5 12t-6.5 31z" />
<glyph unicode="+" horiz-adv-x="1177" d="M119 596l8 35q14 35 51 35h479q17 84 52 247.5t53 247.5q5 19 18.5 31t32.5 12h29q21 0 31.5 -12t5.5 -31l-109 -495q80 0 238.5 -2t238.5 -2q19 0 28.5 -12.5t6.5 -31.5l-8 -34q-16 -37 -53 -37l-478 2q-17 -84 -53.5 -253t-54.5 -253q-4 -18 -20.5 -31.5t-32.5 -13.5 l-29 2q-21 0 -29 13.5t-4 29.5l109 506q-82 0 -238 1t-237 1q-20 0 -29 13t-6 32z" />
<glyph unicode="," horiz-adv-x="296" d="M-40.5 -173.5q1.5 21.5 17.5 32.5l-4 -4q102 107 146 200q35 79 61 209l8 39q3 16 19.5 30.5t34.5 14.5h28q15 0 26.5 -15.5t8.5 -29.5l-8 -39q-32 -150 -74 -239q-59 -124 -186 -248q-11 -10 -28 -9.5t-23 11.5l-19 16h2q-11 10 -9.5 31.5z" />
<glyph unicode="-" horiz-adv-x="868" d="M260 627l6 28q3 23 19 31q12 12 32 12l496 -2q16 0 27.5 -12.5t7.5 -30.5l-6 -28q-3 -21 -21 -33q-16 -12 -33 -12l-495 4q-18 0 -27.5 11.5t-5.5 31.5z" />
<glyph unicode="." horiz-adv-x="468" d="M117 162q10 48 62 89.5t120 41.5q51 0 82 -42.5t22 -88.5q-15 -70 -63 -116t-102 -46q-71 0 -103.5 44.5t-17.5 117.5zM117 162q10 48 62 89.5t120 41.5q51 0 82 -42.5t22 -88.5q-15 -70 -63 -116t-102 -46q-71 0 -103.5 44.5t-17.5 117.5zM117 162q10 48 62 89.5 t120 41.5q51 0 82 -42.5t22 -88.5q-15 -70 -63 -116t-102 -46q-71 0 -103.5 44.5t-17.5 117.5z" />
<glyph unicode="/" horiz-adv-x="610" d="M1 33.5q-3 18.5 11 36.5l-6 -7l793 1323l8 11q32 11 49 4q6 -6 16 -6l2 -2q14 -5 17 -24t-10 -34l6 6l-795 -1325l-18 -16h-31l-25 10q-14 5 -17 23.5z" />
<glyph unicode="0" horiz-adv-x="1175" d="M214.5 480.5q3.5 96.5 25.5 199.5q19 88 55 184t93 194t125 175.5t157.5 126.5t183.5 49h31q71 -6 128 -35t93.5 -73t61 -102.5t35 -122.5t11.5 -134t-6 -134.5t-20 -127.5q-24 -98 -59.5 -189t-90.5 -182.5t-121.5 -158t-156.5 -108.5t-191 -42q-95 1 -166.5 39.5 t-112 104t-60 153t-16 184zM334 513.5q-4 -80.5 9.5 -152.5t43 -126t82.5 -85.5t125 -32.5q90 1 171 49t140 128.5t101 178.5t65 207q19 89 23 176.5t-9.5 165.5t-43 138t-80.5 95t-119 35q-109 0 -212 -92t-172 -229t-102 -289q-18 -86 -22 -166.5z" />
<glyph unicode="1" horiz-adv-x="614" d="M238 1212l2 -2q-12 36 30 58l308 137l14 4h125q19 0 28.5 -14.5t6.5 -30.5l-281 -1319q-9 -45 -53 -45h-31q-19 0 -30 12t-7 33l264 1243h-30q-46 -21 -140.5 -63t-140.5 -62q-19 -8 -36 0t-23 29z" />
<glyph unicode="2" horiz-adv-x="1040" d="M160 43l35 145q3 16 8 23q182 131 324.5 249t230.5 206t148.5 166.5t87 131.5t36.5 99q8 39 4 74q-7 42 -37.5 74t-74.5 49t-93.5 24.5t-99.5 5.5q-98 -3 -178 -33.5t-105 -74.5q-9 -15 -26 -22.5t-29 -2.5l-22 10q-22 10 -29 27t12 39q50 80 165 126.5t237 49.5 q66 2 129.5 -10t121 -38t98 -73.5t52.5 -109.5q9 -46 -6 -113q-75 -356 -848 -913q-7 -28 -8 -35h674q18 0 28 -12.5t6 -32.5l-6 -29q-4 -20 -19.5 -31.5t-33.5 -11.5h-747q-20 0 -29.5 11.5t-5.5 31.5z" />
<glyph unicode="3" horiz-adv-x="980" d="M84 158q-4 16 8 33.5t29 27.5l22 8q19 8 34 1.5t22 -21.5q28 -92 161 -92q39 0 109 12q131 31 246 108t133 160q18 91 -101.5 168.5t-353.5 132.5q-34 3 -31 35v27q1 16 8.5 26.5t16 15.5t23.5 11q126 24 224.5 54t153.5 56.5t91.5 55.5t49.5 48t17 36q16 64 -47.5 124.5 t-159.5 88.5q-70 18 -121 18q-50 0 -104 -19t-90 -61q-21 -33 -57 -20l-31 20q-11 18 -4 52q113 143 311 143q69 0 152 -25q82 -26 147.5 -72t100.5 -114.5t16 -140.5q-52 -195 -416 -303q72 -25 128 -54.5t91 -59.5t60 -62t34 -62t12 -60.5t-5 -56.5q-18 -86 -96.5 -167.5 t-183.5 -136.5t-214 -79q-63 -14 -131 -14q-102 0 -168 41t-86 119v-2z" />
<glyph unicode="4" horiz-adv-x="1118" d="M94 461l19 82q3 18 18 30l-2 -4l776 830q12 12 33 12h129q19 0 27.5 -14t5.5 -31l-176 -829h190q41 0 35 -43l-8 -33q-7 -41 -51 -41h-191l-80 -375q-9 -45 -51 -45h-31q-44 0 -35 45l80 375h-651q-19 0 -29.5 11.5t-7.5 29.5zM201 537l22 -29l2 12l17 17h-41zM242 537 h565l160 753h-19q-130 -137 -367.5 -391.5t-338.5 -361.5z" />
<glyph unicode="5" horiz-adv-x="1007" d="M45 78l12 31q9 20 26.5 30t37.5 6h-4q150 -24 272 -24q97 0 177 15t130 39.5t79.5 46.5t47.5 46q36 41 49 103q23 111 -41 215q-45 81 -132 138.5t-201 57.5q-62 0 -131 -16h2l-21 -6q-30 -10 -45 8q-10 10 -4 35l4 20q21 98 66 232t73 206t45 111q3 16 19 26.5t33 10.5 h655q15 0 26.5 -15t8.5 -30l-6 -33q-4 -17 -22.5 -31t-33.5 -14h-592q-87 -225 -133 -387q41 6 80 6q143 0 253.5 -71t168.5 -170q81 -146 49 -295q-17 -84 -75 -164q-174 -205 -556 -205q-134 0 -290 25q-16 4 -23 21.5t-4 31.5z" />
<glyph unicode="6" horiz-adv-x="1144" d="M201 375v41v24v-6q0 70 18 146q30 142 109 281.5t196 252.5q146 142 322 217.5t362 75.5q16 0 27.5 -12.5t7.5 -30.5l-6 -31q-3 -17 -21 -31t-34 -14q-152 0 -305 -65.5t-277 -182.5q-76 -79 -140 -174t-95 -182q57 66 120 115q146 100 293 100q45 0 72 -6 q89 -19 160.5 -63t99.5 -101q51 -105 20 -240q-4 -17 -9 -34t-8 -26l-3 -9q-21 -80 -80 -164q-34 -44 -88 -98q-59 -53 -119 -88l2 2q-72 -45 -166 -66q-30 -6 -79 -6q-58 0 -105 8q-62 12 -129 45q-81 45 -111 127.5t-34 194.5zM322 401q8 -192 100 -241q53 -29 94 -35 q35 -6 88 -6q42 0 58 4q66 16 118 43h-2q58 41 90 70q20 17 70 75q38 63 61 125q37 145 2 223q-25 44 -75.5 74.5t-118.5 40.5q-23 4 -55 4q-115 0 -207 -69q-81 -57 -140 -147.5t-83 -160.5z" />
<glyph unicode="7" horiz-adv-x="933" d="M172.5 43q-0.5 18 13.5 35l861 1212h-736q-19 0 -29 12.5t-6 32.5l7 29q3 16 20 30.5t35 14.5h815q15 0 25.5 -15t7.5 -30l-17 -78q-7 -20 -16 -31q-146 -205 -441 -618.5t-440 -618.5q-13 -13 -21.5 -15.5t-29.5 -2.5l-33 16q-15 9 -15.5 27z" />
<glyph unicode="8" horiz-adv-x="1144" d="M158.5 291.5q3.5 54.5 19.5 103.5q35 101 124 195t198 151q-51 34 -90 86q-71 116 -15 258q44 114 120.5 191t176.5 108q74 25 158 25q156 0 240 -78q97 -97 79 -239q-11 -71 -52 -141.5t-105 -127.5q-10 -7 -41.5 -32.5t-50.5 -38.5q103 -64 148.5 -190.5t10.5 -248.5 q-52 -157 -237 -250h2q-117 -63 -289 -63q-91 0 -164 20l-2 -2q-35 12 -67 27h2q-30 9 -62 33q-56 36 -92 110q-15 49 -11.5 103.5zM280 316q-1 -40 7 -62q21 -58 55 -76q3 -2 9.5 -5t16 -7.5t15.5 -7.5q31 -18 61 -25l2 2q55 -16 134 -16q141 0 227 45q131 70 158 162 q33 99 -16.5 201t-143.5 141q-37 14 -107 14q-120 0 -243.5 -91t-163.5 -208q-10 -27 -11 -67zM506 1067v2q-32 -97 12 -164h-2q28 -44 78.5 -70t110.5 -26h34q52 -4 82 10q50 23 121 86v-2q95 79 107 180q6 42 -8 84t-44 72q-64 51 -174 51q-59 0 -114 -16 q-137 -45 -203 -207z" />
<glyph unicode="9" horiz-adv-x="1144" d="M168 43l6 31q3 16 19.5 30.5t33.5 14.5q152 0 304.5 65.5t275.5 180.5q76 76 140 171.5t97 186.5q-57 -66 -120 -115q-146 -100 -293 -100q-45 0 -72 6q-89 20 -160.5 63t-99.5 101q-51 105 -20 240q4 17 9 34t8 26l3 9q25 85 78 162q45 55 90 98q56 53 119 90l-2 -2 q63 40 166 66q30 6 84 6q53 0 102 -8q46 -8 127 -49q44 -24 73.5 -59.5t44 -81t20 -85t7.5 -92.5v-8v-51q2 -47 -18 -146q-29 -143 -108.5 -282.5t-196.5 -253.5q-147 -141 -321.5 -216t-360.5 -75q-18 0 -28.5 12t-6.5 31zM408 748q25 -43 75.5 -74t118.5 -43q20 -2 55 -2 q115 0 207 69q82 57 140.5 148t82.5 160q-8 192 -100 239q-53 32 -96 35q-40 8 -84 8q-35 0 -59 -6q-66 -13 -117 -41q-58 -41 -90 -70q-20 -17 -70 -75q-38 -63 -61 -125q-35 -145 -2 -223z" />
<glyph unicode=":" horiz-adv-x="497" d="M127 115l2 4q0 18 2 28l2 15l2 8q1 3 3 8t3 8q10 25 29 43l8 9q6 6 10 8q4 5 25 18q15 9 27 15l14 6q10 3 53 8h8h4q5 0 12 -1t9 -1q22 -4 35 -17l6 -8l6 -6q4 -2 19 -22q2 -3 2 -5l10 -20q4 -17 2 -25v-2v-16l-2 -8l-2 -15l-10 -28l-5 -10l-10 -19l-6 -10l-6 -6l-12 -17 l-9 -8q-10 -13 -32 -26l-11 -7q-4 -2 -9 -4t-11.5 -4.5t-9.5 -3.5q-3 0 -8 -1t-7 -1t-6 -1t-6 -1h-4q-15 0 -21 2q-10 0 -14 2h-6q-1 0 -3 1t-3 1l-17 6l-12 4l-16 13l-8 8l-7 12q-6 4 -14 25v6l-4 10zM283 848l2 6q0 17 2 27l4 16v8q3 6 6 15q14 28 31 45l6 8q2 1 5 3t5 3 q2 3 25 20q9 5 28 13l13 6q18 6 53 10h8h4q13 0 21 -4q21 -3 34 -16l7 -7l8 -6q3 -3 8 -11t8 -11q2 -2 2 -4q7 -10 10 -23q4 -15 2 -22v-4v-15v-8l-4 -16l-10 -27l-4 -12l-10 -17l-6 -12l-6 -6l-11 -14l-10 -11q-7 -9 -33 -26l-10 -6q-12 -9 -31 -13l-14 -4h-12h-4h-21 q-3 0 -7.5 1t-6.5 1q-1 0 -3 1t-3 1q-5 0 -7 2l-16 6l-12 5q-1 2 -7 6.5t-8 7.5l-10 6l-6 12q-5 6 -14 25v6l-4 12z" />
<glyph unicode=";" horiz-adv-x="397" d="M8.5 -174q1.5 21 16.5 33l-2 -4q101 101 145 200q37 78 63 209l9 39q3 16 18.5 30.5t34.5 14.5h29q21 0 28 -18q9 -7 6 -27l-8 -39q-32 -150 -74 -239q-61 -125 -176 -240q-16 -16 -39 -16q-17 0 -24 10l-19 16h2q-11 10 -9.5 31zM268 848l2 6q0 17 2 27l4 16v8 q6 12 7 15q9 24 30 45l6 8q2 1 5.5 3t5.5 3q3 5 24 20q12 7 29 13l12 6q15 6 54 10h8h4q12 0 20 -4q22 -3 35 -16l6 -7l8 -6q3 -3 8.5 -11t8.5 -11q2 -2 2 -4q7 -10 10 -23q2 -8 2 -22v-4v-15v-8l-4 -16l-10 -27l-6 -12l-9 -17l-6 -12l-6 -6l-10 -14l-10 -11q-7 -9 -33 -26 l-12 -6q-9 -9 -29 -13l-14 -4h-13h-4h-20q-3 0 -8 1t-7 1q-1 0 -3 1t-3 1q-6 0 -6 2l-16 6l-13 5q-1 2 -6.5 6.5t-7.5 7.5l-10 6l-6 12q-7 10 -15 25v6l-4 12z" />
<glyph unicode="&#x3c;" horiz-adv-x="1150" d="M96 485l15 70q9 31 34 41h-4l1016 444q4 3 8.5 4t7.5 1t8 -0.5t7 -0.5q10 -4 13.5 -6t7.5 -8.5t3 -15.5q0 -3 7 -17q4 -18 -7.5 -37t-25.5 -22h4l-952 -420l778 -432q1 -1 4 -2.5t3 -2.5t1.5 -6t-0.5 -14q2 -12 -10 -28l-17 -21q-7 -12 -20.5 -20t-22.5 -8q-18 0 -28 10 q-190 105 -815 452l4 -2q-27 11 -19 41z" />
<glyph unicode="=" horiz-adv-x="1353" d="M164 379l6 27q3 20 17.5 32.5t33.5 12.5h1059q18 0 29 -12.5t8 -32.5l-6 -27q-4 -19 -21 -32t-35 -13h-1058q-19 0 -28 12.5t-5 32.5zM248 780l6 29q4 20 19 31.5t34 11.5h1059q18 0 28.5 -12t6.5 -31l-6 -29q-3 -17 -20 -31t-34 -14h-1058q-18 0 -28 13.5t-7 31.5z" />
<glyph unicode="&#x3e;" horiz-adv-x="1150" d="M117 33q-6 15 6 34.5t27 24.5h-3l947 418l-777 434q-1 2 -3.5 2.5t-3.5 1.5t-1 6.5t2 16.5q0 11 11 26l16 21q7 12 20.5 19t24.5 7q16 0 27 -8q761 -423 811 -450q25 -11 18 -41l-14 -70q-9 -30 -35 -41h4l-1018 -446q-7 -4 -29 -4q-6 4 -8 5t-6.5 4.5t-6 6t-3 7 t-0.5 9.5q0 1 -3 7t-3 10z" />
<glyph unicode="?" horiz-adv-x="690" d="M168 115l2 4q1 5 2 14t2 14l2 15l2 8q1 3 3 8t3 8q6 20 29 43l8 9q6 6 10 8q4 5 25 18t27 15l14 6q8 3 53 8h8h4q4 0 11 -1t10 -1q22 -4 35 -17l6 -8l6 -6q4 -2 19 -22q2 -3 2 -5l10 -20q0 -4 1 -12.5t1 -12.5v-2v-16l-2 -8l-2 -15l-10 -28l-7 -10l-8 -19l-6 -10l-6 -6 l-12 -17l-9 -8q-10 -13 -32 -26l-13 -7q-3 -2 -28 -12q-4 0 -9 -1t-6 -1q-2 0 -6 -1t-6 -1h-4q-15 0 -21 2q-10 0 -14 2h-6q-1 0 -4 1t-4 1l-15 6l-12 4l-16 13l-8 8l-7 12q-6 4 -14 25v6l-4 10zM287 1284q-5 13 2 31q7 19 28 28l7 3q8 3 16.5 7t22 9t29 10t33.5 10.5 t37.5 10t39.5 8.5t42 6t42 2q67 0 114 -20q120 -49 150 -179q17 -65 2 -135q-18 -88 -92 -164v2q-29 -34 -86 -77h2l-14 -13q-75 -59 -101 -90q-46 -57 -90 -160q-2 -6 -14 -61q-13 -57 -13 -59q-3 -16 -18 -35q-16 -12 -33 -12l-31 -3q-20 0 -26 13q-12 12 -6 28 q1 10 5 34.5t5 31.5q8 40 25 82q40 111 110 199q50 60 125 114h-2l16 13q8 6 70 61q44 47 53 96q8 37 -4 88q-23 93 -96 117q-31 14 -76 14q-46 0 -99 -12t-82 -24l-30 -13q-41 -18 -55 17z" />
<glyph unicode="@" horiz-adv-x="1640" d="M219 528q36 167 123.5 312.5t208.5 244.5q84 64 184 109.5t187.5 65.5t146 28t98.5 8h19q204 0 323 -111t131 -313q8 -95 -14 -200q-31 -150 -114 -276.5t-191 -184.5q-100 -53 -172 -53q-47 0 -82 24q-52 34 -63 131q-234 -213 -375 -213q-65 0 -99 43q-22 33 -23 111 t17 162q24 93 64.5 170.5t87 129.5t103.5 92t110 63t109 37.5t98 19t80 4.5q20 0 45 -2t28 -2l23 -2q29 -11 24 -45l-6 -15q0 -6 -19.5 -64.5t-54.5 -149t-67 -154.5l-14 -35q-8 -29 -12 -60.5t1.5 -68.5t26.5 -51q31 -25 131 28q78 42 140 141t87 218q18 83 15 172h2 q-12 162 -107.5 250t-259.5 88h-12q-33 0 -78.5 -5t-125 -20t-169 -55t-164.5 -99q-209 -169 -274 -473q-77 -370 92 -505h-2q101 -78 287 -78q72 0 153.5 12t126.5 23.5t76 21.5q34 15 51 -31l4 -22q0 -17 -14 -35.5t-31 -22.5q-227 -65 -391 -65q-222 0 -348 102 q-210 171 -121 600zM635 227q5 -8 18 -8q58 0 171 85t180 155q10 10 28 43l17 28q17 37 36.5 88t41 114.5t28.5 82.5h-4q-31 0 -63 -3t-77.5 -13.5t-86.5 -27.5t-86 -48t-81.5 -72t-68 -102t-49.5 -135q-35 -147 -4 -187zM1155 815q3 0 10.5 -1t10.5 -1h12l-23 29 q0 -1 -2 -5t-2 -6q-1 -2 -6 -16z" />
<glyph unicode="A" horiz-adv-x="1232" d="M61 66l721 1337q18 29 47 29h146q17 0 27 -8.5t10 -20.5l157 -1335q-2 -17 -13.5 -35.5t-27.5 -22.5l-30 -10q-43 0 -47 29l-56 473h-571l-256 -473q-11 -14 -33 -23t-33 -2l7 -4l-25 10q-27 7 -27 33q0 10 4 23zM485 621h498l-86 694h-39q-64 -120 -187 -347t-186 -347z " />
<glyph unicode="B" horiz-adv-x="1093" d="M150 53l280 1317q9 40 57 45q76 17 211 17q118 0 230 -27.5t176 -91.5q63 -72 63 -168q0 -37 -10 -78q-35 -160 -156 -260q-70 -53 -135 -74q97 -44 148 -106q59 -76 60 -173q0 -36 -9 -75q-34 -159 -156 -260q-152 -119 -456 -119q-62 0 -160 4h-12q-74 4 -97 4 q-19 0 -28 15q-7 11 -7 23q0 4 1 7zM283 123h4q5 0 17 -1t18 -1q47 -2 155 -2q264 0 371 88q77 65 100 172q5 24 5 47q0 66 -40 115q-89 109 -362 147q-40 0 -102 4h-46zM430 817q70 0 162 -12q232 0 346 88q81 65 102 174q6 27 6 51q0 63 -42 103q-83 92 -330 92 q-84 0 -139 -6z" />
<glyph unicode="C" horiz-adv-x="1204" d="M232 369q-14 64 -14 138q0 94 22 202q41 189 137.5 340t230.5 243q218 140 508 140q79 0 161 -11t116 -19.5t47 -12.5l-2 2q12 -5 19 -22q4 -9 4 -18q0 -8 -3 -16l-14 -26q-11 -21 -30.5 -29.5t-41.5 0.5l6 -4q-142 37 -284 37q-263 0 -437 -117q-228 -147 -299 -487 q-19 -95 -19 -176q0 -59 10 -111q24 -124 100 -197q125 -106 366 -106q163 0 330 43q21 4 33 -8t12 -31l6 -23l-2 -6q-5 -33 -37 -45q-22 -7 -63 -16t-130.5 -21t-172.5 -12q-136 0 -248.5 34t-184.5 97q-94 92 -126 238z" />
<glyph unicode="D" horiz-adv-x="1361" d="M156 72l274 1292q6 37 62 45q132 23 256 23q55 0 106.5 -4t112 -15t114 -28.5t106.5 -47t94.5 -68t74.5 -93.5q34 -55 50 -122q16 -65 16 -150v-5q0 -88 -23 -190q-27 -128 -78 -233t-112.5 -177t-139.5 -127t-153.5 -87t-160 -52t-152.5 -26.5t-138 -6.5t-139 7 t-102.5 13.5t-37.5 8.5l7 -4q-38 10 -38 39q0 4 1 8zM260 135l23 -29l4 23q-3 1 -10 2t-9 2q-1 0 -4 1t-4 1zM287 129q86 -12 202 -12q69 0 134 7t137.5 24.5t135.5 46t125.5 75t111.5 106.5t88 145.5t61 187.5q19 87 19 164q-1 71 -15 125q-14 56 -42 102t-64 78.5 t-81.5 57t-91.5 39.5t-97.5 24t-96 12.5t-90.5 3.5q-100 0 -186 -12z" />
<glyph unicode="E" horiz-adv-x="983" d="M147 43l287 1346q3 16 19.5 30.5t33.5 14.5h719q20 0 30 -14q8 -11 8 -23q0 -4 -1 -8l-8 -31q-6 -43 -53 -43h-643l-107 -502h602q17 0 27.5 -14.5t7.5 -30.5l-6 -31q-4 -20 -20.5 -32.5t-34.5 -12.5h-602l-121 -573h678q17 0 27 -13.5t7 -31.5l-6 -31 q-4 -18 -19.5 -30.5t-33.5 -12.5h-754q-18 0 -30 12q-9 9 -8 22q0 4 1 9z" />
<glyph unicode="F" horiz-adv-x="954" d="M147 45l285 1341q5 18 21 32t34 14h727q16 0 28 -14q9 -11 8 -23q0 -4 -1 -9l-6 -30q-3 -18 -20 -31.5t-33 -13.5h-651l-109 -506h610q18 0 28 -13.5t5 -31.5l-6 -31q-3 -19 -18.5 -32t-34.5 -13h-611l-135 -639q-4 -20 -19.5 -32.5t-33.5 -12.5h-31q-19 0 -30 12 q-8 9 -8 23q0 5 1 10z" />
<glyph unicode="G" horiz-adv-x="1327" d="M238 680q89 415 380 604q227 148 537 148q79 0 159.5 -10.5t116 -19t50.5 -13.5q20 -8 24 -24q2 -6 2 -12q0 -9 -4 -16l-14 -30q-7 -18 -26 -28t-33 -5q-6 3 -40.5 11t-109.5 18t-150 10q-266 0 -462 -123q-113 -80 -195 -212t-117 -298q-22 -106 -22 -192 q0 -224 151 -312q92 -57 267 -57q110 0 219 21.5t180 45.5l92 439h-332q-20 0 -28.5 13t-3.5 32l6 28q10 43 51 43h405q20 0 29.5 -11.5t5.5 -31.5l-116 -548q-10 -49 -196.5 -99.5t-336.5 -50.5q-268 0 -401 133q-112 121 -112 331q0 98 24 216z" />
<glyph unicode="H" horiz-adv-x="1269" d="M150 43l286 1346q3 18 19.5 30.5t31.5 12.5h29q20 0 29 -12t6 -31l-125 -586h733l125 586q3 19 17.5 31t33.5 12h27q20 0 30 -12q8 -9 8 -23q0 -4 -1 -8l-287 -1346q-5 -19 -19 -31t-34 -12h-27q-19 0 -29 12t-6 31l138 645h-734l-137 -645q-10 -43 -51 -43h-29 q-14 0 -26 12q-9 9 -9 22q0 4 1 9z" />
<glyph unicode="I" horiz-adv-x="387" d="M139 43l287 1346q3 15 18 29t33 14h31q18 0 28 -14q8 -11 8 -22q0 -3 -1 -7l-287 -1346q-5 -19 -18.5 -31t-32.5 -12h-31q-19 0 -29 12q-7 9 -7 21q0 5 1 10z" />
<glyph unicode="J" horiz-adv-x="720" d="M-4 86l10 29q17 31 47 31q6 0 13 -1q122 -28 190 -28q104 0 168 55q107 93 158 356q25 120 39 201q9 43 28.5 145.5t30.5 155.5q26 102 43 189l33 165q5 18 20 32t33 14l31 2q16 0 25.5 -10t11.5 -25l-37 -178q-17 -87 -43 -189q-48 -235 -60 -299q-19 -116 -39 -203 q-30 -150 -75 -256.5t-131 -177.5q-107 -94 -261 -94q-66 0 -204 29h2q-2 0 -7 1t-6 1q-22 5 -22 36q0 8 2 19z" />
<glyph unicode="K" horiz-adv-x="1132" d="M150 51l282 1327q3 20 17.5 31.5t33.5 11.5h31q19 0 28.5 -11.5t6.5 -31.5l-143 -671q520 472 782 708l-2 -2q13 13 33 13h1q20 0 35 -13l11 -8q7 -12 7 -25q0 -22 -20 -43l-581 -526l352 -727l2 -4q5 -15 -2.5 -30.5t-24.5 -24.5l-24 -17q-19 -11 -32 -11q-17 0 -25 19 l-343 707l-206 -184l-103 -488q-5 -19 -20 -32t-33 -13h-31q-19 0 -28 13q-6 8 -6 19q0 6 2 13z" />
<glyph unicode="L" horiz-adv-x="905" d="M147 43l285 1343q4 19 20 31.5t35 12.5h27q18 0 28.5 -13t6.5 -31l-268 -1269h608q20 -1 30 -13q7 -8 7 -20q0 -6 -2 -12l-6 -29q-5 -19 -19.5 -31t-34.5 -12h-680q-19 0 -30 12q-8 9 -8 22q0 4 1 9z" />
<glyph unicode="M" horiz-adv-x="1693" d="M137 59l369 1332q4 17 20.5 29t32.5 12h141q15 0 25.5 -9t11.5 -24l-2 2l137 -1192q454 842 641 1192l-2 -2q14 33 52 33h170q17 0 27 -12q8 -10 7 -25v-6l-223 -1336q-20 -39 -53 -39l-31 -2q-40 0 -37 37l211 1266h-43q-132 -248 -376 -702.5t-314 -585.5 q-15 -29 -49 -29h-47q-28 0 -35 29l-149 1288h-17l-350 -1262q-6 -18 -22 -29.5t-31 -11.5l-39 2q-27 6 -27 31q0 7 2 14z" />
<glyph unicode="N" horiz-adv-x="1376" d="M150 43l284 1343q4 18 20.5 31t34.5 13h103q28 0 35 -21l487 -1268l262 1229q3 17 20 31t36 14h30q18 1 28 -13q8 -10 8 -24q0 -4 -1 -8l-280 -1317q-4 -20 -18.5 -31.5t-33.5 -13.5l-108 -6q-11 0 -21.5 7.5t-13.5 15.5l-487 1261l-265 -1243q-5 -19 -19 -31t-34 -12 h-31q-18 0 -29 12q-8 9 -8 22q0 4 1 9z" />
<glyph unicode="O" horiz-adv-x="1529" d="M227 424q-6 43 -6 87q0 81 19 167q31 144 108.5 281t184.5 241.5t243.5 168t276.5 63.5q100 -2 184.5 -34t142 -86t100.5 -126.5t61 -155.5q17 -83 21 -173q1 -13 1 -27q0 -76 -17 -152q-30 -135 -97.5 -256t-164.5 -211q-114 -105 -255.5 -158t-280.5 -53 q-317 13 -445 211q-60 91 -76 213zM347 463q13 -100 61 -174q105 -167 366 -170q262 3 438 170q168 155 218 389q15 63 15 127v21q-3 74 -18.5 143t-51.5 129t-84 106t-115.5 75t-147.5 36q-123 -10 -238 -69t-201 -148.5t-146.5 -198.5t-84.5 -221q-16 -75 -16 -143 q0 -37 5 -72z" />
<glyph unicode="P" horiz-adv-x="1001" d="M147 43l279 1313q4 18 20.5 30.5t34.5 12.5q21 0 29 2q1 0 7.5 1t8.5 1l27 4q179 25 266 25h12q120 -3 209 -50q75 -43 115 -98q50 -74 51 -165q0 -39 -10 -81q-8 -44 -16 -63q-12 -30 -58 -96q-61 -88 -176 -183q-73 -58 -169 -94.5t-193 -40.5q-10 -2 -37 -2 q-76 0 -166 23l-115 -539q-5 -19 -19 -31t-34 -12h-29q-18 0 -30 12q-9 9 -8 22q0 4 1 9zM406 700q97 -23 166 -23q13 0 24 1q176 13 289 106q93 74 145 148v-2q24 39 35 65q20 49 20 97q0 8 -1 16q-4 56 -31 98q-33 44 -86 70q-57 36 -162 39q-105 0 -275 -29zM500 1284h16 q2 0 6.5 1t7.5 1l7 29z" />
<glyph unicode="Q" horiz-adv-x="1517" d="M219 686q30 142 108 277.5t184.5 239t242 166.5t272.5 63q86 -2 160 -25.5t129.5 -63.5t98 -94.5t69 -120t39.5 -138.5q10 -60 10 -123v-26q-3 -77 -19 -155q-60 -274 -258 -463q-135 -123 -284 -170q67 -45 133 -63l2 2q61 -17 180 -17h64q18 0 29 -13t7 -32l-8 -28 q-4 -21 -20.5 -32t-32.5 -11h-63q-145 0 -211 18q-55 14 -126 56t-120 87q-43 -6 -80 -6q-146 2 -261 56t-181 153q-84 127 -84 293q0 80 20 170zM338 686q-17 -78 -17 -146q0 -137 66 -239q50 -81 143.5 -124t219.5 -46q258 6 434 170q164 152 215 385q16 75 16 149.5 t-15 144t-48.5 129.5t-81 105t-117 72t-152.5 29q-125 -4 -240 -60.5t-198.5 -146t-142 -199t-82.5 -223.5z" />
<glyph unicode="R" horiz-adv-x="1134" d="M150 53l276 1303q4 18 20.5 30.5t34.5 12.5q10 0 19 1t12 1q214 31 306 31h11q117 -3 209 -48q73 -41 113 -100q51 -75 51 -167q0 -36 -8 -75q-13 -48 -20 -65q-14 -37 -54 -94q-57 -83 -176 -181l-7 -6l-7 -4q38 -27 54 -73q15 -42 15 -89q-1 -4 -1 -8q-2 -52 -5 -112 q-6 -72 -7 -112v-7q0 -39 10 -95q12 -62 40 -104l2 -2q9 -15 4 -32t-20 -29l-25 -19q-23 -10 -38 -10q-17 0 -25 12q-38 54 -54 128q-14 65 -14 113v12q2 52 11 132q4 82 4 111q0 44 -23 70q-24 28 -78 30q-110 -37 -202 -43h-33q-77 0 -162 23l-115 -535q-5 -19 -20 -32 t-35 -13h-29q-18 0 -28 14q-7 10 -7 21q0 5 1 10zM408 705q94 -22 163 -22q13 0 25 1q170 10 285 104q97 78 145 146q26 32 35 63q21 52 21 101v12q-3 56 -31 96q-31 45 -86 70q-57 36 -162 39q-88 0 -273 -27zM500 1284l24 4h6l7 27z" />
<glyph unicode="S" horiz-adv-x="978" d="M65 83q-1 5 -1 10q0 14 10 28l-4 -4l12 26q15 31 45 31q8 0 16 -2l43 -10l2 2q162 -47 254 -47q64 0 115 10q108 22 189.5 83t121.5 150q13 33 13 64q0 28 -10 54q-22 56 -85 93q-32 19 -124 58l-19 8l-18 6l-54 16q-103 35 -135 58q-90 59 -126 149q-22 55 -22 115 q0 39 9 82q5 27 18 65q34 76 87 139t118 99q123 66 289 66q145 0 289 -48l-2 2q19 -5 23 -22q1 -4 1 -8q0 -14 -10 -31l6 6l-14 -22q-22 -36 -51 -36q-8 0 -17 3h2q-27 11 -100.5 25t-153.5 14q-136 0 -221 -49q-87 -47 -133 -158q-18 -49 -18 -95q0 -35 10 -68 q24 -77 98 -126q18 -13 107 -45l65 -22h-2l17 -7q96 -34 157 -71q94 -56 125 -148q14 -41 13 -83q0 -52 -21 -105q-58 -121 -172.5 -210.5t-249.5 -115.5q-71 -12 -137 -12q-147 0 -332 61v-2q-18 5 -23 24z" />
<glyph unicode="T" horiz-adv-x="1103" d="M281 1358l6 28q5 18 21 32t34 14h1004q16 0 27 -14q8 -11 8 -23q0 -4 -1 -9l-6 -28q-3 -19 -19.5 -31t-33.5 -12h-442l-271 -1272q-4 -18 -19.5 -30.5t-33.5 -12.5h-29q-19 0 -30 12.5t-7 30.5l271 1272h-443q-19 -1 -29 11q-8 9 -8 23q0 4 1 9z" />
<glyph unicode="U" horiz-adv-x="1298" d="M228 393q4 59 8.5 93t11.5 57l178 835q4 21 19.5 32t31.5 11h31q19 0 28.5 -11.5t6.5 -31.5l-181 -843q-13 -67 -13 -124q0 -107 46 -182q44 -51 120 -81.5t173 -30.5q149 0 268 92q28 25 52.5 56t42.5 60.5t33 60t25 56t16.5 45l10.5 31.5l3 12l182 859q3 18 19 30.5 t34 12.5h37q29 -12 29 -37v-6l-183 -859q-65 -258 -233 -401q-153 -129 -360 -129q-261 0 -373 152q-35 52 -51 117q-13 53 -13 103q0 10 1 21z" />
<glyph unicode="V" horiz-adv-x="1185" d="M336 1364l2 -2q-6 15 6.5 33.5t30.5 23.5l31 11q7 1 13 1q13 1 21 -5q13 -8 15 -27l-2 2l141 -1278l711 1280q9 13 27 22q13 6 23 6q5 0 9 -1l29 -9q21 -15 21 -33q0 -12 -9 -26l-739 -1333q-19 -29 -45 -29h-101q-28 0 -35 29z" />
<glyph unicode="W" horiz-adv-x="1859" d="M389 1374q10 50 45 53l27 7q6 1 12 1q11 0 21 -6q14 -9 16 -28l18 -1284h9l561 1255q8 26 43 37h159q29 0 37 -39l-26 -1253h4q295 642 594 1284q8 17 25 26t36 5l25 -9h-2q23 -3 27 -21q1 -4 2 -9q0 -14 -11 -31l4 6l-622 -1339q-15 -29 -45 -29h-123q-18 0 -28 9t-9 26 q6 205 13 628.5t13 628.5h-32l-557 -1253q-24 -39 -54 -39h-125q-17 0 -27 9t-9 24z" />
<glyph unicode="X" horiz-adv-x="1181" d="M143 88l521 635l-258 629h2q-9 12 2.5 33t27.5 26l23 14l-2 -2q19 10 34 6t21 -18l240 -575l475 573q12 18 29 22q5 1 10 1q12 0 22 -7l25 -16q11 -11 11 -25v-6q-2 -18 -17 -32l-510 -623l260 -643v-2q8 -30 -19 -53l-36 -19l2 2q-10 -6 -22 -6q-6 0 -12 1q-18 4 -24 17 l-241 592q-91 -111 -258.5 -314t-229.5 -278q-13 -14 -35 -17q-5 -1 -10 -1q-15 0 -20 8l-15 10q-16 7 -16 24q0 20 20 44z" />
<glyph unicode="Y" horiz-adv-x="1062" d="M315 1358q0 14 10 30t27 25l23 12l-2 -2q12 6 24 6l10 -1q17 -3 23 -17l250 -653l528 653q12 13 33 17q6 1 12 1q12 0 19 -6l-2 2l18 -12q15 -12 15 -33q0 -10 -3 -22l-591 -731q-5 -20 -123 -584q-10 -43 -51 -43h-27q-37 0 -37 29q0 6 2 14l121 586z" />
<glyph unicode="Z" horiz-adv-x="1077" d="M37 43l18 86q2 8 19 29l1073 1157h-805q-37 0 -37 31q0 6 2 14l6 29q3 16 19 30.5t35 14.5h901q20 0 30 -14q8 -11 8 -24q0 -3 -1 -7l-15 -68q-4 -19 -22 -35l2 4l-1088 -1171h846q19 0 28 -12.5t5 -32.5l-6 -31q-5 -19 -18.5 -31t-32.5 -12h-930q-18 0 -30 12 q-9 9 -8 22q0 4 1 9z" />
<glyph unicode="[" horiz-adv-x="555" d="M94 -184l365 1708q4 21 19.5 33t35.5 12h336q21 0 31 -12t6 -33l-8 -31q-3 -20 -18 -31.5t-36 -11.5h-260l-332 -1559h261q19 0 29 -13.5t7 -31.5l-8 -30q-3 -20 -17.5 -31.5t-35.5 -11.5h-336q-19 0 -30.5 11.5t-8.5 31.5z" />
<glyph unicode="\" horiz-adv-x="610" d="M276 1337q-6 13 6 31t27 25l29 12l-4 -2q26 4 41 -6l6 -11l231 -1323l-2 7q7 -14 -4.5 -34.5t-27.5 -25.5l-29 -10h-31l-12 16l-230 1325v-4z" />
<glyph unicode="]" horiz-adv-x="548" d="M-61 -184l8 30q3 18 17.5 31.5t33.5 13.5h260l332 1559h-262q-41 0 -35 43l8 31q9 45 51 45h336q21 0 32 -12t7 -33l-365 -1708q-3 -20 -18.5 -31.5t-36.5 -11.5h-334q-40 0 -34 43z" />
<glyph unicode="^" horiz-adv-x="1058" d="M164 567q0 12 10 29l-2 -2l582 895v-2q17 31 45 31h71q14 0 23.5 -9t9.5 -22v2l203 -895l-2 2q7 -30 -10 -43q-17 -17 -31 -23l-23 -6q-4 -2 -16 -2q-25 0 -35 17l-186 833l-531 -819q-14 -18 -33.5 -25.5t-33.5 0.5l6 -4q-4 1 -8 3l-6 3q-12 6 -21.5 17t-11.5 20z" />
<glyph unicode="_" horiz-adv-x="1437" d="M119 -117l8 31q3 18 19 29.5t34 11.5h1020q19 0 28.5 -11t6.5 -30l-8 -31q-3 -18 -18 -30.5t-33 -12.5h-1020q-17 0 -28.5 13t-8.5 30z" />
<glyph unicode="`" horiz-adv-x="296" d="M329.5 1585q6.5 20 22.5 31h-2l25 16q17 12 37.5 8t25.5 -18q66 -113 72 -238q4 -83 -29 -239l-8 -37q-3 -18 -20.5 -31.5t-32.5 -13.5h-29q-18 0 -28 13t-7 32l9 37q30 132 28 209q-6 102 -61 200l2 -2q-11 13 -4.5 33z" />
<glyph unicode="a" d="M199 489q49 231 178 365q118 121 278 121q95 0 181 -49.5t139 -134.5l39 190q10 43 53 43h27q20 0 28 -12q6 -8 5 -19q0 -6 -1 -12l-198 -938q-10 -43 -51 -43h-27q-20 0 -29.5 11.5t-5.5 31.5l31 141q-89 -83 -196 -133.5t-201 -50.5q-75 0 -134.5 31.5t-93.5 89.5 q-42 76 -42 190q0 80 20 178zM309 487q-17 -85 -17 -151q0 -91 32 -148q47 -77 147 -77q83 0 175.5 48.5t166 137t96.5 190.5q8 37 8 73q1 62 -23 118q-36 88 -108 137t-155 49q-100 0 -180 -80q-94 -89 -142 -297z" />
<glyph unicode="b" horiz-adv-x="1007" d="M150 43l280 1323q5 19 19.5 31t33.5 12h27q19 0 28 -12t5 -31l-121 -575q86 85 193 134.5t204 49.5q157 0 225 -121q45 -77 45 -191q0 -79 -22 -176q-49 -225 -178 -366q-58 -58 -130.5 -89.5t-146.5 -31.5q-94 0 -180.5 50.5t-138.5 133.5l-31 -141q-10 -43 -51 -43h-27 q-18 0 -28 12q-7 8 -7 20q0 5 1 11zM356 487q-8 -36 -8 -71q0 -39 10 -77q18 -71 59 -120t98.5 -78.5t119.5 -29.5q103 0 180 77q93 93 141 299q18 87 18 154q0 90 -32 143q-49 80 -147 80q-83 0 -175.5 -49t-166.5 -137.5t-97 -190.5z" />
<glyph unicode="c" horiz-adv-x="966" d="M197 506q59 279 262 409q156 105 381 105q108 0 239 -29q2 0 4.5 -1t3.5 -1q17 -9 23 -25q2 -7 2 -14q0 -8 -4 -16l-14 -29q-14 -34 -48 -34q-6 0 -12 1q-5 2 -30.5 9t-80 14.5t-108.5 7.5q-178 0 -305 -80q-150 -103 -197 -317q-14 -66 -14 -120q0 -126 74 -193 q86 -74 266 -74q58 0 118 7t91 14l31 7q15 4 29 -4.5t20 -25.5v-31v-4q-6 -27 -43 -49l-17 -4q-134 -29 -254 -29q-219 0 -329 98q-105 94 -105 262q0 67 17 146z" />
<glyph unicode="d" horiz-adv-x="1007" d="M119 487q49 232 178 367q118 121 278 121q95 0 181 -49.5t139 -134.5l121 575q5 19 19.5 31t33.5 12h27q19 0 28 -12q6 -8 6 -18q0 -6 -2 -13l-280 -1323q-10 -43 -51 -43h-27q-19 0 -29 11.5t-6 31.5l31 141q-89 -83 -196 -133.5t-201 -50.5q-74 0 -134.5 31.5 t-93.5 89.5q-42 81 -42 195q0 78 20 171zM229 487q-17 -85 -18 -151q0 -91 33 -148q47 -77 147 -77q83 0 175.5 48.5t166 137t96.5 190.5q8 37 8 73q1 62 -23 118q-36 88 -108 137t-155 49q-100 0 -180 -80q-94 -89 -142 -297z" />
<glyph unicode="e" horiz-adv-x="1099" d="M202 412q3 60 9 93t12 56q1 8 7 28t22 59.5t38.5 79.5t60 88t81.5 85q148 121 352 121q200 0 285 -123q48 -73 48 -178q0 -55 -13 -119q-4 -15 -8 -31.5t-7.5 -28.5t-3.5 -14q-16 -32 -51 -32h-710q-5 -37 -6 -74v-14q0 -32 4 -70q4 -47 24 -89.5t53 -72.5 q74 -61 197 -61q131 0 326 65q19 4 34 -5t17 -21l4 -29q1 -4 1 -8q0 -28 -38 -45q-210 -72 -367 -72q-172 0 -262 84q-46 40 -72.5 100t-32.5 114q-4 37 -5 77q0 18 1 37zM354 612h637q8 46 8 84q0 76 -32 127q-55 82 -209 82q-75 0 -139.5 -21.5t-106.5 -52t-76 -73 t-51.5 -76.5t-30.5 -70z" />
<glyph unicode="f" horiz-adv-x="659" d="M193 872l6 29q10 41 51 41h135l2 6q54 292 215 395h-2q92 64 215 64q49 0 105 -14q14 -8 19 -23q2 -6 2 -11q0 -9 -5 -18l-12 -26q-11 -20 -29 -28t-37 -1q-32 8 -67 8q-84 0 -140 -41q-119 -77 -149 -299l-4 -12h227q19 0 28 -11t5 -30l-6 -29q-10 -41 -50 -41h-221 q-32 -180 -65 -333q-25 -120 -52 -231t-42 -167t-19 -63q-9 -37 -47 -37l-35 2q-34 7 -24 49q2 11 18 74t43 174t51 223q6 32 18.5 92t22.5 111t19 106h-142q-20 0 -29 11q-7 7 -7 18q0 5 2 12z" />
<glyph unicode="g" horiz-adv-x="1107" d="M27 -301l12 27v-2q9 21 21.5 27.5t37.5 6.5q135 -30 289 -30q215 0 318 69q70 47 90 117q34 122 71 297q-93 -97 -209 -154t-223 -57q-162 0 -235 127q-47 82 -47 206q0 80 20 177q55 252 188 385q130 127 291 127q100 0 192 -55t148 -146l27 144l2 10q3 18 17.5 31.5 t33.5 13.5h27q20 0 30 -12q6 -8 6 -20q0 -5 -1 -11l-3 -6q-62 -355 -120 -625q-62 -295 -105 -440q-37 -127 -151 -201q-152 -92 -392 -92q-74 0 -150.5 8t-114 14.5t-50.5 10.5h4q-17 3 -23 24q-2 8 -2 15q0 11 5 18zM287 510q-19 -90 -19 -160q0 -95 35 -153 q48 -82 154 -82q65 0 139 31t139.5 82.5t116 126t68.5 155.5q8 39 8 76q0 41 -10 80q-18 76 -61.5 127.5t-104 82.5t-125.5 31q-106 0 -191 -82q-102 -102 -149 -315z" />
<glyph unicode="h" horiz-adv-x="1044" d="M186 43q-1 18 -1 39q0 86 20 219q2 13 18 96l205 967q5 19 19.5 31t33.5 12h27q20 0 29 -12t4 -31l-125 -588l28 29q140 119 330 119q214 0 289 -150v-2q30 -61 30 -152q0 -70 -18 -157q-24 -107 -102.5 -278.5t-120.5 -174.5q2 0 2.5 -1t-4.5 -1l-29 2q-11 8 -14 25.5 t2 30.5q1 2 5 8t5 8l-2 -4q112 218 148 389q15 71 15 127q0 72 -24 121q-52 98 -204 98q-148 0 -242 -82q-126 -111 -180 -360q-2 -10 -6.5 -32t-6.5 -32q-9 -56 -13 -115.5t-4 -90.5l1 -31q0 -19 -12.5 -35t-30.5 -19l-25 -6q-50 0 -47 33z" />
<glyph unicode="i" horiz-adv-x="356" d="M119 49q49 163 108 426q47 219 76 430q3 19 6 42t4 26q10 37 47 45q3 0 15.5 1t15.5 1h6q16 0 26 -9.5t9 -27.5t-10 -77t-29 -172.5t-45 -231.5q-60 -269 -117 -463q-6 -17 -21.5 -28t-31.5 -11l-26 2q-20 0 -30 12q-6 8 -5 19q0 7 2 16zM287 1231l2 6q0 17 2 27l2 16 l2 6q1 3 3 8.5t3 8.5q10 23 29 45l8 6q2 4 10 8q12 12 25 20l26 13l15 6q19 6 55 10h6h4q11 0 23 -4q21 -4 33 -16l6 -9l8 -4q8 -8 16 -24q2 -2 2 -4q4 -4 8 -21q7 -14 7 -22v-4q0 -11 -2 -17l-2 -6l-3 -16l-8 -27l-6 -12l-10 -17l-6 -12l-6 -6l-11 -14l-10 -11 q-16 -15 -33 -26l-10 -6q-17 -10 -31 -13l-16 -4h-12h-4h-21q-3 0 -6.5 1t-5.5 1q-1 0 -3 1t-3 1q-4 0 -6 2l-17 6l-10 5l-18 12l-9 8l-8 12q-4 6 -12 25v6l-4 12z" />
<glyph unicode="j" horiz-adv-x="544" d="M-88 -322q9 44 35 52q56 9 102 23.5t77 28.5t56 37t39 39t27 43.5t17.5 41.5t13.5 43l18 53q13 36 65 274q94 438 132 652l2 16q8 38 51 43l28 2q16 0 25.5 -14t9.5 -29q-81 -403 -135 -659q-55 -262 -69 -304q-13 -34 -15 -43q-34 -103 -66 -153q-105 -163 -372 -205 q-24 0 -33 9q-8 7 -8 19v5v26zM459 1231l2 6q0 17 2 27l2 16l2 6q1 3 3 8.5t3 8.5q10 23 29 45l8 6q2 4 10 8q12 12 25 20l26 13l15 6q18 6 53 10h8h4q13 0 21 -4q23 -4 35 -16l6 -9l8 -4q3 -3 8.5 -12t7.5 -12q2 -2 2 -4q5 -5 9 -21q4 -10 4 -17v-5v-4v-17l-2 -6l-2 -16 l-11 -27l-4 -12l-10 -17l-6 -12l-6 -6l-11 -14l-12 -11q-11 -14 -31 -26l-10 -6q-17 -10 -31 -13l-16 -4h-12h-4h-21q-3 0 -6.5 1t-5.5 1q-1 0 -3 1t-3 1q-4 0 -6 2l-17 6l-12 5q-4 4 -16 12l-9 8l-8 12q-4 6 -12 25v6l-4 12z" />
<glyph unicode="k" horiz-adv-x="860" d="M174 10h2q-10 5 -10 43q0 80 45 309q97 446 233 1002q6 20 21 30.5t31 10.5h24q19 0 28.5 -12t6.5 -31q-142 -579 -197 -836q161 144 541 447h-2q21 16 36.5 14t22.5 -14l13 -12q6 -14 6 -27q0 -22 -17 -41q-232 -182 -383 -311q16 -68 86 -191t127 -208.5t64 -92.5 q4 -6 4 -15q0 -20 -25 -52l-14 -11q-23 -11 -39 -11q-18 0 -26 15l2 -2q-12 14 -61.5 88t-119 194t-98.5 200q-134 -114 -151 -138q-57 -265 -52 -276q2 -10 2 -19q0 -28 -22 -45l-31 -12q-15 -6 -26 -6q-14 0 -21 10z" />
<glyph unicode="l" horiz-adv-x="266" d="M55 35q5 126 84 500q36 169 84.5 375.5t77.5 322.5t37 143q15 33 53 33l33 -2q26 -10 26 -32q0 -5 -1 -11l-5 -21q-29 -106 -90.5 -357t-109.5 -478q-69 -332 -74 -457q-5 -20 -18.5 -33.5t-32.5 -13.5l-27 -4q-18 0 -28.5 10.5t-8.5 24.5z" />
<glyph unicode="m" horiz-adv-x="1753" d="M170 16q-1 4 -1 12q0 60 58 332q34 157 146 658q6 19 22.5 31t32.5 12h29q18 0 26.5 -13.5t5.5 -31.5l-24 -105l-2 -8q134 117 307 117q166 0 242 -105q25 -44 32 -79q71 88 167 136t202 48q80 0 153.5 -32t104.5 -99v2q29 -63 29 -161q0 -102 -31 -241q-2 -15 -29 -145 l-28 -135q-10 -48 -21 -88l-2 -6q-7 -41 -22 -72h2q-9 -19 -26 -27.5t-34 -3.5h2l-30 4q-15 11 -20 27t7 37l-6 -8q2 7 6.5 22.5t6.5 22.5v8q7 25 20 84l29 133q1 6 10.5 54t13.5 73l4 20q18 77 26 123q7 40 6 94v14q-1 62 -21 105q-19 40 -69.5 60t-104.5 20 q-74 0 -136 -30.5t-97 -68.5t-63.5 -90.5t-37 -77.5t-14.5 -48q-1 -3 -1 -4q-72 -322 -82 -371q-28 -128 -28 -149l2 2q0 -19 -13 -35t-30 -19l-29 -10q-19 -7 -35 3t-16 26l2 -6q-3 17 25 149q8 41 51 236q8 38 21.5 98.5t17.5 77.5l2 6q1 6 3 16t4 24t3.5 30t2.5 33.5 t-1 36.5t-5.5 36.5t-10.5 34.5t-17 31q-48 69 -162 69q-62 0 -115.5 -20t-89.5 -54t-62.5 -68.5t-43.5 -75t-24 -60t-12 -37.5q-1 -3 -1 -4q-13 -64 -37.5 -175.5t-33.5 -154.5q-25 -101 -31 -137l-12 -53q2 -19 -10 -35t-29 -19l2 2l-33 -14q-6 -1 -11 -1q-19 0 -32 17z " />
<glyph unicode="n" horiz-adv-x="1050" d="M156 25q0 48 61 335q100 460 145 656q5 15 22 30t32 15l26 -2q20 0 29 -12t6 -31q-23 -99 -24 -107l-2 -8q137 117 307 117q164 0 237 -105q26 -41 38 -93q11 -47 10 -91q1 -5 1 -11q-2 -50 -5.5 -78.5t-8.5 -51.5q-16 -60 -31.5 -129t-33.5 -153t-23 -109 q-27 -121 -27 -131l3 2q1 -13 -11 -29.5t-28 -24.5q-37 -12 -45 -12q-12 0 -21.5 9t-11.5 20q-1 3 -1 8q0 31 23 137q8 41 51 236q37 158 41 176l1 6q1 6 3 16t3.5 23.5t2.5 29.5t1.5 33.5t-1 36t-5 36t-10 35.5t-15.5 32q-57 67 -162 67q-54 0 -102.5 -16.5t-81 -39.5 t-62 -59t-45 -62t-30.5 -63t-18 -47.5t-8 -28.5q-1 -1 -1 -2v-1l-2 -15q-51 -215 -98 -436q-13 -65 -13 -71q0 -16 -12 -30t-29 -20l-20 -8q-14 -5 -24 -5q-23 0 -31 26z" />
<glyph unicode="o" horiz-adv-x="1140" d="M198 233q-15 53 -14 115q0 63 15 137q26 132 86 228v-2q38 62 82 108q75 81 170 133q119 66 243 66h21q87 -3 157 -41.5t113 -106.5q60 -93 60 -224q0 -70 -17 -150q-61 -292 -274 -422q-50 -30 -107.5 -48t-88 -22t-52.5 -4q-164 0 -264 63t-130 170zM315 485 q-14 -63 -13 -116q0 -252 314 -252q96 0 179 51q152 90 202 328q16 74 16 135q0 100 -42 164q-64 100 -203 110q-100 0 -190 -51q-97 -58 -132 -96q-10 -11 -63 -90v2q-46 -78 -68 -185z" />
<glyph unicode="p" horiz-adv-x="1077" d="M57 -391l291 1372q4 20 19 31.5t34 11.5h27q19 0 28 -11.5t5 -31.5l-39 -190q86 85 193 134.5t204 49.5q154 0 225 -121q45 -77 45 -191q0 -79 -22 -176q-50 -238 -178 -366q-121 -121 -277 -121q-94 0 -180.5 50.5t-138.5 133.5l-123 -575q-10 -41 -51 -41h-27 q-19 0 -29 12q-7 8 -7 19q0 5 1 10zM356 487q-8 -36 -8 -71q0 -39 10 -77q18 -71 59 -120t98.5 -78.5t119.5 -29.5q100 0 180 77q93 93 141 299q18 87 18 154q0 89 -32 143q-49 80 -147 80q-83 0 -175.5 -49t-166.5 -137.5t-97 -190.5z" />
<glyph unicode="q" horiz-adv-x="1001" d="M133 487q48 229 178 367q121 121 277 121q96 0 182 -49.5t139 -134.5l39 190q10 43 53 43h27q19 0 28 -12q6 -7 6 -19q0 -6 -1 -12l-291 -1372q-10 -41 -51 -41h-27q-20 0 -29.5 11t-5.5 30l123 575q-89 -83 -196.5 -133.5t-202.5 -50.5q-154 0 -225 121q-44 79 -44 193 q0 78 21 173zM244 487q-18 -85 -18 -152q0 -89 32 -147q49 -77 145 -77q84 0 177 48.5t167 137t97 190.5q8 36 8 71q0 39 -10 77q-18 71 -59 120.5t-99 79t-121 29.5q-98 0 -178 -80q-96 -92 -141 -297z" />
<glyph unicode="r" horiz-adv-x="630" d="M145 43l199 934q4 20 19 31.5t34 11.5h29q16 0 27.5 -12t7.5 -31l-23 -103l6 5q52 43 112.5 71.5t113 39.5t82 14.5t51.5 3.5q14 0 26 -16q10 -13 10 -24q0 -3 -1 -5l-7 -35q-7 -17 -22.5 -28t-30.5 -11q-23 0 -53 -3t-97 -26.5t-118 -64.5q-104 -82 -139 -244l-109 -508 q-4 -19 -19.5 -31t-31.5 -12h-29q-20 0 -30 12q-8 8 -8 21q0 4 1 10z" />
<glyph unicode="s" horiz-adv-x="821" d="M72 72q-2 5 -2 12q0 10 6 22l12 29q22 33 57 33q165 -53 256 -53q28 0 60 4q70 15 124.5 55t78.5 98q11 21 9 40t-7.5 33t-17 26t-20.5 18.5t-18 11.5q-43 24 -96 43l-49 17q-13 4 -31.5 12.5t-39 18t-27.5 12.5q-77 55 -101 135q-10 34 -10 69q0 49 20 101 q43 112 148 166q83 47 209 47q28 0 59 -3t55 -7t51 -10.5t42.5 -10.5t34 -9.5t20.5 -6.5l-8 2l14 -2q22 -13 22 -32q0 -13 -10 -30l7 7l-17 -27q-8 -17 -27 -24.5t-36 -0.5q-2 1 -18 5l-30 7.5t-38 8.5t-46 8t-50 5.5t-54 2.5q-90 0 -143 -31q-57 -29 -74 -83 q-11 -31 -12 -61q-1 -23 7 -45q16 -51 64 -83q29 -18 97 -37q10 -2 28 -8l35 -14q69 -33 82 -41q72 -42 94 -112q9 -28 9 -57q0 -42 -19 -85q-38 -90 -123 -155t-192 -87q-35 -6 -78 -6q-105 0 -285 55v-2q-16 5 -22 19z" />
<glyph unicode="t" horiz-adv-x="677" d="M201 946l6 29q4 21 19 33t34 12h174l51 233q3 20 17 32.5t33 12.5h30q38 0 38 -33q0 -5 -1 -12l-51 -233h285q16 0 28 -12q9 -9 9 -23q0 -5 -1 -10l-6 -29q-4 -19 -21 -31t-34 -12h-285l-135 -637q-6 -31 -3.5 -54.5t18.5 -35.5q53 -57 239 -57q16 0 27.5 -13t7.5 -32 l-6 -29q-4 -20 -20 -32.5t-33 -12.5q-104 0 -181.5 17t-130.5 69h2q-26 24 -36 57t-8.5 58t7.5 61q4 24 9 50.5t12 58.5t10 49l8 31l97 452h-174q-19 -1 -29 11q-7 8 -7 21q0 5 1 11z" />
<glyph unicode="u" horiz-adv-x="1085" d="M194 211q-1 20 -1 38q0 25 3 45q5 34 17 87q3 13 17 80.5t20 103.5l55 260q3 30 14 78q15 63 19 76q6 19 21 30t32 11l37 -2q32 -11 25 -45q-3 -12 -8.5 -35.5t-8.5 -34.5q-9 -39 -12 -72l-57 -264q-8 -55 -37 -188q-17 -68 -17 -115q0 -41 13 -67q22 -39 98 -62 q41 -14 121 -14q107 0 186 67v-2q97 84 143 258l5 17q63 269 133 518q6 19 25 32q15 10 28 10q4 0 8 -1h-8q5 0 17.5 -1t17.5 -1q28 -6 28 -30q0 -7 -2 -15q-81 -272 -155 -619q-41 -189 -41 -264q0 -16 2 -27q1 -14 -12 -30t-29 -21l-29 -12q-7 -1 -13 -1q-13 -1 -21 5 q-13 8 -15 21q-3 16 -3 35q0 26 5 59l-18 -15q-116 -98 -277 -98q-81 0 -151 17q-112 35 -152 102q-19 37 -23 86z" />
<glyph unicode="v" horiz-adv-x="997" d="M250 952q-2 17 10 36t31 20q26 9 31 12q4 1 8 1q12 -1 20 -7q12 -8 17 -23l147 -874h14l486 874l-2 -2q15 31 59 31l25 -10l6 -2q14 -7 20 -19q3 -6 2 -11q0 -5 -2 -9l-522 -940q-14 -29 -45 -29h-117q-10 0 -21.5 9t-13.5 18z" />
<glyph unicode="w" horiz-adv-x="1640" d="M309 961l4 -7q-7 20 5.5 37.5t33.5 22.5l29 8q37 0 47 -29l49 -876l436 852q19 30 48 30h100q14 0 23.5 -8.5t11.5 -21.5l67 -852h6l416 872q9 17 27 27q13 8 26 7q5 0 9 -1l26 -8q17 -10 21 -22q1 -5 1 -10q0 -9 -3 -21l-445 -932q-15 -29 -45 -29h-119q-15 0 -25.5 8.5 t-13.5 20.5l-59 841l-434 -841q-15 -29 -45 -29h-109q-35 0 -39 29z" />
<glyph unicode="x" horiz-adv-x="1044" d="M164 86l381 412l-232 438v-4q-8 9 -8 20q0 18 25 41l28 17q16 7 28 7q4 0 8 -1q15 -3 22 -15l2 3l215 -408q300 324 379 412q22 13 37 13t24 -13l-4 2q3 -1 6.5 -5.5t7.5 -5.5q11 -11 13 -31q0 -2 1 -4q0 -17 -10 -28l-403 -438l221 -412v2q9 -12 2 -32.5t-24 -30.5h2 l-31 -17q-14 -9 -30.5 -5.5t-24.5 15.5v-2l-203 385l-354 -385v2q-12 -16 -32 -20q-4 -1 -9 0q-15 0 -25 12l2 -2l-18 17h2q-11 8 -11 23q0 18 13 38z" />
<glyph unicode="y" horiz-adv-x="942" d="M33 -336l2 -8q-3 6 -3 12q0 10 8 22q12 20 30 25h-2q74 27 140.5 68.5t108.5 80t79.5 84.5t54 72t30.5 52l-182 874l2 -4q-8 15 4.5 37.5t32.5 26.5l-8 -5l32 13q7 2 14 2q10 0 21 -4q18 -8 17 -27q26 -129 77 -370t80 -382q67 116 213 368t222 386l-2 -2q12 31 61 31 l25 -8l6 -7q17 -17 17 -30q0 -5 -3 -10l-520 -904l4 4q-8 -19 -25 -50t-61 -88.5t-98.5 -110.5t-143.5 -110.5t-190 -94.5q-39 0 -41 28z" />
<glyph unicode="z" horiz-adv-x="929" d="M66 45l14 66q3 18 24 34l-2 -2l811 760h-647q-19 0 -29.5 13t-5.5 30l7 31q4 20 19 31.5t34 11.5h747q16 0 28 -12q9 -9 8 -22q0 -4 -1 -9l-16 -72q0 -17 -23 -35h-2l-796 -751h595q20 0 30 -12.5t5 -32.5l-6 -29q-9 -45 -53 -45h-705q-20 0 -30 12q-7 9 -7 22q0 5 1 11z " />
<glyph unicode="{" horiz-adv-x="561" d="M127 657l8 31q3 19 19 32t36 13q11 0 30 3.5t53 18t59 38.5q47 54 61 129q13 63 10 161q-8 78 9 158q25 115 102 195q34 36 78 63t79 40.5t71 21t51 9t22 1.5q19 0 29 -12.5t6 -32.5l-6 -31q-4 -21 -19 -33q-10 -12 -32 -12q-14 -1 -36 -4t-74.5 -24.5t-86.5 -57.5 q-46 -53 -61 -125q-11 -54 -11 -123q9 -111 -10 -194q-24 -122 -102 -203q-19 -24 -47 -43q45 -30 71 -78q40 -82 17 -197q-16 -73 -58 -155h2q-49 -97 -61 -164q-16 -82 8 -129q14 -22 41 -36t45 -17.5t31 -3.5q15 0 25.5 -14.5t7.5 -31.5l-7 -32q-4 -19 -20.5 -31 t-32.5 -12q-17 0 -36.5 2.5t-53.5 11.5t-65.5 33t-51.5 59q-38 80 -14 201q17 77 72 197q32 61 45 122q15 77 -8 125q-20 35 -64 56t-68.5 24.5t-35.5 3.5q-15 3 -23 15.5t-4 31.5z" />
<glyph unicode="|" horiz-adv-x="270" d="M74 -133q218 959 276 1235q86 408 86 461q6 22 8 26l2 6q17 24 43 31h25l12 -4q12 -5 14.5 -27t-18 -152t-73.5 -378q-113 -525 -267 -1198q-6 -18 -20 -29.5t-31 -11.5h-25q-18 0 -26 12q-10 10 -6 29z" />
<glyph unicode="}" horiz-adv-x="561" d="M-18 -182l6 32q3 18 18.5 32t32.5 14q13 0 33 3.5t53 17.5t57 36q44 51 62 129q12 65 6 164h2q-6 90 8 155q22 107 102 197q50 50 105 80q-21 21 -31 41q-41 80 -16 203q22 96 72 194q32 68 43 123q16 79 -9 125q-19 36 -58.5 57.5t-69.5 24.5l-29 4q-25 0 -31 12 q-7 9 -2 33l6 31q4 20 20 32.5t35 12.5q7 0 21.5 -1.5t46.5 -9t62 -21t62 -40.5t52 -63q42 -83 18 -195q-16 -77 -59 -158q-46 -101 -59 -161q-15 -78 8 -129q14 -24 42 -38.5t46 -18t29 -3.5q41 0 34 -45l-4 -31q-9 -38 -47 -47q-11 0 -37 -3.5t-79 -24.5t-87 -56 q-46 -49 -61 -125q-13 -62 -10 -122q9 -111 -10 -197q-24 -120 -101 -201q-44 -46 -104.5 -72t-91 -30t-56.5 -4q-16 0 -25 12t-5 31z" />
<glyph unicode="~" horiz-adv-x="1245" d="M195 483q0 3 6.5 21.5t22.5 49.5t37.5 63t57 63.5t76.5 50.5v-2q66 25 115 25q124 0 281 -117q128 -98 213 -98q31 0 55 12q19 10 35.5 28.5t26.5 37.5t17 37.5t10 29t3 12.5q3 19 16.5 30t32.5 11h23q20 4 33 -9t10 -32l-1 -2q-36 -134 -122 -208q-24 -21 -51 -35 q-60 -27 -111 -27q-123 0 -274 115q-125 98 -222 98q-25 0 -61 -12q-66 -27 -115 -146l-12 -18q-9 -13 -23.5 -20.5t-25.5 -4.5q-4 0 -11 1t-10 1q-15 0 -28 13q-11 11 -4 32z" />
<glyph unicode="&#xa1;" horiz-adv-x="376" d="M66 -342l202 932q6 18 21 29.5t33 11.5h34q33 -4 25 -41l-203 -932q-6 -18 -21 -30.5t-32 -12.5h-35q-31 12 -24 43zM233 836v2v16l3 8l2 15l10 28l4 10l10 19l6 10l6 6l13 17l8 8q10 12 33 26l12 7q1 1 29 12q3 0 7.5 1t6.5 1t6 1t6 1h4q15 0 21 -2q10 0 14 -2h6l6 -2 l17 -6l12 -4l17 -13l8 -8l6 -12q6 -4 14 -25v-6l4 -10l2 -25l-2 -4q0 -18 -2 -28l-2 -15l-2 -8q-1 -3 -3 -8t-3 -8q-6 -20 -29 -43l-8 -9q-6 -6 -10 -8q-4 -5 -25 -18q-20 -12 -26 -15l-15 -6q-8 -3 -53 -8h-8h-4q-4 0 -12 1t-9 1q-20 3 -34 17l-7 8l-6 6q-4 2 -6.5 5.5 t-6 9t-5.5 7.5q-2 3 -2 5q-2 3 -3.5 6l-3.5 7t-3 7q-3 12 -3 25z" />
<glyph unicode="&#xa2;" horiz-adv-x="884" d="M135 508q59 279 262 410q125 80 265 96l47 221q3 19 17 31t34 12h28q20 0 29 -12t6 -31l-45 -213h4q60 0 122 -8.5t89 -15t41 -11.5q15 -9 18 -18t-1 -31l-15 -31q-9 -17 -35 -25t-49 -1q0 2 -24.5 7.5t-73 11t-98.5 5.5q-180 0 -307 -80q-150 -103 -197 -317 q-44 -216 59 -315q93 -74 264 -74q60 0 121 7t92 14l31 7q15 4 29 -4.5t20 -25.5v-31v-4q-10 -40 -45 -47q-144 -33 -262 -35l-41 -186q-10 -43 -51 -43h-29q-20 0 -29 11.5t-5 31.5l40 192q-133 14 -223 94q-147 129 -88 408z" />
<glyph unicode="&#xa3;" horiz-adv-x="1005" d="M56.5 38q-4.5 14 2.5 34.5t29 38.5q10 8 31 8q1 0 3 1t3 1h88q64 15 100 51q82 73 117 234q20 96 23 241h-220q-17 0 -28 13t-8 32l8 31q3 16 19.5 30.5t33.5 14.5h191q0 127 22 240q43 200 180 307q126 96 297 96q48 0 98 -8.5t76 -16t35 -12.5l-2 4q17 -4 22 -21 t-3 -36q-1 -4 -7.5 -14.5t-7.5 -14.5q-9 -17 -27.5 -25.5t-37.5 -4.5h4q-1 0 -3 1t-3 1q-108 24 -170 24q-133 0 -209 -61q-92 -73 -121 -219q-23 -107 -17 -238l3 -2h333q15 0 26.5 -15t8.5 -30l-8 -31q-3 -18 -19 -31.5t-32 -13.5h-309q-5 -116 -29 -241 q-42 -183 -133 -285q90 0 270.5 -1t269.5 -1q20 0 29 -13t6 -30l-6 -31q-4 -21 -19.5 -33t-33.5 -12l-739 2h-103q-15 4 -22 14h2q-9 8 -13.5 22z" />
<glyph unicode="&#xa4;" horiz-adv-x="1228" d="M145.5 118.5q1.5 20.5 18.5 35.5v-2l188 157q-42 91 -10 234q19 98 68 184q26 39 36 49l-129 154q-9 12 -4.5 30.5t19.5 32.5l24 19q13 11 32 10.5t32 -10.5l115 -146q57 40 77 49q104 58 211 58q124 -6 201 -96l174 147q46 24 62 2l18 -20q23 -32 -14 -64v2l-187 -158 q29 -96 2 -235q-30 -137 -100 -227l133 -164q5 -17 2 -28.5t-18 -29.5l-27 -24q-20 -8 -30 -7.5t-25 9.5l-123 151q-4 -4 -15 -9.5t-16 -8.5q-97 -59 -205 -59q-160 0 -243 69l-181 -151q-45 -25 -63 -2l-16 20l6 -2q-14 10 -12.5 30.5zM459 543q-30 -139 29 -207t186 -68 q76 0 137 39q114 68 152 244q30 143 -21 225q-54 77 -145 80q-80 0 -144 -37q-61 -34 -98 -74q-10 -10 -47 -63q-30 -50 -49 -139z" />
<glyph unicode="&#xa5;" horiz-adv-x="972" d="M135 410l6 26q3 19 16.5 31t32.5 12h330l37 168h-330q-18 0 -26.5 12t-5.5 31l6 29q5 19 18.5 31t32.5 12h287q-36 93 -108.5 282.5t-108.5 282.5q-11 42 28 59l29 17q34 16 51 -17l217 -571l453 559q28 28 61 12l17 -10q14 -11 17 -31t-9 -34l-449 -549h283 q16 0 27.5 -12.5t7.5 -30.5l-6 -29q-3 -18 -20.5 -30.5t-33.5 -12.5h-323l-37 -168h323q16 0 28 -12.5t9 -30.5l-6 -26q-3 -17 -21 -31t-34 -14h-324q-11 -55 -32 -161.5t-33 -160.5q-4 -19 -19.5 -31t-31.5 -12h-29q-19 0 -28.5 14t-6.5 29l66 322h-330q-18 0 -26 13.5 t-5 31.5z" />
<glyph unicode="&#xa6;" horiz-adv-x="352" d="M90 -188l156 735q4 19 20 31t35 12h29q19 0 28 -12t4 -31l-155 -735q-10 -41 -51 -41h-29q-19 0 -30 11.5t-7 29.5zM309 848l158 733q3 16 19 29.5t34 13.5h29q18 0 28 -13.5t7 -29.5l-158 -733q-3 -18 -18 -31.5t-33 -13.5h-29q-18 0 -29 13.5t-8 31.5z" />
<glyph unicode="&#xa7;" horiz-adv-x="1077" d="M104 -6.5q-6 16.5 2 31.5l21 36q9 18 25 25t32 2q1 0 3 -0.5l6 -1.5l8 -2l-4 2q26 -11 67 -24.5t122 -29.5t149 -16q114 0 176 41q73 45 94 142q27 127 -27 207q-51 68 -174 90h2q-163 27 -266 98q-62 44 -84 122t-4 161q11 49 41 108q24 49 67 94.5t91 69.5 q-17 53 0 149q38 176 172 258q112 68 268 68q71 0 147.5 -13t115.5 -24.5t50 -17.5q26 -10 21 -56l-19 -30q-10 -16 -30.5 -26.5t-36.5 -4.5q-7 4 -41 14t-103.5 22.5t-132.5 12.5q-119 0 -186 -43q-79 -47 -103 -160q-17 -81 15 -124q41 -50 231 -111q68 -20 114.5 -38.5 t98 -47t79.5 -67.5t32 -87q5 -27 -2 -65q-25 -127 -221 -332q32 -102 6 -227q-35 -165 -166 -242q-101 -61 -252 -61q-84 0 -178 18t-141.5 33.5t-63.5 23.5q-15 6 -21 22.5zM375 877q-25 -127 53 -177q83 -59 227 -82h-2q139 -26 207 -94q166 175 160 262q-2 28 -24 52.5 t-65 44.5t-77 32.5t-92 30.5q-174 52 -250 109l2 -2l2 -2q-28 0 -61.5 -32t-53.5 -69q-19 -37 -26 -73z" />
<glyph unicode="&#xa8;" horiz-adv-x="1447" d="M389 1153v25v4q0 18 2 28l4 15v8l3.5 7t2.5 7q10 27 31 45l6 8q7 7 11 9l24 18q16 10 29 14l12 7q15 4 53 8h8h5q12 0 20 -4q23 -3 35 -15l6 -8l8 -6q3 -3 5.5 -6.5t6 -8.5t5.5 -8q2 -2 2 -4q7 -10 10 -20q2 -8 2 -25v-4q3 -6 0 -14v-8l-4 -15l-10 -28l-7 -11l-8 -18 l-6 -10l-6 -6l-10 -17l-11 -10q-17 -17 -32 -27l-13 -6q-9 -6 -28 -10l-15 -4h-12h-4h-20q-3 0 -8 1t-7 1q-1 0 -3 1t-3 1q-6 0 -6 2l-16 6l-13 2q-1 2 -6.5 7t-7.5 8l-8 8l-8 10q-9 12 -15 27v6zM1239 1153v25v4q0 18 2 28l4 15v8l3.5 7t2.5 7q16 32 31 45l6 8q8 8 10 9 q4 3 13.5 9.5t11.5 8.5q12 7 29 14l12 7q19 4 53 8h8h5q12 0 20 -4q23 -3 35 -15l6 -8l8 -6q3 -3 5.5 -6.5t6 -8.5t5.5 -8q2 -2 2 -4q7 -10 10 -20q4 -16 2 -25v-4q3 -6 0 -14v-8l-4 -15l-10 -28l-5 -11l-10 -18l-6 -10l-6 -6l-10 -17l-11 -10q-17 -17 -32 -27l-11 -6 q-13 -7 -30 -10l-15 -4h-12h-4h-21q-3 0 -7.5 1t-6.5 1q-1 0 -3 1t-3 1q-4 0 -6 2l-17 6l-12 2q-1 2 -6.5 7t-7.5 8l-8 8l-9 10q-7 9 -14 27v6z" />
<glyph unicode="&#xa9;" horiz-adv-x="1515" d="M239.5 433.5q-19.5 114.5 8.5 254.5q26 125 80.5 227.5t117 167.5t141 114.5t142.5 74.5t132.5 40.5t99.5 18.5t55 4h8q23 0 50 -2t79.5 -12t99.5 -26.5t101 -51t92 -80.5q135 -167 74 -454q-26 -124 -81 -226.5t-117.5 -168t-141.5 -115t-143 -74.5t-132.5 -40.5 t-100 -19t-54.5 -4.5h-7q-25 0 -67.5 6.5t-106.5 22.5t-131.5 54.5t-115.5 91.5q-63 83 -82.5 197.5zM362 688q-53 -240 58 -369q38 -47 95 -79t114.5 -43.5t88 -15t52.5 -3.5h4q17 0 43 2.5t81 14t108.5 31.5t117.5 60.5t116 94t97.5 139t67.5 189.5q52 241 -57 368 q-38 47 -92.5 79t-110 44.5t-89.5 16.5t-61 4q-21 -1 -45 -3.5t-81.5 -15t-109.5 -32.5t-117.5 -61t-116.5 -94.5t-96 -138t-67 -188.5zM556.5 502.5q-17.5 79.5 4.5 183.5q43 211 199 315q128 78 295 78q86 0 176 -20q1 0 5 -1t5 -1q18 -4 23.5 -19t-2.5 -34v2 q-2 -5 -6.5 -13.5t-6.5 -13.5q-8 -15 -27.5 -27.5t-35.5 -9.5q-72 23 -156 23q-128 0 -219 -58q-102 -70 -133 -221q-35 -156 39 -221q56 -53 186 -53q100 0 184 22q21 0 29 -8h-6q8 -4 14 -18l2 -35l-2 12q0 -23 -2 -33q-13 -21 -39 -30q-1 0 -4 -1.5t-4 -1.5h4 q-100 -24 -200 -24q-158 0 -252 78q-53 50 -70.5 129.5z" />
<glyph unicode="&#xab;" horiz-adv-x="913" d="M139 408q7 48 369 417q14 9 24 9q24 4 35 -11l-4 2l27 -22q16 -22 -12 -58q-264 -264 -320 -337q33 -95 160 -330v4q7 -11 2 -31q-7 -26 -29 -35l-22 -16l4 2q-10 -10 -31 -10q-25 0 -31 18q-184 345 -172 398zM485 408q7 48 369 419q9 7 25 7q12 2 30 -9l27 -22 q11 -20 -12 -58q-264 -264 -320 -337q21 -72 158 -330l-2 4q8 -13 2 -45l-12 -14l-35 -23q-16 -8 -29 -8q-20 0 -27 10q-187 349 -174 406z" />
<glyph unicode="&#xad;" horiz-adv-x="868" d="M260 627l6 28q3 23 19 31q12 12 32 12l496 -2q16 0 27.5 -12.5t7.5 -30.5l-6 -28q-3 -21 -21 -33q-16 -12 -33 -12l-495 4q-18 0 -27.5 11.5t-5.5 31.5z" />
<glyph unicode="&#xae;" horiz-adv-x="1091" d="M246 707q18 86 55 156t81 114.5t97 78.5t98.5 51t91.5 27t69 12.5t38 2.5q22 0 48 -3t72.5 -12.5t92.5 -36t78 -65.5h-2q93 -116 53 -309q-18 -86 -56 -156t-81 -114.5t-98 -78.5t-98.5 -51t-92 -28t-69.5 -13t-39 -3q-22 0 -48 3t-72 13t-91 36.5t-76 65.5h2 q-96 119 -53 310zM360 707q-31 -149 31 -226q26 -30 62 -50t71.5 -27t54 -9t31.5 -2h2q13 0 34 3t63 12t83.5 31.5t84.5 56.5t77 93t50 134q28 144 -35 225q-32 37 -83.5 58.5t-82 25.5t-55.5 4q-14 -1 -30 -2.5t-51 -10t-66.5 -21t-71 -38t-70.5 -58.5t-58 -84.5 t-41 -114.5zM481 524l80 375q31 45 72 45q3 0 6 1t6 1q36 8 80 8q45 -3 74 -18q22 -12 43 -37q35 -58 8 -123q-5 -13 -14 -26q-5 -7 -13.5 -18t-14 -18.5t-9.5 -11.5q8 -18 4 -69v-4q-7 -50 6 -66q10 -11 6.5 -30t-20.5 -33l-25 -17q-14 -12 -37 -12q-18 0 -26 12 q-32 42 -23 131q0 6 1 14l1 7q-24 -6 -51 -6h-8l-4 -2l-2 2l-23 -105q-4 -19 -21 -31t-34 -12h-29q-19 0 -28 11.5t-5 31.5zM635 834q2 0 10.5 1t11.5 1h7l6 26zM643 741q2 -1 5.5 -0.5t4.5 0.5q30 3 54 21q21 17 24 24q6 12 10 15q0 15 -2 18q-8 11 -10 12q-18 7 -37 7 q-5 0 -14 -1t-14 -1zM733 784l12 21l-4 -4q-8 -12 -8 -17z" />
<glyph unicode="&#xb0;" horiz-adv-x="636" d="M371 1341q19 91 99 157.5t173 66.5q91 0 143 -66.5t33 -157.5q-20 -93 -100.5 -159t-171.5 -66q-94 0 -145 65.5t-31 159.5zM485 1341q-11 -46 14 -78t72 -32q44 0 82 32t49 78q9 45 -15.5 77t-68.5 32q-47 0 -85.5 -32t-47.5 -77z" />
<glyph unicode="&#xb1;" horiz-adv-x="1175" d="M53 47l6 29q5 21 22.5 32t33.5 11l977 -2q18 0 28 -12.5t6 -30.5l-6 -29q-4 -20 -21 -32.5t-32 -12.5l-977 4q-18 0 -29 11.5t-8 31.5zM158 788l6 29q4 12 16 31q16 12 37 12l479 -2q17 84 52 248t53 248q10 43 51 43h29q21 0 30 -13q10 -7 7 -30l-109 -496l477 -4 q19 0 28.5 -12t6.5 -31l-6 -29q-4 -15 -19 -30q-15 -13 -36 -13l-478 2q-17 -84 -54 -252.5t-54 -252.5q-3 -17 -20.5 -31.5t-32.5 -14.5l-31 3q-19 0 -27 12q-10 10 -4 31l109 505q-82 0 -238 1t-237 1q-19 0 -28.5 13.5t-6.5 31.5z" />
<glyph unicode="&#xb4;" horiz-adv-x="296" d="M225 1108l8 37q38 170 70 239q51 105 180 240q16 18 37 19t29 -11l14 -16h-2q14 -10 12.5 -31t-16.5 -33l2 2q-100 -100 -147 -200q-29 -66 -62 -209l-8 -37q-3 -19 -17.5 -32t-33.5 -13h-29q-17 0 -28 15t-9 30z" />
<glyph unicode="&#xb6;" horiz-adv-x="962" d="M233 1006q23 124 137.5 221t291.5 149q119 31 192 31q49 0 72 -2h131q19 0 30 -14q9 -9 5 -31l-13 -33l-12 -20q-2 -2 -23.5 -84.5t-62 -252.5t-78.5 -349q-80 -368 -121 -691q-3 -15 -18.5 -30t-32.5 -15l-29 -2q-19 0 -26 11l6 -3q-8 6 -14 31q50 362 123 699 q101 469 163 671q-37 0 -55 2h-33q-9 0 -27.5 1t-25.5 -1q-100 -322 -197 -766q-62 -298 -102 -598q-3 -15 -18.5 -30t-32.5 -15l-29 -2q-19 0 -26 11l4 -3q-7 7 -13 31q35 279 123 676q-152 46 -233 160t-56 248z" />
<glyph unicode="&#xb7;" horiz-adv-x="509" d="M207 559v4q0 19 2 29l2 14l2 8q1 3 3 8.5t3 8.5q8 18 29 43l8 8q6 6 10 8q10 10 25 19q14 8 31 14l10 6q20 5 55 8h6h4q11 0 23 -4q18 0 35 -14l4 -8l8 -6q7 -5 16 -23q2 -2 2 -4q9 -14 11 -21q4 -16 4 -24v-2l1 -9q1 -8 -1 -8l-2 -8l-2 -14l-11 -29l-6 -10l-10 -18 l-6 -11l-6 -6l-11 -16l-8 -8q-17 -17 -35 -29l-10 -4q-10 -7 -28 -12l-17 -5h-12h-4h-21q-3 0 -7.5 1t-6.5 1q-2 3 -4 3q-6 0 -8 2l-17 6l-10 4q-12 6 -16 12l-9 8l-8 13q-6 5 -14 24v6l-2 11z" />
<glyph unicode="&#xb8;" horiz-adv-x="454" d="M-45.5 -376q-3.5 10 0.5 30l14 29q7 19 24.5 28t33.5 4q45 -8 92 -8q60 0 80 14q9 9 12 21q4 23 -3 40.5t-18.5 25.5t-27 13t-23.5 6t-12 1h-25q-10 0 -19.5 7t-12.5 15q-7 22 8 41l123 150q28 28 61 12l23 -16q26 -23 2 -57l-45 -56q111 -49 84 -182q-15 -68 -76 -111 q-65 -41 -158 -41q-54 0 -98 11q-6 2 -21 2q-15 11 -18.5 21z" />
<glyph unicode="&#xbb;" horiz-adv-x="913" d="M137 37q7 33 23 45l-2 -4q258 275 297 330q-28 76 -174 337q-13 38 12 58l35 22q26 10 34 9q14 0 21 -9q200 -360 192 -417q-13 -56 -348 -406q-10 -10 -30 -10q-11 0 -25 8l-27 23zM487 51q5 21 17 31l-2 -4q256 270 299 330q-31 83 -176 337q-15 34 12 58l33 20 q20 16 39 11q15 -4 18 -9q203 -361 195 -417q-12 -53 -342 -398q-18 -18 -39 -18q-19 0 -27 10l4 -2l-20 16q-14 14 -11 35z" />
<glyph unicode="&#xbf;" horiz-adv-x="585" d="M-27 -49q18 86 93 164v-2q29 34 86 77h-2l14 13q73 57 100 90q46 57 90 160q6 19 15 61q8 36 12 59q3 16 18 35q17 13 33 13l31 2q19 0 26 -13q12 -12 7 -28q-1 -10 -5.5 -34.5t-5.5 -31.5q-9 -46 -24 -82q-39 -107 -111 -198q-52 -63 -125 -115h2l-16 -12 q-12 -9 -25 -20.5t-26.5 -24t-18.5 -17.5q-44 -47 -53 -96q-8 -37 4 -88q23 -93 96 -117q31 -14 76 -14q46 0 99 12t83 24l29 13q41 18 55 -17l9 -22q5 -13 -2 -31q-7 -19 -29 -28l-8 -3q-7 -3 -15.5 -7t-22 -9t-28.5 -10t-33 -10.5t-37.5 -10t-39.5 -8.5t-42 -6t-42 -2 q-66 0 -115 21q-121 49 -150 178q-17 65 -2 135zM362 838v2v16l3 8l2 15l10 28l6 11l8 18l6 10l6 6l13 17l8 8q11 14 33 27l12 6q1 1 29 12q4 0 9 1l5 1q2 0 6 1t6 1h4q15 0 21 -2q10 0 14 -2h6q1 0 4.5 -1t4.5 -1l14 -6l12 -4l17 -13l8 -8l6 -12q6 -4 14 -25v-6l4 -10 l4 -25l-2 -4q-1 -5 -2 -14t-2 -14l-2 -15l-2 -8q-1 -3 -3 -8t-3 -8q-6 -20 -29 -43l-8 -9q-6 -6 -10 -8q-4 -5 -25 -18q-18 -11 -26 -14l-15 -7q-8 -3 -53 -8h-8h-4q-4 0 -11 1t-10 1q-20 3 -34 17l-7 8l-6 6q-4 2 -6.5 5.5t-6 9t-5.5 7.5q-2 3 -2 5l-10 20q0 4 -1.5 12.5 t-1.5 12.5z" />
<glyph unicode="&#xc0;" horiz-adv-x="1232" d="M61 66l721 1337q18 29 47 29h146q17 0 27 -8.5t10 -20.5l157 -1335q-2 -17 -13.5 -35.5t-27.5 -22.5l-30 -10q-43 0 -47 29l-56 473h-571l-256 -473q-11 -14 -33 -23t-33 -2l7 -4l-25 10q-37 9 -23 56zM485 621h498l-86 694h-39q-64 -120 -187 -347t-186 -347z M913.5 1994.5q6.5 19.5 22.5 30.5h-2l24 17q17 12 38 8t26 -18q66 -113 72 -238q4 -83 -29 -240l-8 -36q-3 -18 -20.5 -31.5t-32.5 -13.5h-29q-18 0 -28 13t-7 32l8 36q31 136 29 209q-6 101 -62 201l3 -2q-11 13 -4.5 32.5z" />
<glyph unicode="&#xc1;" horiz-adv-x="1232" d="M61 66l721 1337q18 29 47 29h146q17 0 27 -8.5t10 -20.5l157 -1335q-2 -17 -13.5 -35.5t-27.5 -22.5l-30 -10q-43 0 -47 29l-56 473h-571l-256 -473q-11 -14 -33 -23t-33 -2l7 -4l-25 10q-37 9 -23 56zM485 621h498l-86 694h-39q-64 -120 -187 -347t-186 -347zM807 1518 l8 36q1 6 5.5 26.5t6.5 28t6.5 26t7 28t7 26t8 27.5t8.5 25.5t10 27.5t11 25q51 105 180 240q16 18 36.5 19t28.5 -11l15 -17h-2q14 -10 12.5 -30.5t-16.5 -32.5l2 2q-101 -101 -148 -201q-27 -62 -61 -209l-8 -36q-3 -19 -18 -32t-34 -13h-28q-17 0 -28 15t-9 30z" />
<glyph unicode="&#xc2;" horiz-adv-x="1232" d="M61 66l721 1337q18 29 47 29h146q17 0 27 -8.5t10 -20.5l157 -1335q-2 -17 -13.5 -35.5t-27.5 -22.5l-30 -10q-43 0 -47 29l-56 473h-571l-256 -473q-11 -14 -33 -23t-33 -2l7 -4l-25 10q-37 9 -23 56zM485 621h498l-86 694h-39q-64 -120 -187 -347t-186 -347z M689.5 1521q-1.5 19 10.5 31h-2l209 248q21 17 37 17h109q22 0 30 -25v2l91 -242l2 -2q1 -21 -3 -31t-20 -22l-37 -18q-42 -20 -53 16v-2l-80 207h-22q-14 -16 -79 -92t-98 -117h-2q-13 -15 -32.5 -18.5t-32.5 10.5l-12 8q-14 11 -15.5 30z" />
<glyph unicode="&#xc3;" horiz-adv-x="1232" d="M61 66l721 1337q18 29 47 29h146q17 0 27 -8.5t10 -20.5l157 -1335q-2 -17 -13.5 -35.5t-27.5 -22.5l-30 -10q-43 0 -47 29l-56 473h-571l-256 -473q-11 -14 -33 -23t-33 -2l7 -4l-25 10q-37 9 -23 56zM485 621h498l-86 694h-39q-64 -120 -187 -347t-186 -347zM645 1538 q9 32 39.5 74.5t77.5 64.5q38 15 72 15q71 0 153 -64v2q77 -56 107 -43q12 5 26 47q3 16 18.5 30.5t32.5 14.5h31q18 0 27 -12t6 -31l-2 -7q-2 -7 -5 -17t-8 -23t-13.5 -27t-19 -27.5t-26 -26t-33.5 -21.5q-28 -17 -69 -17q-72 0 -154 64v-2q-75 57 -114 41q-9 -5 -17.5 -17 t-13 -21t-4.5 -11q-3 -18 -23 -30t-39 -9h-20q-19 0 -28 17t-1 36z" />
<glyph unicode="&#xc4;" horiz-adv-x="1345" d="M156 94l721 1338q17 28 47 28h145q17 0 27 -8t10 -20l158 -1336q-2 -17 -13.5 -35t-27.5 -22l-31 -10q-44 0 -47 28l-55 473h-572l-256 -473q-11 -14 -32 -22.5t-33 -1.5l6 -4l-25 10q-36 9 -22 55zM469 1589l2 6q0 17 2 27l4 16v9q4 8 6 14q14 29 33 45l6 8q6 6 10 8 q4 5 25 21q25 10 31 12l10 6q22 7 55 11h9h4q7 0 22 -5q19 -3 35 -16l8 -6l4 -6q1 -1 19 -25q2 -2 2 -4q2 -3 5 -10t5 -10q0 -4 1 -12.5t1 -12.5v-4v-14v-9l-4 -16l-10 -27l-6 -12l-9 -18l-6 -13l-6 -4l-12 -16l-10 -10q-11 -11 -31 -27l-12 -6q-14 -9 -31 -12l-17 -4h-12 h-4h-20q-3 0 -7 1t-6 1q-1 0 -3 1t-3 1q-6 0 -8 2l-16 6l-11 4q-12 8 -16 14l-10 6l-9 13q-3 5 -12 26v4l-4 13zM580 649h497l-86 694h-39q-63 -120 -185.5 -347t-186.5 -347zM1235 1589l2 6q0 17 2 27l4 16v9q4 8 6 14q14 29 33 45l6 8q6 6 10 8q4 5 25 21q25 10 31 12 l10 6q22 7 55 11h8h5q7 0 22 -5q19 -3 35 -16l8 -6l4 -6q1 -1 19 -25q2 -2 2 -4q2 -3 5 -10t5 -10q0 -4 1 -12.5t1 -12.5v-4v-14v-9l-4 -16l-10 -27l-7 -12l-8 -18l-6 -13l-6 -4l-12 -16l-11 -10q-15 -15 -30 -27l-13 -6q-15 -9 -30 -12l-17 -4h-12h-4h-21q-3 0 -6.5 1 t-5.5 1q-1 0 -3 1t-3 1q-6 0 -8 2l-17 6l-10 4q-12 8 -16 14l-10 6l-9 13q-3 5 -12 26v4l-4 13z" />
<glyph unicode="&#xc5;" horiz-adv-x="1204" d="M61 66l721 1337q18 29 47 29h146q17 0 27 -8.5t10 -20.5l157 -1335q-2 -17 -13.5 -35.5t-27.5 -22.5l-30 -10q-43 0 -47 29l-56 473h-571l-256 -473q-11 -14 -33 -23t-33 -2l7 -4l-25 10q-37 9 -23 56zM485 621h498l-86 694h-39q-64 -120 -187 -347t-186 -347zM854 1724 q12 59 64 102.5t112 43.5q58 0 92.5 -43.5t22.5 -102.5t-64.5 -102t-111.5 -43q-60 0 -93.5 42.5t-21.5 102.5zM944 1724q-4 -23 8.5 -39t34.5 -16q23 0 42.5 16t23.5 39q5 23 -7.5 38.5t-35.5 15.5q-22 0 -42 -15.5t-24 -38.5z" />
<glyph unicode="&#xc6;" horiz-adv-x="1554" d="M81.5 45q0.5 15 6.5 25l715 1331q18 29 47 29h864q16 0 27.5 -13.5t7.5 -32.5l-6 -28q-3 -18 -20 -31.5t-33 -13.5h-643q10 -86 30.5 -249t30.5 -249h434q18 0 27 -14.5t6 -30.5l-6 -29q-4 -21 -19 -34t-34 -13h-398l70 -569h280q21 0 30.5 -13.5t6.5 -31.5l-8 -31 q-3 -19 -17.5 -31t-35.5 -12h-340q-18 0 -29 12.5t-8 30.5l2 8q-36 326 -47 422h-592q-44 -84 -128 -237.5t-114 -210.5q-11 -29 -57 -29l-27 10h2q-18 3 -22 15q-3 5 -2.5 20zM494 596h514q-66 523 -86 715h-41q-36 -67 -173 -317.5t-214 -397.5z" />
<glyph unicode="&#xc7;" horiz-adv-x="1236" d="M231.5 369q-31.5 146 8.5 340q41 189 137.5 340t230.5 243q218 140 508 140q79 0 161 -11t116 -19.5t47 -12.5l-2 2q12 -5 19 -22t1 -34l-14 -26q-11 -21 -30.5 -29.5t-41.5 0.5l6 -4q-142 37 -284 37q-263 0 -437 -117q-228 -147 -299 -487q-33 -164 -9 -287.5 t100 -196.5q125 -106 366 -106q163 0 330 43q21 4 33 -8t12 -31l6 -23l-2 -6q-5 -33 -37 -45q-22 -7 -63 -16t-130.5 -21t-172.5 -12q-136 0 -248.5 34t-184.5 97q-95 92 -126.5 238zM376.5 -352q-3.5 10 0.5 30l14 29q7 19 24.5 28.5t33.5 4.5q45 -8 92 -8q60 0 80 14 q9 9 12 21q4 23 -3 40.5t-18.5 25.5t-27 13t-23.5 6t-12 1h-25q-10 0 -19.5 7t-12.5 15q-7 22 8 41l123 150q28 28 61 12l23 -17q26 -23 2 -57l-45 -55q111 -49 84 -182q-15 -68 -76 -111q-65 -41 -158 -41q-58 0 -98 10q-6 2 -21 2q-15 11 -18.5 21z" />
<glyph unicode="&#xc8;" horiz-adv-x="999" d="M147 43l287 1346q3 16 19.5 30.5t33.5 14.5h719q20 0 30 -14t7 -31l-8 -31q-6 -43 -53 -43h-643l-107 -502h602q17 0 27.5 -14.5t7.5 -30.5l-6 -31q-4 -20 -20.5 -32.5t-34.5 -12.5h-602l-121 -573h678q17 0 27 -13.5t7 -31.5l-6 -31q-4 -18 -19.5 -30.5t-33.5 -12.5 h-754q-18 0 -29.5 12.5t-7.5 30.5zM870 2138q7 20 23 31h-2l24 16q17 12 38 8t26 -18q66 -113 72 -238q4 -83 -29 -239l-8 -37q-3 -18 -20.5 -31.5t-32.5 -13.5h-29q-18 0 -28 13t-7 32l8 37q31 136 29 209q-6 100 -62 200l2 -2q-11 13 -4 33z" />
<glyph unicode="&#xc9;" horiz-adv-x="983" d="M147 43l287 1346q3 16 19.5 30.5t33.5 14.5h719q20 0 30 -14t7 -31l-8 -31q-6 -43 -53 -43h-643l-107 -502h602q17 0 27.5 -14.5t7.5 -30.5l-6 -31q-4 -20 -20.5 -32.5t-34.5 -12.5h-602l-121 -573h678q17 0 27 -13.5t7 -31.5l-6 -31q-4 -18 -19.5 -30.5t-33.5 -12.5 h-754q-18 0 -29.5 12.5t-7.5 30.5zM682 1518l8 36q1 6 5.5 26.5t6.5 28t6.5 26t7 28t7 26t8 27.5t8.5 25.5t10 27.5t11 25q51 105 180 240q16 18 37 19t29 -11l14 -17h-2q14 -10 12.5 -30.5t-16.5 -32.5l2 2q-101 -101 -148 -201q-27 -62 -61 -209l-8 -36q-3 -19 -17.5 -32 t-33.5 -13h-29q-17 0 -28 15t-9 30z" />
<glyph unicode="&#xca;" horiz-adv-x="983" d="M147 43l287 1346q3 16 19.5 30.5t33.5 14.5h719q20 0 30 -14t7 -31l-8 -31q-6 -43 -53 -43h-643l-107 -502h602q17 0 27.5 -14.5t7.5 -30.5l-6 -31q-4 -20 -20.5 -32.5t-34.5 -12.5h-602l-121 -573h678q17 0 27 -13.5t7 -31.5l-6 -31q-4 -18 -19.5 -30.5t-33.5 -12.5 h-754q-18 0 -29.5 12.5t-7.5 30.5zM564.5 1521q-1.5 19 10.5 31h-2l209 248q21 17 37 17h109q22 0 30 -25v2l91 -242l2 -2q1 -21 -3 -31t-20 -22l-37 -18q-42 -20 -53 16v-2l-80 207h-22q-14 -16 -79 -92t-98 -117h-2q-13 -15 -32.5 -18.5t-32.5 10.5l-12 8q-14 11 -15.5 30 z" />
<glyph unicode="&#xcb;" horiz-adv-x="983" d="M162 72l287 1345q3 16 19.5 30.5t33.5 14.5h719q20 0 29.5 -14t6.5 -31l-8 -31q-6 -43 -53 -43h-643l-107 -501h603q17 0 27 -14.5t7 -30.5l-6 -31q-4 -20 -20.5 -32.5t-34.5 -12.5h-602l-121 -574h678q17 0 27.5 -14t7.5 -31l-6 -30q-4 -18 -20 -30.5t-34 -12.5h-753 q-18 0 -29.5 12.5t-7.5 30.5zM440 1589l2 6q0 7 4 27l5 16v9q1 2 2 6.5t2 7.5q15 30 32 45l7 8q6 6 10 8q12 12 24 21q25 10 31 12l10 6q22 7 56 11h8h4q7 0 22 -5q19 -3 35 -16l8 -6l7 -6q1 -1 6.5 -10.5t9.5 -14.5q2 -2 2 -4q2 -3 5 -10t5 -10q4 -16 4 -25v-4 q-1 -3 -1 -7.5t-1 -6.5v-9l-4 -16l-8 -27l-6 -12l-10 -18l-6 -13l-7 -4l-12 -16l-10 -10q-19 -19 -31 -27l-12 -6q-14 -8 -29 -12l-18 -4h-13h-4h-20q-3 0 -6.5 1t-5.5 1q-1 0 -3.5 1t-3.5 1q-6 0 -8 2l-14 6l-12 4q-14 9 -17 14l-10 6l-8 13q-3 5 -12 26v4l-5 13zM991 1589 l2 6q0 17 2 27l4 16v9l7 14q15 30 32 45l4 8q5 5 11 8q6 6 26 21q3 1 12.5 5.5t16.5 6.5l12 6q23 8 56 11h8h4q5 0 20 -5q22 -3 35 -16l8 -6l6 -6q1 -1 19 -25v-4q2 -3 5 -10t5 -10q4 -16 4 -25v-4v-14v-9l-4 -16l-10 -27l-6 -12l-10 -18l-7 -13l-6 -4l-10 -16l-10 -10 q-15 -15 -33 -27l-12 -6q-11 -8 -29 -12l-18 -4h-11h-4h-22q-3 0 -7 1t-6 1q-1 0 -2 1t-2 1q-6 0 -8 2l-16 6l-13 4q-8 6 -14 14l-10 6l-10 13q-8 11 -11 26v4l-4 13z" />
<glyph unicode="&#xcc;" horiz-adv-x="344" d="M119 43l287 1346q3 15 18 29t33 14h30q18 0 28 -14t7 -29l-286 -1346q-5 -19 -19 -31t-33 -12h-30q-19 0 -29 12t-6 31zM452.5 2138q6.5 20 22.5 31h-2l25 16q17 12 37.5 8t25.5 -18q66 -113 72 -238q4 -83 -29 -239l-8 -37q-3 -18 -20.5 -31.5t-32.5 -13.5h-29 q-18 0 -28 13t-7 32l8 37q31 136 29 209q-6 102 -61 200l2 -2q-11 13 -4.5 33z" />
<glyph unicode="&#xcd;" horiz-adv-x="387" d="M139 43l287 1346q3 15 18 29t33 14h31q18 0 28 -14t7 -29l-287 -1346q-5 -19 -18.5 -31t-32.5 -12h-31q-19 0 -29 12t-6 31zM385 1518l8 36q1 6 5.5 26.5t6.5 28t6.5 26t7 28t7 26t8 27.5t8.5 25.5t10 27.5t11 25q51 105 180 240q16 18 37 19t29 -11l14 -17h-2 q14 -10 12.5 -30.5t-16.5 -32.5l2 2q-101 -101 -148 -201q-27 -62 -61 -209l-8 -36q-3 -19 -17.5 -32t-33.5 -13h-29q-17 0 -28 15t-9 30z" />
<glyph unicode="&#xce;" horiz-adv-x="387" d="M139 43l287 1346q3 15 18 29t33 14h31q18 0 28 -14t7 -29l-287 -1346q-5 -19 -18.5 -31t-32.5 -12h-31q-19 0 -29 12t-6 31zM270.5 1520.5q-1.5 19.5 10.5 31.5h-2l208 248q21 17 37 17h109q23 0 31 -25v2l90 -242l2 -2q1 -21 -3 -31t-20 -22l-37 -18q-42 -20 -53 16v-2 l-80 207h-22q-172 -203 -176 -209h-3q-13 -15 -32.5 -18.5t-32.5 10.5l-12 8q-13 10 -14.5 29.5z" />
<glyph unicode="&#xcf;" horiz-adv-x="720" d="M303 43l287 1346q3 15 17.5 29t33.5 14h29q19 0 28.5 -14t6.5 -29l-287 -1346q-10 -43 -51 -43h-29q-20 0 -30 12t-5 31zM350 1589l2 6q0 7 4 27l4 16v9q1 2 5 14q15 30 32 45l6 8q5 5 11 8q12 12 24 21q25 10 31 12l12 6q19 7 54 11h8h4q7 0 22 -5q19 -3 35 -16l8 -6 l6 -6q14 -21 17 -25q2 -2 2 -4q2 -3 5 -10t5 -10q4 -16 4 -25v-4q-1 -3 -1 -7.5t-1 -6.5v-9l-4 -16l-8 -27l-6 -12l-10 -18l-7 -13l-6 -4l-12 -16l-10 -10q-19 -19 -31 -27l-12 -6q-14 -8 -29 -12l-18 -4h-13h-4h-20q-3 0 -7 1t-6 1q-1 0 -3 1t-3 1q-6 0 -8 2l-14 6l-12 4 q-14 9 -17 14l-8 6l-10 13q-6 7 -13 26v4l-4 13zM743 1589l2 6q0 12 3 27l4 16v9q4 8 6 14q14 29 33 45l6 8q6 6 10 8q5 7 24 21q25 10 31 12l10 6q21 7 56 11h8h4q11 0 21 -5q19 -3 36 -16l9 -6l4 -6q4 -4 10.5 -13.5t7.5 -11.5q2 -2 2 -4q2 -3 5 -10t5 -10q0 -4 1 -12.5 t1 -12.5v-4v-14v-9l-4 -16l-10 -27l-6 -12l-8 -18l-6 -13l-7 -4l-12 -16l-10 -10q-11 -11 -31 -27l-12 -6q-14 -9 -31 -12l-16 -4h-12h-5h-22q-2 0 -5 1t-5 1q-1 0 -3 1t-3 1q-7 0 -9 2l-16 6l-10 4q-14 9 -17 14l-10 6l-8 13q-3 5 -12 26v4l-4 13z" />
<glyph unicode="&#xd0;" horiz-adv-x="1503" d="M201 639l6 29q3 23 20 30q13 13 33 13l504 -2q16 0 28 -12t9 -31l-6 -29q-6 -21 -23 -35q-15 -10 -33 -10l-503 4q-18 0 -28.5 12t-6.5 31zM285 72l274 1292q3 14 17 27t30 18h15q144 23 256 23q54 0 105.5 -4t112 -15t114 -28.5t106.5 -47t95 -68t74.5 -93.5 t49.5 -121.5t16.5 -155t-22.5 -190.5q-27 -128 -78 -233t-113 -177t-140 -127t-153.5 -87t-160.5 -52t-153 -26.5t-138 -6.5q-51 0 -103 4t-83 8.5t-60 9.5l-29 5h-6q-13 5 -21 18t-5 27zM387 135l25 -29l4 23q-3 1 -10 2t-9 2q-1 0 -5 1t-5 1zM416 129q86 -12 200 -12 q100 0 190.5 14t190 53.5t177 103t141.5 171.5t94 250q18 85 18.5 159t-14 129.5t-42.5 102t-64 79t-81.5 57t-91 39.5t-97 24t-95.5 12.5t-90 3.5q-100 0 -186 -12z" />
<glyph unicode="&#xd1;" horiz-adv-x="1376" d="M150 43l284 1343q4 18 20.5 31t34.5 13h103q28 0 35 -21l487 -1268l262 1229q3 17 20 31t36 14h30q18 0 28 -13.5t7 -31.5l-280 -1317q-4 -20 -18.5 -31.5t-33.5 -13.5l-108 -6q-11 0 -21.5 7.5t-13.5 15.5l-487 1261l-265 -1243q-5 -19 -19 -31t-34 -12h-31 q-18 0 -29 12.5t-7 30.5zM717 1538q9 32 39.5 74.5t77.5 64.5q37 15 71 15q72 0 154 -64v2q77 -56 106 -43q13 6 27 47q3 16 18.5 30.5t32.5 14.5h31q18 0 27 -12t6 -31l-2 -7q-2 -7 -5 -17t-8 -23t-13.5 -27t-19 -27.5t-26 -26t-33.5 -21.5q-28 -17 -70 -17q-71 0 -153 64 v-2q-75 57 -115 41q-9 -5 -17.5 -17t-13 -21t-4.5 -11q-3 -18 -22.5 -30t-38.5 -9h-21q-18 0 -27 17t-1 36z" />
<glyph unicode="&#xd2;" horiz-adv-x="1478" d="M227 423.5q-16 121.5 13 254.5q31 144 108.5 281t184.5 241.5t243.5 168t276.5 63.5q100 -2 184.5 -34t142 -86t100.5 -126.5t61 -155.5t21.5 -173t-16.5 -179q-30 -135 -97.5 -256t-164.5 -211q-114 -105 -255.5 -158t-280.5 -53q-317 13 -445 211q-60 91 -76 212.5z M347 463q13 -100 61 -174q105 -167 366 -170q262 3 438 170q168 155 218 389q18 74 15 148.5t-18.5 143t-51.5 128.5t-84 106t-115.5 75t-147.5 36q-123 -10 -238 -69t-201 -148.5t-146.5 -198.5t-84.5 -221q-24 -115 -11 -215zM1067 2138q7 20 23 31h-3l25 16q17 12 38 8 t26 -18q65 -112 71 -238q4 -86 -28 -239l-9 -37q-3 -18 -20.5 -31.5t-32.5 -13.5h-29q-18 0 -27.5 13t-6.5 32l8 37q30 132 28 209q-6 102 -61 200l2 -2q-11 13 -4 33z" />
<glyph unicode="&#xd3;" horiz-adv-x="1529" d="M227 423.5q-16 121.5 13 254.5q31 144 108.5 281t184.5 241.5t243.5 168t276.5 63.5q100 -2 184.5 -34t142 -86t100.5 -126.5t61 -155.5t21.5 -173t-16.5 -179q-30 -135 -97.5 -256t-164.5 -211q-114 -105 -255.5 -158t-280.5 -53q-317 13 -445 211q-60 91 -76 212.5z M347 463q13 -100 61 -174q105 -167 366 -170q262 3 438 170q168 155 218 389q18 74 15 148.5t-18.5 143t-51.5 128.5t-84 106t-115.5 75t-147.5 36q-123 -10 -238 -69t-201 -148.5t-146.5 -198.5t-84.5 -221q-24 -115 -11 -215zM956 1518l9 36q1 6 8.5 39t10 43l9.5 38 t12 43t13 37t16 40q51 105 180 240q16 18 37 19t29 -11l14 -17h-2q14 -10 12.5 -30.5t-16.5 -32.5l2 2q-99 -99 -147 -201q-29 -66 -62 -209l-8 -36q-3 -19 -17.5 -32t-33.5 -13h-29q-17 0 -28 15t-9 30z" />
<glyph unicode="&#xd4;" horiz-adv-x="1529" d="M227 423.5q-16 121.5 13 254.5q31 144 108.5 281t184.5 241.5t243.5 168t276.5 63.5q100 -2 184.5 -34t142 -86t100.5 -126.5t61 -155.5t21.5 -173t-16.5 -179q-30 -135 -97.5 -256t-164.5 -211q-114 -105 -255.5 -158t-280.5 -53q-317 13 -445 211q-60 91 -76 212.5z M347 463q13 -100 61 -174q105 -167 366 -170q262 3 438 170q168 155 218 389q18 74 15 148.5t-18.5 143t-51.5 128.5t-84 106t-115.5 75t-147.5 36q-123 -10 -238 -69t-201 -148.5t-146.5 -198.5t-84.5 -221q-24 -115 -11 -215zM837.5 1520.5q-1.5 19.5 10.5 31.5h-2 l209 248q21 17 37 17h108q23 0 31 -25v2l90 -242l2 -2q1 -21 -3 -31t-20 -22l-36 -18q-42 -20 -54 16v-2l-80 207h-22q-172 -203 -176 -209h-2q-13 -15 -33 -18.5t-33 10.5l-12 8q-13 10 -14.5 29.5z" />
<glyph unicode="&#xd5;" horiz-adv-x="1529" d="M227 423.5q-16 121.5 13 254.5q31 144 108.5 281t184.5 241.5t243.5 168t276.5 63.5q100 -2 184.5 -34t142 -86t100.5 -126.5t61 -155.5t21.5 -173t-16.5 -179q-30 -135 -97.5 -256t-164.5 -211q-114 -105 -255.5 -158t-280.5 -53q-317 13 -445 211q-60 91 -76 212.5z M347 463q13 -100 61 -174q105 -167 366 -170q262 3 438 170q168 155 218 389q18 74 15 148.5t-18.5 143t-51.5 128.5t-84 106t-115.5 75t-147.5 36q-123 -10 -238 -69t-201 -148.5t-146.5 -198.5t-84.5 -221q-24 -115 -11 -215zM795 1538q10 32 39.5 74.5t76.5 64.5 q37 15 72 15q72 0 154 -64v2q77 -56 106 -43q13 6 27 47q3 16 18.5 30.5t32.5 14.5h31q18 0 26.5 -12t5.5 -31l-2 -7q-1 -7 -4.5 -17t-8.5 -23t-13 -27t-18.5 -27.5t-26 -26t-33.5 -21.5q-28 -17 -70 -17q-71 0 -153 64v-2q-75 57 -115 41q-9 -5 -17.5 -17t-13 -21t-4.5 -11 q-3 -18 -22.5 -30t-38.5 -9h-21q-18 0 -27 17t-1 36z" />
<glyph unicode="&#xd6;" horiz-adv-x="1519" d="M247.5 452.5q-16.5 121.5 12.5 254.5q31 144 108.5 280.5t184.5 241t243.5 168t276.5 63.5q86 -2 160.5 -26t130 -65t98.5 -96.5t69.5 -122t40 -139.5t12 -150t-16.5 -154q-30 -135 -97.5 -256t-164.5 -211q-114 -105 -256 -158t-281 -53q-316 13 -444 211 q-60 91 -76.5 212.5zM367.5 491.5q12.5 -100.5 60.5 -174.5q105 -167 367 -170q262 3 438 170q166 154 217 390q32 151 -2 290t-138 236t-261 110q-123 -10 -238 -69t-201 -148t-146.5 -198t-84.5 -221q-24 -115 -11.5 -215.5zM559 1589l2 6q0 17 2 27l4 16v9q4 8 6 14 q14 29 33 45l6 8q2 2 5 4.5t4 3.5q6 6 26 21q5 2 14.5 6t14.5 6l12 6q22 7 55 11h9h4q10 0 20 -5q21 -3 37 -16l6 -6l6 -6q1 -1 19 -25q2 -2 2 -4q3 -4 8 -20q4 -16 4 -25v-4v-14v-9l-4 -16l-10 -27l-6 -12l-11 -18l-4 -13l-6 -4l-12 -16l-10 -10q-11 -11 -31 -27l-12 -6 q-14 -9 -31 -12l-16 -4h-13h-4h-22q-2 0 -5.5 1t-5.5 1q-1 0 -3 1t-3 1q-6 0 -8 2l-16 6l-11 4q-12 8 -16 14l-10 6l-10 13q-3 6 -11 26v4l-4 13zM1325 1589l2 6q0 17 2 27l4 16v9q4 8 6 14q14 29 33 45l6 8l8 8q3 3 27 21q5 2 14.5 6t14.5 6l12 6q22 7 55 11h9h4 q10 0 20 -5q21 -3 37 -16l6 -6l6 -6q1 -1 19 -25q2 -2 2 -4q3 -4 8 -20q4 -16 4 -25v-4v-14v-9l-4 -16l-10 -27l-6 -12l-11 -18l-4 -13l-6 -4l-12 -16l-10 -10q-11 -11 -31 -27l-12 -6q-15 -9 -31 -12l-17 -4h-12h-4h-22q-2 0 -5.5 1t-5.5 1q-1 0 -3 1t-3 1q-6 0 -8 2l-16 6 l-11 4q-12 8 -16 14l-10 6l-11 13q-2 5 -5.5 14t-4.5 12v4l-4 13z" />
<glyph unicode="&#xd7;" horiz-adv-x="1329" d="M175 244q2 20 20 35l1126 929q20 10 40.5 12t29.5 -12v4l16 -20l-6 2q12 -12 6 -33.5t-21 -36.5l-1126 -929q-17 -13 -36 -11t-27 17l2 -6l-17 22l6 -2q-15 9 -13 29zM374.5 1159.5q2.5 22.5 18.5 32.5h-4l25 20l-2 -4q15 14 35 12t34 -12l731 -929q9 -15 4 -35t-22 -29 l6 2l-24 -22v6q-12 -15 -32.5 -17t-31.5 11l-731 929q-9 13 -6.5 35.5z" />
<glyph unicode="&#xd8;" horiz-adv-x="1492" d="M233 452.5q-16 121.5 13 254.5q31 144 108.5 280.5t184.5 241t243.5 168t276.5 63.5q100 -2 184.5 -34t142 -86t100.5 -126t61 -155t21.5 -173t-16.5 -179q-30 -135 -97.5 -256t-164.5 -211q-114 -105 -255.5 -158t-280.5 -53q-317 13 -445 211q-60 91 -76 212.5z M334 -74.5q-2 18.5 12 37.5l-6 -6l928 1548q25 35 55 27l23 -10l2 -2q17 -4 19.5 -23.5t-11.5 -36.5l6 6l-930 -1552q-14 -16 -23 -19.5t-32 -3.5l-25 11q-16 5 -18 23.5zM353.5 491.5q12.5 -100.5 60.5 -174.5q105 -167 366 -170q263 3 439 170q166 154 217 390 q18 74 15 148.5t-18.5 142.5t-51.5 128t-84 106t-115.5 75t-147.5 36q-123 -10 -238 -69t-200.5 -148t-146 -198t-84.5 -221q-24 -115 -11.5 -215.5z" />
<glyph unicode="&#xd9;" horiz-adv-x="993" d="M227.5 393q3.5 59 8.5 93t12 57l178 835q4 21 19.5 32t31.5 11h31q19 0 28.5 -11.5t6.5 -31.5l-181 -843q-38 -191 33 -306q44 -51 120 -81.5t173 -30.5q149 0 268 92q28 25 52.5 56t42.5 60.5t33 60t25 56t16.5 45l10.5 31.5l3 12l182 859q3 18 19 30.5t34 12.5h37 q33 -14 29 -43l-183 -859q-65 -258 -233 -401q-153 -129 -360 -129q-261 0 -373 152q-35 52 -51 117t-12.5 124zM966.5 2138q6.5 20 22.5 31h-2l25 16q17 12 37.5 8t25.5 -18q66 -113 72 -238q4 -83 -29 -239l-8 -37q-3 -18 -20.5 -31.5t-32.5 -13.5h-29q-18 0 -28 13t-7 32 l8 37q31 136 29 209q-6 102 -61 200l2 -2q-11 13 -4.5 33z" />
<glyph unicode="&#xda;" horiz-adv-x="1298" d="M227.5 393q3.5 59 8.5 93t12 57l178 835q4 21 19.5 32t31.5 11h31q19 0 28.5 -11.5t6.5 -31.5l-181 -843q-38 -191 33 -306q44 -51 120 -81.5t173 -30.5q149 0 268 92q28 25 52.5 56t42.5 60.5t33 60t25 56t16.5 45l10.5 31.5l3 12l182 859q3 18 19 30.5t34 12.5h37 q33 -14 29 -43l-183 -859q-65 -258 -233 -401q-153 -129 -360 -129q-261 0 -373 152q-35 52 -51 117t-12.5 124zM840 1518l8 36q1 6 5.5 26.5t6.5 28t6.5 26t7 28t7 26t8 27.5t8.5 25.5t10 27.5t11 25q51 105 180 240q16 18 36.5 19t28.5 -11l15 -17h-2q13 -11 11.5 -31 t-16.5 -32l3 2q-101 -101 -148 -201q-27 -62 -61 -209l-9 -36q-3 -19 -17.5 -32t-33.5 -13h-28q-17 0 -28 15t-9 30z" />
<glyph unicode="&#xdb;" horiz-adv-x="1298" d="M227.5 393q3.5 59 8.5 93t12 57l178 835q4 21 19.5 32t31.5 11h31q19 0 28.5 -11.5t6.5 -31.5l-181 -843q-38 -191 33 -306q44 -51 120 -81.5t173 -30.5q149 0 268 92q28 25 52.5 56t42.5 60.5t33 60t25 56t16.5 45l10.5 31.5l3 12l182 859q3 18 19 30.5t34 12.5h37 q33 -14 29 -43l-183 -859q-65 -258 -233 -401q-153 -129 -360 -129q-261 0 -373 152q-35 52 -51 117t-12.5 124zM722.5 1520.5q-1.5 19.5 10.5 31.5h-2l209 248q21 17 37 17h108q23 0 31 -25v2l90 -242l2 -2q1 -21 -3 -31t-19 -22l-37 -18q-42 -20 -53 16v-2l-80 207h-23 q-172 -203 -176 -209h-2q-13 -15 -32.5 -18.5t-32.5 10.5l-13 8q-13 10 -14.5 29.5z" />
<glyph unicode="&#xdc;" horiz-adv-x="1298" d="M227.5 393q3.5 59 8.5 93t12 57l178 835q4 21 19.5 32t31.5 11h31q19 0 28.5 -11.5t6.5 -31.5l-181 -843q-38 -191 33 -306q44 -51 120 -81.5t173 -30.5q149 0 268 92q28 25 52.5 56t42.5 60.5t33 60t25 56t16.5 45l10.5 31.5l3 12l182 859q3 18 19 30.5t34 12.5h37 q33 -14 29 -43l-183 -859q-65 -258 -233 -401q-153 -129 -360 -129q-261 0 -373 152q-35 52 -51 117t-12.5 124zM401 1563v24v4q0 19 2 29l5 14v8q1 2 3.5 7.5t2.5 7.5q10 28 30 45l7 8q6 6 10 8q4 4 24 19q16 10 29 14l12 6q14 4 54 8h8h4q12 0 20 -4q25 -3 35 -14l6 -8 l9 -6q3 -3 8.5 -11.5t7.5 -11.5q2 -2 2 -4q7 -10 10 -20q2 -8 2 -25v-4q3 -6 0 -15v-8l-4 -14l-10 -29l-6 -10l-8 -18l-7 -11l-6 -6l-10 -16l-10 -10q-15 -15 -33 -27l-12 -6q-9 -6 -29 -10l-14 -4h-13h-4h-20q-3 0 -7.5 1t-6.5 1q-1 0 -3.5 1t-3.5 1q-6 0 -6 2l-16 6l-12 2 q-1 2 -7 6.5t-8 7.5l-8 8l-8 11q-8 10 -14 26v6zM1251 1563v24v4q0 19 2 29l4 14v8q1 3 4 8t3 7q17 33 30 45l6 8q5 5 11 8q4 4 24 19q12 7 29 14l12 6q18 4 54 8h8h4q12 0 20 -4q24 -3 35 -14l6 -8l8 -6q3 -3 5.5 -6.5t6 -8.5t5.5 -8q2 -2 2 -4q7 -10 10 -20q4 -16 2 -25 v-4q3 -6 0 -15v-8l-4 -14l-10 -29l-4 -10l-11 -18l-6 -11l-6 -6l-10 -16l-10 -10q-15 -15 -33 -27l-10 -6q-13 -6 -31 -10l-14 -4h-13h-4h-20q-3 0 -8 1t-7 1q-1 0 -3 1t-3 1q-4 0 -6 2l-16 6l-13 2q-1 2 -6.5 6.5t-7.5 7.5l-8 8l-8 11q-10 13 -15 26v6z" />
<glyph unicode="&#xdd;" horiz-adv-x="1062" d="M315 1358q0 14 10 30t27 25l23 12l-2 -2q17 9 34 5.5t23 -17.5l250 -653l528 653q12 13 33 17t31 -5l-2 2l18 -12q22 -17 12 -55l-591 -731q-5 -20 -123 -584q-10 -43 -51 -43h-27q-45 0 -35 43l121 586zM723 1518l8 36q1 6 5.5 26.5t6.5 28t6.5 26t7 28t7 26t8 27.5 t8.5 25.5t10 27.5t11 25q51 105 180 240q16 18 37 19t29 -11l14 -17h-2q14 -10 12.5 -30.5t-16.5 -32.5l2 2q-101 -101 -148 -201q-27 -62 -61 -209l-8 -36q-3 -19 -18 -32t-34 -13h-28q-17 0 -28 15t-9 30z" />
<glyph unicode="&#xde;" horiz-adv-x="1003" d="M147 43l297 1395q3 19 18 31t34 12h28q19 0 28.5 -12t6.5 -31l-41 -195q88 87 197 138t207 51q157 0 229 -123q73 -140 25 -373l-2 -4q-49 -234 -181 -369q-126 -123 -282 -123q-96 0 -183.5 51.5t-140.5 135.5l-125 -584q-5 -19 -18.5 -31t-32.5 -12h-29q-19 0 -29 12 t-6 31zM451 934q-21 -103 16.5 -193t110.5 -140t157 -50q98 0 183 82q95 90 143 301q43 202 -14 303q-50 80 -150 80q-85 0 -178.5 -49.5t-168.5 -139.5t-99 -194z" />
<glyph unicode="&#xdf;" horiz-adv-x="1107" d="M139 43l205 967q54 246 199 364q130 104 338 101q113 -3 211 -76t104 -176h-2q2 -39 -12.5 -81.5t-61 -95t-121.5 -94.5q-76 -43 -114 -88q-22 -26 -27 -51q-5 -21 2 -57q1 -8 4.5 -17t6.5 -14.5t11 -15t11 -13t15 -15t14 -13.5l22 -23l2 -2q66 -66 89.5 -169.5 t-1.5 -217.5q-24 -115 -123 -182q-104 -68 -260 -68q-3 0 -13 1t-15 1h-21q-15 4 -20.5 21t0.5 32l12 27q7 18 26 27t35 6h21q119 0 184 43q47 38 58 92q18 86 -0.5 166.5t-65.5 134.5l-23 21q-75 67 -86 137q-9 40 2 98q12 64 60 115h-2q61 73 158 123q49 26 84 63.5 t34 77.5q-8 63 -75.5 113t-151.5 53q-163 3 -248 -68q-100 -78 -143 -280l-205 -967q-10 -43 -51 -43h-29q-18 0 -29.5 12t-7.5 31z" />
<glyph unicode="&#xe0;" d="M199 489q49 231 178 365q118 121 278 121q95 0 181 -49.5t139 -134.5l39 190q10 43 53 43h27q19 0 27.5 -11.5t4.5 -31.5l-198 -938q-10 -43 -51 -43h-27q-20 0 -29.5 11.5t-5.5 31.5l31 141q-89 -83 -196 -133.5t-201 -50.5q-75 0 -134.5 31.5t-93.5 89.5 q-72 128 -22 368zM309 487q-41 -200 15 -299q47 -77 147 -77q83 0 175.5 48.5t166 137t96.5 190.5q21 102 -15.5 190.5t-108 137.5t-154.5 49q-100 0 -180 -80q-94 -89 -142 -297zM755.5 1585q6.5 20 22.5 31h-2l25 16q17 12 37.5 8t25.5 -18q66 -113 72 -238 q4 -83 -29 -239l-8 -37q-3 -18 -20.5 -31.5t-32.5 -13.5h-29q-18 0 -28 13t-7 32l9 37q30 132 28 209q-6 102 -61 200l2 -2q-11 13 -4.5 33z" />
<glyph unicode="&#xe1;" d="M199 489q49 231 178 365q118 121 278 121q95 0 181 -49.5t139 -134.5l39 190q10 43 53 43h27q19 0 27.5 -11.5t4.5 -31.5l-198 -938q-10 -43 -51 -43h-27q-20 0 -29.5 11.5t-5.5 31.5l31 141q-89 -83 -196 -133.5t-201 -50.5q-75 0 -134.5 31.5t-93.5 89.5 q-72 128 -22 368zM309 487q-41 -200 15 -299q47 -77 147 -77q83 0 175.5 48.5t166 137t96.5 190.5q21 102 -15.5 190.5t-108 137.5t-154.5 49q-100 0 -180 -80q-94 -89 -142 -297zM649 1108l8 37q38 170 70 239q51 105 180 240q16 18 37 19t29 -11l14 -16h-2 q14 -10 12.5 -31t-16.5 -33l2 2q-100 -100 -147 -200q-29 -66 -62 -209l-8 -37q-3 -19 -17.5 -32t-33.5 -13h-29q-17 0 -28 15t-9 30z" />
<glyph unicode="&#xe2;" d="M199 489q49 231 178 365q118 121 278 121q95 0 181 -49.5t139 -134.5l39 190q10 43 53 43h27q19 0 27.5 -11.5t4.5 -31.5l-198 -938q-10 -43 -51 -43h-27q-20 0 -29.5 11.5t-5.5 31.5l31 141q-89 -83 -196 -133.5t-201 -50.5q-75 0 -134.5 31.5t-93.5 89.5 q-72 128 -22 368zM309 487q-41 -200 15 -299q47 -77 147 -77q83 0 175.5 48.5t166 137t96.5 190.5q21 102 -15.5 190.5t-108 137.5t-154.5 49q-100 0 -180 -80q-94 -89 -142 -297zM532.5 1111q-1.5 20 10.5 32h-2l209 248q20 16 36 16h109q23 0 31 -25v2l90 -241l2 -2 q1 -21 -3.5 -31.5t-19.5 -22.5l-37 -18q-42 -20 -53 16v-2l-80 207h-22q-172 -204 -176 -209h-2q-13 -15 -33 -18.5t-33 10.5l-12 8q-13 10 -14.5 30z" />
<glyph unicode="&#xe3;" d="M199 489q49 231 178 365q118 121 278 121q95 0 181 -49.5t139 -134.5l39 190q10 43 53 43h27q19 0 27.5 -11.5t4.5 -31.5l-198 -938q-10 -43 -51 -43h-27q-20 0 -29.5 11.5t-5.5 31.5l31 141q-89 -83 -196 -133.5t-201 -50.5q-75 0 -134.5 31.5t-93.5 89.5 q-72 128 -22 368zM309 487q-41 -200 15 -299q47 -77 147 -77q83 0 175.5 48.5t166 137t96.5 190.5q21 102 -15.5 190.5t-108 137.5t-154.5 49q-100 0 -180 -80q-94 -89 -142 -297zM487 1128q9 32 39.5 75t77.5 65q35 14 72 14q72 0 153 -63v2q77 -56 107 -43q13 6 27 47 q3 16 18.5 30.5t32.5 14.5h30q18 0 27 -12t6 -31l-1 -7q-2 -7 -5.5 -17t-8.5 -23t-13 -27t-18.5 -28t-26 -26.5t-33.5 -21.5q-27 -16 -70 -16q-72 0 -153 63v-2q-75 57 -115 41q-9 -5 -17.5 -17t-13 -21t-4.5 -11q-3 -18 -22.5 -30t-38.5 -9h-21q-19 0 -28 17t-1 36z" />
<glyph unicode="&#xe4;" d="M217 518q49 231 178 365q118 121 279 121q95 0 180.5 -50t138.5 -135l39 191q10 43 53 43h27q19 0 28 -11.5t5 -31.5l-199 -938q-10 -43 -51 -43h-27q-20 0 -29 11.5t-5 31.5l30 141q-89 -83 -196 -133.5t-201 -50.5q-75 0 -134 31.5t-93 89.5q-72 129 -23 368zM328 516 q-41 -201 14 -299q47 -78 147 -78q83 0 175.5 49t166.5 137.5t97 190.5q21 102 -15.5 190.5t-108.5 137.5t-155 49q-100 0 -180 -80q-92 -88 -141 -297zM426 1178v4q0 18 2 28l4 15v8l3.5 7t2.5 7q14 29 33 45l6 8q3 7 8 9q4 3 13.5 9t13.5 9q10 8 29 14l12 7q15 4 53 8h8h4 q9 0 21 -4q20 -3 35 -15l6 -8l8 -6q2 -3 17 -23q2 -2 2 -4q8 -12 8 -20q4 -16 4 -25v-4q3 -6 0 -14v-8l-4 -15l-10 -28l-7 -11l-10 -18l-4 -10l-6 -6l-10 -17l-11 -10q-3 -2 -14 -12t-18 -15l-13 -6q-15 -7 -28 -10l-17 -4h-10h-4h-23q-2 0 -6 1t-6 1q-1 0 -3 1t-3 1 q-6 0 -8 2l-15 6l-12 2q-12 12 -14 15l-8 8l-11 10q-6 12 -12 27v6l-4 10zM852 1178v4q0 18 2 28l4 15v8l3.5 7t2.5 7q14 28 31 45l6 8q8 8 10 9q4 3 12.5 9t12.5 9q12 7 29 14l12 7q20 5 55 8h6h4q11 0 23 -4q21 -3 35 -15l4 -8l8 -6q9 -9 16 -23q2 -2 2 -4q9 -13 11 -20 q4 -16 4 -25v-4q3 -6 0 -14v-8l-4 -15l-11 -28l-6 -11l-10 -18l-6 -10l-6 -6l-10 -17l-9 -10q-32 -26 -34 -27l-11 -6q-13 -7 -30 -10l-15 -4h-12h-4h-21q-3 0 -7.5 1t-6.5 1q-1 0 -2 1t-2 1q-6 0 -8 2l-17 6l-10 2q-1 1 -7.5 6t-8.5 9l-6 8l-11 10q-7 9 -14 27v6l-2 10z " />
<glyph unicode="&#xe5;" d="M199 489q49 231 178 365q118 121 278 121q95 0 181 -49.5t139 -134.5l39 190q10 43 53 43h27q19 0 27.5 -11.5t4.5 -31.5l-198 -938q-10 -43 -51 -43h-27q-20 0 -29.5 11.5t-5.5 31.5l31 141q-89 -83 -196 -133.5t-201 -50.5q-75 0 -134.5 31.5t-93.5 89.5 q-72 128 -22 368zM309 487q-41 -200 15 -299q47 -77 147 -77q83 0 175.5 48.5t166 137t96.5 190.5q21 102 -15.5 190.5t-108 137.5t-154.5 49q-100 0 -180 -80q-94 -89 -142 -297zM647 1208q12 59 64 102.5t112 43.5q58 0 92.5 -43.5t22.5 -102.5t-64.5 -102t-111.5 -43 q-60 0 -93.5 42.5t-21.5 102.5zM737 1208q-4 -23 8.5 -39t34.5 -16q23 0 42.5 16t23.5 39q5 23 -7.5 38.5t-35.5 15.5q-22 0 -42 -15.5t-24 -38.5z" />
<glyph unicode="&#xe6;" horiz-adv-x="1753" d="M160 240q44 209 194 309q130 82 305 82q79 0 170 -17l2 4q35 168 -40 224q-45 37 -134 37q-52 0 -115 -13t-97.5 -24t-57.5 -21v2q-38 -18 -53 19l-8 37q-5 30 34 47q12 7 55 21.5t121.5 31t145.5 16.5q116 0 190 -55q61 -49 80 -125q25 34 84 86q148 121 350 121 t287 -123q72 -111 35 -293q-5 -23 -12.5 -49.5t-7.5 -28.5q-5 -12 -20 -22t-30 -10h-708q-31 -224 74 -320q74 -61 196 -61q128 0 326 65q18 4 33.5 -5.5t15.5 -20.5l6 -31q3 -33 -39 -51q-207 -72 -364 -72q-172 0 -265 84q-46 43 -73 102q-1 -17 0.5 -71.5t1.5 -96.5 q0 -15 -13 -32t-30 -21l-29 -6q-24 0 -37 6.5t-12 24.5q0 77 -2 104q-224 -92 -369 -92q-74 0 -131 33q-87 61 -59 205zM274 240q-13 -80 27 -105q16 -16 74 -16q131 0 352 96q2 26 18 72q1 1 3.5 5t3.5 7q3 15 20.5 79t30.5 118q-88 18 -168 18q-133 0 -229 -57 q-105 -75 -132 -217zM956 610h639q23 127 -24 211q-30 37 -87 60.5t-124 23.5q-77 0 -142 -21.5t-107 -52.5t-75.5 -74t-50 -76.5t-29.5 -70.5z" />
<glyph unicode="&#xe7;" horiz-adv-x="966" d="M197 506q59 279 262 409q156 105 381 105q108 0 239 -29q2 0 4.5 -1t3.5 -1q17 -9 22.5 -25.5t-1.5 -29.5l-14 -29q-16 -40 -60 -33q-5 2 -30.5 9t-80 14.5t-108.5 7.5q-178 0 -305 -80q-150 -103 -197 -317q-46 -217 60 -313q86 -74 266 -74q58 0 118 7t91 14l31 7 q15 4 29 -4.5t20 -25.5v-31v-4q-6 -27 -43 -49l-17 -4q-134 -29 -254 -29q-219 0 -329 98q-147 132 -88 408zM348 -322l14 29q7 19 24.5 28.5t33.5 4.5q45 -8 92 -8q60 0 80 14q9 9 12 21q4 23 -3 40.5t-18.5 25.5t-27 13t-23.5 6t-12 1h-24q-10 0 -20 7t-13 15q-7 22 8 41 l123 150q28 28 61 12l23 -17q26 -23 2 -57l-45 -55q111 -49 84 -182q-15 -68 -76 -111q-65 -41 -158 -41q-58 0 -98 10q-6 2 -20 2q-15 11 -19 20.5t0 30.5z" />
<glyph unicode="&#xe8;" horiz-adv-x="1099" d="M202 412.5q3 59.5 9 92.5t12 56q1 8 7 28t22 59.5t38.5 79.5t60 88t81.5 85q148 121 352 121q200 0 285 -123q74 -111 35 -297q-4 -15 -8 -31.5t-7.5 -28.5t-3.5 -14q-16 -32 -51 -32h-710q-5 -37 -6 -74t3.5 -84t24.5 -89.5t53 -72.5q74 -61 197 -61q131 0 326 65 q19 4 34 -5t17 -21l4 -29q6 -34 -37 -53q-210 -72 -367 -72q-172 0 -262 84q-46 40 -72.5 100t-33 114.5t-3.5 114zM354 612h637q25 135 -24 211q-55 82 -209 82q-75 0 -139.5 -21.5t-106.5 -52t-76 -73t-51.5 -76.5t-30.5 -70zM761.5 1585q6.5 20 22.5 31h-2l25 16 q17 12 37.5 8t25.5 -18q66 -113 72 -238q4 -83 -29 -239l-8 -37q-3 -18 -20.5 -31.5t-32.5 -13.5h-29q-18 0 -28 13t-7 32l9 37q30 132 28 209q-6 102 -61 200l2 -2q-11 13 -4.5 33z" />
<glyph unicode="&#xe9;" horiz-adv-x="1099" d="M202 412.5q3 59.5 9 92.5t12 56q1 8 7 28t22 59.5t38.5 79.5t60 88t81.5 85q148 121 352 121q200 0 285 -123q74 -111 35 -297q-4 -15 -8 -31.5t-7.5 -28.5t-3.5 -14q-16 -32 -51 -32h-710q-5 -37 -6 -74t3.5 -84t24.5 -89.5t53 -72.5q74 -61 197 -61q131 0 326 65 q19 4 34 -5t17 -21l4 -29q6 -34 -37 -53q-210 -72 -367 -72q-172 0 -262 84q-46 40 -72.5 100t-33 114.5t-3.5 114zM354 612h637q25 135 -24 211q-55 82 -209 82q-75 0 -139.5 -21.5t-106.5 -52t-76 -73t-51.5 -76.5t-30.5 -70zM676 1210l8 37q1 6 5.5 26.5t6.5 28t6.5 26 t7 28t7 26t8 27.5t8.5 25.5t10 27.5t11 25q50 103 180 239q16 18 36.5 19.5t28.5 -10.5l15 -17h-2q14 -10 12.5 -30.5t-16.5 -32.5l2 2q-101 -101 -148 -201q-27 -62 -61 -209l-8 -37q-3 -19 -18 -32t-34 -13h-28q-17 0 -28 15t-9 30z" />
<glyph unicode="&#xea;" horiz-adv-x="1099" d="M202 412.5q3 59.5 9 92.5t12 56q1 8 7 28t22 59.5t38.5 79.5t60 88t81.5 85q148 121 352 121q200 0 285 -123q74 -111 35 -297q-4 -15 -8 -31.5t-7.5 -28.5t-3.5 -14q-16 -32 -51 -32h-710q-5 -37 -6 -74t3.5 -84t24.5 -89.5t53 -72.5q74 -61 197 -61q131 0 326 65 q19 4 34 -5t17 -21l4 -29q6 -34 -37 -53q-210 -72 -367 -72q-172 0 -262 84q-46 40 -72.5 100t-33 114.5t-3.5 114zM354 612h637q25 135 -24 211q-55 82 -209 82q-75 0 -139.5 -21.5t-106.5 -52t-76 -73t-51.5 -76.5t-30.5 -70zM536.5 1111q-1.5 20 10.5 32h-2l209 248 q20 16 37 16h108q23 0 31 -25v2l90 -241l2 -2q1 -21 -3.5 -31.5t-19.5 -22.5l-36 -18q-42 -20 -54 16v-2l-80 207h-22q-172 -204 -176 -209h-2q-13 -15 -33 -18.5t-33 10.5l-12 8q-13 10 -14.5 30z" />
<glyph unicode="&#xeb;" horiz-adv-x="1099" d="M221 441.5q3 59.5 9 92.5t12 56q1 8 7 28t22 59.5t38.5 79.5t60 88t81.5 85q148 121 352 121q199 0 284 -123q74 -111 35 -297q-5 -23 -18 -74q-16 -33 -51 -33h-711q-32 -222 76 -319q75 -62 196 -62q128 0 326 66q19 4 34 -5.5t17 -21.5l4 -28q3 -17 -8 -31.5 t-29 -22.5q-207 -71 -366 -71q-172 0 -262 84q-46 40 -72.5 100t-33 114.5t-3.5 114zM373 641h637q25 134 -25 211q-55 82 -209 82q-75 0 -139.5 -21.5t-106 -52t-75.5 -73t-51.5 -76.5t-30.5 -70zM428 1153v25v4q0 18 2 28l4 15v8l3.5 7t2.5 7q16 32 31 45l6 8q8 8 10 9 q4 3 12.5 9t12.5 9q12 7 29 14l12 7q19 4 53 8h8h4q11 0 23 -4q22 -4 33 -15l6 -8l8 -6q3 -3 5.5 -6.5t6 -8.5t5.5 -8q2 -2 2 -4q7 -10 10 -20q4 -16 4 -25v-4q0 -8 -2 -14v-8l-4 -15l-8 -28l-7 -11l-10 -18l-6 -10l-6 -6l-10 -17l-11 -10q-17 -17 -32 -27l-11 -6 q-13 -7 -30 -10l-15 -4h-12h-4h-21q-3 0 -7.5 1t-6.5 1q-1 0 -3 1t-3 1q-4 0 -6 2l-17 6l-10 2q0 1 -7 6t-9 9l-8 8l-9 10q-7 9 -14 27v6zM852 1178v4q0 18 2 28l4 15v8l3.5 7t2.5 7q14 29 33 45l4 8q8 8 10 9q4 3 13.5 9t13.5 9q10 8 29 14l12 7q15 4 53 8h8h4q9 0 21 -4 q20 -3 35 -15l6 -8l6 -6q3 -3 18 -23q3 -2 3 -4q3 -4 8 -20q4 -16 4 -25v-4q3 -6 0 -14v-8l-4 -15l-11 -28l-6 -11l-10 -18l-6 -10l-4 -6l-10 -17l-11 -10q-3 -2 -14 -12t-18 -15l-13 -6q-15 -7 -28 -10l-17 -4h-10h-4h-23q-2 0 -6 1t-6 1q-1 0 -3 1t-3 1q-6 0 -8 2l-15 6 l-12 2q-13 13 -14 15l-8 8l-11 10q-3 3 -12 27v6l-4 10z" />
<glyph unicode="&#xec;" horiz-adv-x="356" d="M119 49q49 163 108 426q47 219 76 430q3 19 6 42t4 26q10 37 47 45q3 0 15.5 1t15.5 1h6q16 0 26 -9.5t9 -27.5t-10 -77t-29 -172.5t-45 -231.5q-60 -269 -117 -463q-6 -17 -21.5 -28t-31.5 -11l-26 2q-20 0 -29.5 12.5t-3.5 34.5zM395 1614q7 20 23 31h-2l24 16 q17 12 38 8t26 -18q65 -112 71 -238q4 -86 -28 -239l-8 -37q-3 -18 -21 -31.5t-33 -13.5h-28q-18 0 -28 13t-7 32l8 37q31 136 29 208q-6 101 -62 201l2 -2q-11 13 -4 33z" />
<glyph unicode="&#xed;" horiz-adv-x="356" d="M119 49q49 163 108 426q47 219 76 430q3 19 6 42t4 26q10 37 47 45q3 0 15.5 1t15.5 1h6q16 0 26 -9.5t9 -27.5t-10 -77t-29 -172.5t-45 -231.5q-60 -269 -117 -463q-6 -17 -21.5 -28t-31.5 -11l-26 2q-20 0 -29.5 12.5t-3.5 34.5zM307 1223l8 37q38 170 70 239 q51 105 180 240q16 18 37 19t29 -11l14 -16h-2q14 -10 12.5 -31t-16.5 -33l2 2q-99 -99 -147 -201q-30 -67 -62 -208l-8 -37q-3 -19 -17.5 -32t-33.5 -13h-29q-17 0 -28 15t-9 30z" />
<glyph unicode="&#xee;" horiz-adv-x="356" d="M119 49q49 163 108 426q47 219 76 430q3 19 6 42t4 26q10 37 47 45q3 0 15.5 1t15.5 1h6q16 0 26 -9.5t9 -27.5t-10 -77t-29 -172.5t-45 -231.5q-60 -269 -117 -463q-6 -17 -21.5 -28t-31.5 -11l-26 2q-20 0 -29.5 12.5t-3.5 34.5zM184.5 1139.5q-1.5 19.5 10.5 31.5h-2 l208 248q21 17 37 17h109q23 0 31 -25v2l90 -242l2 -2q1 -21 -3 -31t-20 -22l-37 -18q-42 -20 -53 16v-2l-80 207h-22q-172 -203 -176 -209h-3q-13 -15 -32.5 -18.5t-32.5 10.5l-12 8q-13 10 -14.5 29.5z" />
<glyph unicode="&#xef;" horiz-adv-x="573" d="M176 1231q0 1 1 3t1 3l2 27l2 16l2 6q2 7 9 17q5 17 26 45l10 6l9 8l24 20q14 7 29 13l14 6q14 6 51 10h9h4q12 0 20 -4q23 -4 35 -16l6 -9l8 -4q3 -3 9 -12.5t8 -11.5t2 -4q4 -4 8 -21q4 -8 4 -22v-4v-17l-2 -6l-2 -16l-10 -27l-6 -12l-9 -17l-6 -12l-6 -6l-10 -14 l-12 -11q-11 -14 -31 -26l-13 -6q-13 -10 -28 -13l-17 -4h-12h-4h-20q-3 0 -7 1t-6 1q-1 0 -3 1t-3 1q-6 0 -6 2l-14 6l-13 5l-18 12q0 1 -2.5 3.5t-3.5 4.5l-10 12q-10 20 -11 25l-2 6l-2 12q-4 12 -4 23zM219 49q45 149 107 426q50 231 77 430q3 19 6.5 41.5t4.5 26.5 q10 37 47 45q3 0 15 1t16 1h6q15 0 25 -9.5t9 -27.5q-35 -255 -83 -481q-51 -227 -117 -463q-6 -16 -22.5 -27.5t-30.5 -11.5l-27 2q-45 0 -33 47zM600 1231l2 6q0 17 2 27l2 16l2 6q1 3 3 8.5t3 8.5q6 15 29 45l8 6q2 3 11 8q8 8 24 20q14 7 29 13l12 6q19 6 55 10h9h4 q8 0 20 -4q19 -3 35 -16l6 -9l6 -4q4 -4 19 -24q2 -2 2 -4q1 -3 6 -21q6 -12 6 -22v-4v-17l-2 -6l-2 -16l-10 -27l-7 -12l-10 -17l-6 -12l-6 -6l-8 -14l-13 -11q-14 -14 -30 -26l-13 -6q-17 -10 -28 -13l-19 -4h-10h-4h-22q-3 0 -6 1t-5 1q-1 0 -3 1t-3 1q-6 0 -8 2l-14 6 l-13 5l-18 12l-6 8l-11 12q-7 9 -10 25v6l-4 12z" />
<glyph unicode="&#xf0;" horiz-adv-x="1101" d="M153 405.5q1 46.5 9 83.5q32 139 123 240q72 77 178.5 123.5t226.5 46.5q119 0 199 -60.5t121 -154.5q9 150 -49 280.5t-164 213.5l-215 -170q-12 -19 -33.5 -20t-30.5 16l-16 16q-8 25 -3.5 40.5t17.5 24.5l184 152q-114 51 -247 51q-18 0 -28 13.5t-7 31.5l6 31 q4 19 20 31t35 12q186 0 328 -82l176 145q53 29 70 9l12 -17q19 -43 -10 -69l-158 -129q144 -118 203.5 -297.5t15.5 -386.5q-22 -98 -67 -197l2 4q-65 -182 -212 -284.5t-329 -102.5q-86 0 -152 26.5t-104 70.5t-62.5 96.5t-32 109t-6.5 103zM270.5 366.5 q5.5 -52.5 19.5 -91t41.5 -66t54.5 -45t58 -28t52.5 -14t38.5 -3.5q62 0 99.5 7.5t96.5 33.5q119 50 203 243q1 40 -4 84.5t-23 97.5t-46.5 95t-79.5 70t-117 28q-86 0 -157 -27.5t-116 -72t-72 -93t-38 -98.5q-16 -68 -10.5 -120.5z" />
<glyph unicode="&#xf1;" horiz-adv-x="1050" d="M156 25q0 48 61 335q100 460 145 656q5 15 22 30t32 15l26 -2q20 0 29 -12t6 -31q-23 -99 -24 -107l-2 -8q137 117 307 117q164 0 237 -105q26 -41 38 -93.5t10.5 -102t-5 -78t-8.5 -51.5q-16 -60 -31.5 -129t-33.5 -153t-23 -109q-27 -121 -27 -131l3 2q1 -13 -11 -29.5 t-28 -24.5q-37 -12 -45 -12q-12 0 -21.5 9t-11.5 20q-4 23 22 145q8 41 51 236q37 158 41 176l1 6q1 6 3 16t3.5 23.5t2.5 29.5t1.5 33.5t-1 36t-5 36t-10 35.5t-15.5 32q-57 67 -162 67q-54 0 -102.5 -16.5t-81 -39.5t-62 -59t-45 -62t-30.5 -63t-18 -47.5t-8 -28.5 q-1 -1 -1 -2v-1l-2 -15q-51 -215 -98 -436q-14 -70 -13 -72q1 -15 -11.5 -29.5t-29.5 -19.5l-20 -8q-44 -17 -55 21zM494 1251q10 32 39.5 75t76.5 65q35 14 72 14q72 0 154 -64v2q77 -56 106 -43q13 6 27 48q3 16 18.5 30.5t32.5 14.5h31q18 0 26.5 -12t5.5 -31l-1 -7 q-2 -7 -5.5 -17t-8.5 -23t-13 -27t-18.5 -28t-26 -26.5t-33.5 -21.5q-27 -16 -70 -16q-72 0 -153 63v-2q-75 57 -115 41q-9 -5 -17.5 -17t-13 -21t-4.5 -11q-3 -18 -22.5 -30t-38.5 -9h-21q-18 0 -27 17t-1 36z" />
<glyph unicode="&#xf2;" horiz-adv-x="1140" d="M198.5 233q-29.5 107 0.5 252q26 132 86 228v-2q38 62 82 108q75 81 170 133q129 72 264 66q87 -3 157 -41.5t113 -106.5q92 -142 43 -374q-61 -292 -274 -422q-50 -30 -107.5 -48t-88 -22t-52.5 -4q-164 0 -264 63t-129.5 170zM315 485q-79 -368 301 -368q96 0 179 51 q152 90 202 328q41 195 -26 299q-64 100 -203 110q-100 0 -190 -51q-97 -58 -132 -96q-10 -11 -63 -90v2q-46 -78 -68 -185zM802.5 1687.5q6.5 19.5 22.5 30.5h-2l25 17q17 11 37.5 7t25.5 -18q66 -114 72 -237q4 -83 -29 -240l-8 -37q-3 -18 -20.5 -31.5t-32.5 -13.5h-29 q-18 0 -28 13t-7 32l9 37q30 132 28 209q-6 103 -61 201l2 -2q-11 13 -4.5 32.5z" />
<glyph unicode="&#xf3;" horiz-adv-x="1140" d="M198.5 233q-29.5 107 0.5 252q26 132 86 228v-2q38 62 82 108q75 81 170 133q129 72 264 66q87 -3 157 -41.5t113 -106.5q92 -142 43 -374q-61 -292 -274 -422q-50 -30 -107.5 -48t-88 -22t-52.5 -4q-164 0 -264 63t-129.5 170zM315 485q-79 -368 301 -368q96 0 179 51 q152 90 202 328q41 195 -26 299q-64 100 -203 110q-100 0 -190 -51q-97 -58 -132 -96q-10 -11 -63 -90v2q-46 -78 -68 -185zM696 1210l9 37q1 6 8.5 39t10 43l9.5 38t12 43t13 37t16 40q50 103 180 239q16 18 37 19.5t29 -10.5l14 -17h-2q14 -10 12.5 -30.5t-16.5 -32.5l2 2 q-99 -99 -147 -201q-29 -66 -62 -209l-8 -37q-3 -19 -17.5 -32t-33.5 -13h-29q-17 0 -28 15t-9 30z" />
<glyph unicode="&#xf4;" horiz-adv-x="1140" d="M198.5 233q-29.5 107 0.5 252q26 132 86 228v-2q38 62 82 108q75 81 170 133q129 72 264 66q87 -3 157 -41.5t113 -106.5q92 -142 43 -374q-61 -292 -274 -422q-50 -30 -107.5 -48t-88 -22t-52.5 -4q-164 0 -264 63t-129.5 170zM315 485q-79 -368 301 -368q96 0 179 51 q152 90 202 328q41 195 -26 299q-64 100 -203 110q-100 0 -190 -51q-97 -58 -132 -96q-10 -11 -63 -90v2q-46 -78 -68 -185zM556.5 1111q-1.5 20 10.5 32h-2l209 248q20 16 37 16h109q22 0 30 -25v2l90 -241l2 -2q1 -22 -3 -32t-19 -22l-37 -18q-42 -20 -53 16v-2l-80 207 h-23q-172 -204 -176 -209h-2q-13 -15 -32.5 -18.5t-32.5 10.5l-13 8q-13 10 -14.5 30z" />
<glyph unicode="&#xf5;" horiz-adv-x="1140" d="M198.5 233q-29.5 107 0.5 252q26 132 86 228v-2q38 62 82 108q75 81 170 133q129 72 264 66q87 -3 157 -41.5t113 -106.5q92 -142 43 -374q-61 -292 -274 -422q-50 -30 -107.5 -48t-88 -22t-52.5 -4q-164 0 -264 63t-129.5 170zM315 485q-79 -368 301 -368q96 0 179 51 q152 90 202 328q41 195 -26 299q-64 100 -203 110q-100 0 -190 -51q-97 -58 -132 -96q-10 -11 -63 -90v2q-46 -78 -68 -185zM539 1251q10 32 39.5 75t76.5 65q35 14 72 14q72 0 154 -64v2q77 -56 106 -43q13 6 27 48q3 16 18.5 30.5t32.5 14.5h31q18 0 26.5 -12t5.5 -31 l-2 -7q-1 -7 -4.5 -17t-8.5 -23t-13 -27t-18.5 -28t-26 -26.5t-33.5 -21.5q-27 -16 -70 -16q-72 0 -153 63v-2q-75 57 -115 41q-9 -5 -17.5 -17t-13 -21t-4.5 -11q-3 -18 -22.5 -30t-38.5 -9h-21q-18 0 -27 17t-1 36z" />
<glyph unicode="&#xf6;" horiz-adv-x="1140" d="M218.5 262q-29.5 107 0.5 252q26 130 86 227v-2q40 65 82 109q75 81 170 133q129 72 264 66q87 -3 157.5 -41.5t113.5 -106.5q92 -142 43 -375q-61 -291 -275 -422q-50 -30 -107.5 -48t-87.5 -21.5t-53 -3.5q-164 0 -264 63t-129.5 170zM336 514q-79 -369 301 -369 q93 0 178 52q154 91 203 327q41 194 -27 299q-64 102 -203 111q-100 0 -190 -51q-92 -55 -131 -97q-14 -16 -64 -90v2q-45 -76 -67 -184zM428 1178v4q0 18 2 28l4 15v8l3.5 7t2.5 7q14 28 31 45l6 8q8 8 10 9t11.5 8t13.5 10q14 8 31 14l10 7q20 5 55 8h6h4q11 0 23 -4 q21 -3 35 -15l4 -8l8 -6q11 -11 17 -23q2 -2 2 -4q7 -10 10 -20q4 -16 4 -25v-4q3 -6 0 -14v-8l-4 -15l-10 -28l-7 -11l-10 -18l-6 -10l-6 -6l-10 -17l-9 -10q-32 -26 -34 -27l-11 -6q-12 -6 -28 -10l-17 -4h-12h-4h-21q-3 0 -7.5 1t-6.5 1q-2 2 -4 2q-6 0 -8 2l-17 6l-10 2 q0 1 -7 6t-9 9l-6 8l-11 10q-7 9 -14 27v6l-2 10zM852 1178v4q0 8 4 28l4 15v8q4 12 4 14q14 29 33 45l6 8q2 2 4.5 5t3.5 4q4 3 13.5 9t13.5 9q16 10 29 14l12 7q15 4 53 8h8h4q9 0 21 -4q20 -3 35 -15l6 -8l8 -6q10 -15 16 -23q3 -2 3 -4q7 -10 10 -20q0 -4 1 -12.5 t1 -12.5v-4q3 -6 0 -14v-8l-4 -15l-11 -28l-6 -11l-8 -18l-6 -10l-6 -6l-10 -17l-11 -10q-3 -2 -14 -12t-18 -15l-13 -6q-9 -6 -28 -10l-15 -4h-12h-4h-21q-3 0 -7.5 1t-6.5 1q-1 0 -3 1t-3 1q-6 0 -8 2l-15 6l-12 2q-12 12 -14 15l-8 8l-11 10q-6 12 -12 27v6l-4 10z" />
<glyph unicode="&#xf7;" horiz-adv-x="911" d="M168 502l6 28q3 25 21 33q10 10 32 10l688 -2q16 0 26.5 -12t6.5 -31l-6 -28q-3 -18 -18 -33q-13 -10 -33 -10l-688 4q-19 0 -29 11.5t-6 29.5zM348 115l2 4q0 18 2 28l2 15l2 8q1 3 3 8t3 8q9 21 31 43l6 9q5 5 11 8q6 6 26 18q12 9 27 15l14 6q8 3 53 8h9h4q3 0 10 -1 t10 -1q17 -3 35 -17l6 -8l4 -6q7 -4 21 -22q2 -3 2 -5q2 -3 4 -9.5t4 -10.5q4 -16 4 -25v-2l1 -8q0 -8 -1 -8l-2 -8l-2 -15l-10 -28l-6 -10l-11 -19l-6 -10l-4 -6l-12 -17l-8 -8q-16 -15 -33 -26l-12 -7q-4 -2 -29 -12q-3 0 -8.5 -1t-7.5 -1t-5.5 -1t-5.5 -1h-4q-16 0 -22 2 q-9 0 -13 2h-6q-1 0 -4 1t-4 1l-14 6l-13 4l-16 13l-8 8l-8 12q-4 3 -13 25v6l-4 10zM504 848l2 6q0 17 2 27l4 16v8q3 6 6 15q12 24 33 45l4 8q2 1 5 3t5 3q4 4 8.5 7.5t10 7t8.5 5.5q8 6 29 13l12 6q16 6 53 10h8h4q9 0 21 -4q18 -3 35 -16l6 -7l6 -6q3 -3 9 -11t9 -11 q2 -2 2 -4q5 -8 9 -23q4 -16 4 -22v-4v-15v-8l-4 -16l-11 -27l-6 -12l-10 -17l-6 -12l-4 -6l-10 -14l-11 -11q-14 -14 -32 -26l-13 -6q-13 -10 -28 -13l-17 -4h-10h-4h-23q-2 0 -6 1t-6 1q-1 0 -3 1t-3 1q-6 0 -8 2l-15 6l-12 5q-1 1 -4.5 3.5t-6 5t-3.5 5.5l-11 6l-8 12 q-3 4 -5 8t-4 9t-3 8v6l-4 12z" />
<glyph unicode="&#xf8;" horiz-adv-x="1050" d="M198.5 233q-29.5 107 0.5 252q26 132 86 228v-2q38 62 82 108q75 81 170 133q129 72 264 66q87 -3 157 -41.5t113 -106.5q92 -142 43 -374q-61 -292 -274 -422q-50 -30 -107.5 -48t-88 -22t-52.5 -4q-164 0 -264 63t-129.5 170zM210 -169.5q-3 18.5 11 36.5l-6 -6 l793 1323l8 10q32 11 49 4q6 -6 16 -6l2 -2q14 -5 17 -23.5t-10 -33.5l6 6l-795 -1325l-18 -17h-31l-25 10q-14 5 -17 23.5zM315 485q-79 -368 301 -368q96 0 179 51q152 90 202 328q41 195 -26 299q-64 100 -203 110q-100 0 -190 -51q-97 -58 -132 -96q-10 -11 -63 -90v2 q-46 -78 -68 -185z" />
<glyph unicode="&#xf9;" horiz-adv-x="1085" d="M194.5 211q-3.5 49 1.5 83.5t17 86.5q3 13 17 80.5t20 103.5l55 260q3 30 14 78q15 63 19 76q6 19 21 30t32 11l37 -2q32 -11 25 -45q-3 -12 -8.5 -35.5t-8.5 -34.5q-9 -39 -12 -72l-57 -264q-8 -55 -37 -188q-32 -127 -4 -182q22 -39 98 -62q41 -14 121 -14 q107 0 186 67v-2q97 84 143 258l5 17q63 269 133 518q6 19 25 32t36 9h-8q5 0 17.5 -1t17.5 -1q36 -8 26 -45q-81 -272 -155 -619q-50 -230 -39 -291q1 -14 -12 -30t-29 -21l-29 -12q-21 -4 -34 4.5t-15 20.5q-6 37 2 94l-18 -15q-116 -98 -277 -98q-81 0 -151 17 q-112 35 -152 102q-19 37 -22.5 86zM774 1687.5q7 19.5 23 30.5h-2l24 17q17 11 38 7t26 -18q65 -112 71 -237q4 -87 -28 -240l-8 -37q-3 -18 -21 -31.5t-33 -13.5h-28q-18 0 -28 13t-7 32l8 37q31 136 29 209q-6 101 -62 201l2 -2q-11 13 -4 32.5z" />
<glyph unicode="&#xfa;" horiz-adv-x="1085" d="M194.5 211q-3.5 49 1.5 83.5t17 86.5q3 13 17 80.5t20 103.5l55 260q3 30 14 78q15 63 19 76q6 19 21 30t32 11l37 -2q32 -11 25 -45q-3 -12 -8.5 -35.5t-8.5 -34.5q-9 -39 -12 -72l-57 -264q-8 -55 -37 -188q-32 -127 -4 -182q22 -39 98 -62q41 -14 121 -14 q107 0 186 67v-2q97 84 143 258l5 17q63 269 133 518q6 19 25 32t36 9h-8q5 0 17.5 -1t17.5 -1q36 -8 26 -45q-81 -272 -155 -619q-50 -230 -39 -291q1 -14 -12 -30t-29 -21l-29 -12q-21 -4 -34 4.5t-15 20.5q-6 37 2 94l-18 -15q-116 -98 -277 -98q-81 0 -151 17 q-112 35 -152 102q-19 37 -22.5 86zM668 1210l8 37q1 6 8.5 39t10 43l9.5 38t12 43t13 37t16 40q49 101 181 239q16 18 36.5 19.5t28.5 -10.5l15 -17h-2q13 -11 11.5 -31t-16.5 -32l2 2q-99 -99 -147 -201q-27 -62 -61 -209l-9 -37q-3 -19 -17.5 -32t-33.5 -13h-28 q-17 0 -28 15t-9 30z" />
<glyph unicode="&#xfb;" horiz-adv-x="1085" d="M194.5 211q-3.5 49 1.5 83.5t17 86.5q3 13 17 80.5t20 103.5l55 260q3 30 14 78q15 63 19 76q6 19 21 30t32 11l37 -2q32 -11 25 -45q-3 -12 -8.5 -35.5t-8.5 -34.5q-9 -39 -12 -72l-57 -264q-8 -55 -37 -188q-32 -127 -4 -182q22 -39 98 -62q41 -14 121 -14 q107 0 186 67v-2q97 84 143 258l5 17q63 269 133 518q6 19 25 32t36 9h-8q5 0 17.5 -1t17.5 -1q36 -8 26 -45q-81 -272 -155 -619q-50 -230 -39 -291q1 -14 -12 -30t-29 -21l-29 -12q-21 -4 -34 4.5t-15 20.5q-6 37 2 94l-18 -15q-116 -98 -277 -98q-81 0 -151 17 q-112 35 -152 102q-19 37 -22.5 86zM530.5 1111q-1.5 20 10.5 32h-2l209 248q20 16 36 16h109q23 0 31 -25v2l90 -241l2 -2q1 -21 -3.5 -31.5t-19.5 -22.5l-37 -18q-42 -20 -53 16v-2l-80 207h-22q-172 -204 -176 -209h-2q-13 -15 -33 -18.5t-33 10.5l-12 8q-13 10 -14.5 30 z" />
<glyph unicode="&#xfc;" horiz-adv-x="1085" d="M213 240q-4 49 1.5 84t16.5 86q3 13 17 80.5t20 103.5l56 260q3 30 14 78q1 4 7.5 34t10.5 42q6 18 21 29.5t33 11.5l36 -2q32 -11 25 -46q-3 -11 -8 -34t-8 -35q-11 -47 -13 -72l-57 -264q-8 -55 -37 -188q-32 -127 -4 -183q21 -38 98 -61q41 -14 121 -14q108 0 187 67 v-2q97 84 143 258l4 16q65 275 133 519q6 19 25.5 32t36.5 9h-9q5 0 17.5 -1t17.5 -1q37 -8 27 -46q-85 -287 -156 -618q-50 -230 -39 -291q1 -14 -12 -30t-29 -21l-28 -12q-21 -4 -34.5 4t-15.5 20q-5 34 3 94l-19 -14q-116 -98 -276 -98q-86 0 -152 16q-110 34 -151 103 q-19 37 -23 86zM426 1178v4q1 5 2 14t2 14l4 15v8l3.5 7t2.5 7q10 27 31 45l6 8q8 8 10 9q3 3 13 9.5t12 8.5q16 10 29 14l12 7q15 4 53 8h8h4q13 0 21 -4q23 -3 35 -15l6 -8l8 -6q3 -3 5.5 -6.5t6 -8.5t5.5 -8q2 -2 2 -4q7 -10 10 -20q2 -8 2 -25v-4q3 -6 0 -14v-8l-4 -15 l-10 -28l-7 -11l-8 -18l-6 -10l-6 -6l-10 -17l-11 -10q-17 -17 -32 -27l-13 -6q-9 -6 -28 -10l-15 -4h-12h-4h-21q-3 0 -7.5 1t-6.5 1q-1 0 -3 1t-3 1q-6 0 -8 2l-15 6l-12 2q-1 2 -6.5 7t-7.5 8l-8 8l-9 10q-7 9 -14 27v6l-4 10zM852 1178v4q0 18 2 28l4 15v8l3.5 7t2.5 7 q14 28 31 45l6 8q8 8 10 9t11.5 8t13.5 10q14 8 31 14l10 7q20 5 55 8h8h4q9 0 21 -4q21 -3 35 -15l6 -8l6 -6q3 -3 18 -23q3 -2 3 -4q1 -3 4 -10t4 -10q4 -16 4 -25v-4q3 -6 0 -14v-8l-4 -15l-11 -28l-6 -11l-10 -18l-6 -10l-6 -6l-8 -17l-11 -10q-5 -4 -16 -13.5 t-16 -13.5l-13 -6q-12 -6 -28 -10l-17 -4h-10h-4h-23q-3 0 -6.5 1t-5.5 1q-1 0 -3 1t-3 1q-6 0 -8 2l-15 6l-12 2q-1 1 -7.5 6t-8.5 9l-6 8l-11 10q-9 12 -12 27v6l-4 10z" />
<glyph unicode="&#xfd;" horiz-adv-x="942" d="M33 -336l2 -8q-7 15 5 34.5t30 24.5h-2q74 27 140.5 68.5t108.5 80t79.5 84.5t54 72t30.5 52l-182 874l2 -4q-8 15 4.5 37.5t32.5 26.5l-8 -5l32 13q17 5 35 -2.5t17 -26.5q26 -129 77 -370t80 -382q67 116 213 368t222 386l-2 -2q12 31 61 31l25 -8l6 -7q23 -23 14 -40 l-520 -904l4 4q-8 -19 -25 -50t-61 -88.5t-98.5 -110.5t-143.5 -110.5t-190 -94.5q-39 0 -41 28zM616 1108l9 37q39 174 69 239q51 105 180 240q16 18 37 19t29 -11l14 -16h-2q14 -10 12.5 -31t-16.5 -33l2 2q-100 -100 -147 -200q-29 -66 -62 -209l-8 -37q-3 -19 -17.5 -32 t-33.5 -13h-29q-17 0 -28 15t-9 30z" />
<glyph unicode="&#xfe;" horiz-adv-x="978" d="M84 -266l346 1632q5 19 19.5 31t33.5 12h27q19 0 28 -12t5 -31l-121 -575q86 85 193 134.5t204 49.5q157 0 225 -121q72 -132 23 -365v-4q-48 -228 -178 -364q-58 -58 -130.5 -89.5t-146.5 -31.5q-94 0 -180.5 50.5t-138.5 133.5l-96 -450q-4 -19 -19.5 -31t-34.5 -12 h-26q-19 0 -28 12t-5 31zM356 487q-16 -77 2 -148t59 -120t98.5 -78.5t119.5 -29.5q103 0 180 77q93 93 141 299q41 203 -14 297q-49 80 -147 80q-83 0 -175.5 -49t-166.5 -137.5t-97 -190.5z" />
<glyph unicode="&#xff;" horiz-adv-x="942" d="M51 -307l2 -8q-7 15 5 34.5t30 24.5h-2q91 33 168 85t127 108.5t75 92.5t44 70l-183 875l2 -4q-8 15 4.5 37t32.5 26l-8 -4l33 12q17 5 34.5 -2t16.5 -26q26 -130 78 -371t80 -381q65 114 211 366.5t223 387.5l-2 -2q12 30 61 30l25 -8l6 -6q23 -23 14 -41l-520 -903l4 4 q-8 -19 -25 -50t-61 -89t-98.5 -111t-143.5 -110.5t-190 -94.5q-38 0 -41 29zM426 1178v4q0 18 2 28l4 15v8l3.5 7t2.5 7q14 29 33 45l6 8q3 7 8 9q4 3 13.5 9t13.5 9q10 8 29 14l12 7q15 4 53 8h8h4q9 0 21 -4q20 -3 35 -15l6 -8l8 -6q2 -3 17 -23q2 -2 2 -4q8 -12 8 -20 q4 -16 4 -25v-4q3 -6 0 -14v-8l-4 -15l-10 -28l-7 -11l-10 -18l-4 -10l-6 -6l-10 -17l-11 -10q-3 -2 -14 -12t-18 -15l-13 -6q-15 -7 -28 -10l-17 -4h-10h-4h-23q-2 0 -6 1t-6 1q-1 0 -3 1t-3 1q-6 0 -8 2l-15 6l-12 2q-12 12 -14 15l-8 8l-11 10q-6 12 -12 27v6l-4 10z M852 1178v4q0 18 2 28l4 15v8l3.5 7t2.5 7q14 28 31 45l6 8q8 8 10 9q4 3 12.5 9t12.5 9q12 7 29 14l12 7q20 5 55 8h6h4q11 0 23 -4q21 -3 35 -15l4 -8l8 -6q9 -9 16 -23q2 -2 2 -4q9 -13 11 -20q4 -16 4 -25v-4q3 -6 0 -14v-8l-4 -15l-11 -28l-6 -11l-10 -18l-6 -10l-6 -6 l-10 -17l-9 -10q-32 -26 -34 -27l-11 -6q-13 -7 -30 -10l-15 -4h-12h-4h-21q-3 0 -7.5 1t-6.5 1q-1 0 -2 1t-2 1q-6 0 -8 2l-17 6l-10 2q-1 1 -7.5 6t-8.5 9l-6 8l-11 10q-7 9 -14 27v6l-2 10z" />
<glyph unicode="&#x152;" horiz-adv-x="1947" d="M268 729q39 184 132.5 329t226.5 238q213 136 495 136q129 0 291 -33h682q18 0 27 -14.5t6 -30.5l-6 -31q-4 -19 -19.5 -31t-34.5 -12h-614l-100 -475h573q16 0 28 -12t9 -31l-6 -29q-4 -19 -21 -31t-34 -12h-574l-115 -545h646q17 0 27 -14.5t7 -30.5l-6 -28 q-4 -20 -20.5 -32.5t-34.5 -12.5h-696q-157 -27 -273 -27q-319 0 -481 152q-197 188 -115 577zM387 729q-71 -337 90 -485q131 -125 412 -125q123 0 205 14l245 1155q-138 27 -241 27q-249 0 -422 -113q-217 -142 -289 -473z" />
<glyph unicode="&#x153;" horiz-adv-x="1986" d="M231 489q28 139 88 226l-2 -2q25 45 80 108q70 76 172 133q128 72 260 66q89 -3 159.5 -41.5t115.5 -106.5q29 -52 41 -102q54 77 108 121q145 121 353 121q201 0 282 -121q82 -126 21 -348q-1 -2 -2.5 -6t-2.5 -7t-1 -4q-17 -34 -50 -34h-704q-33 -225 76 -316 q64 -61 194 -61q132 0 324 65l-10 -6q24 8 34 8q25 -17 25 -35v5l4 -29v4q4 -15 -10 -35q-8 -11 -29 -20q-207 -72 -360 -72q-71 0 -141 24t-121 60q-66 58 -97 156q-69 -104 -168 -162q-123 -74 -249 -74h-43q-153 0 -252 78q-153 125 -95 407zM332 376.5 q-1 -51.5 9.5 -87.5t27 -64.5t41 -46.5t48.5 -30.5t52 -18t49 -8t43 -2.5h33h10q93 0 180 51h-2q153 89 203 328q41 193 -27 299q-61 102 -200 108h-13q-88 0 -178 -49q-86 -51 -131 -96q-35 -44 -63 -90q-44 -75 -68 -181q-13 -61 -14 -112.5zM1178 606h628q24 131 -22 209 q-29 37 -83.5 60.5t-119.5 23.5q-76 0 -141 -21.5t-106.5 -52.5t-75.5 -73.5t-50.5 -76t-29.5 -69.5z" />
<glyph unicode="&#x178;" horiz-adv-x="1062" d="M330 1386q0 14 10.5 30.5t26.5 25.5l22 12l-2 -2q17 9 34 5.5t23 -17.5l250 -654l529 654q12 13 32.5 17t30.5 -5l-2 2l19 -12q22 -18 12 -56l-592 -731q-9 -41 -123 -583q-10 -43 -51 -43h-27q-45 0 -35 43l121 585zM440 1589l2 6q0 17 2 27l5 16v9q4 8 6 14 q15 30 32 45l7 8q6 6 10 8q5 7 24 21q25 10 31 12l10 6q22 7 56 11h8h4q7 0 22 -5q19 -3 35 -16l8 -6l5 -6q3 -4 10 -13.5t8 -11.5q2 -2 2 -4q2 -3 5 -10t5 -10q0 -4 1 -12.5t1 -12.5v-4v-14v-9l-4 -16l-10 -27l-6 -12l-8 -18l-6 -13l-7 -4l-12 -16l-10 -10q-11 -11 -31 -27 l-12 -6q-15 -9 -31 -12l-16 -4h-13h-4h-22q-2 0 -5 1t-5 1q-1 0 -3.5 1t-3.5 1q-6 0 -8 2l-16 6l-10 4q-14 9 -17 14l-10 6l-8 13q-3 5 -12 26v4l-5 13zM991 1589l2 6q0 17 2 27l4 16v9l7 14q15 30 30 45l6 8q5 5 11 8q6 6 26 21q14 7 29 12l12 6q20 7 56 11h8h2q7 0 22 -5 q18 -3 35 -16l8 -6l6 -6q9 -9 17 -25q2 -2 2 -4q2 -3 5 -10t5 -10q4 -16 4 -25v-4v-14v-9l-4 -16l-10 -27l-6 -12l-10 -18l-7 -13l-6 -4l-12 -16l-8 -10q-15 -15 -33 -27l-12 -6q-16 -9 -29 -12l-18 -4h-13h-2h-22q-3 0 -7 1t-6 1q-1 0 -3 1t-3 1q-4 0 -6 2l-16 6l-13 4 q-12 8 -14 14l-10 6l-10 13q-6 7 -13 26v4l-2 13z" />
<glyph unicode="&#x2c6;" horiz-adv-x="624" d="M298.5 1111q-1.5 20 10.5 32h-2l209 248q20 16 37 16h109q22 0 30 -25v2l90 -241l2 -2q1 -22 -3 -32t-19 -22l-37 -18q-42 -20 -53 16v-2l-80 207h-23q-172 -204 -176 -209h-2q-13 -15 -32.5 -18.5t-32.5 10.5l-13 8q-13 10 -14.5 30z" />
<glyph unicode="&#x2dc;" horiz-adv-x="759" d="M330 1128q10 32 39.5 75t76.5 65q35 14 72 14q73 0 154 -63v2q77 -56 106 -43q13 6 27 47q3 16 18.5 30.5t32.5 14.5h31q18 0 27 -12t6 -31l-2 -7q-2 -7 -5 -17t-8 -23t-13.5 -27t-19 -28t-26 -26.5t-33.5 -21.5q-27 -16 -70 -16q-72 0 -153 63v-2q-75 57 -115 41 q-9 -5 -17.5 -17t-13 -21t-4.5 -11q-3 -18 -22.5 -30t-38.5 -9h-21q-18 0 -27 17t-1 36z" />
<glyph unicode="&#x2000;" horiz-adv-x="1097" />
<glyph unicode="&#x2001;" horiz-adv-x="2194" />
<glyph unicode="&#x2002;" horiz-adv-x="1097" />
<glyph unicode="&#x2003;" horiz-adv-x="2194" />
<glyph unicode="&#x2004;" horiz-adv-x="731" />
<glyph unicode="&#x2005;" horiz-adv-x="548" />
<glyph unicode="&#x2006;" horiz-adv-x="365" />
<glyph unicode="&#x2007;" horiz-adv-x="365" />
<glyph unicode="&#x2008;" horiz-adv-x="274" />
<glyph unicode="&#x2009;" horiz-adv-x="438" />
<glyph unicode="&#x200a;" horiz-adv-x="121" />
<glyph unicode="&#x2010;" horiz-adv-x="868" d="M260 627l6 28q3 23 19 31q12 12 32 12l496 -2q16 0 27.5 -12.5t7.5 -30.5l-6 -28q-3 -21 -21 -33q-16 -12 -33 -12l-495 4q-18 0 -27.5 11.5t-5.5 31.5z" />
<glyph unicode="&#x2011;" horiz-adv-x="868" d="M260 627l6 28q3 23 19 31q12 12 32 12l496 -2q16 0 27.5 -12.5t7.5 -30.5l-6 -28q-3 -21 -21 -33q-16 -12 -33 -12l-495 4q-18 0 -27.5 11.5t-5.5 31.5z" />
<glyph unicode="&#x2012;" horiz-adv-x="868" d="M260 627l6 28q3 23 19 31q12 12 32 12l496 -2q16 0 27.5 -12.5t7.5 -30.5l-6 -28q-3 -21 -21 -33q-16 -12 -33 -12l-495 4q-18 0 -27.5 11.5t-5.5 31.5z" />
<glyph unicode="&#x2013;" horiz-adv-x="929" d="M260 627l6 28q3 23 21 31q10 12 32 12l553 -2q16 0 26.5 -12.5t6.5 -30.5l-6 -28q-3 -21 -18 -33q-16 -12 -33 -12l-553 4q-19 0 -29 11.5t-6 31.5z" />
<glyph unicode="&#x2014;" horiz-adv-x="1384" d="M268 627l6 28q3 23 21 31q10 12 33 12l977 -2q18 0 28 -12.5t6 -30.5l-6 -28q-3 -22 -20 -33q-16 -12 -33 -12l-977 4q-19 0 -29 11.5t-6 31.5z" />
<glyph unicode="&#x2018;" horiz-adv-x="299" d="M256 973l8 37q38 169 72 239q56 121 178 240v-2q10 14 33.5 17t32.5 -7l14 -16h-2q14 -10 12.5 -31t-16.5 -33l2 2q-102 -102 -148 -200q-27 -62 -61 -209l-8 -37q-3 -19 -17.5 -32t-33.5 -13h-29q-16 0 -27.5 15t-9.5 30z" />
<glyph unicode="&#x2019;" horiz-adv-x="296" d="M203 985q1 21 18 33l-2 -4q96 96 148 200q31 71 59 209l8 39q5 18 20 31.5t33 13.5h29q15 0 26.5 -15.5t8.5 -29.5l-8 -39q-32 -150 -74 -239q-61 -128 -176 -240l2 2q-12 -13 -35.5 -15t-30.5 7l-16 16h2q-13 10 -12 31z" />
<glyph unicode="&#x201a;" horiz-adv-x="296" d="M-40.5 -173.5q1.5 21.5 17.5 32.5l-4 -4q102 107 146 200q35 79 61 209l8 39q3 16 19.5 30.5t34.5 14.5h28q15 0 26.5 -15.5t8.5 -29.5l-8 -39q-32 -150 -74 -239q-58 -122 -176 -240v2q-12 -13 -33.5 -15t-27.5 7l-19 16h2q-11 10 -9.5 31.5z" />
<glyph unicode="&#x201c;" horiz-adv-x="770" d="M309 973l8 37q38 170 70 239q63 128 180 240v-2q10 14 33.5 17t32.5 -7l14 -16h-2q13 -11 11.5 -31.5t-15.5 -32.5l2 2q-102 -99 -147 -200q-32 -67 -64 -209l-8 -37q-3 -19 -17 -32t-32 -13h-29q-17 0 -28 15t-9 30zM637 973l8 37q38 169 72 239q56 121 178 240v-2 q11 14 34.5 17t31.5 -7l14 -16q12 -10 10.5 -31t-16.5 -33l2 2q-102 -102 -148 -200q-27 -62 -61 -209l-8 -37q-3 -19 -18 -32t-34 -13h-28q-16 0 -27.5 15t-9.5 30z" />
<glyph unicode="&#x201d;" horiz-adv-x="770" d="M280.5 985q1.5 21 16.5 33l-2 -4q97 94 147 200q33 75 60 209l8 39q5 18 20 31.5t33 13.5h29q16 0 27 -15.5t8 -29.5l-9 -39q-32 -154 -71 -239q-67 -135 -178 -240l2 2q-10 -13 -33.5 -15t-32.5 7l-14 16h2q-14 10 -12.5 31zM609.5 985q0.5 21 15.5 33l-2 -4 q97 94 147 200q33 71 61 209l9 39q5 18 19.5 31.5t33.5 13.5h29q14 0 24.5 -15.5t7.5 -29.5l-8 -39q-32 -150 -72 -239q-61 -128 -176 -240l2 2q-12 -13 -35 -15t-30 7l-17 16h3q-12 10 -11.5 31z" />
<glyph unicode="&#x201e;" horiz-adv-x="770" d="M34.5 -174q1.5 21 16.5 33l-4 -4q104 101 148 200q35 79 61 209l8 39q3 16 19 30.5t34 14.5h29q16 0 27 -15.5t8 -29.5l-8 -39q-32 -150 -72 -239q-68 -133 -176 -238q-8 -16 -33 -17t-33 9l-16 16h2q-12 10 -10.5 31zM363.5 -174q1.5 21 15.5 33l-4 -4q102 99 147 200 q39 82 64 209l8 39q3 16 18.5 30.5t34.5 14.5h29q15 0 25.5 -15.5t7.5 -29.5l-9 -39q-32 -154 -71 -239q-61 -125 -174 -238q-10 -16 -34.5 -17t-31.5 9l-18 16h2q-11 10 -9.5 31z" />
<glyph unicode="&#x2022;" horiz-adv-x="468" d="M209 569v6q0 19 2 27l4 16l2 9q0 2 4 14q11 22 31 45l8 8q3 6 8 6q9 9 25 21q16 9 31 12l10 6q24 8 55 11h6h4q8 0 23 -5q16 -3 35 -14l6 -8l6 -6q3 -3 9 -11.5t9 -11.5v-4q9 -13 11 -22q4 -12 4 -23v-4q0 -3 1 -7.5t1 -6.5l-2 -9l-4 -16l-11 -27l-6 -12l-10 -16l-6 -12 l-6 -7l-10 -14l-9 -10q-32 -26 -34 -27l-11 -6q-13 -10 -28 -10l-17 -4h-12h-4h-21q-3 0 -7.5 1t-6.5 1q-2 2 -4 2h-8l-17 6l-10 4q-1 1 -7.5 6t-8.5 8l-6 9l-11 10q-6 8 -14 24v7l-2 12z" />
<glyph unicode="&#x2026;" horiz-adv-x="1204" d="M129 115l2 4q0 18 2 28l2 15l2 8q1 3 3 8t3 8q8 18 29 43l8 9q6 6 10 8q8 7 25 18q17 10 29 15l12 6q11 4 55 8h6h5q4 0 11.5 -1t10.5 -1q18 -4 35 -17l4 -8l6 -6q11 -5 19 -22q2 -3 2 -5l10 -20q4 -16 4 -25v-2v-16l-2 -8l-2 -15l-10 -28l-7 -10l-10 -19l-6 -10l-6 -6 l-12 -17l-7 -8q-14 -14 -34 -26l-11 -7q-4 -2 -14 -6t-14 -6q-3 0 -9 -1t-8 -1t-6 -1t-6 -1h-4q-14 0 -20 2q-11 0 -15 2h-4q-1 0 -4 1t-4 1l-16 6l-11 4l-18 13l-6 8l-8 12q-7 5 -15 25v6l-2 10zM473 123l2 10l4 12q0 10 6 25q9 28 31 53l8 10l15 17l12 10l18 10q1 0 2 1 t2 1l11 7q2 2 4 2q13 7 30 10h7h6q2 0 4.5 1t3.5 1h12h11q1 0 3 -1t3 -1h8l10 -2q4 0 6 -2q4 0 8 -4q7 -2 17 -9l4 -4l6 -6l4 -6q15 -11 17 -20l8 -13l4 -8l6 -18q0 -2 2 -4v-7l2 -12l-2 -4q2 -5 0 -10l2 -4l-2 -6q0 -1 1 -3.5t1 -3.5l-2 -10l-4 -12l-12 -29q-1 -1 -2 -4 t-2 -4q-5 -5 -5 -6l-8 -10q0 -1 -6 -7l-4 -4l-8 -6q-2 -2 -8 -6.5t-9 -7.5q-20 -12 -30 -16l-13 -7q-1 0 -4 -1t-4 -1q-5 -2 -15 -5l-11 -3h-7q-1 0 -4.5 -1t-5.5 -1h-8q-12 0 -20 2h-7q-2 2 -8 2l-8 4q-4 0 -6 2l-14 4l-5 5l-10 6q-10 5 -20 18l-15 14l-2 9l-4 4q0 4 -2 8 l-2 14v2zM825 111v6l2 18l4 21l5 18q0 1 1 4t1 4q2 4 2 8l2 5q1 1 2.5 4.5t3.5 5.5q0 5 6 8q0 1 1 3t1 3l6 4q2 7 12 17q3 3 9 8.5t8 7.5q1 0 3 1t3 1l10 6l6 4h-2q8 4 11 4l4 2q5 5 8 5q8 3 27 8q2 2 6 2q1 0 5 1t5 1h4h18h9h12q2 0 5.5 -1t4.5 -1q2 -2 8 -2q21 -8 39 -23 l4 -6q2 -2 4 -2l11 -14l8 -15q2 -2 6 -10l6 -12v-12q0 -2 1 -4.5t1 -4.5v-14l-2 -14q-8 -27 -18 -45q0 -5 -4 -7q0 -4 -4 -12l-11 -14l-4 -4l-10 -11q-14 -17 -37 -34l-10 -9l-10 -6l-17 -6q-14 -5 -37 -8h-16q-1 0 -6.5 1t-7.5 1q-4 2 -11 2l-10 4q-1 0 -3.5 1t-4.5 1 l-21 8l-16 13q-11 11 -18 28q-2 0 -2 4l-2 5l-7 20z" />
<glyph unicode="&#x202f;" horiz-adv-x="438" />
<glyph unicode="&#x2039;" horiz-adv-x="464" d="M80 408q7 48 371 417q13 9 22 9q24 3 35 -11l-4 2l26 -22q17 -24 -12 -58q-255 -258 -319 -337q36 -104 161 -330l-2 4q7 -11 2 -31q-8 -27 -28 -35l-21 -16l4 2q-12 -10 -32 -10q-25 0 -31 18q-184 345 -172 398z" />
<glyph unicode="&#x203a;" horiz-adv-x="464" d="M113 51q6 22 16 31l-2 -4q256 270 299 330q-31 83 -176 337q-15 34 12 58l33 20q21 16 37 11q17 -3 20 -9q203 -361 195 -417q-12 -53 -342 -398q-18 -18 -39 -18q-19 0 -27 10l4 -2l-20 16q-14 14 -10 35z" />
<glyph unicode="&#x205f;" horiz-adv-x="548" />
<glyph unicode="&#x20ac;" horiz-adv-x="1196" d="M143 543l7 30q4 20 20 32.5t35 12.5h166q2 21 20 107q2 11 3 18.5t2.5 13.5t4.5 17h-163q-19 0 -29.5 14t-5.5 31l6 31q3 20 18.5 32.5t34.5 12.5h174q103 270 307 405q173 107 387 107q103 0 254 -39q0 2 7 2q36 -22 18 -55l-14 -31q-27 -41 -70 -31q-2 2 -28.5 9.5 t-81.5 15.5t-111 8q-180 0 -311 -82q-149 -91 -234 -309h629q16 0 27 -13t8 -32l-6 -31q-4 -17 -21.5 -31t-32.5 -14h-643q-3 -7 -12 -49q-9 -46 -16 -107h638q16 0 26.5 -13t6.5 -32l-6 -30q-4 -17 -21 -31t-32 -14h-619q3 -181 107 -275q114 -104 328 -104q72 0 172 16 l8 2q17 4 30 -6t13 -27l2 -28q0 -19 -12.5 -35.5t-32.5 -20.5h2q-100 -20 -207 -20q-104 0 -211 29.5t-184 99.5q-143 134 -140 369h-182q-19 0 -29.5 14t-5.5 31z" />
<glyph unicode="&#x2122;" horiz-adv-x="1439" d="M303 1237l2 12q3 13 18 25t25 12h477q12 0 22 -12t7 -25l-2 -12q-2 -9 -17.5 -22t-27.5 -13h-195l-125 -590q-8 -32 -41 -32h-16q-16 0 -24 9.5t-5 22.5l125 590h-196q-9 0 -19 13t-8 22zM731 623l176 630q4 15 17 24t28 9h66q4 0 7.5 -0.5t5.5 -1t4 -2t3 -2.5t2 -3.5 t1.5 -4t1.5 -5t1 -5.5l64 -519q198 366 276 519q8 12 21 18t20 6h82q32 0 27 -35l-104 -628q-3 -12 -19 -25.5t-25 -13.5h-14q-11 0 -17.5 4.5t-8.5 10t-5 15.5l95 570q-45 -86 -151 -281.5t-161 -300.5q-17 -24 -43 -24h-20q-24 0 -27 24l-61 582l-156 -566q-5 -14 -17 -24 t-26 -10h-18q-30 17 -25 39z" />
<glyph unicode="&#x25fc;" horiz-adv-x="1024" d="M0 0v1024h1024v-1024h-1024z" />
<glyph unicode="&#xfb01;" horiz-adv-x="1040" d="M220 16q-5 10 1 35q1 5 20 77t46 183.5t51 225.5q39 175 59 309h-139q-18 0 -28 13t-5 28l4 26q4 19 19.5 31t34.5 12h133v5q38 222 149 335q110 113 271 113q65 0 125 -14q22 -4 133 -37q45 -16 66.5 -50.5t10.5 -84.5q-11 -57 -60 -97.5t-107 -40.5q-56 0 -87.5 40.5 t-21.5 97.5q9 34 29 61h-11q-55 12 -100 12q-110 0 -174 -67q-71 -71 -98 -205q-10 -44 -11 -55l-2 -6v-7h457q41 0 31 -55q-27 -218 -78 -465q-57 -251 -100 -397q-14 -39 -52 -39l-32 2q-21 4 -25.5 13.5t-1.5 31.5q55 179 100 395q51 234 72 404h-391q-13 -77 -62 -307 q-27 -130 -54.5 -250t-44 -182.5t-19.5 -69.5q-9 -37 -49 -37l-33 2q-21 4 -26 14z" />
<glyph unicode="&#xfb02;" horiz-adv-x="1013" d="M217 51q1 2 20.5 79.5t47.5 194.5t53 238q41 199 55 281h-139q-20 0 -29 12t-4 31l4 26q3 15 19 29t35 14h133v2q38 222 147 338q113 113 272 113q66 0 123 -14q79 -16 154 -43v2q14 -5 19.5 -21t-1.5 -33v-8q-109 -448 -165 -712q-81 -381 -91 -529v-2q-10 -38 -36 -43 l-37 -6q-18 0 -29.5 11t-9.5 24q5 160 94 563q78 373 152 664q-62 18 -93 22q-56 12 -102 12q-107 0 -174 -67q-86 -99 -111 -262q-2 -6 -4 -6q0 -3 2 -5h223q13 0 23.5 -14.5t7.5 -28.5l-4 -26q-4 -18 -20.5 -30.5t-30.5 -12.5h-217q-13 -77 -62 -307 q-27 -128 -55.5 -248.5t-44.5 -182.5t-20 -69q-3 -17 -17 -27t-29 -10q-11 0 -38 2q-30 8 -21 49z" />
<glyph unicode="&#xfb03;" horiz-adv-x="1675" d="M207 51q1 5 20 75.5t46 181t51 224.5q38 174 59 312h-143q-19 0 -28 12t-5 31l4 26q5 19 19.5 31t33.5 12h135q49 281 213 387h-2q95 64 215 64q49 0 105 -14q19 -14 20 -21v-16l-14 -29l12 14l-14 -26v2q-2 -11 -16 -25q-31 -12 -50 -6q-32 8 -67 8q-83 0 -139 -41 q-117 -76 -148 -297h225q19 0 28 -12t5 -31l-4 -26q-5 -19 -19.5 -31t-33.5 -12h-221q-16 -100 -66 -334q-25 -122 -51.5 -236t-42 -172t-19.5 -65q0 -14 -16 -27q-20 -10 -33 -10l-26 2q-23 0 -31 14q-8 8 -2 35zM703.5 16q-4.5 10 1.5 35q1 4 19.5 76.5t45.5 184t51 225.5 q42 190 60 309h-140q-18 0 -27.5 12.5t-4.5 28.5l4 26q5 19 19.5 31t33.5 12h133v5q37 220 150 335q110 113 272 113q63 0 123 -14q32 -6 133 -37q46 -16 68.5 -50.5t11.5 -84.5q-10 -57 -59.5 -97.5t-108.5 -40.5q-57 0 -88.5 40.5t-20.5 97.5q8 31 27 61h-8 q-59 12 -101 12q-112 0 -176 -67q-72 -75 -98 -205q-8 -35 -10 -55l-2 -6v-7h458q20 0 27.5 -12t1.5 -43q-30 -241 -76 -465q-50 -222 -102 -397q-14 -39 -51 -39l-33 2q-21 4 -25.5 13.5t-1.5 31.5q58 190 101 395q49 224 71 404h-389q-17 -101 -61 -307 q-27 -129 -55.5 -250t-45 -183t-20.5 -69q-9 -37 -49 -37l-33 2q-21 4 -25.5 14z" />
<glyph unicode="&#xfb04;" horiz-adv-x="1585" d="M266 16q-6 8 0 35q1 4 19.5 75.5t45 181.5t50.5 224q38 174 59 312h-141q-20 0 -29 12t-4 31l4 26q5 19 19.5 31t34.5 12h135q49 281 213 387h-2q92 64 215 64q48 0 104 -14q18 -14 21 -21v-16l-15 -29l13 14l-15 -26v2q-5 -14 -16 -25q-30 -12 -49 -6q-32 8 -68 8 q-83 0 -139 -41q-115 -74 -150 -297h228q18 0 26.5 -12t3.5 -31l-4 -26q-5 -19 -18.5 -31t-32.5 -12h-221q-16 -100 -66 -334q-25 -122 -52 -236t-42.5 -172t-19.5 -65q0 -12 -15 -27q-23 -10 -32 -10l-29 2q-20 0 -31 14zM764 51q1 4 21 80t48.5 193.5t53.5 238.5 q41 199 55 281h-141q-19 0 -28 12t-5 31l4 26q3 15 19 29t34 14h133v2q38 221 150 338q110 113 272 113q63 0 123 -14q74 -15 152 -43v2q14 -5 19.5 -21t-1.5 -33v-8q-101 -416 -164 -712q-83 -391 -90 -529v-2q-10 -37 -37 -43l-36 -6q-18 0 -30.5 11t-10.5 24 q8 164 96 563q82 395 151 664q-63 18 -94 22q-53 12 -102 12q-107 0 -174 -67q-44 -53 -72.5 -125.5t-36.5 -136.5q-2 -6 -4 -6q0 -3 2 -5h221q15 0 24.5 -14.5t6.5 -28.5l-4 -26q-4 -18 -19.5 -30.5t-31.5 -12.5h-215q-10 -55 -64 -307q-27 -129 -55 -248.5t-44.5 -182 t-19.5 -69.5q-4 -18 -18 -27.5t-29 -9.5q-12 0 -39 2q-28 9 -20 49z" />
</font>
</defs>
</svg>
