<?xml version="1.0" standalone="no"?>
<!DOCTYPE svg PUBLIC "-//W3C//DTD SVG 1.1//EN" "http://www.w3.org/Graphics/SVG/1.1/DTD/svg11.dtd" >
<svg xmlns="http://www.w3.org/2000/svg">
<metadata></metadata>
<defs>
<font id="kiddysansfat" horiz-adv-x="1089" >
<font-face units-per-em="2048" ascent="1536" descent="-512" />
<missing-glyph horiz-adv-x="819" />
<glyph horiz-adv-x="2048" />
<glyph horiz-adv-x="2048" />
<glyph unicode="&#xd;" horiz-adv-x="2048" />
<glyph unicode=" "  horiz-adv-x="819" />
<glyph unicode="&#x09;" horiz-adv-x="819" />
<glyph unicode="&#xa0;" horiz-adv-x="819" />
<glyph unicode="!" horiz-adv-x="360" d="M18 154v20q0 20 9 53l-2 -10l14 31q26 26 29 28l-7 -2q26 20 48 31l20 4l-10 -2l28 10h13q1 0 7 1t7 1h23l41 -8l28 -18l10 -8l-12 6l23 -17l18 -18v-6l17 -17l2 -28l2 -10q0 -1 1 -4t1 -7l1 -3q1 -3 1 -7v-10l-1 -3q-1 -3 -1 -7q0 -2 -1 -6t-1 -5v-8l-2 -12 q-12 -37 -19 -51l-8 -9q-12 -16 -16 -24l-7 -6l-24 -15l-14 -8q-23 -10 -43 -10h-19q-10 0 -16 2q-14 0 -19 4q-67 14 -104 86l-12 25q0 1 -1.5 8t-1.5 10zM96 438l4 897q2 24 20 42t42 18h28q56 -17 56 -60l-4 -897q-1 -25 -19 -42t-41 -17h-30q-56 11 -56 59z" />
<glyph unicode="&#x22;" horiz-adv-x="720" d="M119 952l2 475q0 24 17.5 43t41.5 19h37q53 -10 53 -62l-4 -475q0 -25 -17 -43t-42 -18h-37q-51 8 -51 61zM424 952l2 475q0 24 17.5 43t41.5 19h37q53 -10 53 -62l-4 -475q0 -25 -17 -43t-42 -18h-37q-51 8 -51 61z" />
<glyph unicode="#" horiz-adv-x="1046" d="M27 477v27q0 22 21 41.5t40 19.5l141 -2l39 264h-135q-24 0 -41.5 18.5t-17.5 43.5v31q13 55 59 55l156 -2l53 370q26 64 76 50q4 -2 14 -2q24 0 42 -20.5t18 -47.5l-54 -350h183l53 370q11 28 30.5 42.5t43.5 7.5q6 -2 16 -2q24 0 41.5 -20.5t17.5 -47.5l-53 -350h152 q23 0 42 -17t19 -45l-2 -26q0 -29 -16.5 -45.5t-42.5 -16.5l-172 2l-39 -262q31 0 83 -1t83 -1q25 0 42 -17t17 -42v-29q0 -30 -18 -44.5t-41 -14.5h-189l-51 -363q-6 -30 -21 -40.5t-43 -10.5l-26 4q-24 0 -42 20.5t-18 47.5l52 344h-181q-8 -60 -26.5 -180.5t-26.5 -180.5 q-15 -55 -61 -55l-29 4q-27 0 -44.5 20.5t-12.5 47.5l51 344q-19 0 -60 1t-61 1q-25 0 -43 16.5t-18 42.5zM379 563h182l39 262q-28 0 -86 1t-96 1z" />
<glyph unicode="$" horiz-adv-x="880" d="M0.5 124.5q-6.5 24.5 3.5 47.5l16 25q19 47 76 28l8 -4q141 -62 254 -67v450q-50 15 -89 31.5t-82 46t-71 66t-46.5 92.5t-18.5 125q0 51 8 92q30 157 154 231q63 36 145 47v219q0 25 17 43.5t45 18.5h31q22 0 41.5 -19.5t19.5 -42.5v-215q106 -10 256 -59 q28 -7 41 -40.5t0 -51.5l-8 -19q-5 -14 -13 -22.5t-21 -12t-22 -4t-26 -0.5q-1 3 -30 13.5t-80 22.5t-97 16v-463q78 -22 92 -29q85 -37 146 -113.5t73 -162.5q12 -71 -19.5 -156.5t-121.5 -161.5q-74 -65 -170 -86v-225q0 -28 -18.5 -44.5t-42.5 -16.5h-31q-29 0 -45.5 16 t-16.5 45v215q-78 4 -161 27.5t-121.5 40.5t-48.5 24l4 -2q-24 10 -30.5 34.5zM205 961q0 -144 153 -199v416q-39 -6 -69 -23q-60 -37 -78 -125q-6 -29 -6 -69zM512 172q13 5 39.5 20t34.5 23q99 76 86 174q-7 56 -44.5 99.5t-80.5 60.5h-2q-12 5 -13 8l-20 6v-391z" />
<glyph unicode="%" horiz-adv-x="1624" d="M80 934q0 105 32.5 198t100.5 155.5t158 62.5q76 0 137 -35t98 -93t56.5 -128t19.5 -144q0 -156 -72 -266v-2q-86 -137 -235 -137q-148 0 -230 133q-65 106 -65 256zM225 934q0 -113 43 -180q39 -64 107 -64q70 0 112 70q50 79 50 190q0 102 -43.5 178t-122.5 76 q-68 0 -107 -81t-39 -189zM334 51q-15 31 8 60l719 1251q12 25 34.5 31t45.5 -7l35 -20q2 -2 7.5 -4t8 -8t2.5 -23q6 -23 -6 -39l-731 -1272q-20 -20 -45 -20q-27 0 -41 14l12 -6l-23 12l7 -2q-27 14 -33 33zM872 432q0 105 32.5 198.5t100.5 156.5t158 63q77 0 138 -35.5 t97.5 -94t55.5 -129t19 -145.5t-19 -144.5t-55.5 -128t-97 -93.5t-136.5 -35q-148 0 -229 131h2q-66 109 -66 256zM1018 432q0 -107 41 -178q44 -64 106 -64q71 0 115 68q47 71 47 188q0 104 -42.5 181.5t-121.5 77.5q-66 0 -105.5 -83t-39.5 -190z" />
<glyph unicode="&#x26;" horiz-adv-x="1316" d="M119 442q0 67 23 123.5t65.5 99t86 72t101.5 58.5q-72 107 -106 174v-2q-41 66 -41 145q0 93 67 166q50 52 130.5 84.5t162.5 32.5q81 0 152 -33q85 -38 121.5 -112.5t21.5 -176.5q-9 -66 -37 -121t-71 -96t-84.5 -69t-94.5 -54q118 -164 287 -348q63 99 100.5 205 t26.5 174q0 25 11.5 39.5t37.5 27.5l35 5q21 0 40 -15.5t26 -44.5q13 -95 -40 -239t-136 -265q26 -27 52 -53t49.5 -49t29.5 -29l20 -20l-12 8q19 -9 24 -29.5t1.5 -36t-9.5 -26.5l-20 -21q-20 -20 -48.5 -17t-43.5 26l30 -15q-49 30 -168 152q-31 -28 -57 -45 q-184 -107 -350 -107q-78 0 -142 25q-78 33 -135 101t-84 165q-22 76 -22 141zM264 444q0 -47 17 -102q41 -134 133 -172q37 -16 86 -16q124 0 276 86h-2q4 4 17 12.5t20 15.5q-203 229 -330 404q-108 -48 -162.5 -98t-54.5 -130zM391 1108q0 -26 23 -68q65 -111 116 -186 q200 101 230 238q10 106 -62 141v-2q-40 18 -90 18q-55 0 -106 -19.5t-80 -51.5q-31 -35 -31 -70z" />
<glyph unicode="'" horiz-adv-x="337" d="M94 952l2 475q0 24 17.5 43t42.5 19h37q51 -10 51 -62l-2 -475q0 -25 -18 -43t-44 -18h-26q-29 0 -44.5 20t-15.5 41z" />
<glyph unicode="(" horiz-adv-x="804" d="M297 602q0 80 9 160t24 148.5t34.5 133t41.5 118t43.5 99.5t42.5 82.5t36 61t25.5 40.5t11.5 17q13 23 45 27q17 4 45 -12l19 -15q20 -16 23 -41t-9 -43q-208 -312 -235 -675q-4 -50 -4 -99q0 -399 241 -774l2 -4q8 -16 8 -41q-18 -33 -34 -41l-23 -16q-16 -7 -29 -7 q-29 0 -47 21q-270 415 -270 860z" />
<glyph unicode=")" horiz-adv-x="806" d="M70 -215q0 25 8 41l2 4q242 376 242 774q0 123 -24 246.5t-54.5 208t-70 163t-58.5 108t-32 47.5l-1 1q-13 18 -10 43t24 41l19 15q30 20 49 12q24 -2 43 -31l-2 6q51 -76 76 -122q174 -319 190 -674q2 -33 2 -66q0 -445 -270 -860q-18 -21 -47 -21q-13 0 -29 7l-23 16 q-20 10 -34 41z" />
<glyph unicode="*" horiz-adv-x="995" d="M57 1065v29q0 5 3 13.5t10 22.5t10 21l39 4l170 -2l-121 119q-14 24 -14 43q0 27 16 43l20 18q20 20 47 19t42 -23l194 -194l199 196q19 22 47 17q22 0 39 -17l22 -20q9 -18 9.5 -42t-9.5 -42l-121 -117l168 -2q22 0 42 -19.5t20 -41.5v-29q0 -6 -0.5 -11t-1.5 -8 t-3.5 -7t-3 -5t-5 -5.5t-5.5 -6.5q-21 -17 -43 -17l-180 3l127 -132q17 -17 17 -43t-17 -43l-18 -18q-16 -18 -45 -18q-25 0 -43 18l-195 199l-199 -199q-20 -16 -43 -16q-15 0 -43 16l-20 20q-20 20 -20 43.5t20 42.5l131 130q-31 0 -91 1t-91 1q-25 0 -42.5 17t-17.5 42z " />
<glyph unicode="+" horiz-adv-x="1177" d="M-14 592v33q14 55 59 55l442 -2q0 76 1 230t1 229q0 26 17.5 43.5t42.5 17.5h29q29 0 45 -17t16 -44l-4 -459l444 -4q25 0 42.5 -17.5t17.5 -42.5v-36q-12 -52 -62 -52l-442 2q0 -79 -1 -234.5t-1 -234.5q0 -23 -19.5 -42t-42.5 -19l-26 2q-30 0 -45 18t-15 41l2 469 q-73 0 -221 1t-221 1q-24 0 -41.5 19t-17.5 43z" />
<glyph unicode="," horiz-adv-x="296" d="M-21 -153q-4 28 15 49l-4 -7q75 93 100 187q14 59 14 198v37q0 23 18 42.5t42 19.5h29q21 0 41 -22t20 -40v-37q0 -151 -21 -237q-37 -129 -127 -240q-17 -18 -44 -20t-42 12l-18 16h2q-21 14 -25 42z" />
<glyph unicode="-" horiz-adv-x="868" d="M111 623v26q0 30 16 41q13 19 45 19l477 -2q23 0 42.5 -17.5t19.5 -42.5v-26q0 -27 -19 -46q-16 -16 -43 -16l-477 4q-24 0 -42.5 17.5t-18.5 42.5z" />
<glyph unicode="." horiz-adv-x="468" d="M66 154v20q0 29 12 53l12 25l12 12q1 2 52 41l12 2l16 8q4 0 6 2q5 0 18.5 1t26.5 1q30 0 50 -10l8 -4q8 -2 14 -2l21 -18l-13 6l23 -17l18 -18v-4l13 -12q0 -3 4 -7l2 -28l2 -10q0 -1 1 -4t1 -7l1 -3q1 -3 1 -7v-10l-1 -3q-1 -3 -1 -7q0 -2 -1 -6t-1 -5v-16 q-3 -15 -13 -35q-2 -8 -2 -14l-18 -23l-10 -14l-6 -6l-21 -19h-10q-6 -3 -39 -14q-6 -2 -23 -2h-10q-10 0 -16 2q-12 0 -19 4l-10 2q-11 2 -18 6q-8 2 -15 2l-28 25l-4 6q-6 3 -9.5 7t-4.5 6t-2 4.5t-1 3.5l-4 4q-20 42 -22 57z" />
<glyph unicode="/" horiz-adv-x="610" d="M-18.5 46q-6.5 25 4.5 48q88 231 257 666.5t234 605.5l12 14q44 18 66 2l20 -6q20 -7 27 -33.5t-4 -48.5q-85 -223 -252 -651.5t-240 -617.5l-22 -25h-33l-43 14q-20 7 -26.5 32z" />
<glyph unicode="0" horiz-adv-x="1175" d="M84 674q0 88 16 182.5t52.5 191.5t88.5 173.5t131.5 125t174.5 48.5h31q84 -7 155 -43.5t119.5 -94.5t85.5 -128.5t57.5 -150.5t30.5 -155.5t10 -148.5v-2q-3 -97 -19 -187t-52 -180t-88.5 -156t-134 -107.5t-183.5 -41.5q-118 1 -211.5 58.5t-149.5 154.5t-85 214.5 t-29 246.5zM236 674q0 -100 19.5 -191.5t57.5 -166.5t101.5 -120t144.5 -46q82 1 146.5 46t103 120t58.5 166.5t20 191.5q0 143 -36 270t-112.5 213t-179.5 86q-76 0 -139 -50t-102 -131.5t-60.5 -182t-21.5 -205.5z" />
<glyph unicode="1" horiz-adv-x="614" d="M-31 1180q-19 51 31 77l274 136l7 2h127q28 0 44.5 -19t16.5 -43v-1272q0 -61 -61 -61h-31q-25 0 -43.5 16.5t-18.5 44.5v1180h-8l-241 -119q-20 -10 -45.5 -1.5t-38.5 32.5z" />
<glyph unicode="2" horiz-adv-x="1040" d="M67.5 1181q-4.5 18 14.5 36q36 80 141.5 127.5t222.5 50.5q86 2 172.5 -21t165 -79t115.5 -136q21 -58 21 -115q0 -349 -631 -888v-6h631q23 0 42 -17t19 -45v-29q0 -24 -19 -41.5t-42 -17.5h-721q-29 0 -45.5 17t-16.5 42l4 142q0 25 13 35q146 124 257.5 236 t177.5 195.5t108 157.5t56.5 124t14.5 93q0 41 -10 64q-19 52 -71 85t-111.5 44t-124.5 8q-90 -3 -155 -27t-75 -59q-12 -22 -33 -33t-43 -8l-28 12q-20 10 -32.5 22.5t-17 30.5z" />
<glyph unicode="3" horiz-adv-x="980" d="M37.5 208.5q6.5 20.5 21.5 29.5l35 18q24 10 44 4.5t30 -20.5q46 -93 166 -93q14 0 98 13l-2 -2q114 28 205 97.5t90 143.5q0 83 -122 152t-353 119q-22 2 -40.5 19t-19.5 38q-4 8 -4 18q-7 30 5.5 45.5t41.5 28.5q114 22 200 48.5t132 50t74.5 49t36 42t8.5 31.5 q1 55 -67.5 107.5t-161.5 79.5q-59 18 -115 18q-114 0 -154 -67q-12 -24 -31 -30.5t-36 -0.5l-47 24q-21 28 -21 70q90 152 289 152q66 0 156 -23q138 -40 240 -133.5t98 -202.5q-12 -186 -304 -291q98 -37 168.5 -81t107 -90t52.5 -87.5t16 -83.5q1 -87 -60 -169 t-154 -137.5t-197 -80.5q-71 -14 -129 -14q-103 0 -179.5 42.5t-113.5 121.5h2q-12 24 -5.5 44.5z" />
<glyph unicode="4" horiz-adv-x="1118" d="M-10 463v80q0 28 16 41l-4 -4l580 798q19 19 45 19h123q25 0 43 -19.5t18 -42.5v-780h164q61 0 61 -61v-31q0 -26 -16.5 -43t-44.5 -17h-164v-342q0 -29 -17 -45t-44 -16h-29q-29 0 -45.5 16t-16.5 45v342h-608q-25 0 -43 17.5t-18 42.5zM94 555l47 -47v6l31 41h-78z M172 555h487v674q-82 -111 -487 -674zM659 1229l11 14h37l-48 47v-61z" />
<glyph unicode="5" horiz-adv-x="1007" d="M18 96l7 31q6 27 24.5 41t44.5 8q157 -22 266 -22q91 0 161 13t111.5 35t64 42.5t34.5 42.5q25 40 25 90q0 99 -80 194q-58 76 -149.5 129.5t-198.5 53.5q-49 0 -115 -17h2l-18 -6q-42 -11 -64 14q-18 15 -18 46v20q0 59 6 130.5t15 137.5t17 117.5t16 96t9 48.5 q1 23 20 38.5t42 15.5h632q22 0 42 -20t20 -42v-33q0 -23 -20 -42t-42 -19h-555q-36 -176 -47 -332q18 2 58 2q145 0 270 -71t201 -170q112 -142 112 -293q0 -89 -45 -168q-126 -207 -508 -207q-130 0 -286 25q-26 3 -40 25.5t-14 45.5z" />
<glyph unicode="6" horiz-adv-x="1144" d="M84 578q0 140 49.5 276.5t142.5 251.5q114 140 271 213.5t340 73.5q23 0 42 -18t19 -42v-30q0 -23 -19.5 -42.5t-41.5 -19.5q-148 0 -276 -59.5t-220 -171.5q-89 -114 -129 -252q7 7 21.5 22.5t21.5 22.5q115 100 273 100q43 0 73 -6q208 -37 297 -166v-2 q72 -103 72 -240q0 -10 -0.5 -21t-1 -19t-1 -14.5t-1.5 -10.5v-4q-12 -89 -47 -164q-14 -28 -70 -98q-47 -54 -96 -86q-68 -46 -154 -66q-30 -6 -82 -6q-55 0 -104 8q-50 7 -137 45q-48 24 -85.5 60t-61.5 81t-39 87t-27 94v-4q-10 20 -13 45l-2 20q-14 69 -14 142zM258 401 q39 -166 135 -211q58 -27 92 -32q34 -6 82 -6q11 0 30 1t24 1q49 12 96 41h-2q40 27 71 61q34 42 48 72q17 34 32 112q9 134 -39 205v-2q-57 80 -200 105q-20 2 -49 2q-104 0 -177 -64q-61 -52 -96.5 -135.5t-46.5 -149.5z" />
<glyph unicode="7" horiz-adv-x="933" d="M-16 1305v28q0 22 19 42t42 20h786q22 0 42 -20t20 -42v-73q0 -25 -16 -41l-594 -1192q-14 -19 -26 -23t-38 -4l-39 18q-21 10 -28 35t4 47q489 984 569 1143h-680q-25 0 -43 17t-18 45z" />
<glyph unicode="8" horiz-adv-x="1144" d="M82 401q12 97 73 185.5t152 146.5q-46 30 -82 72q-97 118 -73 264q20 114 81 192.5t156 110.5q68 23 152 23q160 0 260 -78h-2q127 -100 133 -244q9 -152 -103 -274l-53 -54q108 -70 173.5 -190t56.5 -238q-18 -154 -187 -254l2 3q-109 -66 -276 -66q-87 0 -166 20 q-67 21 -74 25h2q-38 11 -69 31q-66 42 -115 114q-25 40 -35.5 101.5t-5.5 109.5zM233 324q5 -34 17 -52v2q26 -46 65 -67q21 -13 47 -23q4 -3 56 -18q55 -14 127 -14q126 0 200 43q102 61 111 141q6 92 -57 185.5t-156 123.5q-39 12 -98 12q-109 0 -204.5 -83t-107.5 -189 q-5 -27 0 -61zM299 1042v2q-10 -82 39 -143v2q36 -40 85 -63t101 -23h35q40 -3 66 8q35 15 98 78v-2q65 68 59 160q-6 78 -75 137q-65 45 -166 45q-51 0 -103 -16q-111 -39 -139 -185z" />
<glyph unicode="9" horiz-adv-x="1144" d="M72 903q0 10 0.5 21t1.5 19t2 15t2 11v4q13 98 45 164q7 15 70 98q48 55 98 86q67 44 151 63q44 9 82 9q52 0 105 -9q43 -5 135 -47q50 -24 88 -60.5t62.5 -82t40 -87t28.5 -95.5v-6l10 -48q17 -69 17 -143q0 -140 -49.5 -276.5t-143.5 -251.5q-116 -140 -271.5 -213.5 t-338.5 -73.5q-25 0 -43.5 17.5t-18.5 41.5v31q0 22 19 42t43 20q147 0 275 59.5t220 171.5q90 116 127 252q-25 -29 -43 -45q-116 -101 -270 -101q-41 0 -76 7q-206 37 -295 166v2q-73 104 -73 239zM227 952q-9 -136 39 -204v2q56 -80 199 -105q20 -2 51 -2q101 0 174 64 q63 52 99.5 136t44.5 148q-21 78 -51 132t-83 79q-62 28 -96 33q-35 6 -80 6q-13 0 -30.5 -1t-20.5 -1q-51 -12 -98 -41h2q-57 -45 -72 -63q-28 -36 -47 -70q-22 -49 -31 -113z" />
<glyph unicode=":" horiz-adv-x="497" d="M82 145v29q0 24 12 59l21 27l12 14q28 21 47 31h4l19 10q6 0 10 2l31 2h12q2 0 10 -1t12 -1q16 -3 39 -14q41 -24 60 -49v-6l14 -21l2 -22l4 -6l4 -25v-10l-4 -37l-16 -43q-3 -4 -7.5 -12.5t-8 -14t-7.5 -8.5l-12 -14l-16 -15l-29 -12l4 2l-16 -6q-8 -4 -25 -4h-8 q-22 0 -29 2q-4 0 -10 2q-8 0 -16 4q-30 5 -70 41h2l-10 12q-29 39 -35 84zM82 870v13q0 37 27 73h-3q15 20 27 29l-6 -4q11 11 41 29l29 10l32 8h50q-1 -2 -7 -2q6 -2 19.5 -7t19.5 -7h4q34 -22 50 -47q11 -14 18 -35q9 -18 12 -41q0 -30 -2 -35l-2 -4v-6l-4 -15 q-2 -22 -2 -24q-7 -11 -10 -19l-4 -4v-6l-19 -20l-12 -13l-21 -18l-12 -2l-8 -4l-16 -8q-8 -4 -25 -4h-20q-25 0 -48 10l3 -2q-16 3 -25 10h-4q-24 17 -39 35l-4 6q-36 52 -39 104z" />
<glyph unicode=";" horiz-adv-x="397" d="M30 -153q-4 28 15 49l-4 -7q77 95 98 187q17 63 17 198v37q0 23 17 42.5t42 19.5h27q29 0 43 -19q18 -14 18 -43v-37q0 -155 -20 -237q-35 -126 -125 -238l4 8q-15 -30 -51 -30q-25 0 -39 12l-19 16h2q-21 14 -25 42zM68 860v23q0 54 47 98h-2l12 12q15 10 29 17l41 14 q4 0 14 2q1 0 7 1t7 1h23l35 -10l12 -4q8 -2 12 -2l21 -19l-11 4l23 -16l18 -18v-7l15 -16l2 -29l4 -10q0 -1 1 -4t1 -6q2 -2 2 -8v-13q-2 -2 -2 -10q0 -2 -1 -5.5t-1 -4.5v-6l-4 -15q-10 -31 -19 -49l-4 -6l-12 -18q-14 -17 -35 -29q-32 -20 -61 -20h-19q-8 0 -16 2 q-12 0 -17 4q-20 4 -34 14l2 -2q-41 16 -62 51l-2 4q-19 34 -22 56z" />
<glyph unicode="&#x3c;" horiz-adv-x="1150" d="M-16 485v68q0 46 39 57l-5 -2l885 428q10 8 43 8q39 -22 43 -43l8 -14q11 -23 2.5 -49t-28.5 -33l-797 -387l811 -403q2 -2 7 -3.5t8 -8t4 -23.5q3 -17 -7 -37l-12 -25l2 7q-5 -21 -22 -30t-33 -9q-25 0 -39 12l-875 434l5 -4q-39 13 -39 57z" />
<glyph unicode="=" horiz-adv-x="1353" d="M76 383v27q0 28 16.5 44.5t42.5 16.5h1020q25 0 43.5 -16.5t18.5 -44.5v-27q0 -28 -18.5 -44.5t-43.5 -16.5h-1020q-26 0 -42.5 16.5t-16.5 44.5zM76 770v29q0 25 17 42t42 17h1020q24 0 43 -17.5t19 -41.5v-29q0 -23 -19.5 -42t-42.5 -19h-1020q-24 0 -41.5 18.5 t-17.5 42.5z" />
<glyph unicode="&#x3e;" horiz-adv-x="1150" d="M96 954q-3 13 4 33l15 25l-4 -6q7 20 23.5 29t31.5 9q25 0 39 -12l876 -434l-6 4q39 -13 39 -59v-66q0 -46 -39 -57h6l-884 -428q-11 -6 -43 -6q-15 8 -21 11t-14.5 12.5t-9.5 21.5l-9 12q-12 22 -3 47.5t30 34.5l795 385l-807 403q-2 2 -8.5 4.5t-8.5 9.5t-2 27z" />
<glyph unicode="?" horiz-adv-x="690" d="M-2 1284q0 15 4.5 23.5t9 11.5t17.5 10l11 5q12 6 24 11t30.5 12.5t39.5 13.5t45 12t51 9t53 3q66 0 118 -19q132 -51 195 -182v-2q31 -73 31 -137q0 -83 -58 -166q-22 -33 -69 -80l-13 -10q-54 -50 -75 -84q-32 -58 -50 -146q-4 -20 -4 -57q0 -32 2 -55q0 -23 -14 -47 q-19 -19 -45 -19l-27 -2q-26 0 -43 17q-18 14 -18 38v66q0 59 4 82q18 109 68 196q35 56 102 119l10 8q42 42 54 58q28 42 28 82q0 37 -20 78q-36 76 -105 102q-40 12 -71 12q-43 0 -89.5 -11.5t-71.5 -23.5l-26 -12q-23 -12 -45.5 -5t-34.5 32l-12 22q-11 21 -6 35z M125 162v12q0 25 12 55l13 23q7 14 38 37l29 16h4l19 10q4 0 8 2q3 0 17.5 1t27.5 1q26 0 45 -8l31 -14q4 -4 9.5 -9t15 -15t18.5 -19l12 -14q0 -3 4 -7l2 -28l4 -6l4 -25q0 -15 -2 -27q-3 -33 -18 -63l-17 -27l-14 -18l-18 -14l-31 -15q-23 -10 -45 -10h-12q-25 0 -48 10 v-2q-15 4 -26 12q-13 7 -27 17l-4 4q-48 48 -51 121z" />
<glyph unicode="@" horiz-adv-x="1640" d="M100 526q0 349 211 551q71 66 160 111.5t171.5 64.5t136.5 26t95 7h19q204 0 346.5 -110t198.5 -310q26 -95 26 -200q0 -151 -56.5 -277t-152.5 -184v2q-87 -53 -163 -53q-54 0 -95 24q-56 38 -86 107q-51 -52 -90.5 -87t-102 -68.5t-116.5 -33.5q-67 0 -117 47 q-63 66 -67 277q7 123 51.5 218.5t104 149.5t135 88.5t135.5 46t114 11.5q20 0 44 -1t28 -1l17 -2q55 -18 55 -62l-2 -16q0 -8 -6.5 -63t-21.5 -144.5t-32 -150.5l-8 -33q-2 -44 7.5 -91.5t35.5 -64.5q33 -16 103 29q61 38 99 131t38 201q0 68 -21 161v-2 q-41 149 -146 230.5t-257 81.5h-12q-31 0 -72 -4.5t-112.5 -18.5t-147 -51t-133.5 -92q-162 -152 -162 -445q0 -340 180 -469q114 -73 281 -73q166 0 325 55l-4 -4q51 23 82 -33l10 -31q6 -21 -7.5 -44t-35.5 -31q-2 0 -6 -2q-192 -62 -362 -62q-222 0 -367 100 q-248 174 -248 594zM565 416q-2 -133 29 -164q4 -4 8 -4q50 0 136 78.5t136 144.5q3 9 11 29l7 24q4 10 5 13q21 75 45 249q-44 -1 -86 -9t-96 -32t-94 -62.5t-69 -107.5t-32 -159zM942 786h16q4 0 12 -1t11 -1h12l-45 45q-2 -6 -2 -10z" />
<glyph unicode="A" horiz-adv-x="1232" d="M39 88l424 1303q4 19 20.5 30t38.5 11h142q49 0 59 -41l430 -1301q1 -7 1 -14q0 -18 -8 -34q-12 -24 -38 -30l-35 -12q-55 0 -65 43l-150 446h-528l-144 -446q-12 -22 -42 -34.5t-50 -0.5q-4 4 -10 4q-26 6 -38 28q-8 15 -9 31q0 8 2 17zM379 643h430l-213 635h-8 q-32 -100 -65.5 -202t-75.5 -227.5t-68 -205.5z" />
<glyph unicode="B" horiz-adv-x="1093" d="M125 72v1282q0 56 61 63q120 15 205 15q118 0 234 -27.5t196 -93.5q113 -96 113 -254q0 -164 -105 -266q-39 -33 -86 -58q81 -39 134 -90q110 -107 110 -256q0 -163 -104 -264q-132 -123 -437 -123q-59 0 -153 4h-12q-74 4 -95 4q-27 0 -44 21t-17 43zM276 158h21 q90 -4 149 -4q70 0 120 3.5t113.5 22.5t98.5 53q56 56 56 154q0 87 -62 143q-102 102 -373 140q-40 0 -98 4h-25v-516zM276 834q82 -4 144 -13q220 0 305 82q57 54 57 154q0 87 -59 137q-91 82 -332 82q-82 0 -115 -2v-440z" />
<glyph unicode="C" horiz-adv-x="1204" d="M78 709q0 185 65.5 336.5t178.5 246.5q191 140 477 140q50 0 101.5 -4t90 -10t69.5 -12.5t49 -10.5t19 -4h-4q24 -7 38 -29q9 -15 9 -31q0 -8 -2 -16l2 2l-6 -31q-17 -26 -40.5 -38t-49.5 -1q-150 29 -274 29q-249 0 -387 -109q-183 -139 -183 -458q0 -152 47.5 -269.5 t133.5 -185.5q131 -98 366 -98q69 0 141 8.5t108.5 16.5t57.5 14q9 2 18 2q41 0 58 -41l10 -35q0 -61 -41 -74q-1 0 -15 -3.5t-30.5 -7.5t-42 -9t-55 -9.5t-62 -8.5t-71 -6.5t-76.5 -2.5q-280 0 -459 131q-109 95 -175 247.5t-66 330.5z" />
<glyph unicode="D" horiz-adv-x="1361" d="M129 88v1260q0 25 15 40.5t53 22.5q105 21 245 21q71 0 139 -6.5t150.5 -27t152.5 -53t138.5 -88.5t116 -129.5t77 -181t29.5 -237.5q0 -128 -28.5 -233t-75 -177t-113 -127t-135 -87t-149 -52t-147 -26.5t-136.5 -6.5q-156 0 -277 29l6 -2q-61 13 -61 61zM233 170 l50 -47v39l-35 6q-1 0 -7.5 1t-7.5 1zM283 162q108 -10 178 -10q66 0 126 6.5t125 23.5t119 44t103.5 70.5t83.5 100t54 136.5t20 176q0 103 -23.5 187.5t-62.5 142.5t-94 102t-112 69.5t-124 41.5t-121.5 21t-112.5 5q-107 0 -159 -8v-1108z" />
<glyph unicode="E" horiz-adv-x="983" d="M125 61v1309q0 24 19 44t42 20h701q29 0 46 -19.5t17 -44.5v-31q0 -27 -16.5 -44t-46.5 -17h-608v-449h567q23 0 43 -20t20 -43v-31q0 -24 -19.5 -42.5t-43.5 -18.5h-567v-518h643q23 0 43 -20.5t20 -43.5v-31q0 -25 -19.5 -43t-43.5 -18h-736q-24 0 -42.5 17.5 t-18.5 43.5z" />
<glyph unicode="F" horiz-adv-x="954" d="M123 63v1305q0 24 19.5 44t43.5 20h709q22 0 41.5 -20.5t19.5 -43.5v-31q0 -24 -19.5 -42.5t-41.5 -18.5h-614v-455h573q25 0 43 -19t18 -42v-31q0 -25 -17.5 -44t-43.5 -19h-573v-603q0 -29 -19.5 -46t-44.5 -17h-31q-26 0 -44.5 17t-18.5 46z" />
<glyph unicode="G" horiz-adv-x="1327" d="M82 680q0 414 252 604q199 148 506 148q49 0 99 -4t89 -10t68.5 -11.5t50 -10.5t22.5 -5q21 -7 31.5 -21.5t12 -24.5t1.5 -28l-8 -31q-7 -25 -31.5 -37t-48.5 -4q-4 2 -38.5 9t-105.5 14.5t-142 7.5q-257 0 -414 -115q-91 -73 -140.5 -196t-49.5 -285q0 -360 217 -471 q102 -55 264 -55q105 0 201.5 19t152.5 42v393h-303q-26 0 -43.5 19.5t-17.5 44.5v28q0 25 17.5 42.5t43.5 17.5h395q26 0 44 -17.5t18 -42.5v-536q0 -34 -86 -73.5t-206 -65t-216 -25.5q-265 0 -428 135q-207 177 -207 545z" />
<glyph unicode="H" horiz-adv-x="1269" d="M127 61v1309q0 25 19 43.5t42 18.5h29q25 0 42 -18t17 -44v-551h676v551q0 26 18 44t44 18h26q26 0 44 -18t18 -44v-1309q0 -26 -18 -43.5t-44 -17.5h-26q-26 0 -44 17.5t-18 43.5v609h-676v-609q0 -26 -17 -43.5t-42 -17.5h-29q-23 0 -42 18t-19 43z" />
<glyph unicode="I" horiz-adv-x="387" d="M111 61v1309q0 21 18.5 41.5t42.5 20.5h29q25 0 43 -20t18 -42v-1309q0 -26 -17.5 -43.5t-43.5 -17.5h-29q-25 0 -43 17.5t-18 43.5z" />
<glyph unicode="J" horiz-adv-x="720" d="M-39 100l10 35q13 45 55 45q8 0 17 -2q106 -26 186 -26q91 0 140 49q46 49 60.5 130t14.5 201q0 63 -4 195q-4 192 -4 295q2 61 2 184q0 99 -2 158q0 25 18 45.5t44 20.5l28 2q48 0 62 -58v-168v-186q0 -215 2 -289q4 -126 4 -199v-21q0 -129 -22 -231q-25 -109 -95 -182 q-95 -98 -248 -98q-89 0 -211 31h-2q-26 7 -40.5 26.5t-14.5 42.5z" />
<glyph unicode="K" horiz-adv-x="1132" d="M125 70v1292q0 25 17.5 42t43.5 17h29q26 0 43.5 -17t17.5 -42v-602q138 154 580 651q16 17 42 18h4q23 0 42 -12l23 -20q16 -22 16 -45q0 -21 -14 -43l-451 -504l490 -701q9 -18 9 -33q0 -27 -28 -46l-20 -15q-15 -12 -35 -12q-6 0 -12 1q-28 4 -41 32l2 -6l-465 665 l-142 -158v-462q0 -25 -17.5 -44.5t-43.5 -19.5h-29q-26 0 -43.5 19.5t-17.5 44.5z" />
<glyph unicode="L" horiz-adv-x="905" d="M123 61v1307q0 26 19 44t44 18h27q24 0 43.5 -18t19.5 -44v-1216h574q25 0 43 -18t18 -44v-29q0 -26 -18 -43.5t-43 -17.5h-664q-25 0 -44 17.5t-19 43.5z" />
<glyph unicode="M" horiz-adv-x="1693" d="M115 78l84 1296q1 25 19.5 41.5t43.5 16.5h135q48 0 60 -48v5l362 -1102l359 1102v-5q4 24 20.5 36t38.5 12h166q25 0 42.5 -17.5t18.5 -44.5l60 -1298q-7 -24 -24 -41t-40 -17l-28 -2q-55 0 -64 51l-53 1215h-10q-65 -201 -201 -618.5t-201 -618.5q-13 -43 -61 -43h-45 q-21 0 -37.5 11.5t-22.5 31.5l-393 1192q-13 -198 -39.5 -587t-38.5 -576q-1 -24 -19 -41t-42 -17l-33 2q-26 5 -41.5 21.5t-15.5 42.5z" />
<glyph unicode="N" horiz-adv-x="1376" d="M129 61v1307q0 26 18 44t43 18h101q34 0 53 -29l703 -1178v1131q0 24 19.5 43.5t43.5 19.5h31q25 0 43 -19.5t18 -43.5v-1282q0 -28 -16.5 -45t-42.5 -19l-105 -6q-18 0 -33.5 9t-19.5 22q-424 702 -702 1169v-1141q0 -27 -17 -44t-47 -17h-29q-25 0 -43 17.5t-18 43.5z " />
<glyph unicode="O" horiz-adv-x="1529" d="M84 678q0 96 22 190t62.5 177.5t99.5 154.5t130.5 122.5t159 80.5t181.5 29q149 -4 274.5 -71.5t206.5 -175t127 -239t48 -268.5q0 -134 -42 -256t-120 -211q-91 -104 -223.5 -157.5t-270.5 -53.5q-322 13 -491 213q-79 89 -121.5 210t-42.5 255zM238 678 q0 -228 127 -367q130 -151 376 -157q242 6 375 157q127 146 127 367q0 85 -21.5 169.5t-64.5 159.5t-102.5 134t-141 95.5t-174.5 41.5q-115 -6 -211.5 -60.5t-158.5 -139.5t-96.5 -189t-34.5 -211z" />
<glyph unicode="P" horiz-adv-x="1001" d="M125 61v1276q0 26 18.5 44t42.5 18q25 0 31 2q2 0 7 1t7 1l27 4h-8q170 25 261 25h13q121 -3 221 -50q83 -44 136 -100h2q96 -104 96 -252q0 -37 -6 -67q-10 -47 -37 -97q-41 -86 -137 -182q-61 -58 -149.5 -94.5t-184.5 -42.5q-10 -2 -41 -2q-71 0 -148 14v-498 q0 -26 -17.5 -43.5t-43.5 -17.5h-29q-24 0 -42.5 17.5t-18.5 43.5zM229 1249h19l28 4v45zM276 717q86 -20 144 -20q14 0 26 1q157 10 248 97q80 80 109 137h-2q11 25 18 59q5 23 5 46q0 29 -8 57q-14 50 -48 86h2q-34 37 -92 65q-55 30 -160 33h-12q-82 0 -230 -25v-536z " />
<glyph unicode="Q" horiz-adv-x="1517" d="M63 686q0 143 49.5 278t134 238.5t207 166.5t259.5 63q150 -4 275 -70t205.5 -171.5t124.5 -236.5t44 -268q0 -128 -43.5 -249t-118.5 -212q-88 -102 -209 -153q47 -26 101 -43q57 -15 176 -15h63q24 0 44 -18.5t20 -42.5l-2 -29q0 -31 -19 -46t-43 -15h-63 q-137 0 -213 18q-55 14 -131.5 53.5t-137.5 81.5q-25 -2 -73 -2q-145 0 -273 55t-217 156q-77 90 -118.5 209t-41.5 252zM217 686q0 -221 123 -362q131 -152 375 -158q239 6 370 158q125 144 125 362q0 107 -33 210t-94 188t-157.5 138.5t-212.5 57.5q-116 -4 -212.5 -57.5 t-157 -138.5t-93.5 -188t-33 -210z" />
<glyph unicode="R" horiz-adv-x="1134" d="M125 72v1265q0 26 19 44t44 18q9 0 15.5 1t9.5 1q178 31 293 31h14q128 -3 223 -48h-2q80 -38 138 -102h-2q96 -101 96 -248q0 -49 -4 -69q-8 -40 -35 -95q-47 -94 -133 -176q30 -22 50 -50.5t31.5 -70.5t16.5 -69.5t12 -83.5q6 -48 11 -77.5t16 -72.5t30 -79.5t46 -67.5 l2 -4q17 -21 17 -41q0 -22 -21 -43l-23 -21q-28 -15 -50 -15q-23 0 -40 17q-47 54 -78 128.5t-41.5 128t-19.5 130.5q-5 40 -8.5 60t-12 48.5t-19.5 42.5t-30.5 25t-46.5 13q-86 -35 -186 -41h-33q-59 0 -145 14v-493q0 -26 -17.5 -45t-46.5 -19h-27q-25 0 -44 19.5 t-19 44.5zM279 721v534q141 23 224 23h13q102 -3 160 -33q52 -24 90 -65q32 -38 46 -88q9 -31 9 -60q0 -19 -4 -39q-2 -21 -18 -57q-29 -61 -109 -137q-42 -40 -107.5 -66.5t-136.5 -30.5h-17q-66 0 -150 19z" />
<glyph unicode="S" horiz-adv-x="978" d="M33 139l8 23q7 26 28 38.5t46 6.5l47 -12h-2q161 -43 254 -43q42 0 104 10q96 19 159.5 75.5t82.5 137.5q3 14 3 28q0 38 -22 73q-30 48 -96 83q-23 13 -131 55l2 -2l-20 6l-19 7l-55 18q-105 30 -148 57q-105 61 -161 152.5t-56 200.5q0 51 4 69q31 163 162 242 q106 68 275 68q69 0 145.5 -12t107 -20t46.5 -14h-4q26 -8 38.5 -30t2.5 -47l-9 -29q-22 -42 -56 -42q-11 0 -24 5q-134 35 -249 35q-128 0 -195 -43q-67 -40 -86 -139q-3 -18 -3 -37q0 -59 28 -113q36 -70 112 -115l-2 3q14 -8 111 -43q22 -4 67 -23l-2 2l19 -6 q110 -36 172 -72q115 -60 165 -153q34 -62 33 -129q0 -33 -8 -68v2q-28 -126 -125 -216t-235 -116q-61 -12 -131 -12q-142 0 -340 59h2q-24 7 -39 31q-9 15 -9 30q0 10 3 19z" />
<glyph unicode="T" horiz-adv-x="1103" d="M-18 1339v29q0 24 19.5 44t43.5 20h977q23 0 43 -20.5t20 -43.5v-29q0 -25 -19.5 -43t-43.5 -18h-412v-1217q0 -25 -19.5 -43t-43.5 -18h-29q-24 0 -42.5 17.5t-18.5 43.5v1217h-412q-25 0 -44 17.5t-19 43.5z" />
<glyph unicode="U" horiz-adv-x="1298" d="M119 551v811q0 30 18.5 44.5t42.5 14.5h29q26 0 43.5 -17t17.5 -42v-823q0 -188 90 -283q98 -104 295 -104q143 0 230 84q31 32 52.5 75.5t31 77t15 74.5t5.5 50v22v835q0 26 19.5 44t44.5 18h30q60 -17 60 -62v-835q0 -13 -0.5 -30t-8.5 -68.5t-22 -97.5t-45 -105 t-74 -103q-128 -131 -338 -131q-265 0 -407 154q-47 52 -77.5 117.5t-39.5 126.5q-9 60 -11 94q-1 22 -1 41v18z" />
<glyph unicode="V" horiz-adv-x="1185" d="M35 1341q-2 7 -2 14q0 17 10 34q14 25 33 30l28 8q10 3 18 3q15 0 28 -8q20 -12 28 -38v5l387 -1188q76 227 223 656t183 534q5 19 27 31q14 8 30 7q8 0 16 -2l37 -8q35 -28 35 -59q0 -13 -6 -27l4 6l-442 -1296q-8 -18 -25 -30.5t-35 -12.5h-98q-44 0 -57 43z" />
<glyph unicode="W" horiz-adv-x="1859" d="M88 1360q0 28 13 47t38 20l25 5q8 2 16 2q15 0 29 -8q21 -14 29 -40l270 -1193l270 1161q2 38 58 55l151 2q44 0 64 -49l217 -1149l297 1173q7 25 27 38q13 8 28 8q8 0 18 -2l27 -9l-2 2q31 -5 44 -27q7 -12 7 -26q0 -11 -4 -24l-328 -1303q-16 -43 -59 -43h-119 q-58 0 -61 49q-42 226 -123.5 647.5t-108.5 560.5h-2q-46 -201 -142 -611t-142 -611q-4 -15 -21 -25t-37 -10h-118q-25 0 -42 15t-20 38z" />
<glyph unicode="X" horiz-adv-x="1181" d="M104 1374q10 30 33 39l-4 -4q15 10 23 14l-6 -2q15 10 32 10q7 0 14 -2q24 -6 37 -26l336 -539l328 537q15 32 43 32q16 0 37 -10l31 -16q23 -19 26 -44.5t-16 -47.5q-62 -103 -181.5 -296t-181.5 -296l383 -617q9 -19 9 -36q0 -25 -21 -43l-33 -19l4 2q-14 -10 -32 -10 q-7 0 -15 2q-26 6 -39 25l-342 553l-336 -553q-13 -20 -45 -23.5t-47 10.5l15 -6l-23 12q-35 17 -35 48q0 17 11 38l372 617l-372 602v-2q-9 13 -9 30q0 10 4 21z" />
<glyph unicode="Y" horiz-adv-x="1062" d="M23 1327q-6 20 -6 36q0 29 20 42l35 18l-6 -2q13 10 31 10q7 0 15 -2q28 -6 40 -26l360 -610l367 610q12 20 39 26q8 2 16 2q17 0 31 -10l-7 2l35 -18q14 -10 17.5 -24.5t3.5 -43.5l-428 -710q0 -94 2 -283t2 -283q0 -26 -18 -43.5t-44 -17.5h-26q-62 0 -62 61l-4 562z " />
<glyph unicode="Z" horiz-adv-x="1077" d="M6 1341v29q0 25 17.5 44.5t46.5 19.5h876q25 0 43.5 -20t18.5 -44v-65q0 -29 -19 -48l4 7l-794 -1110h784q26 0 43.5 -18t17.5 -44v-31q0 -26 -17.5 -43.5t-43.5 -17.5h-903q-25 0 -44.5 17.5t-19.5 43.5v84q0 13 13 39l786 1094h-745q-30 0 -47 17t-17 46z" />
<glyph unicode="[" horiz-adv-x="555" d="M119 -158v1645q0 28 18 44.5t45 16.5h324q61 0 61 -61v-29q0 -61 -61 -61h-234v-1465h234q28 0 44.5 -18t16.5 -43v-29q0 -61 -61 -61h-324q-27 0 -45 16.5t-18 44.5z" />
<glyph unicode="\" horiz-adv-x="610" d="M-18 1343.5q9 27.5 32 36.5l-2 -2l29 11q32 0 53 -9l12 -16l490 -1270q11 -23 1 -49t-32 -35l-35 -10h-32l-25 27l-489 1267q-11 22 -2 49.5z" />
<glyph unicode="]" horiz-adv-x="548" d="M-37 -129q0 25 16.5 43t45.5 18h231v1465h-231q-62 0 -62 61v29q0 61 62 61h323q27 0 45.5 -16.5t18.5 -44.5v-1645q0 -28 -18.5 -44.5t-45.5 -16.5h-323q-62 0 -62 61v29z" />
<glyph unicode="^" horiz-adv-x="1058" d="M35 563q0 22 6 37l-2 -2l377 864l-2 -4q10 41 55 41h70q17 0 32 -10.5t23 -26.5l377 -864v2q7 -18 4 -36t-12 -27q-5 -11 -27 -19l-10 -4q-16 -12 -37 -12q-25 0 -51 26l-336 766l-330 -762q-24 -39 -70 -26q-4 1 -11 5t-11 5q-17 6 -29.5 19.5t-15.5 27.5z" />
<glyph unicode="_" horiz-adv-x="1437" d="M135 -66q0 26 18.5 43t43.5 17h983q25 0 42 -17t17 -43v-26q0 -25 -17.5 -43.5t-41.5 -18.5h-983q-25 0 -43.5 18.5t-18.5 43.5v26z" />
<glyph unicode="`" horiz-adv-x="296" d="M-22 1548q4 27 24 43l16 17q21 14 49 7.5t42 -24.5l-3 6q92 -119 125 -239q21 -86 21 -236v-37q0 -22 -21.5 -41.5t-40.5 -19.5h-28q-24 0 -42 18.5t-18 42.5v37q0 138 -14 199q-25 94 -100 184l4 -4q-18 20 -14 47z" />
<glyph unicode="a" d="M84 489q0 230 100 363q98 125 256 125q88 0 175 -39.5t153 -108.5v136q0 25 17 42t42 17h27q25 0 42 -17t17 -42v-906q0 -25 -17 -42t-42 -17h-27q-25 0 -42 17t-17 42v86q-67 -67 -154.5 -106t-173.5 -39q-158 0 -256 125q-100 135 -100 364zM227 487q3 -193 70 -274 q52 -70 143 -70q76 0 151 45t125.5 125.5t51.5 173.5q-1 94 -51.5 174.5t-125.5 125t-151 44.5q-92 0 -143 -69q-67 -81 -70 -275z" />
<glyph unicode="b" horiz-adv-x="1007" d="M129 59v1276q0 25 16.5 42.5t42.5 17.5h25q26 0 43.5 -17.5t17.5 -42.5v-506q66 69 153 108.5t175 39.5q158 0 256 -125q100 -130 100 -365q0 -227 -100 -362q-98 -125 -256 -125q-192 0 -328 145v-86q0 -25 -17.5 -42t-43.5 -17h-25q-26 0 -42.5 17t-16.5 42zM274 487 q0 -93 50.5 -173.5t126 -125.5t151.5 -45q86 0 141 70q69 87 72 274q-3 189 -72 275q-54 69 -141 69q-120 0 -224 -102t-104 -242z" />
<glyph unicode="c" horiz-adv-x="966" d="M78 506q0 133 45.5 237.5t128.5 171.5q139 105 360 105q50 0 101 -6t96 -14l45 -9h2q29 -12 41 -33q8 -14 8 -29q0 -8 -2 -16l2 2q-1 -4 -4 -14t-4 -14q-8 -26 -27.5 -38.5t-46.5 -6.5q-4 2 -30.5 8t-78.5 13t-102 7q-173 0 -268 -73q-117 -91 -117 -291q0 -201 115 -287 q91 -67 258 -67q54 0 108.5 6.5t82.5 13.5l28 6q22 6 44 -5t32 -34l10 -33q0 -48 -41 -75h-18q-143 -31 -246 -31q-217 0 -348 98q-174 131 -174 408z" />
<glyph unicode="d" horiz-adv-x="1007" d="M4 487q0 232 102 365q95 125 256 125q86 0 173 -39.5t155 -108.5v506q0 25 17.5 42.5t42.5 17.5h26q25 0 42.5 -17.5t17.5 -42.5v-1276q0 -25 -17.5 -42t-42.5 -17h-26q-25 0 -42.5 17t-17.5 42v86q-68 -67 -156 -106t-172 -39q-77 0 -143.5 32.5t-112.5 92.5 q-102 132 -102 362zM147 487q3 -190 72 -274q52 -70 143 -70q76 0 151 45t125.5 125.5t51.5 173.5q-1 94 -51.5 174.5t-125.5 125t-151 44.5q-92 0 -143 -69q-69 -84 -72 -275z" />
<glyph unicode="e" horiz-adv-x="1099" d="M92 506v30v27q0 17 4 46.5t16 80.5t42.5 107.5t74.5 101.5q123 123 328 123q203 0 315 -127v2q99 -111 99 -297q0 -21 -2 -44t-2 -24q-12 -53 -62 -53h-661q7 -75 37.5 -150.5t89.5 -125.5q78 -56 192 -56q125 0 293 62l-4 -2q23 11 50 -2.5t34 -32.5l6 -25q5 -12 5 -23 q0 -33 -46 -56q-189 -68 -338 -68q-164 0 -280 84q-55 41 -94.5 101t-58 114t-28 115t-10.5 92zM248 627h573q0 99 -63 172q-59 73 -201 73q-78 0 -137 -23.5t-93 -63t-52 -78t-27 -80.5z" />
<glyph unicode="f" horiz-adv-x="659" d="M-4 860v27q0 25 16.5 42t42.5 17h113v20q0 116 32 208q34 99 101 153q81 66 203 66q26 0 51 -2.5t39.5 -5.5t15.5 -3q25 -13 37 -38q7 -14 7 -27q0 -9 -3 -17l-6 -18l2 2q-6 -30 -27.5 -42.5t-50.5 -2.5q-8 8 -65 8q-74 0 -117 -35q-77 -62 -77 -221q0 -21 1 -45h201 q26 0 42.5 -17t16.5 -42v-27q0 -25 -16.5 -42t-42.5 -17h-193q5 -136 5 -301q0 -116 -3 -225t-6 -163t-4 -61q-5 -51 -59 -51l-31 2q-28 7 -41.5 20.5t-13.5 45.5q14 217 14 454q0 162 -6 279h-119q-26 0 -42.5 17t-16.5 42z" />
<glyph unicode="g" horiz-adv-x="1107" d="M53 510q0 249 107 381q106 131 268 131q87 0 180.5 -44t167.5 -116q-2 29 -2 84v12q0 24 18 43t42 19h26q28 0 45 -17t17 -42v-9q10 -380 10 -600q0 -282 -10 -426q-9 -128 -115 -207q-132 -92 -367 -92q-174 0 -311 33q-27 1 -40.5 31.5t-4.5 48.5l2 18l-2 -2 q6 29 21 39t45 10q135 -30 290 -30q201 0 279 63q52 39 55 101q2 34 5 70.5t4 66.5t1 94q-73 -79 -167.5 -124.5t-188.5 -45.5q-164 0 -268 129q-107 131 -107 381zM203 510q0 -197 73 -291q57 -72 152 -72q80 0 159 47t132.5 132.5t54.5 183.5q-1 99 -54.5 184.5 t-132.5 132.5t-159 47q-96 0 -152 -71q-73 -94 -73 -293z" />
<glyph unicode="h" horiz-adv-x="1044" d="M127 401v932q0 25 17 42.5t42 17.5h27q25 0 42 -17.5t17 -42.5v-514q112 109 297 109q214 0 322 -154h2q78 -112 78 -309q0 -103 -44.5 -272t-88.5 -185h-9l-30 2q-25 11 -34.5 32.5t-4.5 43.5v-6q0 8 8 24l-4 -6q63 220 63 371q0 148 -57 227q-63 88 -201 88 q-133 0 -202 -75q-95 -103 -95 -332q0 -42 2 -62q2 -57 9 -113.5t13 -83.5l7 -28q7 -26 -5 -46t-38 -28l-31 -6q-54 0 -63 41q-8 23 -20.5 97.5t-16.5 158.5q-2 27 -2 94z" />
<glyph unicode="i" horiz-adv-x="356" d="M6 1223v28q0 24 12 54l9 16q12 19 32 39l-4 -4l11 6l32 20h4l19 9l35 4q1 0 3 1t3 1h39l-10 -2h-3l25 -9l18 -4q6 -2 13 -2l20 -18l-10 4l22 -16l19 -19v-6l14 -16q0 -11 2 -19q4 -11 8 -33v-18q-2 -2 -2 -10q0 -19 -8 -39l-14 -35v-10l-19 -21l-6 -8l-10 -8 q-4 -5 -9.5 -8.5t-16.5 -8t-15 -6.5l-12 -6q-10 -4 -27 -4h-6q-17 0 -29 2q-11 0 -16 4q-16 3 -33 13l-22 10l-19 12q-20 24 -32 47q-10 18 -17 60zM90 68q16 193 16 409q0 160 -12 412q-4 62 -4 67q0 54 49 62q3 0 17 1t18 1h4q23 0 41 -12.5t19 -36.5q18 -279 18 -469 q0 -215 -18 -449q-1 -26 -19.5 -39.5t-42.5 -13.5l-26 2q-27 0 -43.5 18t-16.5 48z" />
<glyph unicode="j" horiz-adv-x="544" d="M-35 -287q0 53 62 68q45 7 80.5 19.5t59 25.5t40.5 32.5t26 34.5t14.5 39t7 37.5t3.5 38.5l6 49q6 33 6 262q0 399 -6 627v19q0 28 16 42.5t39 16.5l31 2q22 0 40 -18.5t20 -38.5q6 -264 6 -639q0 -236 -6 -295q-4 -20 -4 -41q-11 -107 -37 -162q-74 -159 -328 -199 q-34 0 -51 15.5t-19 36.5q-1 3 -2 9.5t-2 11.5t-2 7zM172 1223v28q0 26 14 54l13 24l8 10l8 9l14 14q9 6 37 20h4l19 9l35 4q1 0 3 1t3 1h10q2 0 6.5 -1t7.5 -1l25 -4l37 -19q15 -10 45 -45l12 -10q0 -1 1 -4t1 -4v-19q6 -10 10 -33v-18q-2 -2 -2 -10q0 -19 -8 -43v-2 l-14 -29v-10l-19 -21l-6 -8l-24 -22l-15 -2l-10 -7q-23 -10 -47 -10q-15 0 -29 2q-9 0 -16 4q-1 0 -7.5 1.5t-12.5 3.5t-11 6l-8 2q-40 27 -57 57l-11 12q-10 24 -16 60z" />
<glyph unicode="k" horiz-adv-x="860" d="M121 369q0 350 18 966q1 29 20 42.5t42 13.5h22q26 0 43 -18t17 -44q-2 -91 -7.5 -264.5t-7.5 -279.5t-2 -214q101 110 400 400h-2q24 20 46 18t38 -18l20 -21q14 -24 14 -45q0 -18 -10 -35q-139 -125 -305 -295q34 -67 125.5 -183t155 -187.5t77.5 -85.5q18 -18 18 -39 q0 -20 -16 -45l-20 -19q-30 -15 -51 -15q-23 0 -35 17q-256 286 -356 451q-91 -95 -99 -109q0 -244 6 -256q11 -26 6 -48.5t-20 -37.5l-25 -8q-18 -11 -34.5 -11t-32.5 11q-41 41 -45 359z" />
<glyph unicode="l" horiz-adv-x="266" d="M8 535q0 162 5 359t9.5 309.5t6.5 135.5q14 56 61 56l29 -2q55 -18 55 -60v-20q-20 -440 -20 -805q0 -302 20 -436q0 -28 -14.5 -48t-42.5 -20l-27 -4q-56 0 -59 49q-23 144 -23 486z" />
<glyph unicode="m" horiz-adv-x="1753" d="M145 367q0 266 5 632q1 28 19.5 44t41.5 16h29q24 0 41.5 -19t17.5 -43q0 -11 -1 -32t-1 -33q95 88 254 88q168 0 268 -109q5 -7 18.5 -25.5t18.5 -25.5q54 72 137.5 116t175.5 44q80 0 162.5 -34t128.5 -99q84 -124 84 -395q2 -49 2 -142v-131q0 -59 -2 -86v-4 q0 -47 -6 -76v2q-7 -25 -28 -37t-46 -6l2 -2l-34 8q-19 10 -31.5 33.5t-5.5 44.5v45q2 27 2 78v129q0 80 -2 123v18q0 74 -2 116.5t-15.5 100.5t-40.5 97q-23 34 -71 50.5t-97 16.5q-50 0 -91 -15.5t-66 -39t-44 -55.5t-27.5 -59t-14 -56.5t-6 -41.5t-0.5 -19 q-5 -312 -5 -359q0 -119 5 -139l-2 2q6 -26 -6.5 -46t-37.5 -28l-22 -8q-12 -6 -24 -6l-24 6q-24 12 -30 37q-8 22 -8 145q0 150 2 230q2 63 2 166q0 75 -10 118q-16 70 -53 109q-53 59 -156 59q-51 0 -92 -15.5t-66.5 -39t-44.5 -55.5t-28 -59t-14 -56.5t-6 -41.5t-1 -19 q0 -63 -1 -171.5t-1 -148.5q-2 -53 -2 -131v-45q7 -26 -5 -47t-38 -29h4l-27 -10q-7 -1 -13 -1q-30 0 -56 26q-15 30 -15 340z" />
<glyph unicode="n" horiz-adv-x="1050" d="M127 367q0 193 6 630q2 22 20.5 42t41.5 20l26 -2q26 0 43 -17t17 -43q0 -12 -1 -33.5t-1 -31.5q100 86 253 86q173 0 267 -107h-2q31 -34 53.5 -76.5t31.5 -80t15 -74.5q5 -30 5 -50v-10q-2 -23 -1 -36q-6 -197 -6 -375q0 -107 4 -123l-2 2q2 -9 2 -18q0 -33 -33 -56 q-39 -12 -53 -12q-19 0 -35 11.5t-22 29.5l4 -6q-10 23 -10 151v230q2 63 2 166q0 154 -64 227q-53 59 -156 59q-51 0 -92 -15.5t-66.5 -39t-44.5 -55.5t-27.5 -59t-14 -57t-6 -42t-0.5 -20v-15q0 -20 -1 -185t-1 -235q0 -63 -3 -57q6 -27 -5.5 -48.5t-34.5 -29.5h2l-21 -8 q-9 -4 -19 -4q-12 0 -25 6q-24 10 -38 37v3q-8 52 -8 321z" />
<glyph unicode="o" horiz-adv-x="1140" d="M86 485q0 137 39 228v-2q19 55 53 108q56 75 146 133q107 66 230 66h21q88 -3 167.5 -41.5t138.5 -106.5q120 -144 120 -374q0 -141 -48.5 -250t-137.5 -174q-61 -41 -127 -56.5t-106 -15.5q-246 0 -371 131.5t-125 353.5zM233 485q0 -335 349 -335q82 0 151 45 q119 82 119 301q0 183 -84 276q-74 92 -203 98q-87 0 -164 -43h2q-77 -54 -100 -90q-32 -55 -43 -82v2q-27 -71 -27 -172z" />
<glyph unicode="p" horiz-adv-x="1077" d="M129 -358v1323q0 25 16.5 42t42.5 17h25q26 0 43.5 -17t17.5 -42v-136q66 69 153 108.5t175 39.5q153 0 254 -125q102 -132 102 -365q0 -235 -100 -362q-98 -125 -256 -125q-192 0 -328 145v-503q0 -25 -17.5 -42.5t-43.5 -17.5h-25q-26 0 -42.5 17.5t-16.5 42.5z M274 487q0 -93 50.5 -173.5t126 -125.5t151.5 -45q82 0 141 72q69 87 72 272q-3 189 -72 275q-54 69 -141 69q-120 0 -224 -102t-104 -242z" />
<glyph unicode="q" horiz-adv-x="1001" d="M18 487q0 230 101 365q101 125 258 125q86 0 173 -39.5t155 -108.5v136q0 25 16.5 42t42.5 17h27q25 0 42 -17t17 -42v-1323q0 -25 -17 -42.5t-42 -17.5h-27q-26 0 -42.5 17.5t-16.5 42.5v503q-68 -67 -156 -106t-172 -39q-160 0 -258 125q-101 131 -101 362zM162 487 q3 -190 71 -272q56 -72 144 -72q75 0 150 45t126 125.5t52 173.5q-1 93 -52 174t-125.5 125.5t-150.5 44.5q-93 0 -144 -69q-68 -82 -71 -275z" />
<glyph unicode="r" horiz-adv-x="630" d="M121 59v902q0 25 18 42t43 17h27q24 0 42.5 -17.5t18.5 -41.5v-58q55 44 127.5 70t110 30.5t67.5 4.5q20 0 42 -22t22 -40v-37q-6 -24 -24 -38.5t-40 -14.5q-21 0 -48 -3t-83 -24t-94 -59q-80 -71 -80 -221v-490q0 -24 -18.5 -41.5t-42.5 -17.5h-27q-25 0 -43 17t-18 42z " />
<glyph unicode="s" horiz-adv-x="821" d="M41 125l4 29q23 45 74 45q171 -52 254 -52q19 0 51 7v-2q60 12 99.5 46.5t51.5 86.5q5 25 -10 49.5t-29.5 35.5t-29.5 19h2q-60 27 -102 39l-52 18l2 -2q-70 23 -106 45v-2q-93 55 -135 137q-30 59 -30 123q0 26 5 54q21 115 117 172q81 49 201 49q33 0 68.5 -3.5 t67.5 -10t54.5 -12t47.5 -12t28 -7.5h6q45 -26 45 -59q0 -10 -4 -21q0 -3 -3.5 -11.5t-4.5 -11.5q-8 -26 -32 -37t-50 1l6 -4q-12 4 -38.5 11t-85 17t-107.5 10q-81 0 -123 -26q-35 -23 -45 -70q-1 -10 -1 -19q1 -37 19 -71q24 -44 70 -72l-2 2q43 -24 96 -34l-2 2 q5 -1 13 -5.5t13 -5.5l43 -14q14 -6 46 -19.5t45 -19.5q86 -44 123 -116q24 -47 24 -99q0 -26 -6 -53v2q-20 -94 -92.5 -161t-173.5 -87q-35 -6 -80 -6q-100 0 -289 53h2q-27 7 -40 29q-7 13 -7 26q0 11 4 23z" />
<glyph unicode="t" horiz-adv-x="677" d="M-12 932v26q0 28 17.5 45t43.5 17h150v207q0 29 16 45t43 16h29q61 0 61 -61v-207h256q24 0 43 -17t19 -45v-26q0 -29 -19 -45.5t-43 -16.5h-256v-594q3 -56 25 -73q36 -32 93 -41.5t138 -9.5q24 0 43 -17t19 -45v-29q0 -28 -19 -44.5t-43 -16.5q-104 0 -184 17.5 t-141 70.5v-2q-76 59 -80 186q-2 49 -2 150l2 31v417h-150q-26 0 -43.5 16.5t-17.5 45.5z" />
<glyph unicode="u" horiz-adv-x="1085" d="M117 563v248v78v76q1 23 19.5 39t41.5 16l33 -2q55 -14 55 -64q-2 -23 -2 -65q0 -48 2 -68v-254q2 -53 2 -186q0 -30 -0.5 -57.5t7.5 -55.5t24 -47h-2q25 -35 100 -53q43 -14 113 -14q98 0 154 59v-2q72 76 79 233l2 27q6 307 23 494q2 25 20 42q15 14 36 14q5 0 10 -1 q4 0 15.5 -1t16.5 -1q49 -8 49 -62v-4q-22 -327 -22 -594q0 -231 18 -268q6 -26 -5.5 -47.5t-35.5 -30.5l-28 -12q-7 -1 -14 -1q-18 0 -31 8q-18 11 -25 28q-7 19 -14 59q-102 -88 -248 -88q-90 0 -154 19h2q-110 25 -178 104q-29 39 -44 89q-14 49 -16 83q-1 20 -1 47v39 q0 115 -2 176z" />
<glyph unicode="v" horiz-adv-x="997" d="M37 930q-3 8 -3 17q0 15 8 33q12 28 40 30l18 6q23 6 44.5 -3.5t31.5 -31.5l309 -817l281 815v-4q10 45 70 45l32 -12q21 -10 31 -36q6 -16 6 -32q0 -10 -2 -20l-301 -879q-14 -41 -59 -41h-111q-17 0 -33 11.5t-22 25.5z" />
<glyph unicode="w" horiz-adv-x="1640" d="M100 936q-4 11 -4 22q0 14 8 26q14 22 39 30l33 8q28 0 41.5 -9.5t24.5 -33.5l209 -778l229 755q13 43 57 43h97q44 0 57 -43l225 -772l207 791q5 24 27 38q14 9 31 9q8 0 16 -2l30 -8q26 -15 33.5 -27.5t7.5 -36.5l-237 -905q-16 -43 -57 -43h-115q-47 0 -60 41 l-215 747l-223 -747q-6 -19 -22.5 -30t-36.5 -11h-103q-45 0 -61 43z" />
<glyph unicode="x" horiz-adv-x="1044" d="M104 909l5 -6q-21 20 -21 41q0 23 25 47l32 21l-6 -4q20 13 38 13q5 0 11 -1q23 -5 37 -27l-2 2l277 -370q51 69 143 201t125 178q20 16 41 16t43 -16l20 -13q14 -12 18 -37q1 -5 1 -10q0 -19 -10 -33l-291 -409l287 -385q15 -19 11.5 -47.5t-22.5 -42.5l2 2l-24 -19 q-19 -14 -45 -8.5t-39 25.5l2 -2l-260 350l-248 -350l2 2q-12 -21 -40 -27l-12 -2q-21 0 -40 16l6 -4l-23 19l3 -2q-21 13 -26 36t13 50v-2l273 387z" />
<glyph unicode="y" horiz-adv-x="942" d="M88 918q-6 10 -6 22.5t6 27.5q12 29 37 36l29 14q5 2 12 2q12 0 28 -8q24 -14 31 -39l287 -676l246 678v-2q12 43 71 43l39 -12q16 -11 26 -32q6 -15 6 -30q0 -6 -1 -12l-313 -858q-5 -22 -15.5 -51.5t-42.5 -88t-75 -110t-119 -108.5t-168 -93q-53 0 -64 41l-4 14 q-11 23 -0.5 51.5t31.5 36.5l-2 -2q75 29 134.5 75t94.5 97t52.5 85t29.5 69q-58 140 -175 415t-175 415z" />
<glyph unicode="z" horiz-adv-x="929" d="M18 932v29q0 24 19 41.5t43 17.5h721q24 0 42.5 -17.5t18.5 -41.5v-70q0 -23 -22 -47l10 12l-598 -704h534q29 0 45.5 -16.5t16.5 -45.5v-29q0 -29 -16.5 -45t-45.5 -16h-680q-25 0 -43 16.5t-18 44.5v64q0 23 21 47l-3 -4l601 702h-584q-24 0 -43 19t-19 43zM834 838 l6 6z" />
<glyph unicode="{" horiz-adv-x="561" d="M-25 651l2 31q0 27 16 45t46 18q10 0 25 2.5t41 14.5t42 31q31 50 31 114q0 56 -24 150q-25 89 -25 157q0 113 61 199q27 37 66 65t72.5 41t68.5 21t49.5 9t22.5 1q27 0 44 -16t17 -45v-29q0 -33 -16 -45q-12 -18 -43 -18q-4 0 -11.5 -1t-28.5 -5.5t-39.5 -11.5 t-40.5 -22.5t-36 -35.5v2q-30 -41 -30 -111q0 -50 18 -112q29 -104 29 -193q0 -127 -62 -207q-8 -12 -22 -26q31 -23 69 -70q62 -91 62 -198q0 -70 -25 -156v2q-24 -98 -24 -156q0 -65 30 -110q16 -19 41.5 -31t41.5 -15t26 -3q23 0 42 -19.5t19 -42.5v-31q0 -28 -18 -44.5 t-43 -16.5q-16 0 -36.5 2.5t-57 12t-74 33.5t-65.5 60q-60 83 -60 205q0 90 29 197q18 61 18 113q0 66 -30 110v-2q-23 31 -65 49.5t-63.5 21.5t-31.5 3q-58 15 -58 63z" />
<glyph unicode="|" horiz-adv-x="270" d="M84 -111q12 688 12 1190q0 411 -10 441q0 26 4 34v7q6 12 11 19.5t12.5 12.5t10 6.5t13.5 6.5h39q11 -7 17 -14t16 -39.5t15.5 -87.5t9.5 -162.5t4 -258.5q0 -447 -13 -1155q-1 -25 -18.5 -41t-38.5 -16h-25q-27 0 -43 16t-16 41z" />
<glyph unicode="}" horiz-adv-x="561" d="M4 -125q0 23 19.5 42.5t42.5 19.5q18 0 52 11.5t58 37.5q29 43 29 110t-25 156v-2q-22 76 -22 156q0 115 59 198q34 46 70 70q-11 11 -23 26q-61 83 -61 207q0 85 30 193q17 70 17 112q0 69 -31 111v-2q-23 32 -62 51t-67 22l-27 3q-28 0 -43 18q-16 14 -16 45v29 q0 28 18.5 44.5t45.5 16.5q8 0 22 -1t49 -9t67.5 -21t71.5 -41t66 -65q62 -87 62 -199q0 -75 -23 -157q-25 -86 -25 -150q0 -61 29 -114q24 -27 57.5 -37.5t53.5 -10.5q28 0 44.5 -18t16.5 -45l2 -31q0 -46 -57 -63q-10 0 -32 -3t-64 -21.5t-66 -49.5v2q-29 -42 -29 -110 q0 -43 17 -113q30 -111 30 -197q0 -123 -59 -205q-28 -36 -66 -60t-74.5 -33.5t-57 -12t-37.5 -2.5q-25 0 -43.5 16.5t-18.5 44.5v31z" />
<glyph unicode="~" horiz-adv-x="1245" d="M82 483q0 6 2.5 23t12 50.5t25 65.5t46 65t70.5 52v-2q56 27 110 27q125 0 305 -117q147 -90 217 -90q15 0 39 8q22 13 34 46t13.5 49.5t1.5 27.5q0 26 17.5 43t42.5 17h24q26 4 46 -15t20 -45q0 -6 -1.5 -21.5t-9 -48.5t-20 -64t-38 -64.5t-58.5 -53.5q-54 -28 -109 -28 q-121 0 -301 114q-136 92 -223 92q-24 0 -47 -10q-52 -26 -72 -127l2 8l-2 -14q-5 -25 -23.5 -40t-41.5 -11q-3 0 -11 1t-12 1q-29 0 -43 18q-16 16 -16 43z" />
<glyph unicode="&#xa1;" horiz-adv-x="376" d="M41 850v10l1 3q1 3 1 7q0 2 1 6t1 5v8l2 12q12 37 19 51l8 9q12 16 16 24l6 6l25 15l14 8q23 10 43 10h19q10 0 16 -2q13 0 18 -4q68 -14 105 -86l12 -25q0 -1 1 -8t1 -10l2 -19v-20q0 -24 -8 -53l2 10l-14 -31q-26 -26 -29 -28l6 2q-28 -21 -47 -31l-20 -4l10 2l-29 -10 h-12q-1 0 -7 -1t-7 -1h-23l-41 8l-29 18l-10 8l12 -6l-22 17l-18 18v6l-17 17l-2 28l-2 10q0 1 -1 4t-1 7l-1 3q-1 3 -1 7zM125 -311l4 897q1 25 18.5 42t40.5 17h31q55 -11 55 -59l-4 -897q-2 -24 -19.5 -42t-41.5 -18h-29q-55 17 -55 60z" />
<glyph unicode="&#xa2;" horiz-adv-x="884" d="M16 508q0 277 177 410q93 70 227 94v196q0 26 16 43t45 17h27q26 0 42.5 -17.5t16.5 -42.5v-186q35 -1 71 -4t64 -7.5t49.5 -8.5t37 -7.5t16.5 -3.5q26 -15 34.5 -29.5t8.5 -41.5l-10 -29q-6 -23 -41 -34.5t-70 -2.5q0 1 -23 5t-66 7.5t-85 3.5q-178 0 -270 -71 q-115 -92 -115 -291q0 -96 29.5 -171t83.5 -118q91 -67 260 -67q55 0 110 6.5t83 13.5l28 6q21 6 42.5 -5t31.5 -34l12 -33q0 -28 -12.5 -48.5t-32.5 -24.5q-133 -30 -236 -33v-160q0 -29 -16 -45t-43 -16h-27q-61 0 -61 61v170q-114 19 -227 90q-85 66 -131 170t-46 238z " />
<glyph unicode="&#xa3;" horiz-adv-x="1005" d="M33.5 89q2.5 26 25.5 48q15 17 41 17h6h84q50 16 74 43q58 61 58 213q0 87 -23 215h-197q-25 0 -43 18t-18 43v29q0 24 18.5 42.5t42.5 18.5h162q-24 117 -24 213q0 203 114 311q111 97 281 97q31 0 63 -3.5t58 -9t46 -10.5t34.5 -9.5t15.5 -4.5q22 -10 31.5 -31t3.5 -41 l2 2q-1 -5 -2 -6.5t-2 -5.5q-9 -30 -33 -47t-47 -12q-5 1 -26 5t-40 7.5t-48.5 6.5t-55.5 3q-117 0 -176 -53q-66 -63 -66 -199q0 -96 27 -213h311q23 0 42.5 -19t19.5 -42v-29q0 -24 -19 -42.5t-43 -18.5h-274q18 -120 18 -215q0 -158 -55 -256h487q29 0 45.5 -19t16.5 -43 v-31q0 -28 -18.5 -44.5t-43.5 -16.5l-712 2h-95q-30 7 -37 14q-13 10 -22.5 28.5t-7 44.5z" />
<glyph unicode="&#xa4;" horiz-adv-x="1228" d="M98 945q0 27 17 44l18 19q17 17 41 18t41 -12l135 -135l51 39q91 58 207 55q132 -6 213 -82l131 135q42 30 78 -6l21 -21q40 -43 0 -86v2l-140 -141q45 -81 45 -225q0 -128 -43 -215l154 -150q9 -25 8 -39.5t-12 -38.5l-25 -26q-29 -10 -41 -9.5t-36 9.5l-140 137 l-14 -10q-86 -57 -195 -57q-156 0 -247 61l-140 -143q-42 -29 -78 4l-16 18q-22 13 -23 41t19 47v-2l135 141q-49 96 -49 226q0 112 33 190q12 28 14 31q-15 14 -66.5 62t-78.5 75q-17 17 -17 44zM360 543q0 -125 66 -185.5t180 -60.5q69 0 117 33q86 59 86 219 q0 130 -61 207q-66 66 -144 69q-67 0 -123 -32q-49 -34 -71 -66q-15 -27 -31 -59v2q-19 -45 -19 -127z" />
<glyph unicode="&#xa5;" horiz-adv-x="972" d="M24.5 1337q6.5 23 32.5 35l23 14q24 11 45.5 4t32.5 -26l311 -522l305 510q13 21 35.5 26t42.5 -6l37 -20q17 -10 20 -36t-16 -50l-295 -496h238q24 0 42.5 -17t18.5 -42v-27q0 -25 -18.5 -42t-42.5 -17h-295v-125h295q24 0 42.5 -18t18.5 -42v-26q0 -24 -18.5 -43 t-42.5 -19h-293q0 -48 1 -146.5t1 -146.5q0 -24 -19 -41.5t-43 -17.5h-24q-29 0 -45.5 18.5t-16.5 40.5l-2 293h-299q-24 0 -41.5 18.5t-17.5 43.5v26q0 25 17 42.5t42 17.5h299v125h-299q-25 0 -42 16.5t-17 42.5v27q0 26 17 42.5t42 16.5h240l-305 520q-13 24 -6.5 47z " />
<glyph unicode="&#xa6;" horiz-adv-x="352" d="M111 -162v707q0 25 18.5 42t42.5 17h29q25 0 42 -16.5t17 -42.5v-707q0 -25 -17 -42t-42 -17h-29q-24 0 -42.5 17.5t-18.5 41.5zM111 836v706q0 22 19 42t42 20h29q24 0 41.5 -19.5t17.5 -42.5v-706q0 -24 -17.5 -43t-41.5 -19h-29q-23 0 -42 19.5t-19 42.5z" />
<glyph unicode="&#xa7;" horiz-adv-x="1077" d="M55 864q0 57 19 109q27 102 108 162q-22 50 -22 135q0 178 123 264q103 70 254 70q69 0 148.5 -14.5t116 -25t56.5 -18.5q41 -16 41 -71l-14 -35q-10 -23 -33.5 -35.5t-46.5 -1.5l2 -2q-15 5 -44.5 13t-99.5 20t-128 12q-115 0 -160 -37q-58 -40 -58 -139q0 -76 33 -109 q19 -18 64 -38t76 -30.5t98 -31.5q62 -18 98.5 -30t89 -34.5t84.5 -45t61 -57.5t42 -77q12 -35 12 -69q0 -125 -144 -322q50 -92 50 -215q0 -170 -117 -250q-88 -61 -242 -61q-168 0 -393 75q-24 9 -33.5 30.5t-3.5 45.5l12 33q10 24 34 34t46 1q2 -2 4 -2v2 q191 -66 336 -66q104 0 150 37q53 35 53 121q0 117 -63 186q-56 59 -175 82q-162 23 -282 96q-75 45 -113.5 123t-38.5 166zM213 864q0 -110 76 -157q84 -49 227 -74q120 -18 213 -84q108 152 84 221q-7 25 -30.5 45.5t-67.5 39t-76.5 29t-93.5 27.5q-187 59 -258 103 q-20 -4 -39 -30t-27 -54q-8 -40 -8 -66zM279 1018l4 -2q4 -2 8 -2h-4z" />
<glyph unicode="&#xa8;" horiz-adv-x="1447" d="M125 1174v24q0 31 12 55l13 25l8 8l10 12q28 21 47 31h6l19 10q4 0 8 2q3 0 16.5 1t26.5 1q1 0 6 -1t10 -1l29 -2l37 -22l10 -8l-12 6l22 -17l6 -6l25 -28q0 -3 4 -7l2 -28l2 -10q0 -1 1 -4t1 -7l1 -3q1 -3 1 -7v-10l-1 -3q-1 -3 -1 -7q0 -2 -1 -6t-1 -5v-8l-2 -12 q0 -1 -1 -13.5t-1 -13.5q-8 -5 -8 -4l-2 -14l-19 -23l-10 -14q-38 -38 -86 -41h-22q-11 0 -17 2q-6 0 -12 2q-7 0 -25 6l6 -2q-6 0 -22 8h-8l-29 25l-16 22q-13 17 -27 50zM944 1178v26q0 23 8 47l-2 -10l19 37l14 14l4 6q28 21 47 31h6l19 10q6 0 8 2h12h21q2 0 5.5 1 t4.5 1h29q0 -2 -4 -2q10 0 34 -12q6 -2 13 -2l20 -18l-12 6l22 -17l11 -10q12 -15 26 -49l2 -20q0 -1 1 -4t1 -7l1 -3q1 -3 1 -7v-10l-1 -3q-1 -3 -1 -7q0 -2 -1 -6t-1 -5v-8l-2 -12q0 -1 -1 -13.5t-1 -13.5q-9 -6 -12 -18l-8 -10q-7 -14 -15 -19l-4 -8l-8 -8 q-39 -33 -90 -33q-21 0 -27 2q-6 0 -12 2q-6 0 -24 6h2l-13 4l4 -2l-14 4q-24 18 -41 35l2 -2l-12 17l-14 26l-15 35z" />
<glyph unicode="&#xa9;" horiz-adv-x="1515" d="M94 682q0 123 32.5 224.5t80.5 166t115.5 113.5t125.5 73.5t122 40.5t94 19t53 4h12q32 0 70.5 -4.5t108 -18.5t143.5 -52t133 -95q168 -168 168 -451q0 -124 -32.5 -225.5t-81.5 -166t-116.5 -114t-126 -74t-123 -40.5t-94.5 -19t-53 -4h-8q-30 0 -69 4.5t-108.5 19.5 t-143.5 53.5t-132 96.5q-170 159 -170 449zM242 682q0 -222 125 -344q45 -43 104 -72t114.5 -40t84.5 -14t49 -3h4q16 0 40 2t73 13t95 29.5t97.5 56t89.5 87.5t63 129t25 176q0 223 -125 342q-45 43 -103 73t-112.5 41.5t-87 15.5t-57.5 4q-18 -1 -30.5 -2.5t-50 -8.5 t-67 -16t-73 -28.5t-76 -43.5t-69 -62.5t-59.5 -84.5t-38.5 -110.5t-15.5 -139.5zM395 680q0 216 137 317q106 80 277 80q102 0 186 -22h-12h8q28 -6 42.5 -27.5t8.5 -46.5l2 2l-8 -29q-8 -21 -30.5 -35.5t-44.5 -7.5q-68 19 -152 19q-118 0 -188 -51q-76 -60 -76 -199 t76 -199q58 -47 180 -47q89 0 166 23q34 0 49 -17l-10 4q13 -5 26 -28l12 -35l-12 20q12 -24 12 -47q-7 -13 -17 -23t-14 -12.5t-16 -9.5q-1 0 -4.5 -1t-5.5 -1q-80 -22 -186 -22q-166 0 -269 77q-137 101 -137 318zM989 307l4 2q-1 0 -2 -1t-2 -1z" />
<glyph unicode="&#xab;" horiz-adv-x="913" d="M39 412q0 57 276 413q20 15 37 15q13 3 45 -13l27 -20q35 -35 4 -80q-188 -242 -231 -317q51 -89 213 -306l-2 7q14 -16 14 -43q0 -33 -29 -50l-18 -14l6 4q-14 -16 -41 -16q-33 0 -49 24q-252 341 -252 396zM373 412q0 57 276 415q13 13 37 13q7 2 14 0t14.5 -6t12.5 -5 l29 -22q31 -31 4 -80q-222 -287 -232 -315q47 -79 213 -308q15 -30 15 -57l-19 -20l-28 -23q-23 -12 -37 -12q-28 0 -43 18q-256 342 -256 402z" />
<glyph unicode="&#xad;" horiz-adv-x="868" d="M111 623v26q0 30 16 41q13 19 45 19l477 -2q23 0 42.5 -17.5t19.5 -42.5v-26q0 -27 -19 -46q-16 -16 -43 -16l-477 4q-24 0 -42.5 17.5t-18.5 42.5z" />
<glyph unicode="&#xae;" horiz-adv-x="1091" d="M84 700q0 86 22.5 156.5t57 115.5t80.5 79t88 51.5t86 27.5t67.5 12.5t38.5 2.5q22 0 48.5 -3t75 -13t100 -36.5t92.5 -66.5h-2q120 -114 120 -311q0 -86 -23 -156.5t-56.5 -115.5t-81.5 -79.5t-88.5 -51.5t-87 -28t-67 -13t-38.5 -3q-20 0 -47.5 3.5t-75 13.5t-99.5 37 t-93 67h2q-119 116 -119 311zM231 700q0 -132 72 -204q37 -34 91 -53.5t80 -22t44 -2.5h4q9 0 22.5 1t43 7.5t57 17.5t59 33.5t54 52.5t38 78t15.5 107q0 129 -76 205h2q-81 77 -217 77q-14 -1 -27.5 -2.5t-44.5 -8.5t-57 -18.5t-57 -34.5t-52.5 -52.5t-36 -76.5t-14.5 -104 zM348 522v365q26 61 80 61q3 0 4 1t4 1q54 6 78 6q50 -3 82 -20q34 -17 55 -41q49 -52 39 -131q-2 -12 -14 -39q-10 -22 -19 -31q13 -29 17 -61v-8q0 -40 14 -52v2q18 -19 18 -43t-18 -45l-20 -16q-16 -16 -45 -16q-32 0 -45 16q-43 50 -52 137q-20 -4 -28 -4v-82 q0 -24 -19 -41.5t-43 -17.5h-28q-25 0 -42.5 17t-17.5 42zM451 803q3 0 13 1t13 1q4 0 11 1t10 1v43zM463 756l35 -45v43q-4 -2 -11 -2q-8 0 -24 4zM498 754q15 3 24 12q16 16 19 22h2q0 3 2 5l-2 2l-8 8q-9 6 -27 6q-6 0 -10 -2v-53z" />
<glyph unicode="&#xb0;" horiz-adv-x="636" d="M70 1311q0 97 68.5 166t166.5 69q97 0 165.5 -69t68.5 -166q0 -98 -68.5 -167t-165.5 -69q-98 0 -166.5 69t-68.5 167zM217 1311q0 -37 25.5 -62.5t62.5 -25.5q35 0 60.5 25.5t25.5 62.5q0 35 -25.5 60.5t-60.5 25.5q-37 0 -62.5 -25.5t-25.5 -60.5z" />
<glyph unicode="&#xb1;" horiz-adv-x="1175" d="M-16 778v29q0 23 16 43q21 16 43 16l444 -2v459q0 26 17.5 42.5t44.5 16.5h26q30 0 46 -16t16 -43l-4 -459l444 -4q25 0 42.5 -17t17.5 -42v-29q0 -20 -17 -43q-18 -16 -45 -16l-442 2q0 -79 -1 -234.5t-1 -234.5q0 -23 -19.5 -42.5t-42.5 -19.5l-26 2q-26 0 -43 17 q-17 14 -17 43l2 469q-73 0 -221 1t-221 1q-24 0 -41.5 18.5t-17.5 42.5zM37 63v29q0 28 20 44t41 16l942 -2q23 0 42.5 -18t19.5 -42v-29q0 -26 -21.5 -43.5t-40.5 -17.5l-942 4q-25 0 -43 17t-18 42z" />
<glyph unicode="&#xb4;" horiz-adv-x="296" d="M-25 1085v37q0 150 21 236q30 106 125 237q18 22 46 24.5t42 -11.5l18 -19l-2 2q21 -14 23.5 -42.5t-15.5 -47.5l5 4q-79 -99 -99 -184q-14 -61 -14 -199v-37q0 -24 -17.5 -42.5t-41.5 -18.5h-29q-22 0 -42 21t-20 40z" />
<glyph unicode="&#xb6;" horiz-adv-x="962" d="M8 987q-4 129 88 227t264 148q102 31 183 31q48 0 71 -2h125q26 0 45 -19q15 -15 15 -49l-4 -45l-1 -10q-1 -11 -2.5 -31t-3 -47.5t-4 -64t-4.5 -78t-3.5 -92t-3 -103t-2.5 -114t-1 -122.5q0 -368 25 -663q0 -22 -17.5 -43t-42.5 -21l-24 -2q-26 0 -41 17l4 -2 q-23 13 -23 41q-26 300 -26 673q0 464 18 629q-25 0 -35 2h-30q-14 0 -18 0.5t-15 -0.5q-31 -297 -31 -721q0 -287 23 -573q0 -22 -18 -43t-42 -21l-26 -2q-24 0 -41 17l6 -2q-21 12 -25 41q-22 276 -22 639q-151 52 -253 164.5t-108 240.5z" />
<glyph unicode="&#xb7;" horiz-adv-x="509" d="M66 582v22q0 27 12 51l12 25l12 12q4 6 12.5 13t21 15t18.5 13l12 2l16 8q4 0 6 2q18 3 45 3q28 0 50 -11l8 -4q8 -2 14 -2l21 -18l-13 6l23 -17l18 -18v-4l13 -12q0 -2 4 -6l2 -29l2 -10q0 -1 1 -4t1 -7q0 -1 1 -3.5t1 -4.5v-12l-1 -3q-1 -3 -1 -7q0 -2 -1 -6t-1 -5v-16 q-3 -15 -13 -35q-2 -8 -2 -14l-18 -23l-10 -14l-6 -6l-21 -19l-10 -2q-33 -11 -39 -12q-6 -2 -23 -2h-10q-10 0 -16 2q-12 0 -19 4l-10 2q-11 2 -18 6q-8 2 -15 2l-28 25l-4 6q-6 3 -9.5 7t-4.5 6t-2 4.5t-1 3.5l-4 6q-19 37 -22 55z" />
<glyph unicode="&#xb8;" horiz-adv-x="454" d="M12 -311l6 28q8 25 29 38t47 7l-2 2q45 -10 86 -10q49 0 66 10h-4q2 0 2 5q0 17 -8 30t-18.5 19.5t-23.5 10t-20 4.5t-10 1h-25q-13 0 -29 10.5t-22 22.5q-13 30 0 57l90 144q13 20 34.5 25.5t43.5 -5.5l29 -18q43 -34 16 -80l-20 -37q110 -54 110 -184q0 -72 -55 -121 q-62 -43 -158 -43q-59 0 -104 10q-6 2 -15 2q-27 17 -36 31t-9 41z" />
<glyph unicode="&#xbb;" horiz-adv-x="913" d="M111 727q-25 51 4 80l24 18q33 19 51 15q20 0 35 -15q275 -357 275 -413q0 -60 -256 -402q-15 -18 -43 -18q-14 0 -37 12l-31 23l-16 20q0 44 16 64l-2 -7q174 237 213 308q-35 56 -233 315zM444 727q-33 42 5 80l26 20q26 21 47 13q18 -2 35 -15q274 -356 274 -413 q0 -59 -249 -396q-24 -24 -50 -24q-24 0 -38 14l-15 12q-28 19 -28 50q0 27 14 43l-4 -7q194 259 215 306q-55 84 -232 317z" />
<glyph unicode="&#xbf;" horiz-adv-x="585" d="M-18 -29q0 84 57 166q20 30 70 80l12 10q57 53 76 84q30 55 49 146q4 20 4 57q0 32 -2 55q0 23 14 47q19 19 45 19l27 2q27 0 43 -16q18 -14 18 -39v-66q0 -59 -4 -82q-18 -112 -67 -196q-34 -54 -103 -119l-10 -8q-38 -38 -53 -58q-29 -44 -29 -82q0 -34 21 -77 q37 -78 104 -103q40 -12 72 -12q43 0 89.5 11.5t71.5 23.5l25 12q23 12 45.5 5t34.5 -32l12 -22q11 -21 6 -35q0 -15 -4 -23.5t-8.5 -12t-17.5 -9.5l-12 -5q-11 -6 -23 -11t-30.5 -12.5t-39.5 -13.5t-45 -12t-51 -9t-53 -3q-67 0 -119 19q-132 51 -195 182v2q-30 70 -30 137 zM170 852q0 15 2 27q3 33 18 63l17 27l14 18l19 14l30 15q23 10 45 10h13q24 0 47 -10v2q15 -4 26 -12q13 -6 27 -17l4 -4q48 -48 51 -121v-12q0 -25 -12 -55l-12 -23q-6 -12 -39 -37l-29 -16h-4l-18 -10q-5 0 -9 -2q-3 0 -17.5 -1t-27.5 -1q-26 0 -45 8l-30 14q-4 4 -9.5 9 t-15 15t-18.5 19l-13 14q0 3 -4 7l-2 28l-4 6z" />
<glyph unicode="&#xc0;" horiz-adv-x="1232" d="M39 88l424 1303q4 19 20.5 30t38.5 11h142q49 0 59 -41l430 -1301q5 -23 -7 -47.5t-38 -30.5l-35 -12q-55 0 -65 43l-150 446h-528l-144 -446q-12 -22 -42 -34.5t-50 -0.5q-4 4 -10 4q-26 6 -38.5 27.5t-6.5 48.5zM379 643h430l-213 635h-8q-32 -100 -65.5 -202 t-75.5 -227.5t-68 -205.5zM475.5 1958q4.5 27 24.5 43l16 16q21 14 48.5 8t41.5 -24l-2 6q92 -118 125 -240q21 -86 21 -235v-37q0 -22 -21.5 -41.5t-40.5 -19.5h-29q-24 0 -41.5 18.5t-17.5 42.5v37q0 138 -14 199q-24 92 -101 184l4 -4q-18 20 -13.5 47z" />
<glyph unicode="&#xc1;" horiz-adv-x="1232" d="M39 88l424 1303q4 19 20.5 30t38.5 11h142q49 0 59 -41l430 -1301q5 -23 -7 -47.5t-38 -30.5l-35 -12q-55 0 -65 43l-150 446h-528l-144 -446q-12 -22 -42 -34.5t-50 -0.5q-4 4 -10 4q-26 6 -38.5 27.5t-6.5 48.5zM379 643h430l-213 635h-8q-32 -100 -65.5 -202 t-75.5 -227.5t-68 -205.5zM471 1495v37q0 149 21 235q31 110 124 238q17 22 46 24t43 -12l18 -18l-2 2q21 -14 23.5 -42.5t-15.5 -47.5l4 4q-78 -97 -98 -184q-14 -61 -14 -199v-37q0 -24 -18 -42.5t-42 -18.5h-29q-22 0 -41.5 21t-19.5 40z" />
<glyph unicode="&#xc2;" horiz-adv-x="1232" d="M39 88l424 1303q4 19 20.5 30t38.5 11h142q49 0 59 -41l430 -1301q5 -23 -7 -47.5t-38 -30.5l-35 -12q-55 0 -65 43l-150 446h-528l-144 -446q-12 -22 -42 -34.5t-50 -0.5q-4 4 -10 4q-26 6 -38.5 27.5t-6.5 48.5zM349 1497q-3 25 9 45v-2l152 242q20 20 45 20h104 q33 0 54 -33v3l131 -226q12 -35 10.5 -51t-18.5 -33l-37 -20q-23 -13 -45.5 -7t-34.5 31v-2l-111 189h-4l-121 -193q-13 -22 -40.5 -27t-51.5 15l15 -6l-37 20q-17 10 -20 35zM379 643h430l-213 635h-8q-32 -100 -65.5 -202t-75.5 -227.5t-68 -205.5z" />
<glyph unicode="&#xc3;" horiz-adv-x="1232" d="M39 88l424 1303q4 19 20.5 30t38.5 11h142q49 0 59 -41l430 -1301q5 -23 -7 -47.5t-38 -30.5l-35 -12q-55 0 -65 43l-150 446h-528l-144 -446q-12 -22 -42 -34.5t-50 -0.5q-4 4 -10 4q-26 6 -38.5 27.5t-6.5 48.5zM305 1511q0 8 3.5 24.5t12.5 42t30 50.5t50 39 q37 16 72 16q82 0 174 -63q73 -49 90 -39q4 2 4 27q0 23 19.5 42t42.5 19h28q25 0 42.5 -16.5t17.5 -42.5v-14.5t-4 -29.5t-11.5 -42t-25 -39.5t-41.5 -34.5l2 2q-36 -20 -74 -20q-80 0 -172 63q-76 48 -98 37q-6 -3 -9.5 -10t-3.5 -13l-1 -6q0 -27 -20.5 -44.5t-45.5 -14.5 q-4 0 -12.5 1t-12.5 1q-27 0 -44 19.5t-13 45.5zM379 643h430l-213 635h-8q-32 -100 -65.5 -202t-75.5 -227.5t-68 -205.5z" />
<glyph unicode="&#xc4;" horiz-adv-x="1345" d="M117 1587v27q0 25 12 55l14 25l7 10l12 10q18 18 47 33h6l21 10q2 0 6 2q24 4 47 4q1 0 5 -1t9 -1l31 -4l39 -22l8 -9l-10 7l22 -19l6 -6l25 -29q0 -2 4 -6l2 -28l4 -13q0 -1 1 -4t1 -6v-8v-12v-11q0 -2 -1 -5.5t-1 -4.5v-8l-4 -12l-2 -27q-8 -8 -8 -6l-2 -15l-19 -22 l-12 -14q-37 -40 -88 -43h-23q-10 0 -16 2q-6 0 -12 2q-9 0 -25 8l6 -4q-14 0 -22 8h-10l-29 27l-18 22q-20 31 -27 51zM135 94l424 1303q4 19 20.5 30t38.5 11h142q49 0 59 -41l430 -1301q5 -23 -7 -47.5t-38 -30.5l-35 -12q-55 0 -65 43l-150 447h-528l-143 -447 q-12 -22 -42.5 -34.5t-50.5 -0.5q-4 4 -10 4q-26 6 -38.5 27.5t-6.5 48.5zM475 649h430l-213 635h-8q-32 -100 -65.5 -202t-75.5 -227.5t-68 -205.5zM862 1591v29q0 11 8 47l-2 -10l21 37l12 14l6 6q18 18 47 33h7l20 10q4 0 8 2q8 0 12 2h21q2 0 6 1t6 1h29q0 -2 -4 -2 q12 -2 35 -14q6 -2 12 -2l20 -19l-10 7l23 -19l10 -8q18 -25 27 -53l4 -21q0 -1 1 -4t1 -6v-8v-12v-11q0 -2 -1 -5.5t-1 -4.5v-8l-4 -12l-2 -27q-10 -10 -13 -21l-8 -10q-6 -12 -14 -20l-6 -6l-9 -9q-40 -34 -90 -34q-22 0 -28 2q-7 0 -13 2q-8 0 -24 8l2 -2l-15 4h5l-13 2 q-8 5 -16 12l-16 14t-11 9l2 -2l-12 18l-16 27l-13 35z" />
<glyph unicode="&#xc5;" horiz-adv-x="1204" d="M39 88l424 1303q4 19 20.5 30t38.5 11h142q49 0 59 -41l430 -1301q5 -23 -7 -47.5t-38 -30.5l-35 -12q-55 0 -65 43l-150 446h-528l-144 -446q-12 -22 -42 -34.5t-50 -0.5q-4 4 -10 4q-26 6 -38.5 27.5t-6.5 48.5zM379 643h430l-213 635h-8q-32 -100 -65.5 -202 t-75.5 -227.5t-68 -205.5zM430 1698q0 66 47 113t113 47q65 0 112.5 -47t47.5 -113q0 -64 -47.5 -111t-112.5 -47q-66 0 -113 46.5t-47 111.5zM555 1698q0 -13 10.5 -23t24.5 -10t23.5 9.5t9.5 23.5t-10 24.5t-23 10.5q-14 0 -24.5 -10.5t-10.5 -24.5z" />
<glyph unicode="&#xc6;" horiz-adv-x="1554" d="M63 60.5q-2 20.5 5 37.5l-5 -6l420 1297q6 19 22.5 30t37.5 11h841q25 0 43.5 -17.5t18.5 -46.5v-29q0 -24 -19 -42.5t-43 -18.5h-600q129 -375 152 -447h407q26 0 44 -19.5t18 -43.5v-29q0 -29 -17.5 -46t-44.5 -17h-358q136 -401 172 -516h258q29 0 46.5 -18.5 t17.5 -43.5v-30q0 -27 -17 -44.5t-47 -17.5h-330q-25 0 -44 18t-19 44v2l-129 397h-545q-98 -293 -137 -422q-13 -43 -72 -43l-24 10q-26 0 -41 21q-9 9 -11 29.5zM395 616h447l-221 660h-9q-195 -591 -217 -660z" />
<glyph unicode="&#xc7;" horiz-adv-x="1236" d="M78 709q0 185 65.5 336.5t178.5 246.5q191 140 477 140q50 0 101.5 -4t90 -10t69.5 -12.5t49 -10.5t19 -4h-4q24 -6 38 -28.5t7 -47.5l2 2l-6 -31q-17 -26 -40.5 -38t-49.5 -1q-150 29 -274 29q-249 0 -387 -109q-183 -139 -183 -458q0 -152 47.5 -269.5t133.5 -185.5 q131 -98 366 -98q69 0 141 8.5t108.5 16.5t57.5 14q56 10 76 -39l10 -35q0 -61 -41 -74q-1 0 -15 -3.5t-30.5 -7.5t-42 -9t-55 -9.5t-62 -8.5t-71 -6.5t-76.5 -2.5q-280 0 -459 131q-109 95 -175 247.5t-66 330.5zM430 -287l6 29q8 25 29 38t47 7l-2 2q45 -10 86 -10 q49 0 66 10h-5q2 0 2 4q0 17 -8 30t-18.5 19.5t-23 10.5t-19.5 5t-10 1h-25q-13 0 -29 10t-22 22q-14 31 0 58l90 143q30 44 78 21l28 -19q43 -34 17 -80l-21 -37q111 -55 111 -184q0 -72 -55 -121q-62 -43 -158 -43q-56 0 -105 11q-6 2 -14 2q-28 17 -36.5 31t-8.5 40z" />
<glyph unicode="&#xc8;" horiz-adv-x="999" d="M125 61v1309q0 24 19 44t42 20h701q29 0 46 -19.5t17 -44.5v-31q0 -27 -16.5 -44t-46.5 -17h-608v-449h567q23 0 43 -20t20 -43v-31q0 -24 -19.5 -42.5t-43.5 -18.5h-567v-518h643q23 0 43 -20.5t20 -43.5v-31q0 -25 -19.5 -43t-43.5 -18h-736q-24 0 -42.5 17.5 t-18.5 43.5zM402 2101q4 27 24 43l16 17q21 14 48.5 7.5t41.5 -24.5l-2 6q92 -119 125 -239q21 -86 21 -236v-37q0 -22 -21.5 -41.5t-40.5 -19.5h-28q-24 0 -42 18.5t-18 42.5v37q0 138 -14 199q-25 94 -100 184l4 -4q-18 20 -14 47z" />
<glyph unicode="&#xc9;" horiz-adv-x="983" d="M125 61v1309q0 24 19 44t42 20h701q29 0 46 -19.5t17 -44.5v-31q0 -27 -16.5 -44t-46.5 -17h-608v-449h567q23 0 43 -20t20 -43v-31q0 -24 -19.5 -42.5t-43.5 -18.5h-567v-518h643q23 0 43 -20.5t20 -43.5v-31q0 -25 -19.5 -43t-43.5 -18h-736q-24 0 -42.5 17.5 t-18.5 43.5zM346 1495v37q0 149 21 235q30 107 125 238q17 22 45.5 24t42.5 -12l18 -18l-2 2q21 -14 23.5 -42.5t-15.5 -47.5l4 4q-78 -97 -98 -184q-14 -61 -14 -199v-37q0 -24 -18 -42.5t-42 -18.5h-28q-22 0 -42 21t-20 40z" />
<glyph unicode="&#xca;" horiz-adv-x="983" d="M125 61v1309q0 24 19 44t42 20h701q29 0 46 -19.5t17 -44.5v-31q0 -27 -16.5 -44t-46.5 -17h-608v-449h567q23 0 43 -20t20 -43v-31q0 -24 -19.5 -42.5t-43.5 -18.5h-567v-518h643q23 0 43 -20.5t20 -43.5v-31q0 -25 -19.5 -43t-43.5 -18h-736q-24 0 -42.5 17.5 t-18.5 43.5zM224 1497q-3 25 9 45v-2l152 242q20 20 45 20h105q32 0 53 -33v3l131 -226q12 -35 10.5 -51t-18.5 -33l-37 -20q-23 -13 -45.5 -7t-34.5 31v-2l-111 189h-4l-121 -193q-13 -22 -40.5 -27t-51.5 15l15 -6l-37 20q-17 10 -20 35z" />
<glyph unicode="&#xcb;" horiz-adv-x="983" d="M86 1587v27q0 27 14 55l13 25l8 10l12 10q10 14 47 33h6l19 10q4 0 8 2q20 4 45 4q2 0 7 -1t9 -1l31 -4l37 -22l10 -9l-12 7l25 -19l4 -6l26 -29q0 -4 2 -6l2 -28l4 -13l1 -3q2 -3 2 -7l1 -2q1 -2 1 -6v-12l-1 -4q-1 -4 -1 -7q0 -2 -1.5 -5.5t-1.5 -4.5v-8l-4 -12l-2 -27 q-6 -9 -6 -6l-2 -15l-20 -22l-11 -14q-37 -40 -88 -43h-22q-11 0 -19 2q-6 0 -10 2q-11 0 -24 8l4 -4q-7 0 -23 8h-10l-29 27l-16 22q-16 21 -27 51zM143 68v1308q0 23 19.5 43.5t42.5 20.5h700q29 0 46.5 -19.5t17.5 -44.5v-30q0 -27 -17 -44.5t-47 -17.5h-608v-448h567 q23 0 43.5 -20.5t20.5 -43.5v-31q0 -24 -20 -42.5t-44 -18.5h-567v-518h643q23 0 43.5 -20.5t20.5 -43.5v-30q0 -25 -20 -43.5t-44 -18.5h-735q-24 0 -43 18t-19 44zM623 1591v29q0 23 8 47l-2 -10l20 37l13 14l6 6q18 18 47 33h6l18 10q7 0 11 2q8 0 12 2h20q2 0 6.5 1 t6.5 1h28q0 -2 -4 -2q12 -2 35 -14q6 -2 12 -2l21 -19l-10 7l22 -19l10 -8q18 -25 27 -53l4 -21v-10l1 -2q1 -2 1 -6v-12l-1 -4q-1 -4 -1 -7v-10v-8l-4 -12l-2 -27q-9 -9 -12 -21l-11 -10q-3 -11 -12 -20l-6 -6l-8 -9q-40 -34 -90 -34q-23 0 -29 2q-6 0 -12 2q-12 0 -25 8 l2 -2l-14 4h4l-12 2q-8 5 -16 12l-16 14t-11 9l2 -2l-15 18l-14 27l-14 35z" />
<glyph unicode="&#xcc;" horiz-adv-x="344" d="M-16 2101q4 27 24 43l17 17q21 14 48.5 7.5t41.5 -24.5l-2 6q92 -119 125 -239q20 -82 20 -236v-37q0 -22 -21 -41.5t-40 -19.5h-29q-24 0 -41.5 18.5t-17.5 42.5v37q0 134 -15 199q-25 94 -100 184l4 -4q-18 20 -14 47zM90 61v1309q0 21 19 41.5t43 20.5h28 q25 0 43.5 -20t18.5 -42v-1309q0 -26 -18 -43.5t-44 -17.5h-28q-25 0 -43.5 17.5t-18.5 43.5z" />
<glyph unicode="&#xcd;" horiz-adv-x="387" d="M49 1495v37q0 149 21 235q30 107 125 238q17 22 45.5 24t42.5 -12l18 -18l-2 2q21 -14 23.5 -42.5t-15.5 -47.5l4 4q-78 -97 -98 -184q-14 -61 -14 -199v-37q0 -24 -18 -42.5t-42 -18.5h-28q-22 0 -42 21t-20 40zM111 61v1309q0 21 18.5 41.5t42.5 20.5h29q25 0 43 -20 t18 -42v-1309q0 -26 -17.5 -43.5t-43.5 -17.5h-29q-25 0 -43 17.5t-18 43.5z" />
<glyph unicode="&#xce;" horiz-adv-x="387" d="M-72.5 1497q-2.5 25 9.5 45v-2l151 242q20 20 45 20h105q32 0 53 -33v3l131 -226q12 -35 10.5 -51t-18.5 -33l-37 -20q-23 -13 -45.5 -7t-34.5 31v-2l-111 189h-4l-121 -193q-13 -22 -40.5 -27t-51.5 15l15 -6l-37 20q-17 10 -19.5 35zM111 61v1309q0 21 18.5 41.5 t42.5 20.5h29q25 0 43 -20t18 -42v-1309q0 -26 -17.5 -43.5t-43.5 -17.5h-29q-25 0 -43 17.5t-18 43.5z" />
<glyph unicode="&#xcf;" horiz-adv-x="720" d="M-4 1591v23q0 29 12 53l15 23l14 18q30 34 78 49q6 0 10 2q8 0 16 2q1 0 8.5 1t8.5 1h10q1 0 6 -1t10 -1l25 -4q42 -20 74 -55v2l22 -25q0 -2 4 -6v-28l4 -13q0 -1 1 -4t1 -6l1 -2q1 -2 1 -6v-12l-1 -4q-1 -4 -1 -7q0 -2 -1 -5.5t-1 -4.5v-8l-4 -19q-3 -23 -16 -43v-2 q-52 -72 -115 -75h-20q-13 0 -21 2q-56 10 -88 39l-4 6q-14 11 -14.5 15t-1.5 5l-19 33l-8 20l-1 7q-1 7 -1 12zM272 61v1309q0 22 18.5 42t43.5 20h28q24 0 43 -20.5t19 -41.5v-1309q0 -26 -18.5 -43.5t-43.5 -17.5h-28q-26 0 -44 17.5t-18 43.5zM379 1620v6l4 35l4 -2 l19 35l8 10l16 16l19 15l49 22q6 0 10 2q6 0 10 2h21q2 0 6 1t6 1h29l-10 -2h-3l29 -4l39 -22l10 -9l-6 5l29 -29l18 -23q0 -2 4 -6l2 -28l4 -13q0 -1 1 -4t1 -6l1 -2q1 -2 1 -6q0 -23 -2 -29q0 -16 -10 -39l2 2l-8 -22l-4 -8l-2 -13l-21 -22l-4 -6l-26 -27l-15 -2l-8 -2 l-16 -8q-10 -4 -27 -4h-20q-23 0 -50 10l3 -2l-19 6l-8 2q-39 29 -59 59l2 -2q-14 19 -23 47q-2 7 -2 11q-4 18 -4 55z" />
<glyph unicode="&#xd0;" horiz-adv-x="1503" d="M55 641v29q0 29 17 41q14 20 47 20l135 -2v619q0 19 14.5 36t34.5 25l19 2q131 21 245 21q71 0 139 -6.5t150.5 -27t152.5 -53t138.5 -88.5t116 -129.5t77 -181t29.5 -237.5q0 -128 -28.5 -233t-75 -177t-113 -127t-135 -87t-149 -52t-147 -26.5t-136.5 -6.5 q-144 0 -269 27l9 -2q-2 0 -11.5 1t-11.5 1q-19 6 -34 23.5t-15 37.5v490q-22 0 -67 1t-68 1q-25 0 -44.5 17.5t-19.5 43.5zM358 170l50 -47v39l-35 6q-1 0 -7.5 1t-7.5 1zM408 162q108 -10 178 -10q66 0 126 6.5t125 23.5t119 44t103.5 70.5t83.5 100t54 136.5t20 176 q0 103 -23.5 187.5t-62 142.5t-94 102t-112 69.5t-123.5 41.5t-122 21t-113 5q-107 0 -159 -8v-541h200q24 0 43 -17.5t19 -43.5v-29q0 -28 -19 -47q-21 -17 -43 -17l-200 3v-416z" />
<glyph unicode="&#xd1;" horiz-adv-x="1376" d="M129 61v1307q0 26 18 44t43 18h101q34 0 53 -29l703 -1178v1131q0 24 19.5 43.5t43.5 19.5h31q25 0 43 -19.5t18 -43.5v-1282q0 -28 -16.5 -45t-42.5 -19l-105 -6q-18 0 -33.5 9t-19.5 22q-424 702 -702 1169v-1141q0 -27 -17 -44t-47 -17h-29q-25 0 -43 17.5t-18 43.5z M377 1511q0 8 3.5 24.5t12.5 42t30 50.5t50 39q37 16 72 16q82 0 174 -63q73 -49 90 -39q4 2 4 27q0 23 19 42t42 19h29q25 0 42.5 -16.5t17.5 -42.5v-14.5t-4 -29.5t-11.5 -42t-25 -39.5t-41.5 -34.5l2 2q-36 -20 -74 -20q-80 0 -172 63q-76 48 -98 37q-6 -3 -10 -10 t-5 -13v-6q0 -27 -20 -44.5t-45 -14.5q-4 0 -12.5 1t-12.5 1q-27 0 -44 19.5t-13 45.5z" />
<glyph unicode="&#xd2;" horiz-adv-x="1478" d="M84 678q0 96 22 190t62.5 177.5t99.5 154.5t130.5 122.5t159 80.5t181.5 29q149 -4 274.5 -71.5t206.5 -175t127 -239t48 -268.5q0 -134 -42 -256t-120 -211q-91 -104 -223.5 -157.5t-270.5 -53.5q-322 13 -491 213q-79 89 -121.5 210t-42.5 255zM238 678 q0 -228 127 -367q130 -151 376 -157q242 6 375 157q127 146 127 367q0 85 -21.5 169.5t-64.5 159.5t-102.5 134t-141 95.5t-174.5 41.5q-115 -6 -211.5 -60.5t-158.5 -139.5t-96.5 -189t-34.5 -211zM598.5 2101q4.5 27 24.5 43l16 17q21 14 48.5 7.5t41.5 -24.5l-2 6 q92 -119 125 -239q20 -82 20 -236v-37q0 -22 -21 -41.5t-40 -19.5h-29q-24 0 -41.5 18.5t-17.5 42.5v37q0 138 -14 199q-24 92 -101 184l4 -4q-18 20 -13.5 47z" />
<glyph unicode="&#xd3;" horiz-adv-x="1529" d="M84 678q0 96 22 190t62.5 177.5t99.5 154.5t130.5 122.5t159 80.5t181.5 29q149 -4 274.5 -71.5t206.5 -175t127 -239t48 -268.5q0 -134 -42 -256t-120 -211q-91 -104 -223.5 -157.5t-270.5 -53.5q-322 13 -491 213q-79 89 -121.5 210t-42.5 255zM238 678 q0 -228 127 -367q130 -151 376 -157q242 6 375 157q127 146 127 367q0 85 -21.5 169.5t-64.5 159.5t-102.5 134t-141 95.5t-174.5 41.5q-115 -6 -211.5 -60.5t-158.5 -139.5t-96.5 -189t-34.5 -211zM621 1495v37q0 153 20 235q30 107 125 238q17 22 45.5 24t42.5 -12l18 -18 l-2 2q21 -14 24 -42.5t-15 -47.5l4 4q-79 -99 -99 -184q-14 -61 -14 -199v-37q0 -24 -17.5 -42.5t-41.5 -18.5h-29q-22 0 -41.5 21t-19.5 40z" />
<glyph unicode="&#xd4;" horiz-adv-x="1529" d="M84 678q0 96 22 190t62.5 177.5t99.5 154.5t130.5 122.5t159 80.5t181.5 29q149 -4 274.5 -71.5t206.5 -175t127 -239t48 -268.5q0 -134 -42 -256t-120 -211q-91 -104 -223.5 -157.5t-270.5 -53.5q-322 13 -491 213q-79 89 -121.5 210t-42.5 255zM238 678 q0 -228 127 -367q130 -151 376 -157q242 6 375 157q127 146 127 367q0 85 -21.5 169.5t-64.5 159.5t-102.5 134t-141 95.5t-174.5 41.5q-115 -6 -211.5 -60.5t-158.5 -139.5t-96.5 -189t-34.5 -211zM496.5 1497q-2.5 25 9.5 45v-2l151 242q20 20 45 20h105q32 0 53 -33v3 l131 -226q12 -35 10.5 -51t-18.5 -33l-37 -20q-23 -13 -45.5 -7t-34.5 31v-2l-110 189h-4l-121 -193q-13 -22 -40.5 -27t-51.5 15l14 -6l-37 20q-17 10 -19.5 35z" />
<glyph unicode="&#xd5;" horiz-adv-x="1529" d="M84 678q0 96 22 190t62.5 177.5t99.5 154.5t130.5 122.5t159 80.5t181.5 29q149 -4 274.5 -71.5t206.5 -175t127 -239t48 -268.5q0 -134 -42 -256t-120 -211q-91 -104 -223.5 -157.5t-270.5 -53.5q-322 13 -491 213q-79 89 -121.5 210t-42.5 255zM238 678 q0 -228 127 -367q130 -151 376 -157q242 6 375 157q127 146 127 367q0 85 -21.5 169.5t-64.5 159.5t-102.5 134t-141 95.5t-174.5 41.5q-115 -6 -211.5 -60.5t-158.5 -139.5t-96.5 -189t-34.5 -211zM455 1511q0 8 3.5 24.5t12.5 42t30 50.5t50 39q37 16 72 16q82 0 174 -63 q73 -49 90 -39q4 2 4 27q0 23 19 42t42 19h29q25 0 42 -16.5t17 -42.5v-14.5t-4 -29.5t-11.5 -42t-25 -39.5t-41.5 -34.5l3 2q-36 -20 -74 -20q-80 0 -172 63q-76 48 -99 37q-6 -3 -9.5 -10t-4.5 -13v-6q0 -27 -20 -44.5t-45 -14.5q-4 0 -12.5 1t-12.5 1q-27 0 -44 19.5 t-13 45.5z" />
<glyph unicode="&#xd6;" horiz-adv-x="1519" d="M111 680q0 96 22 190t62.5 177.5t99.5 154.5t130.5 122.5t159 80.5t181.5 29q120 -3 225.5 -47.5t182 -118.5t132.5 -170t84.5 -202.5t30.5 -215.5q0 -134 -41.5 -256t-119.5 -211q-91 -104 -223.5 -157.5t-270.5 -53.5q-323 13 -492 213q-79 89 -121 210t-42 255z M205 1587v27q0 25 12 55l14 25l9 10l10 10q18 18 49 33h4l21 10q4 0 6 2q24 4 47 4q2 0 6.5 -1t7.5 -1l31 -4l39 -22l10 -9l-12 7l22 -19l6 -6l25 -29q0 -2 4 -6l2 -28l4 -13q0 -1 1 -4t1 -6l1 -2q1 -2 1 -6v-12l-1 -4q-1 -4 -1 -7q0 -2 -1 -5.5t-1 -4.5v-8l-4 -12l-2 -27 q-8 -8 -8 -6l-2 -15l-19 -22l-12 -14q-37 -40 -88 -43h-22q-9 0 -17 2q-6 0 -12 2q-9 0 -25 8l6 -4q-6 0 -22 8h-10l-29 27l-16 22q-21 29 -27 51zM264 680q0 -228 127 -367q130 -151 377 -157q242 6 375 157q127 146 127 367q0 85 -21.5 169.5t-64.5 159.5t-102.5 134 t-141 95.5t-174.5 41.5q-115 -6 -211.5 -60.5t-159 -139.5t-97 -189t-34.5 -211zM950 1591v29q0 11 8 47v-10l19 37l12 14l6 6q18 18 49 33h5l20 10q4 0 8 2q9 0 13 2h20q2 0 6 1t6 1h29q0 -2 -4 -2q10 -2 35 -14q6 -2 12 -2l23 -19l-13 7l23 -19l10 -8q18 -25 27 -53l4 -21 q0 -1 1 -4t1 -6l1 -2q1 -2 1 -6v-12l-1 -4q-1 -4 -1 -7q0 -2 -1 -5.5t-1 -4.5v-8l-4 -12l-2 -27q-10 -10 -13 -21l-8 -10q-6 -12 -14 -20l-6 -6l-7 -9q-40 -34 -92 -34q-22 0 -28 2q-7 0 -13 2q-8 0 -24 8l2 -2l-15 4h5l-13 2q-8 5 -16 12l-16 14t-11 9l2 -2l-12 18l-16 27 l-13 35z" />
<glyph unicode="&#xd7;" horiz-adv-x="1329" d="M112 252q-1 28 19 47l395 397l-397 400q-14 21 -14 45.5t20 42.5l12 14q17 19 42.5 18.5t46.5 -14.5l397 -399l401 399q19 13 42 13.5t42 -15.5l17 -16q19 -14 19 -42t-13 -46l-402 -400l400 -397q19 -19 17.5 -47t-21.5 -41l-15 -14q-15 -20 -41.5 -21t-46.5 19 l-399 395l-395 -395q-20 -20 -48.5 -18.5t-42.5 22.5l-12 12q-22 13 -23 41z" />
<glyph unicode="&#xd8;" horiz-adv-x="1492" d="M94 680q0 144 49.5 281t134.5 241.5t208.5 168t263.5 63.5q120 -3 225.5 -47.5t182 -118.5t132.5 -170t84.5 -202.5t30.5 -215.5q0 -134 -42 -256t-120 -211q-91 -104 -223 -157.5t-270 -53.5q-323 13 -492 213q-79 89 -121.5 210t-42.5 255zM248 680q0 -228 127 -367 q130 -151 377 -157q241 6 374 157q127 146 127 367q0 85 -21.5 169t-64.5 159.5t-102 134.5t-140.5 95.5t-174.5 41.5q-115 -6 -211.5 -60.5t-159 -139.5t-97 -189t-34.5 -211zM333 -57.5q-7 24.5 5 49.5l577 1499l-2 -2q6 20 27 32.5t47 6.5l35 -15q20 -6 27 -33t-5 -50 l-581 -1504q-16 -22 -24.5 -26t-32.5 -4l-46 14q-20 8 -27 32.5z" />
<glyph unicode="&#xd9;" horiz-adv-x="1245" d="M119 551v811q0 30 18.5 44.5t42.5 14.5h29q26 0 43.5 -17t17.5 -42v-823q0 -188 90 -283q98 -104 295 -104q143 0 230 84q31 32 52.5 75.5t31 77t15 74.5t5.5 50v22v835q0 26 19.5 44t44.5 18h30q60 -17 60 -62v-835q0 -13 -0.5 -30t-8.5 -68.5t-22 -97.5t-45 -105 t-74 -103q-128 -131 -338 -131q-265 0 -407 154q-47 52 -77.5 117.5t-39.5 126.5t-11 94.5t-1 58.5zM498 2101q4 27 24 43l17 17q21 14 48.5 7.5t41.5 -24.5l-2 6q92 -119 125 -239q20 -82 20 -236v-37q0 -22 -21 -41.5t-40 -19.5h-29q-24 0 -41.5 18.5t-17.5 42.5v37 q0 134 -15 199q-25 94 -100 184l4 -4q-18 20 -14 47z" />
<glyph unicode="&#xda;" horiz-adv-x="1298" d="M119 551v811q0 30 18.5 44.5t42.5 14.5h29q26 0 43.5 -17t17.5 -42v-823q0 -188 90 -283q98 -104 295 -104q143 0 230 84q31 32 52.5 75.5t31 77t15 74.5t5.5 50v22v835q0 26 19.5 44t44.5 18h30q60 -17 60 -62v-835q0 -13 -0.5 -30t-8.5 -68.5t-22 -97.5t-45 -105 t-74 -103q-128 -131 -338 -131q-265 0 -407 154q-47 52 -77.5 117.5t-39.5 126.5t-11 94.5t-1 58.5zM504 1495v37q0 153 20 235q30 107 125 238q17 22 45.5 24t42.5 -12l19 -18l-2 2q21 -14 23.5 -42.5t-15.5 -47.5l4 4q-78 -97 -98 -184q-15 -65 -15 -199v-37 q0 -24 -17.5 -42.5t-41.5 -18.5h-29q-22 0 -41.5 21t-19.5 40z" />
<glyph unicode="&#xdb;" horiz-adv-x="1298" d="M119 551v811q0 30 18.5 44.5t42.5 14.5h29q26 0 43.5 -17t17.5 -42v-823q0 -188 90 -283q98 -104 295 -104q143 0 230 84q31 32 52.5 75.5t31 77t15 74.5t5.5 50v22v835q0 26 19.5 44t44.5 18h30q60 -17 60 -62v-835q0 -13 -0.5 -30t-8.5 -68.5t-22 -97.5t-45 -105 t-74 -103q-128 -131 -338 -131q-265 0 -407 154q-47 52 -77.5 117.5t-39.5 126.5t-11 94.5t-1 58.5zM381.5 1497q-2.5 25 9.5 45v-2l152 242q20 20 45 20h104q32 0 53 -33v3l132 -226q12 -35 10 -51t-19 -33l-37 -20q-55 -28 -79 24v-2l-111 189h-4l-121 -193 q-13 -22 -40.5 -27t-51.5 15l14 -6l-37 20q-17 10 -19.5 35z" />
<glyph unicode="&#xdc;" horiz-adv-x="1298" d="M51 1583v25q0 31 12 55l13 25l8 8l10 12q28 21 47 31h6l19 10q4 0 8 2q3 0 16.5 1t26.5 1q1 0 6 -1t10 -1l29 -2l37 -23l10 -8l-12 6l22 -16l7 -6l24 -29q0 -2 4 -6l2 -29l2 -10l1 -3q1 -3 1 -7l1 -3q1 -3 1 -7v-11q0 -1 -1 -4t-1 -6q0 -2 -1 -5.5t-1 -4.5v-8l-2 -13 q0 -1 -1 -13t-1 -13q-8 -5 -8 -4l-2 -15l-18 -22l-11 -14q-38 -38 -86 -41h-22q-11 0 -17 2q-6 0 -12 2q-6 0 -24 6l6 -2q-7 0 -23 8h-8l-29 25l-16 22q-14 19 -27 49zM119 551v811q0 30 18.5 44.5t42.5 14.5h29q26 0 43.5 -17t17.5 -42v-823q0 -188 90 -283 q98 -104 295 -104q143 0 230 84q31 32 52.5 75.5t31 77t15 74.5t5.5 50v22v835q0 26 19.5 44t44.5 18h30q60 -17 60 -62v-835q0 -13 -0.5 -30t-8.5 -68.5t-22 -97.5t-45 -105t-74 -103q-128 -131 -338 -131q-265 0 -407 154q-47 52 -77.5 117.5t-39.5 126.5t-11 94.5 t-1 58.5zM870 1587v27q0 20 9 47l-2 -10l18 37l14 14l4 6q26 20 48 31h6l18 10q6 0 8 2h13h20q2 0 5.5 1t4.5 1h29q0 -2 -4 -2q11 0 35 -12q6 -2 12 -2l20 -19l-12 6l23 -16l10 -10q14 -17 27 -49l2 -21l1 -3q1 -3 1 -7l1 -3q1 -3 1 -7v-11q0 -1 -1 -4t-1 -6q0 -2 -1 -5.5 t-1 -4.5v-8l-2 -13q0 -1 -1 -13t-1 -13q-10 -7 -13 -19l-8 -10q-7 -13 -14 -18l-4 -8l-9 -9q-38 -32 -90 -32q-20 0 -26 2q-7 0 -13 2q-6 0 -24 6h2l-12 4l4 -2l-15 4q-24 18 -41 35l2 -2l-12 16l-14 27l-15 35z" />
<glyph unicode="&#xdd;" horiz-adv-x="1062" d="M23 1327q-16 58 14 78l35 18l-6 -2q19 14 46.5 8t39.5 -26l360 -610l367 610q12 20 39 26t47 -8l-7 2l35 -18q14 -10 17.5 -24.5t3.5 -43.5l-428 -710q0 -94 2 -283t2 -283q0 -26 -18 -43.5t-44 -17.5h-26q-62 0 -62 61l-4 562zM387 1495v37q0 149 21 235q31 110 124 238 q17 22 46 24t43 -12l18 -18l-2 2q21 -14 23.5 -42.5t-15.5 -47.5l4 4q-78 -97 -98 -184q-14 -61 -14 -199v-37q0 -24 -18 -42.5t-42 -18.5h-28q-22 0 -42 21t-20 40z" />
<glyph unicode="&#xde;" horiz-adv-x="1003" d="M125 61v1358q0 25 17 42.5t42 17.5h29q25 0 42 -17.5t17 -42.5v-139q69 71 159 111.5t179 40.5q159 0 262 -127q105 -139 105 -373v-4q0 -238 -105 -371q-99 -129 -262 -129q-197 0 -338 150v-517q0 -26 -17 -43.5t-42 -17.5h-29q-25 0 -42 17.5t-17 43.5zM272 930 q1 -96 53 -179t129.5 -129.5t155.5 -46.5q87 0 146 72q70 87 73 283q-3 193 -73 280q-57 72 -146 72q-78 0 -155.5 -45.5t-129.5 -128.5t-53 -178z" />
<glyph unicode="&#xdf;" horiz-adv-x="1107" d="M119 59v934q0 245 121 363q111 105 317 102q115 -3 230 -78t143 -180v2q45 -167 -142 -280h3q-70 -46 -89 -80q-12 -18 -12 -39q0 -25 12 -49q5 -14 17.5 -28.5t21 -21.5t31.5 -26l31 -25q80 -68 125 -171t45 -218q0 -120 -86 -190q-93 -68 -248 -68q-3 0 -13 1t-16 1 h-16q-25 5 -42 27.5t-11 46.5v-2l6 29q16 57 71 45h21q108 0 156 39q30 23 30 71q0 85 -31 158t-87 119v-2l-27 22h2q-89 65 -119 139q-20 58 -20 103q0 60 37 121q25 37 63 71t68 52q93 59 77 116v-2q-17 57 -87.5 101t-147.5 47q-148 3 -211 -60q-74 -74 -74 -256v-934 q0 -25 -17 -42t-42 -17h-29q-24 0 -42.5 17.5t-18.5 41.5z" />
<glyph unicode="&#xe0;" d="M84 489q0 230 100 363q98 125 256 125q88 0 175 -39.5t153 -108.5v136q0 25 17 42t42 17h27q25 0 42 -17t17 -42v-906q0 -25 -17 -42t-42 -17h-27q-25 0 -42 17t-17 42v86q-67 -67 -154.5 -106t-173.5 -39q-158 0 -256 125q-100 135 -100 364zM227 487q3 -193 70 -274 q52 -70 143 -70q76 0 151 45t125.5 125.5t51.5 173.5q-1 94 -51.5 174.5t-125.5 125t-151 44.5q-92 0 -143 -69q-67 -81 -70 -275zM404 1548q4 27 24 43l16 17q21 14 49 7.5t42 -24.5l-3 6q92 -119 125 -239q21 -86 21 -236v-37q0 -22 -21.5 -41.5t-40.5 -19.5h-28 q-24 0 -42 18.5t-18 42.5v37q0 138 -14 199q-25 94 -100 184l4 -4q-18 20 -14 47z" />
<glyph unicode="&#xe1;" d="M84 489q0 230 100 363q98 125 256 125q88 0 175 -39.5t153 -108.5v136q0 25 17 42t42 17h27q25 0 42 -17t17 -42v-906q0 -25 -17 -42t-42 -17h-27q-25 0 -42 17t-17 42v86q-67 -67 -154.5 -106t-173.5 -39q-158 0 -256 125q-100 135 -100 364zM227 487q3 -193 70 -274 q52 -70 143 -70q76 0 151 45t125.5 125.5t51.5 173.5q-1 94 -51.5 174.5t-125.5 125t-151 44.5q-92 0 -143 -69q-67 -81 -70 -275zM399 1085v37q0 150 21 236q30 106 125 237q18 22 46 24.5t42 -11.5l18 -19l-2 2q21 -14 23.5 -42.5t-15.5 -47.5l5 4q-79 -99 -99 -184 q-14 -61 -14 -199v-37q0 -24 -18 -42.5t-42 -18.5h-28q-22 0 -42 21t-20 40z" />
<glyph unicode="&#xe2;" d="M84 489q0 230 100 363q98 125 256 125q88 0 175 -39.5t153 -108.5v136q0 25 17 42t42 17h27q25 0 42 -17t17 -42v-906q0 -25 -17 -42t-42 -17h-27q-25 0 -42 17t-17 42v86q-67 -67 -154.5 -106t-173.5 -39q-158 0 -256 125q-100 135 -100 364zM227 487q3 -193 70 -274 q52 -70 143 -70q76 0 151 45t125.5 125.5t51.5 173.5q-1 94 -51.5 174.5t-125.5 125t-151 44.5q-92 0 -143 -69q-67 -81 -70 -275zM277.5 1088q-2.5 25 9.5 45v-3l151 242q21 21 45 21h105q32 0 53 -33v2l131 -225q12 -35 10.5 -51t-18.5 -33l-37 -21q-23 -13 -45.5 -6.5 t-34.5 31.5v-2l-110 188h-5l-120 -192q-13 -22 -41 -27.5t-52 14.5l15 -6l-37 21q-17 10 -19.5 35z" />
<glyph unicode="&#xe3;" d="M84 489q0 230 100 363q98 125 256 125q88 0 175 -39.5t153 -108.5v136q0 25 17 42t42 17h27q25 0 42 -17t17 -42v-906q0 -25 -17 -42t-42 -17h-27q-25 0 -42 17t-17 42v86q-67 -67 -154.5 -106t-173.5 -39q-158 0 -256 125q-100 135 -100 364zM227 487q3 -193 70 -274 q52 -70 143 -70q76 0 151 45t125.5 125.5t51.5 173.5q-1 94 -51.5 174.5t-125.5 125t-151 44.5q-92 0 -143 -69q-67 -81 -70 -275zM233 1102q0 13 5.5 37t29.5 62t62 56q39 17 71 17q80 0 174 -64q73 -50 91 -39q4 2 4 27q0 23 19 42.5t42 19.5h29q25 0 42 -17t17 -43v-14.5 t-4 -29.5t-11.5 -42t-25 -39.5t-41.5 -34.5l2 2q-36 -20 -73 -20q-80 0 -172 63q-76 48 -99 37q-6 -3 -9.5 -10t-3.5 -12l-1 -6q0 -27 -20.5 -45t-45.5 -15q-4 0 -12 1t-12 1q-27 0 -44.5 20t-13.5 46z" />
<glyph unicode="&#xe4;" d="M106 492q0 227 101 362q98 125 256 125q88 0 175 -39.5t153 -108.5v136q0 25 17 42t42 17h27q25 0 42 -17t17 -42v-906q0 -25 -17 -42t-42 -17h-27q-25 0 -42 17t-17 42v86q-67 -67 -154.5 -106t-173.5 -39q-158 0 -256 125q-101 137 -101 365zM158 1174v24q0 25 12 55 l14 25l6 8l13 12q16 16 45 31h6l18 10q5 0 9 2q3 0 17.5 1t27.5 1l4 -1q5 -1 10 -1l29 -2l39 -22l8 -8l-10 6l22 -17l4 -6l25 -28q0 -3 4 -7l2 -28l4 -10q0 -1 1 -4t1 -7l1 -3q1 -3 1 -7v-10l-1 -3q-1 -3 -1 -7q0 -2 -1 -6t-1 -5v-8l-4 -12q0 -1 -1 -13.5t-1 -13.5 q-8 -5 -8 -4l-2 -14l-19 -23l-10 -14q-38 -38 -86 -41h-23q-8 0 -16 2q-6 0 -10 2q-10 0 -25 6l4 -2q-12 0 -20 8h-10l-29 25l-17 22q-15 23 -26 50zM250 489q3 -194 69 -274q52 -70 144 -70q76 0 151 45t125.5 125.5t51.5 173.5q-1 94 -51.5 175t-125.5 125.5t-151 44.5 q-92 0 -144 -70q-66 -80 -69 -275zM567 1178v26q0 11 8 47l-2 -10l21 37l12 14l6 6q16 16 45 31h7l18 10q6 0 10 2h10h21q2 0 6 1t6 1h27q0 -2 -4 -2q11 0 35 -12q6 -2 12 -2l20 -18l-10 6l23 -17l8 -10q11 -11 26 -49l5 -20q0 -1 1 -4t1 -7l1 -3q1 -3 1 -7v-10l-1 -3 q-1 -3 -1 -7q0 -2 -1 -6t-1 -5v-8l-5 -12q0 -1 -1 -13.5t-1 -13.5q-10 -7 -10 -18l-10 -10q-7 -14 -12 -19l-7 -8l-8 -8q-36 -33 -88 -33q-22 0 -28 2q-7 0 -11 2q-9 0 -24 6h2l-15 4l5 -2l-13 4q-33 24 -41 35l2 -2l-14 17l-14 26l-13 35z" />
<glyph unicode="&#xe5;" d="M84 489q0 230 100 363q98 125 256 125q88 0 175 -39.5t153 -108.5v136q0 25 17 42t42 17h27q25 0 42 -17t17 -42v-906q0 -25 -17 -42t-42 -17h-27q-25 0 -42 17t-17 42v86q-67 -67 -154.5 -106t-173.5 -39q-158 0 -256 125q-100 135 -100 364zM227 487q3 -193 70 -274 q52 -70 143 -70q76 0 151 45t125.5 125.5t51.5 173.5q-1 94 -51.5 174.5t-125.5 125t-151 44.5q-92 0 -143 -69q-67 -81 -70 -275zM373 1182q0 66 46.5 112.5t112.5 46.5q65 0 112.5 -46.5t47.5 -112.5q0 -64 -47.5 -111t-112.5 -47q-66 0 -112.5 46.5t-46.5 111.5z M498 1182q0 -13 10 -23t24 -10t23.5 9.5t9.5 23.5t-10 24.5t-23 10.5t-23.5 -10.5t-10.5 -24.5z" />
<glyph unicode="&#xe6;" horiz-adv-x="1753" d="M102 248q-3 208 134 315q111 82 288 82q62 0 148 -16q-3 142 -78 186q-54 33 -125 33q-69 0 -138.5 -19.5t-103.5 -35.5l2 2q-26 -11 -47 -3.5t-32 31.5l-13 27q-22 50 29 78q179 67 303 67q117 0 205 -53q64 -47 96 -102q18 30 47 59q123 123 326 123q205 0 317 -127v2 q99 -111 99 -293q0 -32 -7 -74q-2 -23 -18 -38t-41 -15h-662q7 -74 37 -149t90 -125q78 -56 193 -56q125 0 293 62l-4 -2q23 11 50 -2.5t34 -32.5l8 -31q11 -46 -37 -69q-198 -72 -344 -72q-165 0 -281 84q-24 16 -49 41q9 -35 21 -84q6 -24 -7.5 -45.5t-37.5 -26.5l-33 -8 q-68 0 -68 55l2 -8q-4 23 -9 40t-9 36q-192 -82 -326 -82q-82 0 -143 33q-50 31 -79 86.5t-30 126.5zM252 252q3 -71 35 -86q22 -14 67 -14q120 0 299 84q0 9 4 59q0 1 1 6t1 8q11 96 11 172q-69 15 -146 15q-131 0 -200 -54q-75 -62 -72 -190zM836 625h573q-4 108 -63 174 q-61 73 -203 73q-62 0 -113 -16.5t-83.5 -41.5t-56.5 -59.5t-35.5 -65t-18.5 -64.5z" />
<glyph unicode="&#xe7;" horiz-adv-x="966" d="M78 506q0 133 45.5 237.5t128.5 171.5q139 105 360 105q50 0 101 -6t96 -14l45 -9h2q29 -12 41 -33t6 -45l2 2q-1 -4 -4 -14t-4 -14q-8 -26 -27.5 -38.5t-46.5 -6.5q-4 2 -30.5 8t-78.5 13t-102 7q-173 0 -268 -73q-117 -91 -117 -291q0 -201 115 -287q91 -67 258 -67 q54 0 108.5 6.5t82.5 13.5l28 6q22 6 44 -5t32 -34l10 -33q0 -48 -41 -75h-18q-143 -31 -246 -31q-217 0 -348 98q-174 131 -174 408zM401 -287l7 29q8 25 28.5 38t46.5 7l-2 2q45 -10 86 -10q49 0 66 10h-4q2 0 2 4q0 17 -8 30t-18.5 19.5t-23.5 10.5t-20 5t-10 1h-25 q-13 0 -29 10t-22 22q-14 31 0 58l90 143q30 44 78 21l29 -19q43 -34 16 -80l-20 -37q110 -54 110 -184q0 -72 -55 -121q-62 -43 -158 -43q-55 0 -104 11q-6 2 -15 2q-28 17 -36.5 31t-8.5 40z" />
<glyph unicode="&#xe8;" horiz-adv-x="1099" d="M92 506q-1 31 0 57q0 17 4 46.5t16 80.5t42.5 107.5t74.5 101.5q123 123 328 123q203 0 315 -127v2q99 -111 99 -297q0 -21 -2 -44t-2 -24q-12 -53 -62 -53h-661q7 -75 37.5 -150.5t89.5 -125.5q78 -56 192 -56q125 0 293 62l-4 -2q23 11 50 -2.5t34 -32.5l6 -25 q20 -49 -41 -79q-189 -68 -338 -68q-164 0 -280 84q-55 41 -94.5 101t-58 114t-28 115t-10.5 92zM248 627h573q0 99 -63 172q-59 73 -201 73q-78 0 -137 -23.5t-93 -63t-52 -78t-27 -80.5zM410 1548q4 27 24 43l17 17q21 14 48.5 7.5t41.5 -24.5l-2 6q92 -119 125 -239 q20 -82 20 -236v-37q0 -22 -21 -41.5t-40 -19.5h-29q-24 0 -41.5 18.5t-17.5 42.5v37q0 134 -15 199q-25 94 -100 184l4 -4q-18 20 -14 47z" />
<glyph unicode="&#xe9;" horiz-adv-x="1099" d="M92 506q-1 31 0 57q0 17 4 46.5t16 80.5t42.5 107.5t74.5 101.5q123 123 328 123q203 0 315 -127v2q99 -111 99 -297q0 -21 -2 -44t-2 -24q-12 -53 -62 -53h-661q7 -75 37.5 -150.5t89.5 -125.5q78 -56 192 -56q125 0 293 62l-4 -2q23 11 50 -2.5t34 -32.5l6 -25 q20 -49 -41 -79q-189 -68 -338 -68q-164 0 -280 84q-55 41 -94.5 101t-58 114t-28 115t-10.5 92zM248 627h573q0 99 -63 172q-59 73 -201 73q-78 0 -137 -23.5t-93 -63t-52 -78t-27 -80.5zM406 1188v37q0 153 20 235q30 107 125 238q17 22 45.5 24t42.5 -12l18 -18l-2 2 q21 -14 24 -42.5t-15 -47.5l4 4q-79 -99 -99 -185q-14 -61 -14 -198v-37q0 -24 -17.5 -43t-41.5 -19h-29q-22 0 -41.5 21.5t-19.5 40.5z" />
<glyph unicode="&#xea;" horiz-adv-x="1099" d="M92 506q-1 31 0 57q0 17 4 46.5t16 80.5t42.5 107.5t74.5 101.5q123 123 328 123q203 0 315 -127v2q99 -111 99 -297q0 -21 -2 -44t-2 -24q-12 -53 -62 -53h-661q7 -75 37.5 -150.5t89.5 -125.5q78 -56 192 -56q125 0 293 62l-4 -2q23 11 50 -2.5t34 -32.5l6 -25 q20 -49 -41 -79q-189 -68 -338 -68q-164 0 -280 84q-55 41 -94.5 101t-58 114t-28 115t-10.5 92zM248 627h573q0 99 -63 172q-59 73 -201 73q-78 0 -137 -23.5t-93 -63t-52 -78t-27 -80.5zM281.5 1088q-2.5 25 9.5 45v-3l151 242q21 21 45 21h105q32 0 53 -33v2l131 -225 q12 -35 10.5 -51t-18.5 -33l-37 -21q-23 -13 -45.5 -6.5t-34.5 31.5v-2l-110 188h-4l-121 -192q-13 -22 -40.5 -27.5t-51.5 14.5l14 -6l-37 21q-17 10 -19.5 35z" />
<glyph unicode="&#xeb;" horiz-adv-x="1099" d="M117 507.5q-1 30.5 0 57.5q0 17 4 46.5t16 80.5t42.5 107.5t74.5 101.5q123 123 328 123q203 0 315 -127v2q98 -110 98 -297q0 -21 -2 -43.5t-2 -23.5q-12 -54 -61 -54h-662q7 -75 37.5 -150.5t89.5 -125.5q77 -55 193 -55q128 0 293 61l-4 -2q23 11 50 -2.5t34 -32.5 l6 -24q20 -50 -41 -80q-189 -68 -338 -68q-165 0 -281 84q-55 41 -94.5 101.5t-57.5 114t-27.5 114.5t-10.5 91.5zM158 1174v24q0 27 14 55l12 25l9 8l10 12q28 21 47 31h4l20 10q3 0 7 2q5 0 18.5 1t26.5 1q2 0 6.5 -1t7.5 -1l31 -2l37 -22l10 -8l-12 6l22 -17l6 -6l25 -28 q0 -5 2 -7l2 -28l4 -10q0 -1 1 -4t1 -7l1 -3q1 -3 1 -7v-10l-1 -3q-1 -3 -1 -7q0 -2 -1 -6t-1 -5v-8l-4 -12q0 -1 -1 -13.5t-1 -13.5q-6 -6 -6 -4l-2 -14l-19 -23l-12 -14q-38 -38 -86 -41h-21q-10 0 -18 2q-4 0 -10 2q-7 0 -25 6l6 -2q-6 0 -22 8h-10l-27 25l-16 22 q-13 17 -27 50zM272 629h574q0 98 -64 172q-59 73 -200 73q-63 0 -114.5 -16.5t-84 -41.5t-56.5 -59t-36 -64.5t-19 -63.5zM567 1178v26q0 14 11 47l-3 -10l19 37l12 14l6 6q28 21 47 31h5l20 10q4 0 8 2h13h20q1 0 4.5 1t5.5 1h29q0 -2 -4 -2q13 0 33 -12q8 -2 14 -2 l20 -18l-12 6l23 -17l10 -10q15 -17 24 -49l5 -20q0 -1 1 -4t1 -7l1 -3q1 -3 1 -7v-10l-1 -3q-1 -3 -1 -7q0 -2 -1 -6t-1 -5v-8l-5 -12q0 -1 -1 -13.5t-1 -13.5q-7 -7 -10 -18l-10 -10q-3 -13 -12 -19l-7 -8l-6 -8q-39 -33 -90 -33q-21 0 -28 2q-5 0 -11 2q-6 0 -24 6h2 l-12 4l2 -2l-13 4q-24 18 -41 35l2 -2l-12 17l-16 26l-13 35z" />
<glyph unicode="&#xec;" horiz-adv-x="356" d="M39 1595q4 27 24 43l17 17q21 14 48.5 7.5t41.5 -24.5l-2 7q92 -118 125 -240q20 -82 20 -236v-36q0 -22 -21.5 -42t-39.5 -20h-29q-24 0 -41.5 19t-17.5 43v36q0 138 -14 199q-24 92 -101 184l4 -4q-18 20 -14 47zM90 68q16 193 16 409q0 160 -12 412q-4 62 -4 67 q0 54 49 62q3 0 17 1t18 1h4q23 0 41 -12.5t19 -36.5q18 -279 18 -469q0 -215 -18 -449q-1 -26 -19.5 -39.5t-42.5 -13.5l-26 2q-26 0 -43 18t-17 48z" />
<glyph unicode="&#xed;" horiz-adv-x="356" d="M35 1214v37q0 154 20 236q30 106 125 237q18 22 46 24.5t42 -11.5l19 -19l-2 2q21 -14 23.5 -42.5t-15.5 -47.5l4 4q-78 -97 -98 -184q-15 -65 -15 -199v-37q0 -24 -17.5 -42.5t-41.5 -18.5h-29q-22 0 -41.5 21t-19.5 40zM90 68q16 193 16 409q0 160 -12 412q-4 62 -4 67 q0 54 49 62q3 0 17 1t18 1h4q23 0 41 -12.5t19 -36.5q18 -279 18 -469q0 -215 -18 -449q-1 -26 -19.5 -39.5t-42.5 -13.5l-26 2q-27 0 -43.5 18t-16.5 48z" />
<glyph unicode="&#xee;" horiz-adv-x="356" d="M-68.5 1135q-2.5 25 9.5 45v-2l151 241q21 21 45 21h105q32 0 53 -33v2l131 -225q12 -35 10.5 -51t-18.5 -33l-37 -21q-23 -13 -45.5 -6.5t-34.5 31.5v-2l-111 188h-4l-120 -192q-13 -22 -41 -27.5t-52 14.5l15 -6l-37 21q-17 10 -19.5 35zM90 68q16 193 16 409t-14 412 q0 18 -1 41.5t-1 25.5q0 54 49 62q3 0 17 1t18 1h4q23 0 40.5 -12.5t17.5 -36.5q20 -155 20 -469q0 -226 -20 -449q0 -26 -18 -39.5t-44 -13.5l-24 2q-27 0 -43.5 18t-16.5 48z" />
<glyph unicode="&#xef;" horiz-adv-x="573" d="M-98 1219v10v10v12v21q3 21 20 49q29 38 53 51q20 13 70 23q10 2 12 2h27q7 -1 22 -7t21 -8t12 -2l21 -18l-13 4l23 -16l8 -9l15 -22l-3 4q8 -9 17 -33l2 -20l1 -3q1 -3 1 -7q2 -3 2 -9q0 -23 -4 -51l-6 -22l-13 -23l-2 -10l-18 -21l-4 -8q-27 -23 -55 -33q-20 -8 -35 -8 h-8q-15 0 -27 2q-6 0 -12 2q-9 0 -25 8l6 -4q-10 2 -24 11h-4l-29 22l-8 8l-13 17q-20 26 -28 67q0 1 -1 5.5t-1 5.5zM188 68q17 205 17 409q0 202 -15 412q-2 31 -2 67q0 53 50 62q3 0 16 1t16 1h6q23 0 40 -12.5t18 -36.5q18 -140 18 -469q0 -248 -18 -449 q-1 -26 -19 -39.5t-43 -13.5l-24 2q-27 0 -43.5 18t-16.5 48zM311 1239v25l2 34l4 -2l19 33l8 10l8 9l19 14l26 16l35 13l2 2q9 0 19 2q1 0 7 1t7 1h10q21 0 47 -11l19 -8l20 -14q6 -4 29 -27l18 -20q0 -4 4 -8l2 -29l2 -4l5 -25q0 -21 -2 -28q0 -19 -9 -37l2 2l-8 -23 l-6 -8l-2 -12l-18 -21l-5 -8l-6 -4l-20 -18l-12 -2l-9 -5q-21 -12 -43 -12h-18q-19 0 -31 4q-6 0 -22 8l6 -4q-9 2 -27 13h2q-11 5 -37 22q-33 33 -45 82q-2 10 -2 39z" />
<glyph unicode="&#xf0;" horiz-adv-x="1101" d="M49 489q0 137 72 240v2q57 77 154 124.5t217 47.5q182 0 317 -149q-30 117 -100.5 214.5t-169.5 164.5l-158 -154q-17 -22 -43.5 -24t-46.5 18l-19 18q-14 18 -16.5 36.5t3 30t13.5 19.5l127 125q-106 39 -217 39q-23 0 -42 19.5t-19 42.5v30q0 24 18.5 42t42.5 18 q171 0 332 -74l137 137q20 12 42 13.5t42 -13.5l23 -22q31 -51 -4 -86l-109 -109q159 -114 249.5 -288t90.5 -373q0 -100 -24 -191q-30 -177 -157 -282t-302 -105q-102 0 -184.5 38.5t-131 94.5t-81 126t-44.5 127t-12 103zM199 487q0 -82 26.5 -146t63 -98t82 -56t77 -28.5 t54.5 -6.5q56 0 92.5 7.5t81.5 30.5q91 49 135 213q-8 38 -22 78.5t-41.5 90t-61 88t-85 64.5t-109.5 26q-77 0 -136.5 -24.5t-92 -65t-48.5 -84.5t-16 -89z" />
<glyph unicode="&#xf1;" horiz-adv-x="1050" d="M127 367q0 193 6 630q2 22 20.5 42t41.5 20l26 -2q26 0 43 -17t17 -43q0 -12 -1 -33.5t-1 -31.5q100 86 253 86q173 0 267 -107h-2q31 -34 53.5 -76.5t31.5 -80t15 -74.5t4.5 -60t-0.5 -36q-6 -197 -6 -375q0 -107 4 -123l-2 2q11 -44 -31 -74q-39 -12 -53 -12 q-19 0 -35 11.5t-22 29.5l4 -6q-10 23 -10 151v230q2 63 2 166q0 154 -64 227q-53 59 -156 59q-51 0 -92 -15.5t-66.5 -39t-44.5 -55.5t-27.5 -59t-14 -57t-6 -42t-0.5 -20v-15q0 -20 -1 -185t-1 -235q0 -63 -3 -57q6 -27 -5.5 -48.5t-34.5 -29.5h2l-21 -8q-20 -8 -44 1.5 t-38 37.5v3q-8 52 -8 321zM215 1225q0 13 5.5 37t29 62t61.5 56q39 17 72 17q80 0 174 -64q73 -49 90 -39q4 2 4 27q0 23 19.5 42t42.5 19h28q25 0 42.5 -16.5t17.5 -42.5v-14.5t-4 -29.5t-11.5 -42t-25 -39.5t-41.5 -34.5l2 2q-36 -20 -74 -20q-80 0 -172 63q-76 48 -98 37 q-6 -3 -10 -10t-5 -13v-5q0 -27 -20 -45t-45 -15q-4 0 -12.5 1t-12.5 1q-26 0 -43.5 20t-13.5 46z" />
<glyph unicode="&#xf2;" horiz-adv-x="1140" d="M86 485q0 137 39 228v-2q19 55 53 108q56 75 146 133q116 72 251 66q88 -3 167.5 -41.5t138.5 -106.5q120 -144 120 -374q0 -141 -48.5 -250t-137.5 -174q-61 -41 -127 -56.5t-106 -15.5q-246 0 -371 131.5t-125 353.5zM233 485q0 -335 349 -335q82 0 151 45 q119 82 119 301q0 183 -84 276q-74 92 -203 98q-87 0 -164 -43h2q-77 -54 -100 -90q-32 -55 -43 -82v2q-27 -71 -27 -172zM430.5 1651q4.5 27 24.5 43l16 16q21 14 48.5 8t41.5 -24l-2 6q92 -118 125 -240q21 -86 21 -235v-37q0 -22 -21.5 -42t-40.5 -20h-29q-24 0 -41.5 19 t-17.5 43v37q0 137 -14 198q-25 94 -101 185l4 -4q-18 20 -13.5 47z" />
<glyph unicode="&#xf3;" horiz-adv-x="1140" d="M86 485q0 137 39 228v-2q19 55 53 108q56 75 146 133q116 72 251 66q88 -3 167.5 -41.5t138.5 -106.5q120 -144 120 -374q0 -141 -48.5 -250t-137.5 -174q-61 -41 -127 -56.5t-106 -15.5q-246 0 -371 131.5t-125 353.5zM233 485q0 -335 349 -335q82 0 151 45 q119 82 119 301q0 183 -84 276q-74 92 -203 98q-87 0 -164 -43h2q-77 -54 -100 -90q-32 -55 -43 -82v2q-27 -71 -27 -172zM426 1188v37q0 153 20 235q30 107 125 238q17 22 45.5 24t42.5 -12l19 -18l-2 2q21 -14 23.5 -42.5t-15.5 -47.5l4 4q-78 -97 -98 -185 q-15 -65 -15 -198v-37q0 -24 -17.5 -43t-41.5 -19h-29q-22 0 -41.5 21.5t-19.5 40.5z" />
<glyph unicode="&#xf4;" horiz-adv-x="1140" d="M86 485q0 137 39 228v-2q19 55 53 108q56 75 146 133q116 72 251 66q88 -3 167.5 -41.5t138.5 -106.5q120 -144 120 -374q0 -141 -48.5 -250t-137.5 -174q-61 -41 -127 -56.5t-106 -15.5q-246 0 -371 131.5t-125 353.5zM233 485q0 -335 349 -335q82 0 151 45 q119 82 119 301q0 183 -84 276q-74 92 -203 98q-87 0 -164 -43h2q-77 -54 -100 -90q-32 -55 -43 -82v2q-27 -71 -27 -172zM302 1088q-3 25 9 45v-3l152 242q21 21 45 21h104q33 0 54 -33v2l131 -225q12 -35 10 -51t-19 -33l-36 -21q-23 -13 -45.5 -6.5t-34.5 31.5v-2 l-111 188h-4l-121 -192q-13 -22 -40.5 -27.5t-51.5 14.5l14 -6l-36 21q-17 10 -20 35z" />
<glyph unicode="&#xf5;" horiz-adv-x="1140" d="M86 485q0 137 39 228v-2q19 55 53 108q56 75 146 133q116 72 251 66q88 -3 167.5 -41.5t138.5 -106.5q120 -144 120 -374q0 -141 -48.5 -250t-137.5 -174q-61 -41 -127 -56.5t-106 -15.5q-246 0 -371 131.5t-125 353.5zM233 485q0 -335 349 -335q82 0 151 45 q119 82 119 301q0 183 -84 276q-74 92 -203 98q-87 0 -164 -43h2q-77 -54 -100 -90q-32 -55 -43 -82v2q-27 -71 -27 -172zM260 1225q0 13 5.5 37t29 62t61.5 56q39 17 72 17q80 0 174 -64q73 -49 90 -39q4 2 4 27q0 23 19.5 42t42.5 19h28q25 0 42.5 -16.5t17.5 -42.5v-14.5 t-4 -29.5t-11.5 -42t-25 -39.5t-41.5 -34.5l2 2q-36 -20 -74 -20q-80 0 -172 63q-76 48 -98 37q-6 -3 -9.5 -10t-4.5 -13v-5q0 -27 -20.5 -45t-45.5 -15q-4 0 -12.5 1t-12.5 1q-26 0 -43.5 20t-13.5 46z" />
<glyph unicode="&#xf6;" horiz-adv-x="1140" d="M63 487q0 137 39 228v-2q18 52 54 108q57 76 145 133q116 72 252 66q87 -3 166.5 -41.5t138.5 -106.5q121 -145 121 -374q0 -141 -48.5 -250t-137.5 -174q-43 -29 -96.5 -46.5t-84.5 -21.5t-53 -4q-246 0 -371 131.5t-125 353.5zM158 1174v24q0 27 14 55l12 25l9 8l10 12 q28 21 47 31h6l18 10q5 0 7 2q5 0 18.5 1t26.5 1q2 0 7 -1t9 -1l29 -2l37 -22l10 -8l-12 6l22 -17l6 -6l25 -28q0 -3 4 -7l2 -28l2 -10q0 -1 1 -4t1 -7l1 -3q1 -3 1 -7v-10l-1 -3q-1 -3 -1 -7q0 -2 -1 -6t-1 -5v-8l-2 -12q0 -1 -1 -13.5t-1 -13.5q-8 -5 -8 -4l-2 -14 l-19 -23l-10 -14q-38 -38 -86 -41h-23q-10 0 -16 2q-6 0 -12 2q-7 0 -25 6l6 -2q-6 0 -22 8h-8l-29 25l-16 22q-13 17 -27 50zM211 487q0 -335 348 -335q83 0 152 45q118 81 118 301q0 183 -84 276q-74 92 -202 98q-87 0 -164 -43h2q-77 -54 -100 -90q-32 -55 -43 -82v2 q-27 -71 -27 -172zM567 1178v26q0 14 11 47l-3 -10l19 37l14 14l4 6q28 21 47 31h7l18 10q6 0 8 2h13h20q2 0 5 1t5 1h29q0 -2 -4 -2q13 0 33 -12q8 -2 14 -2l20 -18l-12 6l23 -17l10 -10q12 -15 26 -49l3 -20q0 -1 1 -4t1 -7l1 -3q1 -3 1 -7v-10l-1 -3q-1 -3 -1 -7 q0 -2 -1 -6t-1 -5v-8l-3 -12q0 -1 -1 -13.5t-1 -13.5q-9 -6 -12 -18l-8 -10q-7 -14 -14 -19l-4 -8l-9 -8q-39 -33 -90 -33q-20 0 -26 2q-7 0 -13 2q-6 0 -24 6h2l-12 4l4 -2l-15 4q-24 18 -41 35l2 -2l-12 17l-14 26l-15 35z" />
<glyph unicode="&#xf7;" horiz-adv-x="911" d="M49 502v28q0 29 17 41q11 19 45 19l663 -2q23 0 42.5 -17.5t19.5 -42.5v-26q0 -27 -21 -45q-14 -17 -41 -17l-663 2q-25 0 -43.5 17.5t-18.5 42.5zM301 162v26l2 11q0 25 16 41l7 14l8 8l16 17l17 14q36 21 77 24q1 0 6.5 1t6.5 1h39q0 -2 -4 -2q10 0 34 -12q6 -2 13 -2 l20 -18l-10 6l20 -17l9 -8l14 -24l-6 14l18 -23v-14q6 -8 6 -35l1 -3q1 -3 1 -7v-10l-1 -3q-1 -3 -1 -7q0 -23 -4 -39q0 -3 -1 -11l-1 -8q-9 -6 -12 -18l-8 -10q-7 -14 -15 -19l-10 -14l-10 -6q-24 -19 -60 -27q-6 -2 -22 -2q-21 0 -41 4q-5 0 -20 6l-7 2q-95 48 -98 150z M301 860v23q0 38 25 78l8 10l10 10q11 11 47 33h6l19 8l30 6h50l-10 -2h-3l25 -4l24 -12l15 -11q20 -14 22 -18l21 -18v-7l14 -16v-12q6 -10 6 -37q2 -2 2 -8q0 -52 -16 -88l-2 -9l-19 -22l-6 -8l-12 -15q-40 -34 -90 -34h-10q-11 0 -17 2q-14 0 -28 6q-46 14 -66 39 q-12 16 -16 20l-4 6q-21 44 -23 56z" />
<glyph unicode="&#xf8;" horiz-adv-x="1050" d="M86 485q0 137 39 228v-2q19 55 53 108q56 75 146 133q116 72 251 66q88 -3 167.5 -41.5t138.5 -106.5q120 -144 120 -374q0 -141 -48.5 -250t-137.5 -174q-61 -41 -127 -56.5t-106 -15.5q-246 0 -371 131.5t-125 353.5zM233 485q0 -335 349 -335q82 0 151 45 q119 82 119 301q0 183 -84 276q-74 92 -203 98q-87 0 -164 -43h2q-77 -54 -100 -90q-32 -55 -43 -82v2q-27 -71 -27 -172zM235.5 -156.5q-6.5 24.5 4.5 47.5q88 231 257 666.5t234 605.5l12 15q44 18 66 2l20 -6q20 -7 27 -33.5t-4 -48.5q-86 -224 -253 -653.5t-239 -616.5 l-22 -25h-33l-43 15q-20 7 -26.5 31.5z" />
<glyph unicode="&#xf9;" horiz-adv-x="1085" d="M117 563v248v78v76q1 23 19.5 39t41.5 16l33 -2q55 -14 55 -64q-2 -23 -2 -65q0 -48 2 -68v-254q2 -53 2 -186q0 -30 -0.5 -57.5t7.5 -55.5t24 -47h-2q25 -35 100 -53q43 -14 113 -14q98 0 154 59v-2q72 76 79 233l2 27q6 307 23 494q2 25 20.5 42t45.5 13q4 0 15.5 -1 t16.5 -1q49 -8 49 -62v-4q-22 -327 -22 -594q0 -231 18 -268q6 -26 -5.5 -47.5t-35.5 -30.5l-28 -12q-27 -4 -45 7t-25 28q-7 19 -14 59q-102 -88 -248 -88q-90 0 -154 19h2q-110 25 -178 104q-29 39 -44 88.5t-16.5 83.5t-0.5 86q0 115 -2 176zM402 1651q4 27 24 43l16 16 q21 14 48.5 8t41.5 -24l-2 6q92 -118 125 -240q21 -86 21 -235v-37q0 -22 -21.5 -42t-40.5 -20h-28q-24 0 -42 19t-18 43v37q0 137 -14 198q-25 95 -100 185l4 -4q-18 20 -14 47z" />
<glyph unicode="&#xfa;" horiz-adv-x="1085" d="M117 563v248v78v76q1 23 19.5 39t41.5 16l33 -2q55 -14 55 -64q-2 -23 -2 -65q0 -48 2 -68v-254q2 -53 2 -186q0 -30 -0.5 -57.5t7.5 -55.5t24 -47h-2q25 -35 100 -53q43 -14 113 -14q98 0 154 59v-2q72 76 79 233l2 27q6 307 23 494q2 25 20.5 42t45.5 13q4 0 15.5 -1 t16.5 -1q49 -8 49 -62v-4q-22 -327 -22 -594q0 -231 18 -268q6 -26 -5.5 -47.5t-35.5 -30.5l-28 -12q-27 -4 -45 7t-25 28q-7 19 -14 59q-102 -88 -248 -88q-90 0 -154 19h2q-110 25 -178 104q-29 39 -44 88.5t-16.5 83.5t-0.5 86q0 115 -2 176zM397 1188v37q0 149 21 235 q30 107 125 238q17 22 45.5 24t42.5 -12l18 -18l-2 2q21 -14 23.5 -42.5t-15.5 -47.5l4 4q-78 -97 -98 -185q-14 -61 -14 -198v-37q0 -24 -18 -43t-42 -19h-28q-22 0 -42 21.5t-20 40.5z" />
<glyph unicode="&#xfb;" horiz-adv-x="1085" d="M117 563v248v78v76q1 23 19.5 39t41.5 16l33 -2q55 -14 55 -64q-2 -23 -2 -65q0 -48 2 -68v-254q2 -53 2 -186q0 -30 -0.5 -57.5t7.5 -55.5t24 -47h-2q25 -35 100 -53q43 -14 113 -14q98 0 154 59v-2q72 76 79 233l2 27q6 307 23 494q2 25 20.5 42t45.5 13q4 0 15.5 -1 t16.5 -1q49 -8 49 -62v-4q-22 -327 -22 -594q0 -231 18 -268q6 -26 -5.5 -47.5t-35.5 -30.5l-28 -12q-27 -4 -45 7t-25 28q-7 19 -14 59q-102 -88 -248 -88q-90 0 -154 19h2q-110 25 -178 104q-29 39 -44 88.5t-16.5 83.5t-0.5 86q0 115 -2 176zM275.5 1088q-2.5 25 9.5 45 v-3l151 242q21 21 45 21h105q32 0 53 -33v2l131 -225q12 -35 10.5 -51t-18.5 -33l-37 -21q-23 -13 -45.5 -6.5t-34.5 31.5v-2l-110 188h-5l-120 -192q-13 -22 -41 -27.5t-52 14.5l15 -6l-37 21q-17 10 -19.5 35z" />
<glyph unicode="&#xfc;" horiz-adv-x="1085" d="M135 567v248v78v76q1 23 19.5 39t42.5 16l32 -2q56 -14 56 -64q-2 -23 -2 -65q0 -48 2 -68v-254q2 -53 2 -186q0 -30 -0.5 -57.5t7 -55.5t23.5 -47h-2q24 -35 101 -53q43 -14 112 -14q98 0 154 59v-2q73 77 80 234l2 26q6 320 22 494q2 25 20.5 42t45.5 13q4 0 16 -1 t17 -1q49 -8 49 -61v-5q-23 -342 -23 -594q0 -229 19 -268q6 -26 -5.5 -47.5t-35.5 -30.5l-29 -12q-52 -8 -69 35q-9 24 -15 59q-102 -88 -248 -88q-89 0 -153 19h2q-110 25 -178 104q-29 39 -44 88.5t-17 84t-1 85.5q0 115 -2 176zM158 1174v24q0 27 14 55l12 25l9 8l10 12 q28 21 47 31h4l20 10q3 0 7 2q5 0 18.5 1t26.5 1q2 0 6.5 -1t7.5 -1l31 -2l37 -22l10 -8l-12 6l22 -17l6 -6l25 -28q0 -5 2 -7l2 -28l4 -10q0 -1 1 -4t1 -7l1 -3q1 -3 1 -7v-10l-1 -3q-1 -3 -1 -7q0 -2 -1 -6t-1 -5v-8l-4 -12q0 -1 -1 -13.5t-1 -13.5q-6 -6 -6 -4l-2 -14 l-19 -23l-12 -14q-38 -38 -86 -41h-21q-10 0 -18 2q-4 0 -10 2q-7 0 -25 6l6 -2q-6 0 -22 8h-10l-27 25l-16 22q-13 17 -27 50zM567 1178v26q0 14 11 47l-3 -10l19 37l12 14l6 6q28 21 47 31h5l20 10q4 0 8 2h13h20q1 0 4.5 1t5.5 1h29q0 -2 -4 -2q13 0 33 -12q8 -2 14 -2 l20 -18l-12 6l23 -17l10 -10q15 -17 24 -49l5 -20q0 -1 1 -4t1 -7l1 -3q1 -3 1 -7v-10l-1 -3q-1 -3 -1 -7q0 -2 -1 -6t-1 -5v-8l-5 -12q0 -1 -1 -13.5t-1 -13.5q-7 -7 -10 -18l-10 -10q-3 -13 -12 -19l-7 -8l-6 -8q-39 -33 -90 -33q-21 0 -28 2q-5 0 -11 2q-6 0 -24 6h2 l-12 4l2 -2l-13 4q-24 18 -41 35l2 -2l-12 17l-16 26l-13 35z" />
<glyph unicode="&#xfd;" horiz-adv-x="942" d="M88 918q-12 20 0 49.5t37 36.5l29 14q16 7 40 -6.5t31 -38.5l287 -676l246 678v-2q12 43 71 43l39 -12q16 -11 25.5 -32t5.5 -42l-313 -858q-5 -22 -15.5 -51.5t-42.5 -88t-75 -110t-119 -108.5t-168 -93q-53 0 -64 41l-4 14q-11 23 -0.5 51.5t31.5 36.5l-2 -2 q75 29 134.5 75t94.5 97t52.5 85t29.5 69q-58 140 -175 415t-175 415zM367 1085v37q0 154 20 236q30 106 125 237q18 22 46 24.5t42 -11.5l18 -19l-2 2q21 -14 24 -42.5t-15 -47.5l4 4q-79 -99 -99 -184q-14 -61 -14 -199v-37q0 -24 -17.5 -42.5t-41.5 -18.5h-29 q-22 0 -41.5 21t-19.5 40z" />
<glyph unicode="&#xfe;" horiz-adv-x="978" d="M129 -238v1573q0 25 16.5 42.5t42.5 17.5h25q26 0 43.5 -17.5t17.5 -42.5v-506q66 69 153 108.5t175 39.5q158 0 256 -125q100 -130 100 -360v-7q0 -227 -100 -360q-98 -125 -256 -125q-192 0 -328 145v-383q0 -26 -17.5 -42.5t-43.5 -16.5h-25q-26 0 -42.5 16.5 t-16.5 42.5zM274 487q0 -93 50.5 -173.5t126 -125.5t151.5 -45q86 0 141 70q69 87 72 274q-3 189 -72 275q-54 69 -141 69q-120 0 -224 -102t-104 -242z" />
<glyph unicode="&#xff;" horiz-adv-x="942" d="M111 924q-12 20 0 49.5t36 36.5l29 14q16 7 40.5 -6.5t31.5 -38.5l287 -676l245 678v-2q12 43 72 43l39 -12q16 -11 25.5 -32t5.5 -42l-314 -858q-5 -22 -15.5 -51.5t-42.5 -88t-75 -110t-119 -108.5t-168 -93q-52 0 -63 41l-4 15q-11 23 -0.5 51.5t31.5 36.5l-2 -2 q61 24 112.5 60.5t83 71t57.5 75.5t37.5 66.5t20.5 51.5q-59 140 -175 415t-175 415zM158 1174v24q0 25 12 55l14 25l6 8l13 12q16 16 45 31h6l18 10q5 0 9 2q3 0 17.5 1t27.5 1l4 -1q5 -1 10 -1l29 -2l39 -22l8 -8l-10 6l22 -17l4 -6l25 -28q0 -3 4 -7l2 -28l4 -10 q0 -1 1 -4t1 -7l1 -3q1 -3 1 -7v-10l-1 -3q-1 -3 -1 -7q0 -2 -1 -6t-1 -5v-8l-4 -12q0 -1 -1 -13.5t-1 -13.5q-8 -5 -8 -4l-2 -14l-19 -23l-10 -14q-38 -38 -86 -41h-23q-8 0 -16 2q-6 0 -10 2q-10 0 -25 6l4 -2q-12 0 -20 8h-10l-29 25l-17 22q-15 23 -26 50zM567 1178v26 q0 11 8 47l-2 -10l21 37l12 14l6 6q16 16 45 31h7l18 10q6 0 10 2h10h21q2 0 6 1t6 1h27q0 -2 -4 -2q11 0 35 -12q6 -2 12 -2l20 -18l-10 6l23 -17l8 -10q11 -11 26 -49l5 -20q0 -1 1 -4t1 -7l1 -3q1 -3 1 -7v-10l-1 -3q-1 -3 -1 -7q0 -2 -1 -6t-1 -5v-8l-5 -12 q0 -1 -1 -13.5t-1 -13.5q-10 -7 -10 -18l-10 -10q-7 -14 -12 -19l-7 -8l-8 -8q-36 -33 -88 -33q-22 0 -28 2q-7 0 -11 2q-9 0 -24 6h2l-15 4l5 -2l-13 4q-33 24 -41 35l2 -2l-14 17l-14 26l-13 35z" />
<glyph unicode="&#x152;" horiz-adv-x="1947" d="M106 729q0 178 64.5 325.5t175.5 241.5q180 136 465 136q129 0 293 -35l-8 2h667q25 0 43.5 -20t18.5 -44v-28q0 -25 -18 -42.5t-44 -17.5h-579v-426h540q24 0 43 -17.5t19 -43.5v-29q0 -24 -19 -41.5t-43 -17.5h-540v-492h610q23 0 43.5 -20t20.5 -43v-29q0 -25 -20 -43 t-44 -18h-672q-118 -27 -268 -27q-316 0 -508 152q-240 184 -240 577zM260 729q0 -317 178 -457q151 -118 416 -118q112 0 180 12v1091q-107 21 -223 21q-248 0 -375 -104q-176 -135 -176 -445z" />
<glyph unicode="&#x153;" horiz-adv-x="1986" d="M123 489q0 135 39 226v-2q13 40 55 108q51 73 143 131q118 74 250 68q183 -6 308 -150q35 -41 49 -67q25 45 65 88q123 123 326 123t313 -125q36 -44 59 -100.5t28.5 -102t8 -87.5t-1.5 -56q0 -2 -1 -8t-1 -7q-8 -24 -23.5 -39.5t-35.5 -15.5h-660q19 -188 130 -270 q71 -56 190 -56q124 0 289 62l-15 -10q2 0 13 4t22.5 7t18.5 3q2 -1 8 -6t8 -6.5t7.5 -6t7.5 -7.5t5 -7t4 -8t1 -8l6 -14q11 -28 -2 -50q-9 -19 -31 -28q-201 -72 -342 -72q-156 0 -281 84q-72 54 -110 125q-44 -78 -121 -133q-105 -72 -236 -72h-43q-155 0 -268 76 q-182 130 -182 409zM272 489q0 -87 23.5 -152t56 -99t77.5 -54.5t77.5 -26t66.5 -5.5q6 0 17 1t16 1h10q88 0 154 45v-2q119 85 119 303q0 173 -84 274q-80 93 -209 96l-6 2q-78 0 -150 -43h2q-75 -50 -102 -90q-30 -51 -41 -82v2q-27 -61 -27 -170zM1053 623h565 q0 99 -62 170v-2q-66 75 -198 75q-77 0 -135.5 -23.5t-92 -63t-51 -77t-26.5 -79.5z" />
<glyph unicode="&#x178;" horiz-adv-x="1062" d="M39 1329q-16 58 14 78l35 18l-6 -2q19 14 46.5 8t39.5 -26l360 -610l367 610q12 20 39 25.5t47 -7.5l-6 2l35 -18q14 -10 17 -24t3 -44l-428 -710q0 -94 2 -283t2 -283q0 -26 -17.5 -43.5t-43.5 -17.5h-27q-61 0 -61 61l-4 562zM86 1587v27q0 25 12 55l15 25l8 10l10 10 q18 18 49 33h4l21 10q4 0 8 2q20 4 45 4q2 0 6.5 -1t7.5 -1l31 -4l39 -22l10 -9l-12 7l22 -19l7 -6l24 -29q0 -2 4 -6l2 -28l4 -13l1 -3q2 -3 2 -7l1 -2q1 -2 1 -6v-12l-1 -4q-1 -4 -1 -7q0 -2 -1.5 -5.5t-1.5 -4.5v-8l-4 -12l-2 -27q-8 -8 -8 -6l-2 -15l-18 -22l-13 -14 q-37 -40 -86 -43h-24q-9 0 -17 2q-6 0 -12 2q-8 0 -24 8l6 -4q-7 0 -23 8h-10l-29 27l-16 22q-21 29 -27 51zM621 1591v29q0 17 10 47l-2 -10l18 37l15 14l6 6q10 14 47 33h6l18 10q7 0 11 2q8 0 10 2h22q2 0 5.5 1t5.5 1h28q0 -2 -4 -2q16 -3 35 -14q8 -2 14 -2l21 -19 l-13 7l25 -19l8 -8q20 -23 27 -53l4 -21q0 -1 1 -4t1 -6l1 -2q1 -2 1 -6v-12l-1 -4q-1 -4 -1 -7q0 -2 -1 -5.5t-1 -4.5v-8l-4 -12l-2 -27q-8 -11 -10 -21l-11 -10q-4 -8 -12 -20l-6 -6l-8 -9q-40 -34 -92 -34q-22 0 -29 2q-6 0 -10 2q-12 0 -25 8v-2l-12 4h4l-14 2 q-24 18 -41 35l2 -2l-15 18l-14 27l-14 35z" />
<glyph unicode="&#x2c6;" horiz-adv-x="624" d="M43.5 1088q-2.5 25 9.5 45v-3l152 242q21 21 45 21h104q33 0 54 -33v2l131 -225q12 -35 10 -51t-19 -33l-36 -21q-23 -13 -45.5 -6.5t-34.5 31.5v-2l-111 188h-4l-121 -192q-13 -22 -40.5 -27.5t-51.5 14.5l14 -6l-37 21q-17 10 -19.5 35z" />
<glyph unicode="&#x2dc;" horiz-adv-x="759" d="M76 1102q0 13 5.5 37t29 62t61.5 56q39 17 72 17q80 0 174 -64q73 -49 90 -39q4 2 4 27q0 23 19 42.5t42 19.5h29q25 0 42.5 -17t17.5 -43v-14.5t-4 -29.5t-11.5 -42t-25 -39.5t-41.5 -34.5l2 2q-36 -20 -74 -20q-80 0 -172 63q-76 48 -98 37q-6 -3 -10 -10t-4 -12l-1 -6 q0 -27 -20 -45t-45 -15q-4 0 -12.5 1t-12.5 1q-26 0 -43.5 20t-13.5 46z" />
<glyph unicode="&#x2000;" horiz-adv-x="1085" />
<glyph unicode="&#x2001;" horiz-adv-x="2170" />
<glyph unicode="&#x2002;" horiz-adv-x="1085" />
<glyph unicode="&#x2003;" horiz-adv-x="2170" />
<glyph unicode="&#x2004;" horiz-adv-x="723" />
<glyph unicode="&#x2005;" horiz-adv-x="542" />
<glyph unicode="&#x2006;" horiz-adv-x="361" />
<glyph unicode="&#x2007;" horiz-adv-x="361" />
<glyph unicode="&#x2008;" horiz-adv-x="271" />
<glyph unicode="&#x2009;" horiz-adv-x="434" />
<glyph unicode="&#x200a;" horiz-adv-x="120" />
<glyph unicode="&#x2010;" horiz-adv-x="868" d="M111 623v26q0 30 16 41q13 19 45 19l477 -2q23 0 42.5 -17.5t19.5 -42.5v-26q0 -27 -19 -46q-16 -16 -43 -16l-477 4q-24 0 -42.5 17.5t-18.5 42.5z" />
<glyph unicode="&#x2011;" horiz-adv-x="868" d="M111 623v26q0 30 16 41q13 19 45 19l477 -2q23 0 42.5 -17.5t19.5 -42.5v-26q0 -27 -19 -46q-16 -16 -43 -16l-477 4q-24 0 -42.5 17.5t-18.5 42.5z" />
<glyph unicode="&#x2012;" horiz-adv-x="868" d="M111 623v26q0 30 16 41q13 19 45 19l477 -2q23 0 42.5 -17.5t19.5 -42.5v-26q0 -27 -19 -46q-16 -16 -43 -16l-477 4q-24 0 -42.5 17.5t-18.5 42.5z" />
<glyph unicode="&#x2013;" horiz-adv-x="929" d="M113 623v26q0 30 16 41q11 19 45 19l533 -2q23 0 42 -17.5t19 -42.5v-26q0 -28 -18 -46q-16 -16 -43 -16l-533 4q-25 0 -43 17t-18 43z" />
<glyph unicode="&#x2014;" horiz-adv-x="1384" d="M125 623v26q0 30 16 41q11 19 45 19l942 -2q23 0 42.5 -17.5t19.5 -42.5v-26q0 -27 -19 -46q-16 -16 -43 -16l-942 4q-25 0 -43 17t-18 43z" />
<glyph unicode="&#x2018;" horiz-adv-x="299" d="M35 954v39q0 152 20 234q35 126 125 239l-2 -2q12 17 41.5 20.5t46.5 -7.5q2 -2 10 -9t9 -8l-2 2q21 -14 24.5 -43.5t-14.5 -48.5l4 6q-77 -95 -98 -186q-17 -63 -17 -197v-39q0 -24 -17 -42.5t-42 -18.5h-27q-23 0 -42 21t-19 40z" />
<glyph unicode="&#x2019;" horiz-adv-x="296" d="M-21 964.5q-4 28.5 15 49.5l-4 -6q76 94 100 186q14 59 14 197v36q0 24 18 43t42 19h29q21 0 41 -22t20 -40v-36q0 -150 -21 -236q-36 -127 -124 -240v3q-13 -17 -43.5 -20t-45.5 9l-18 17l2 -2q-21 14 -25 42.5z" />
<glyph unicode="&#x201a;" horiz-adv-x="296" d="M-21 -153q-4 28 15 49l-4 -7q75 93 100 187q14 59 14 198v37q0 23 18 42.5t42 19.5h29q21 0 41 -22t20 -40v-37q0 -151 -21 -237q-36 -128 -124 -238v2q-13 -17 -44 -20t-45 8l-18 16h2q-21 14 -25 42z" />
<glyph unicode="&#x201c;" horiz-adv-x="770" d="M88 954v39q0 148 21 234q34 122 124 239l-2 -2q13 17 43.5 20.5t47.5 -7.5q16 -16 18 -17l-2 2q21 -14 24.5 -43.5t-14.5 -48.5l4 6q-76 -94 -100 -186q-14 -59 -14 -197v-39q0 -24 -18 -42.5t-42 -18.5h-28q-22 0 -42 21.5t-20 39.5zM406 954v39q0 152 20 234 q33 120 125 239l-2 -2q12 17 42.5 20.5t47.5 -7.5q1 -3 8 -9t10 -8l-2 2q21 -14 24 -43.5t-15 -48.5l4 6q-80 -103 -99 -186q-14 -59 -14 -197v-39q0 -24 -17.5 -42.5t-41.5 -18.5h-29q-22 0 -41.5 21t-19.5 40z" />
<glyph unicode="&#x201d;" horiz-adv-x="770" d="M57.5 964.5q-3.5 28.5 14.5 49.5l-2 -6q78 101 98 186q14 59 14 197v36q0 24 18 43t42 19h28q21 0 41.5 -22t20.5 -40v-36q0 -150 -21 -236q-35 -125 -125 -240v3q-12 -17 -42.5 -20t-45.5 9l-18 17l2 -2q-21 14 -24.5 42.5zM374 964.5q-4 28.5 15 49.5l-4 -6 q77 95 98 186q17 63 17 197v36q0 24 17 43t42 19h27q22 0 41.5 -21.5t19.5 -40.5v-36q0 -154 -20 -236q-35 -125 -125 -240v3q-12 -17 -41.5 -20t-44.5 9l-19 17l2 -2q-21 14 -25 42.5z" />
<glyph unicode="&#x201e;" horiz-adv-x="770" d="M57.5 -153q-3.5 28 14.5 49l-2 -7q78 100 98 187q14 59 14 198v37q0 23 18 42.5t42 19.5h28q21 0 41.5 -22t20.5 -40v-37q0 -151 -21 -237q-35 -126 -125 -238l4 8q-11 -19 -45 -24.5t-47 6.5l-18 16h2q-21 14 -24.5 42zM374 -153q-4 28 15 49l-4 -7q77 95 98 187 q17 63 17 198v37q0 23 17 42.5t42 19.5h27q22 0 41.5 -21.5t19.5 -40.5v-37q0 -155 -20 -237q-35 -126 -125 -238l4 8q-11 -19 -44 -24.5t-46 6.5l-19 16h2q-21 14 -25 42z" />
<glyph unicode="&#x2022;" horiz-adv-x="468" d="M66 592v22q0 28 12 52l12 24l12 15q5 6 24.5 19.5t27.5 20.5l12 3l16 6q4 0 6 2q24 4 45 4q26 0 50 -12l8 -3q8 -2 14 -2l21 -18l-13 4l23 -16l18 -19v-4l13 -10q0 -4 4 -8l2 -27l2 -12q0 -1 1 -3.5t1 -4.5q0 -1 1 -4t1 -7v-10l-1 -4q-1 -3 -1 -8l-2 -8v-19 q-5 -18 -13 -35q-2 -8 -2 -12l-18 -22l-10 -15l-6 -6l-21 -18l-10 -2q-25 -13 -39 -15h-23h-10h-16q-9 0 -19 4q-23 8 -28 11q-8 2 -15 2l-28 24l-4 4q-10 8 -17 21l-4 6q-20 42 -22 55z" />
<glyph unicode="&#x2026;" horiz-adv-x="1204" d="M90 154v43l6 18l15 29q22 31 71 61h6q31 14 70 14q2 0 11 -1t12 -1q26 -3 47 -18l-4 2l12 -8q20 -17 24 -19l19 -18v-6q21 -33 24 -72q0 -25 -4 -49v4q-2 -4 -2 -14l-18 -41v-8l-19 -21l-10 -14l-20 -19l-13 -2q-28 -14 -59 -14h-10q-17 0 -35 6l-11 2q-11 2 -18 6l-12 2 q-6 6 -17 15t-18 16q-4 4 -10 13l-6 8l-4 4q-21 45 -23 57zM424 139v25v10l4 19q0 1 1 7t1 7l27 51l12 18l27 25l26 4q-14 2 -14 4l2 -2q25 8 53 12q33 0 43 -2h10l25 -10l-6 4l22 -12l17 -12l-2 2q27 -24 45 -51q6 -6 10 -23q6 -12 6 -14l8 -29q2 -10 2 -31q0 -1 -0.5 -1.5 t-1 -2t-0.5 -4.5q-2 -2 -2 -10l-8 -19l-4 -12q-3 -18 -14 -29q8 4 8 -2q-17 -12 -27 -26q-6 0 -6.5 2t2.5 4l-28 -18q-15 -9 -39 -15q-11 0 -23 -4q-19 -2 -59 6h2l-11 2l-26 15l-25 12l-14 12q-12 8 -16 19l-19 39q-8 28 -8 38v-8zM762 152v2q-3 35 4 63l10 19q7 17 12 22 l-2 -2q12 16 25 25l6 6l23 18q4 0 -2 -6l28 10q25 8 64 8h12q16 -4 41 -18l-6 4q16 -5 35 -18l8 -9l18 -18l9 -10l20 -35q0 -2 2 -8l4 -6v-21v-2q5 -19 2 -39q-4 -31 -20 -55l2 8l-19 -33q-12 -16 -28 -28l-21 -13q-25 -13 -49 -16q-6 -2 -16 -2q-19 0 -29 2q-36 8 -64 25 h-4l-34 32l-5 17q-20 30 -20 45q-4 12 -4 18q0 1 -1 7t-1 8zM1057 90l2 6z" />
<glyph unicode="&#x202f;" horiz-adv-x="434" />
<glyph unicode="&#x2039;" horiz-adv-x="464" d="M-20 412q0 57 274 413q20 13 35 15q21 8 49 -15l-6 4l30 -22q38 -38 5 -80q-177 -229 -232 -317q60 -99 215 -306l-4 7q14 -16 14 -43q0 -33 -28 -50l-19 -14l6 4q-14 -16 -40 -16q-34 0 -50 24q-249 337 -249 396z" />
<glyph unicode="&#x203a;" horiz-adv-x="464" d="M80 727q-34 42 4 80l25 20q31 20 49 13q20 -3 32 -15q277 -357 277 -413q0 -55 -252 -396q-20 -24 -47 -24q-25 0 -41 14l-14 12q-27 20 -27 50q0 27 14 43l-4 -7q194 259 215 306q-60 93 -231 317z" />
<glyph unicode="&#x205f;" horiz-adv-x="542" />
<glyph unicode="&#x20ac;" horiz-adv-x="1196" d="M20 543v28q0 28 18 45t44 17h141q-2 29 -2 84v31h-139q-25 0 -43.5 18t-18.5 43v29q0 28 18 44.5t44 16.5h151q42 258 220 387h-2q146 107 362 107q41 0 86.5 -5t73.5 -11t60.5 -13t35.5 -8v2q33 -12 44.5 -37t-1.5 -49l6 10q-1 -4 -4 -11t-4 -11q-12 -30 -37 -43t-53 -5 q-2 2 -28 8t-77 12.5t-102 6.5q-169 0 -272 -76q-62 -43 -98.5 -105.5t-53.5 -158.5h584q25 0 43 -16.5t18 -44.5v-29q0 -24 -18.5 -42.5t-42.5 -18.5h-602v-31q0 -53 4 -84h598q25 0 43 -17t18 -45v-28q0 -25 -19 -43.5t-42 -18.5h-570q42 -154 144 -231q120 -96 325 -96 q90 0 160 14v-2q26 6 48 -6t28 -37l10 -31l-2 2q7 -26 -6 -47t-41 -27l2 3q-7 -2 -29.5 -7t-71.5 -10.5t-98 -5.5q-255 0 -419 129h2q-163 129 -211 352h-162q-25 0 -43.5 18.5t-18.5 43.5z" />
<glyph unicode="&#x2122;" horiz-adv-x="1439" d="M33 1210v13q0 19 19 37t34 18h459q20 0 37.5 -17.5t17.5 -37.5v-13q0 -14 -18 -33.5t-37 -19.5h-170v-549q0 -20 -13 -34.5t-38 -14.5h-15q-26 0 -39.5 14t-13.5 35v549h-170q-13 0 -33 20.5t-20 32.5zM573 621l39 608q3 49 56 49h63q15 0 25 -7t14 -12.5t14 -23.5 l144 -438q18 55 67.5 205t75.5 233q10 20 26 31.5t27 11.5h78q50 0 53 -53l27 -607q0 -16 -19 -35.5t-32 -19.5h-17q-15 0 -25.5 7t-15 14t-12.5 22l-20 447q-23 -70 -73 -222.5t-75 -230.5q-10 -23 -21 -33t-34 -10h-20q-33 0 -52 43l-145 436l-29 -424q0 -49 -51 -49h-23 q-18 8 -31.5 24t-13.5 34z" />
<glyph unicode="&#x25fc;" horiz-adv-x="1024" d="M0 0v1024h1024v-1024h-1024z" />
<glyph unicode="&#xfb01;" horiz-adv-x="1040" d="M27 872v27q0 25 16.5 42t42.5 17h107q0 62 3.5 106.5t23 107.5t54.5 108q87 115 252 115q50 0 127 -15v2q18 -4 138 -36q118 -43 118 -148q0 -63 -44.5 -107t-108.5 -44q-63 0 -107.5 44t-44.5 107q0 23 6 41q-52 10 -82 10q-97 0 -139 -57q-51 -63 -51 -186v-48h426 q56 0 59 -67q21 -226 21 -451q0 -158 -17 -387q-3 -53 -61 -53l-35 2q-29 6 -38 20.5t-9 43.5q14 189 14 378q0 224 -14 371h-338q4 -98 4 -276q0 -123 -3 -242t-6.5 -179t-4.5 -67q-1 -28 -19 -39.5t-41 -11.5l-34 2q-30 6 -39.5 19.5t-9.5 46.5q14 231 14 469 q0 163 -6 278h-115q-25 0 -42 17t-17 40z" />
<glyph unicode="&#xfb02;" horiz-adv-x="1013" d="M20 872v27q0 21 18 40t42 19h108q-4 208 80 322q87 115 254 115q54 0 127 -15q115 -28 156 -39h-2q25 -8 37 -26t8 -43v-10q-14 -490 -14 -684q0 -356 22 -506v-6q0 -51 -53 -62l-31 -4q-22 0 -39 16t-20 35v-2q-23 142 -23 545q0 412 10 627q-39 12 -79 18 q-65 10 -97 10q-93 0 -141 -57q-57 -92 -49 -234h196q21 0 39.5 -19t18.5 -40v-27q0 -24 -18 -41.5t-40 -17.5h-188q2 -98 2 -276q0 -122 -2.5 -240t-5.5 -179t-4 -67q-1 -26 -18 -38.5t-40 -12.5q-5 0 -32 2q-54 12 -54 66q13 227 13 493q0 148 -2 252h-119q-25 0 -42.5 17 t-17.5 42z" />
<glyph unicode="&#xfb03;" horiz-adv-x="1675" d="M12 872v27q0 25 17.5 42t42.5 17h114q0 123 33.5 220t97.5 149q84 66 203 66q26 0 51 -2.5t39 -5.5l15 -3q35 -22 41 -34l6 -23l-13 -39l11 21l-6 -17q-2 -22 -21 -41q-36 -16 -55 -10q-16 8 -68 8q-71 0 -114 -35q-85 -67 -76 -254h200q9 0 13 -2q4 2 14 2h107 q-4 212 79 322q90 115 254 115q51 0 127 -15v2q18 -4 138 -36q116 -43 116 -148q0 -63 -43.5 -107t-107.5 -44q-63 0 -107.5 44t-44.5 107q0 23 6 41q-52 10 -82 10q-97 0 -139 -57q-51 -63 -51 -186v-48h426q59 0 59 -71q0 -8 6 -80t10.5 -169.5t4.5 -197.5 q0 -173 -19 -387q0 -53 -59 -53l-35 2q-29 6 -39 20.5t-10 43.5q16 180 16 378q0 224 -14 371h-338q4 -98 4 -276q0 -123 -3 -242t-6.5 -179t-4.5 -67q-1 -28 -18.5 -39.5t-40.5 -11.5l-35 2q-30 6 -39.5 19.5t-9.5 46.5q14 231 14 469q0 163 -6 278h-115q-4 0 -8 -2 q-2 -1 -2 2q-6 -2 -17 -2h-194q6 -159 6 -303q0 -117 -2.5 -228.5t-5.5 -167.5t-4 -63q0 -17 -19 -39q-27 -12 -41 -12l-26 2q-27 0 -45 18q-15 15 -15 48q13 215 13 464q0 144 -7 281h-118q-25 0 -42.5 17t-17.5 42z" />
<glyph unicode="&#xfb04;" horiz-adv-x="1585" d="M70 872v27q0 25 17 42t42 17h115q0 123 33.5 220t97.5 149q84 66 203 66q26 0 51 -2.5t39 -5.5l14 -3q35 -22 41 -34l6 -23q0 -3 -12 -39l10 21l-6 -17q-2 -22 -21 -41q-36 -16 -55 -10q-16 8 -67 8q-72 0 -115 -35q-85 -67 -76 -254h201q8 0 12 -2q4 2 14 2h107 q-4 208 80 322q90 115 254 115q53 0 127 -15q101 -25 155 -39h-2q26 -8 38.5 -26t6.5 -43v-10q-12 -420 -12 -684q0 -349 23 -506q0 -25 -14 -43.5t-42 -24.5l-28 -4q-23 0 -40 16t-20 35v-2q-24 148 -24 545q0 197 10 627q-33 10 -80 18q-65 10 -96 10q-94 0 -139 -57 q-30 -46 -42.5 -110t-9.5 -124h199q20 0 38.5 -19.5t18.5 -39.5v-27q0 -24 -18 -41.5t-39 -17.5h-191q5 -123 5 -276q0 -122 -3.5 -240.5t-7 -178.5t-4.5 -67q-1 -26 -17.5 -38.5t-39.5 -12.5q-6 0 -31 2q-55 12 -55 66q14 245 14 493q0 148 -4 252h-338q6 -159 6 -303 q0 -117 -2.5 -228.5t-5.5 -167.5t-4 -63q0 -18 -18 -39q-27 -12 -41 -12l-27 2q-27 0 -45 18q-14 14 -14 48q12 198 12 464q0 164 -6 281h-119q-25 0 -42 17t-17 42z" />
</font>
</defs>
</svg>
