<?xml version="1.0" standalone="no"?>
<!DOCTYPE svg PUBLIC "-//W3C//DTD SVG 1.1//EN" "http://www.w3.org/Graphics/SVG/1.1/DTD/svg11.dtd" >
<svg xmlns="http://www.w3.org/2000/svg">
<metadata></metadata>
<defs>
<font id="kiddysanslight_italic" horiz-adv-x="1089" >
<font-face units-per-em="2048" ascent="1536" descent="-512" />
<missing-glyph horiz-adv-x="819" />
<glyph horiz-adv-x="2048" />
<glyph horiz-adv-x="2048" />
<glyph unicode="&#xd;" horiz-adv-x="2048" />
<glyph unicode=" "  horiz-adv-x="819" />
<glyph unicode="&#x09;" horiz-adv-x="819" />
<glyph unicode="&#xa0;" horiz-adv-x="819" />
<glyph unicode="!" horiz-adv-x="360" d="M92 115l6 22q0 12 6 21q0 -3 5 2l2 10q1 2 5 9t9 11l20 17l23 14q6 0 14 4l15 6q14 7 28 7q1 0 3 1t3 1h15q12 0 18 -2l10 -5l17 -10h4l8 -8v-4l2 -4q0 -1 5.5 -6.5t6.5 -7.5l7 -9q4 -22 2 -30l4 -9l-6 -22q-7 -26 -23 -55l-18 -21l4 2l-19 -14q-2 -4 -4 -6l-2 -4l-10 -7 l-6 -4l-2 -2q-1 -1 -5 -2.5t-6 -3.5v2l-8 -4q-5 0 -9 -1l-5 -1l-6 -2h-23q-37 3 -51 14l4 -2l-10 6l-14 15l-11 12l-4 8q-4 4 -2 8q-5 22 -2 54zM176 225l8 2l-2 -2h-6zM221 -4q4 3 8 7q3 3 4 3zM244 428l219 1002q0 8 12 8h33v-8l-219 -1002v2q-7 -10 -8 -10h-29zM303 211 l2 12l2 -14z" />
<glyph unicode="&#x22;" horiz-adv-x="720" d="M383 1004l115 530q0 8 10 8h31q1 -1 3 -2t3.5 -2.5t1.5 -3.5l-117 -530q-3 -13 -10 -13h-31q-8 8 -6 13zM723 1004l117 530q0 8 10 8h27q10 -5 10 -8l-117 -530q-3 -13 -12 -13h-27q-10 10 -8 13z" />
<glyph unicode="#" horiz-adv-x="1046" d="M158 473l6 31q0 3 4.5 6.5t7.5 3.5l209 -2l145 410h-217q-6 0 -6 8l6 31q10 10 11 10l225 -2l164 458q9 14 12 11h8q16 -4 23 -4q8 0 4 -11l-164 -454h322l165 463v-2q7 10 11 8h8q20 -4 22 -4q8 0 4 -11l-163 -456h235q3 0 6.5 -3.5t3.5 -7.5l-8 -28q-3 -10 -12 -10 l-242 2l-149 -410q18 0 68.5 -1t70.5 -1h115q3 0 6 -2.5t2 -5.5l-6 -31q0 -8 -13 -8h-262q-24 -72 -79.5 -227.5t-79.5 -227.5v2q-3 -8 -13 -8l-28 4q-10 0 -7 10l162 449h-319l-164 -461v4q-3 -6 -10 -6l-31 4q-7 0 -4 10l162 449h-115q-16 0 -44 1t-44 1q-4 0 -7 2.5 t-1 5.5zM432 512q25 0 84 -1t80 -1h158l149 410h-164q-22 0 -78.5 1t-82.5 1z" />
<glyph unicode="$" horiz-adv-x="880" d="M53 104l25 33q5 5 10 2q6 0 12 -4q36 -23 131.5 -52.5t208.5 -29.5l131 602q-27 9 -49.5 17.5t-48.5 20.5t-47 25t-42 30.5t-36 36.5t-27 44t-17.5 53t-5 62t8.5 72q9 45 29 94q27 68 77.5 125t110.5 90q79 40 199 51l63 299q4 8 13 8h35q3 0 5 -2.5t1 -5.5l-62 -297 q102 -5 191 -28t129 -41q3 0 5.5 -4.5t0.5 -6.5l-21 -32q-6 -6 -22 -6q-40 18 -122 39.5t-173 25.5l-133 -629l45 -12q51 -9 88 -27q73 -36 116.5 -108.5t37.5 -153.5q-18 -175 -205 -301q-97 -72 -230 -90l-63 -301q-3 -10 -10 -10h-35q-11 0 -8 10l61 295q-95 0 -190 24.5 t-133 42.5t-52 27q-7 2 -2 12zM352 939q3 -34 9.5 -60.5t24.5 -49.5t36.5 -40.5t46.5 -32.5t54 -26t59 -21l131 616q-99 -8 -174 -45q-104 -54 -152 -180q-20 -45 -27 -88q-11 -39 -8 -73zM496 57q114 21 198 78q74 55 120.5 121.5t49.5 130.5l-2 -4q7 75 -33 136.5 t-94 88.5q-7 2 -26.5 9t-41.5 14.5t-46 13.5z" />
<glyph unicode="%" horiz-adv-x="1624" d="M309 983q21 101 69.5 191t123.5 151t157 61q71 0 121 -34.5t71 -89t26 -123.5t-13 -138q-32 -164 -125 -270q-105 -123 -241 -123q-132 0 -183 117h2q-39 107 -8 258zM354 983q-31 -138 6 -229q40 -101 146 -101q62 0 114 31.5t87 75.5q86 103 114 241q16 62 12.5 123 t-20.5 109t-59 78t-103 30q-101 0 -184 -108t-113 -250zM385 20q0 3 4 9q13 17 551 698l551 705l-2 -2q5 10 12 6l27 -19q-4 -4 -4 -6v2l-1106 -1411q-3 -2 -6 -2q-4 0 -6 2l-15 10q-6 0 -6 8zM1073 422q22 102 71 193t124.5 152.5t158.5 61.5q57 0 99.5 -23t67 -61 t36.5 -88.5t11 -105.5t-13 -111q-21 -98 -68 -184.5t-125.5 -146.5t-170.5 -60q-61 0 -109 32.5t-72 86.5q-41 101 -10 254zM1118 422q-28 -131 6 -227q21 -47 59.5 -74t88.5 -27q116 0 201 107q82 94 110 239q16 63 13 124.5t-20 110.5t-58 79t-101 30q-100 0 -184 -109 t-115 -253zM1528 1417v2l2 -2h-2z" />
<glyph unicode="&#x26;" horiz-adv-x="1316" d="M236 293q-3 85 8 143q10 48 31.5 90.5t54.5 77t67.5 62t82.5 53.5t85.5 43.5t91.5 40.5q-47 93 -102 246q-23 63 -10 131q15 73 90 145q59 50 143.5 81.5t165.5 31.5q85 0 135 -33q134 -67 72 -262v2q-20 -55 -56.5 -104.5t-77.5 -86t-95.5 -71t-99 -56.5t-97.5 -45 q137 -268 305 -506q117 129 209 281.5t98 245.5q0 3 9 8l30 4q8 0 8 -6l2 4q-6 -109 -104.5 -273t-226.5 -298q24 -32 59.5 -81.5t53.5 -73t28 -32.5v2l18 -24q2 -2 -4 -13l-20 -18q-2 -2 -4 -2q-14 7 -62.5 64.5t-105.5 138.5q-64 -54 -113 -84l2 2q-226 -111 -383 -111 q-80 0 -135 27q-135 52 -153 258v-2zM281 307q15 -177 135 -231q61 -21 114 -21q70 0 168.5 29.5t188.5 73.5q34 16 108 84q-184 255 -319 522q-71 -29 -114 -48.5t-95.5 -50t-83.5 -60.5t-57 -73t-37 -94q-13 -68 -8 -131zM590 1176q-12 -48 8 -103q62 -159 107 -252 q77 34 133 64t113 70t96.5 88.5t60.5 105.5q50 153 -55 219q-45 25 -119 25q-73 0 -146.5 -27t-123.5 -72q-61 -50 -74 -118zM1151 -33l25 31q6 0 10 2h2l-19 -37z" />
<glyph unicode="'" horiz-adv-x="337" d="M364 996q-1 5 1 8l114 530q0 8 10 8h31q8 -4 8 -8l-116 -530q-3 -13 -11 -13h-32q-4 0 -5 5z" />
<glyph unicode="(" horiz-adv-x="804" d="M489 612q32 150 93.5 299.5t123 254t125.5 193.5t99 128.5t45 48.5q3 6 6 6l6 2l17 -16q11 -8 4 -19l-4 -5q-27 -30 -54.5 -63t-93.5 -126.5t-119 -188t-109.5 -234t-86.5 -278.5q-97 -466 90 -893l-4 5q0 -5 1 -10l1 -5q-4 -4 -8 -4l-29 -18h-2h-2q-5 0 -8 6v-4 q-194 441 -91 921z" />
<glyph unicode=")" horiz-adv-x="806" d="M61 -283l5 4v5q368 427 464 888q22 102 29 205.5t4 182t-17.5 162t-26 131t-32.5 105t-26.5 69t-16.5 36.5q-6 12 7 19l28 18h4q2 0 0 -2q13 -23 30.5 -63t45 -133.5t43 -195t13.5 -246.5t-33 -290q-104 -484 -486 -921l2 2l-8 -4q-4 0 -8 2l-16 14q-5 0 -5 12zM63 -279 l3 5l4 6z" />
<glyph unicode="*" horiz-adv-x="995" d="M334 1128l6 33q2 4 4 6h2q1 0 3 1t3 1l330 -2l-182 230q-2 6 -2 8q1 1 2 4t2 4l26 21q10 7 15 -2l205 -261l319 263q3 3 6 0q2 0 6 -4l19 -23l-4 -10l-285 -230q22 0 94 -1t96 -1h142q8 0 8 -8l-8 -33q0 -2 -4 -6q-4 -2 -7 -2l-344 2l193 -246q3 -3 0 -6q0 -4 -2 -6 l-29 -22q-2 -2 -8 -2q-1 0 -3 1t-3 1l-201 266l-319 -264q-4 -2 -8 -2q-1 0 -3.5 2t-3.5 2l-18 24q0 4 4 8l299 244q-25 0 -99.5 1t-99.5 1h-145q-3 0 -5 2.5t-1 5.5z" />
<glyph unicode="+" horiz-adv-x="1177" d="M137 602l6 27q5 10 11 10l551 -2l61 297q9 43 30.5 134.5t32.5 141.5q3 7 9 7h30q10 0 6 -7l-124 -573q33 0 140.5 -1t145.5 -1q90 -2 267 -2q6 0 6 -6l-6 -29q-12 -12 -13 -12l-551 2l-125 -580q0 -10 -12 -10l-29 2q-8 0 -8 8l127 580q-44 0 -143 2t-143 2h-263 q-9 0 -6 10z" />
<glyph unicode="," horiz-adv-x="296" d="M-16 -215q107 101 168 227q36 81 67 234l8 43q5 10 11 10h32q3 0 5 -3.5t1 -6.5l-8 -43q-32 -159 -73 -248l2 2q-64 -125 -193 -254l-2 2l-14 19q-9 13 -4 18z" />
<glyph unicode="-" horiz-adv-x="868" d="M291 633l8 33q0 2 2 4q4 4 8 4l533 -2q3 0 5 -2.5t1 -5.5l-6 -33q0 -3 -6 -6q-2 -2 -5 -2l-530 4q-10 0 -10 6z" />
<glyph unicode="." horiz-adv-x="468" d="M147 137q8 38 50.5 70.5t99.5 32.5q40 0 66 -33.5t18 -69.5q-13 -60 -52 -98.5t-81 -38.5q-60 0 -87.5 37.5t-13.5 99.5zM147 137q8 38 50.5 70.5t99.5 32.5q40 0 66 -33.5t18 -69.5q-13 -60 -52 -98.5t-81 -38.5q-60 0 -87.5 37.5t-13.5 99.5zM147 137q8 38 50.5 70.5 t99.5 32.5q40 0 66 -33.5t18 -69.5q-13 -60 -52 -98.5t-81 -38.5q-60 0 -87.5 37.5t-13.5 99.5z" />
<glyph unicode="/" horiz-adv-x="610" d="M15.5 12q-0.5 2 0.5 4l848 1414l2 2h11l8 -5l-2 3q3 -7 18 -7h-2l4 -4l-846 -1411l-8 -8h-6l-25 10q-2 0 -2.5 2zM885 1427h2h-2z" />
<glyph unicode="0" horiz-adv-x="1175" d="M241.5 490q3.5 99 26.5 204q19 89 55 187t93 198t125 179.5t157 129.5t183 50h30q95 -11 163 -65.5t102.5 -132t48.5 -174.5t9 -190t-24 -182q-25 -100 -61 -193t-91.5 -186t-122 -161.5t-156 -111t-189.5 -42.5q-94 1 -164.5 40t-110.5 106t-58.5 156t-15 188z M291.5 505q-4.5 -92 12 -175t51.5 -145t98 -98.5t147 -37.5q106 1 200.5 56t164 148t119.5 205t77 236q21 101 24.5 200t-13 188t-52 156.5t-96.5 107.5t-141 40q-97 0 -191.5 -61t-167 -160t-126.5 -221.5t-81 -249.5q-21 -97 -25.5 -189z" />
<glyph unicode="1" horiz-adv-x="614" d="M279 1278q0 4 10 14l325 146h131q9 0 9 -11l-301 -1417q-3 -10 -13 -10h-32q-10 0 -7 10l291 1374h-80l-311 -139q-10 0 -18 4z" />
<glyph unicode="2" horiz-adv-x="1040" d="M180 8l37 156l2 2l4 4q184 134 333 259.5t247 224.5t167 187t102.5 150.5t43.5 112.5q10 54 2 90q-15 66 -72.5 112t-130.5 64.5t-153 15.5q-115 -3 -210 -41t-124 -92q-14 -14 -16 -12l-29 10l4 -2q-5 1 -9.5 5t-4.5 6q45 80 160.5 127.5t238.5 50.5q87 2 168.5 -20 t149 -75t86.5 -129q3 -54 -9 -108q-12 -59 -45.5 -126t-102 -157.5t-167 -190t-250 -226t-342.5 -263.5q-2 -9 -10 -43l-10 -51h764q6 0 6 -10l-9 -31q0 -8 -8 -8h-805q-8 0 -8 8z" />
<glyph unicode="3" horiz-adv-x="980" d="M102 150l2 8l33 14q10 2 10 6q17 -63 70.5 -97t136.5 -34q51 0 123 14q98 22 192.5 69.5t166 117t86.5 141.5q23 108 -114 203t-396 156q-6 0 -9 10v24q0 4 11 15q139 26 249.5 61t174 67.5t107 67.5t60 59.5t21.5 45.5q22 82 -53 157.5t-187 110.5q-74 23 -139 23 t-131.5 -25t-112.5 -82v2q-8 -8 -8 -10q-2 1 -13 7.5t-17 8.5v15q103 131 292 131q68 0 152 -23q57 -20 108.5 -53t92 -73.5t59 -90t6.5 -98.5q-8 -30 -27.5 -59t-60 -64.5t-99 -68.5t-150.5 -68t-208 -66q82 -27 150 -56t114.5 -57t82 -57t54.5 -56.5t31.5 -55t12 -51.5 t-3.5 -48q-16 -80 -97 -159t-185 -134t-210 -84q-69 -14 -133 -14q-94 0 -158 39.5t-86 110.5z" />
<glyph unicode="4" horiz-adv-x="1118" d="M113 459l18 88q0 2 4 4l826 883q9 6 12 6h139q6 0 6 -10l-196 -928h239q8 0 8 -10l-8 -33q0 -8 -12 -8h-240l-92 -441q-3 -10 -10 -10h-35q-9 0 -6 10l92 441h-739q-6 0 -6 8zM154 504l716 -2l187 884h-76z" />
<glyph unicode="5" horiz-adv-x="1007" d="M57 37l15 33v-2q4 12 14 12q162 -25 295 -25q114 0 206.5 17.5t151 46t93.5 56t57 58.5h-2q44 52 61 127q27 126 -49 256q-52 89 -154.5 156.5t-228.5 67.5q-69 0 -151 -23l-25 -6q-4 -2 -8 2q-2 2 -2 10l4 25q14 64 37.5 142t50.5 152t48.5 129.5t43 106.5t21.5 52 q0 8 10 8h704q6 0 6 -11l-8 -36q-5 -9 -10 -9h-670q-118 -288 -172 -499q96 14 133 14q98 0 186.5 -39.5t144 -92t91.5 -114.5q82 -154 54 -293q-16 -77 -78 -157q-31 -38 -74.5 -70t-109.5 -63.5t-162 -49.5t-211 -18q-148 0 -306 29q-2 0 -6 8z" />
<glyph unicode="6" horiz-adv-x="1144" d="M223 410l2 28q-2 47 19 146q31 144 114 290t203 263q152 140 334.5 219.5t364.5 79.5q8 0 8 -9l-8 -34q0 -3 -5 -6t-8 -3q-176 0 -345.5 -73t-311.5 -207q-102 -103 -179.5 -234t-109.5 -256l33 -8q85 115 176 182q134 101 289 101q34 0 71 -6q191 -30 260 -162 q46 -97 19 -234q-5 -26 -21 -65q-27 -91 -81 -168q-38 -53 -95 -100q-25 -27 -110 -86h2q-76 -41 -166 -62h2q-38 -6 -80 -6q-54 0 -106 8q-43 7 -129 47q-128 72 -140 301q-2 16 -2 54zM279 391q13 -231 122 -291q53 -34 111 -41q50 -8 98 -8q41 0 68 6q79 16 143 54 q64 39 107 82q38 35 73 75q49 68 78 156q9 29 15.5 65.5t4.5 100.5t-22 115q-54 97 -223 126q-29 5 -68 5q-137 0 -247 -82h2q-68 -48 -127.5 -124t-90 -135.5t-44.5 -103.5z" />
<glyph unicode="7" horiz-adv-x="933" d="M201 14h4q-6 2 -2 11l942 1327l6 34h-834q-8 0 -8 9l8 32q0 3 4.5 7t8.5 4h874q8 0 8 -11l-18 -84q0 -4 -6 -8l-946 -1333q-2 -2 -13 -2z" />
<glyph unicode="8" horiz-adv-x="1144" d="M190 184q-20 53 7 199q42 104 154 212t243 167q-112 56 -148 112l3 -2q-69 106 -19 252v-2q46 109 121 185t170 110q72 21 156 21q150 0 235 -76q95 -89 76 -232q-10 -70 -51 -138.5t-103 -121.5q-80 -65 -147 -106q122 -64 181.5 -199t25.5 -262q-49 -148 -232 -240 q-114 -63 -287 -63q-95 0 -165 20q-9 4 -34 12t-38 13q-23 9 -59 35l-3 -4q-56 46 -86 110v-2zM233.5 289.5q-3.5 -47.5 6.5 -76.5q33 -68 73 -92l-2 2q13 -11 58 -31q29 -17 63 -22q68 -19 154 -19q159 0 262 53q150 77 199 205q37 120 -26 242.5t-183 169.5 q-41 10 -109 10q-141 0 -287.5 -108t-193.5 -246q-11 -40 -14.5 -87.5zM479 1118q-40 -122 13 -211q34 -54 94.5 -84t132.5 -30h37q65 -4 104 14q60 27 146 100q112 92 131 221q13 118 -64 195q-72 63 -209 63q-72 0 -139 -22q-77 -26 -143 -92.5t-103 -153.5z" />
<glyph unicode="9" horiz-adv-x="1144" d="M188 8l9 33q0 3 3.5 6.5t6.5 3.5q175 0 345 73t312 206q103 104 181.5 234.5t109.5 256.5l-37 6q-74 -110 -176 -184v2q-127 -98 -285 -98q-41 0 -71 6q-193 27 -258 162q-50 95 -19 233q6 28 21 66q24 90 80 166q34 44 90 100h-2q83 70 116 88q68 42 162 62q30 6 80 6 t105 -9q48 -8 129 -49q42 -22 70 -55.5t42 -76t19 -81.5t6 -88l4 -22l-2 2v-58q3 -64 -15 -147q-31 -145 -114 -289.5t-203 -263.5q-152 -140 -334.5 -219.5t-365.5 -79.5q-9 0 -9 8zM354.5 846.5q0.5 -61.5 20.5 -105.5q28 -54 87.5 -89.5t141.5 -47.5h-2q23 -4 68 -4 q130 0 248 82q93 70 166 181.5t92 180.5q-4 224 -119 289q-7 3 -24 11t-24.5 11.5t-20.5 9t-24 8t-22 3.5q-40 8 -98 8q-43 0 -70 -6q-66 -15 -133 -49q-68 -44 -111 -84q-6 -5 -73 -82q-1 -2 -3 -3t-3 -3v2q-46 -60 -74 -147q-9 -30 -16 -67t-6.5 -98.5z" />
<glyph unicode=":" horiz-adv-x="497" d="M158 115l6 22q0 12 6 21q0 -1 1 -0.5t3 2.5l2 6l25 29l14 12l21 14l10 4l20 6q14 7 25 7q1 0 3 1t3 1h16q5 0 21 -4q2 0 6 -2.5t6 -2.5l12 -8h4l9 -8l4 -6l4 -8q4 -2 6 -4l6 -13q6 -19 4 -30l4 -9l-6 -24q-7 -25 -22 -53l-21 -21l4 2l-16 -16l-8 -8l-11 -7l-6 -4l-2 -2 l-12 -4h2l-8 -4q-3 0 -7 -1t-5 -1l-7 -2h-24q-33 4 -53 16l4 -4l-11 6l-6 7l-14 20l-4 8q-1 1 -1.5 3.5t-1 6t-1.5 5.5q-7 19 -4 47zM311 12l6 2q-4 -2 -6 -2zM326 905l6 21q0 6 4 18l8 10v2l25 27l14 10l25 19l24 8q15 6 27 6q1 0 3 1t3 1h16q5 0 21 -4q2 0 5 -2t5 -2 l14 -6l13 -10l8 -15q4 -2 6 -4l4 -12q8 -20 6 -33l2 -8l-4 -21q-9 -37 -29 -57l7 4l-21 -22l2 2l-22 -25l-19 -12q-8 0 -16 -4q1 -4 2 -4q-4 0 -19 -5h-30q-26 3 -54 17l7 -4l-11 6l-6 6l-4 8l-10 13l-4 8q-6 12 -6 20q-5 13 -2 43zM432 770q4 12 14 18l4 2q5 1 9 1z" />
<glyph unicode=";" horiz-adv-x="397" d="M35 -215q107 101 168 227q36 81 67 234l9 43q5 10 10 10h33q2 0 2 -2q6 -6 4 -8l-9 -43q-32 -159 -73 -248l2 2q-64 -128 -185 -246q-4 -4 -6 -4h-4l-16 17q-5 16 -2 18zM311 905l6 21q0 3 5 18l8 10v2l24 27l15 10l24 19l25 8q15 6 26 6q1 0 4 1t5 1h14q4 0 20 -4 q2 0 5.5 -2t5.5 -2l14 -6l12 -10l8 -15q5 -2 7 -4l6 -12q5 -25 4 -33v-8l-4 -21q-4 -20 -21 -53l-20 -22l2 2l-23 -25l-18 -12q-4 0 -16 -4q-2 -4 -3 -4q-4 0 -14 -5h-31q-28 3 -53 17l8 -4l-12 6l-8 6q2 0 2 2l-14 19l-5 8q-4 8 -4 20q-7 12 -4 43zM418 770q4 12 14 18l4 2 q4 1 8 1z" />
<glyph unicode="&#x3c;" horiz-adv-x="1150" d="M111 477q2 0 2 4l16 76q1 1 1 3.5t-1 2.5l1098 481q3 3 8 3q2 -2 0 -7l10 -26l-2 -8l-1102 -486l893 -497v-3l-2 -4l-22 -32h-6zM1032 25l2 -2h2l13 -7q-11 1 -17 9zM1034 23l4 -3z" />
<glyph unicode="=" horiz-adv-x="1353" d="M180 369l6 28q0 4 4.5 7.5t8.5 3.5h1136q8 0 8 -11l-6 -28q-4 -11 -12 -11h-1137q-3 0 -6 3.5t-2 7.5zM272 801l7 30q0 7 10 7h1136q11 0 11 -7l-6 -30q-5 -10 -13 -10h-1136q-3 0 -6.5 3.5t-2.5 6.5z" />
<glyph unicode="&#x3e;" horiz-adv-x="1150" d="M129 18v5l1108 485l-893 500v2q-3 3 2 6l23 31h4l891 -494l-17 -80l-2 -6l-1095 -481l-5 -2q-4 0 -4 6zM328 1014q10 0 18 -8h-2q-4 -2 -4 2z" />
<glyph unicode="?" horiz-adv-x="690" d="M201 115l6 22q0 12 6 21q0 -2 4 2l2 6l25 29l4 4q0 1 3.5 3.5t4.5 4.5l20 14q13 0 19 6l14 4q14 7 25 7q1 0 4 1t4 1h14q5 0 21 -4q2 0 6.5 -2.5t7.5 -2.5l10 -8h5l8 -8l4 -6l4 -8q4 -2 6 -4l8 -13l4 -26v-13l-6 -22q-9 -36 -20 -55l-21 -21l4 2l-16 -16l-8 -8l-11 -7 l-6 -4l-2 -2l-6 -2q3 -1 -2 -2l-10 -4q-4 0 -8 -1l-4 -1l-7 -2h-24q-36 4 -51 16l4 -4l-13 6l-12 15l-4 8l-8 12q-2 2 -2 15q-9 18 -6 47zM326 1368q163 70 276 70q58 0 111 -17h-2q114 -48 143 -176q18 -67 6 -127q-18 -80 -90 -155q-21 -29 -88 -78l-18 -19l6 8 q-76 -57 -119 -106q-67 -92 -100 -182q-11 -27 -19 -74q-11 -54 -12 -66q-1 1 -3.5 -2t-4.5 -8h-2l-35 -4q-2 0 -2 4q-2 0 -2 6q10 50 12 68q14 55 25 82q49 126 112 199q45 61 117 114l22 13q48 38 78 73q62 69 74 127q10 53 -2 109q-26 103 -125 145h2q-46 19 -94 19 q-52 0 -113 -14.5t-93 -27t-42 -18.5q-4 0 -8 4v-2l-8 27q-3 3 0 8h-2zM354 12l6 2z" />
<glyph unicode="@" horiz-adv-x="1640" d="M236 528q38 178 125 325t212 247l-2 -2q87 64 191 111t193 68.5t150.5 30.5t100.5 9h23q206 0 325.5 -112t131.5 -316q9 -97 -17 -205q-33 -154 -114 -280.5t-187 -182.5q-97 -51 -164 -51q-38 0 -71 20q-56 40 -56 189q-301 -270 -432 -270q-56 0 -78 34 q-22 39 -21.5 109t15.5 156q25 89 66.5 164.5t89 127t104.5 92.5t110.5 65t108.5 40t97.5 21.5t79.5 5.5q39 0 53 -2q4 0 13 -1t13 -1q3 0 8.5 -1t8.5 -1q2 -1 2 -9l-6 -18q-3 -13 -21 -68t-54.5 -150.5t-70.5 -162.5h2l-24 -47q-8 -34 -11.5 -76t6 -89t35.5 -67 q52 -36 181 31q93 52 166.5 168t101.5 252q22 102 16 192q-15 185 -125 289.5t-294 104.5h-17q-27 0 -61.5 -2t-104 -14t-136 -32t-149 -60.5t-151.5 -94.5q-236 -190 -311 -537q-38 -194 -11 -337.5t111 -227.5q138 -100 332 -100q173 0 379 59q10 6 14 6q2 2 5.5 -1 t4.5 -7l8 -22l-2 -13l-22 -6q-34 -12 -82.5 -25t-139 -27.5t-173.5 -14.5q-232 0 -355 102q-211 178 -120 614zM610 178q20 -20 45 -20q70 0 198 93t204 171q15 15 39 57l-27 21q36 25 53 28q68 150 131 346h-36q-2 0 -6 1.5t-5 1.5q-36 0 -73.5 -3.5t-90 -16t-100 -32.5 t-100 -56t-95 -84t-79.5 -120t-58 -159q-42 -163 0 -228zM1212 852l25 8l-14 -22zM1231 874l8 -10l6 10h-14zM1237 860l2 4l2 -2zM1241 862l6 -8l4 12z" />
<glyph unicode="A" horiz-adv-x="1232" d="M78 20l753 1405h-2q7 7 13 7h151q3 0 8 -2.5t5 -4.5l165 -1405l-2 3q-6 -12 -8 -13h2l-30 -10q-14 0 -17 6h2l-59 522h-660q-103 -193 -139 -266l-135 -252q-7 -8 -11 -10q-2 -1 -3 -2q-1 0 -2 2l-29 10q-3 3 -3 6q0 2 1 4zM428 578h621l-95 804h-96z" />
<glyph unicode="B" horiz-adv-x="1093" d="M170 18l295 1387q8 8 27 10q76 17 213 17q118 0 229.5 -27.5t175.5 -91.5h-2q59 -63 59 -156q0 -34 -8 -72q-30 -150 -145 -245q-61 -48 -238 -103q175 -65 234 -143q59 -68 58 -162q0 -34 -7 -72q-35 -154 -146 -243q-147 -117 -456 -117q-62 0 -164 4h-29q-66 4 -86 4 q-10 0 -10 10zM227 55h43q3 0 9.5 -1t9.5 -1h18q98 -4 162 -4q291 0 420 103q98 82 123 208q6 31 6 60q0 78 -47 139q-106 126 -402 164q-50 0 -108 4q-18 2 -90 2zM383 784q93 0 207 -12h2q263 0 391 102q100 78 127 211q6 32 6 61q0 83 -53 134h2q-93 100 -371 100 q-74 0 -186 -10z" />
<glyph unicode="C" horiz-adv-x="1204" d="M255 367q-14 64 -14 138q0 95 23 204q41 189 137.5 340t231.5 243q215 140 508 140q81 0 163 -11.5t120 -21.5t44 -13q8 -4 8 -8q0 -1 -1 -2l-15 -28q-7 -10 -20 -2q-1 0 -23.5 5t-47.5 9t-61.5 9t-82 8t-92.5 3q-133 0 -260 -35t-224 -96q-122 -85 -209.5 -224 t-124.5 -316q-19 -101 -20 -188q0 -69 13 -129q28 -134 110 -222q141 -119 407 -119q181 0 357 45q6 0 10 -4v-2l4 -29q-3 -8 0 -8q-20 -7 -66 -17.5t-137.5 -23t-177.5 -12.5q-274 0 -434 131q-95 89 -126 236z" />
<glyph unicode="D" horiz-adv-x="1361" d="M174 35l291 1366q0 3 29 8q115 23 258 23q55 0 107 -4t113 -15t114.5 -28.5t107.5 -47t96 -68t75 -93.5t50 -122q17 -65 17 -150v-5q0 -88 -23 -190q-27 -128 -78 -233t-113 -177t-140.5 -127t-154 -87t-160.5 -52t-153.5 -26.5t-138.5 -6.5q-72 0 -142 7t-102.5 13.5 t-36.5 8.5q-16 3 -16 6zM223 74l10 8v2v-2l25 20l14 -14l-34 -12l12 -13l-3 1q-3 2 -7 2t-8.5 2t-6.5 4zM229 66q168 -19 250 -19q77 0 149.5 7.5t152.5 28t150 52.5t139 84t123.5 119.5t98.5 162t68 208.5q21 97 21 182q0 79 -16 140q-16 62 -47.5 113.5t-71 87t-90 63 t-101 44t-108 26.5t-106.5 13.5t-100 3.5q-88 0 -235 -16z" />
<glyph unicode="E" horiz-adv-x="983" d="M168 8l301 1415q5 11 14 11h756q4 0 7 -4q2 -2 2 -4q0 -1 -1 -3l-6 -32q-5 -9 -12 -9h-717l-129 -602h672q5 0 8 -3.5t2 -6.5l-6 -33q0 -8 -15 -8h-671l-144 -678h754q8 0 8 -10l-8 -33q0 -8 -10 -8h-793q-12 0 -12 8z" />
<glyph unicode="F" horiz-adv-x="954" d="M170 10l299 1411q0 3 5 7t9 4h764q6 0 6 -11l-6 -32q-4 -11 -10 -11h-723l-129 -606h680q6 0 6 -8l-8 -35q0 -10 -10 -10h-680l-150 -709q-3 -10 -10 -10h-33q-5 0 -8 3t-2 7z" />
<glyph unicode="G" horiz-adv-x="1327" d="M262 676q88 417 379 608q222 148 543 148q176 0 329 -46l7 -8l-17 -32q-2 -4 -4.5 -7t-3.5 0q-6 3 -44 11.5t-118 19t-159 10.5q-299 0 -512 -137q-131 -89 -221.5 -233.5t-129.5 -333.5q-23 -109 -23 -200q0 -80 18 -146q38 -142 153 -213q115 -68 299 -68 q85 0 187.5 17.5t163 34t108.5 32.5l112 524h-385q-4 0 -7 3t-1 6l6 32q0 9 12 9h428q4 0 4 -9l-122 -577q-9 -40 -190 -80.5t-326 -40.5q-271 0 -400 135h2q-114 118 -114 324q0 99 26 217z" />
<glyph unicode="H" horiz-adv-x="1269" d="M170 8l301 1415q5 9 8 9h33q3 0 5 -3t1 -6l-139 -653h844l139 653q4 9 12 9h29q3 0 5 -3q1 -1 0 -3q0 -2 -1 -3l-301 -1415q0 -8 -6 -8h-29q-10 0 -10 8l153 715h-843l-154 -715q0 -8 -8 -8h-33q-6 0 -6 8z" />
<glyph unicode="I" horiz-adv-x="387" d="M170 8l301 1415q5 9 10 9h33q3 0 5 -3t1 -6l-301 -1415q0 -8 -8 -8h-33q-8 0 -8 8z" />
<glyph unicode="J" horiz-adv-x="720" d="M14 45l13 29l-2 -2q0 2 4.5 4t7.5 2q140 -31 207 -31q123 0 209 74q72 60 113 159.5t69 237.5q26 118 41 211q55 280 63 320q27 113 45 196q27 127 35 174q0 11 8 11l33 2q2 0 8 -11l-37 -176q-18 -83 -45 -196q-12 -63 -63 -318q-14 -90 -41 -213q-30 -149 -74.5 -255.5 t-128.5 -176.5q-103 -86 -243 -86q-74 0 -209 31l-7 2q-2 0 -3.5 5.5t-2.5 6.5z" />
<glyph unicode="K" horiz-adv-x="1132" d="M170 16l297 1397q4 8 10 8h33q3 0 5 -2.5t1 -5.5l-170 -805l344 314q177 163 555 503l15 5l20 -21q0 -6 -4 -12l-641 -578l385 -792l-2 4q4 -11 -4 -15l-25 -16q-4 -2 -6 -2q-4 0 -4 6l-381 778l-266 -237l-113 -529q0 -10 -10 -10h-33q-6 0 -6 10z" />
<glyph unicode="L" horiz-adv-x="905" d="M170 8l301 1413q0 9 12 9h29q6 0 6 -9l-293 -1374h680q8 0 8 -8l-8 -31q0 -8 -8 -8h-717q-10 0 -10 8z" />
<glyph unicode="M" horiz-adv-x="1693" d="M152 25l387 1396q11 11 14 11h145q4 0 9 -11l-2 2l159 -1362q42 79 321 597t410 765q9 9 11 9h180q3 0 5 -3.5t1 -7.5l-233 -1394q-1 -3 -6 -8t-7 -5l-30 -2q-9 0 -9 13v-5l230 1362h-111q-51 -97 -422 -786h2q-12 -22 -134.5 -248t-184.5 -344h2q-3 -6 -15 -6h-49 q-5 0 -8 6h2l-160 1378h-79l-379 -1359q-11 -11 -13 -11q-4 0 -13 1t-15 1q-2 1 -5 6z" />
<glyph unicode="N" horiz-adv-x="1376" d="M170 8l301 1413q0 9 12 9h107q4 0 4 -5l532 -1370q3 0 23 1t22 1l287 1348q5 10 15 10h32q3 0 5 -3.5t1 -6.5l-294 -1387q0 -10 -13 -10l-108 -6q-11 0 -11 6l-528 1372h-45l-293 -1372q0 -8 -10 -8h-29q-10 0 -10 8z" />
<glyph unicode="O" horiz-adv-x="1529" d="M249 422q-6 46 -6 92q0 78 17 160q31 144 110 280.5t186.5 241t243 169t271.5 67.5q94 -7 175 -41.5t138.5 -89t101 -126.5t63.5 -154q20 -83 25 -171q1 -18 1 -35q0 -71 -16 -141q-28 -133 -94 -253t-162 -212q-113 -99 -257.5 -154t-277.5 -55q-149 6 -263.5 58 t-178.5 151v-2q-60 95 -77 215zM309 674q-18 -86 -18 -162q0 -156 76 -272h-2q60 -90 166 -139t247 -52q291 6 494 191q90 84 152.5 196t88.5 238q17 71 17 143v22q-3 83 -20.5 159t-58 143t-94.5 118t-130 83.5t-166 39.5q-136 -11 -265 -76.5t-225.5 -165t-165.5 -221 t-96 -245.5z" />
<glyph unicode="P" horiz-adv-x="1001" d="M168 8l295 1381q0 6 12 6q29 0 37 2q5 0 8 2l4 2l31 4q179 27 278 27h13q127 -3 205 -50q63 -32 108 -94q49 -66 49 -154q0 -36 -8 -77q-8 -39 -18 -62q-17 -40 -54 -92v2q-58 -82 -174 -182q-71 -56 -167 -91.5t-195 -41.5q-10 -2 -31 -2q-92 0 -213 33l-131 -613 q0 -8 -6 -8h-31q-12 0 -12 8zM358 670q122 -32 215 -32q15 0 29 1q87 5 173.5 37t152.5 84q101 81 159 158q34 55 48 86q21 54 21 112v21q-4 69 -38 120q-45 51 -98 84q-69 38 -186 41h-11q-100 0 -319 -32zM500 1331l12 10l-10 5zM512 1341l2 -2zM512 1341l12 11h-12v-11z M514 1339l23 -8l-19 -16z" />
<glyph unicode="Q" horiz-adv-x="1517" d="M240 684q30 141 108.5 276t185 238t241 167t269.5 67q94 -7 174.5 -40.5t138.5 -87t101 -124t62.5 -151t23.5 -169.5v-25q0 -76 -18 -151q-57 -271 -258 -463l2 2q-136 -121 -359 -190q138 -100 207 -117q70 -16 199 -16h67q4 0 8 -3.5t3 -7.5l-9 -30q-3 -9 -12 -9h-67 q-139 0 -211 19q-59 20 -136.5 66.5t-121.5 87.5l-17 -3q-43 -6 -78 -6q-146 2 -260 55.5t-180 153.5l-2 -2q-80 129 -80 294q0 80 19 169zM279 448q15 -111 67 -194q59 -87 166 -137.5t242 -53.5q293 6 487 191h-2q185 164 240 430q18 83 18 166t-16.5 160t-54 144 t-91.5 117t-131 80t-170 33q-113 -3 -219 -45t-190 -111t-153.5 -157.5t-115 -187t-67.5 -199.5q-16 -79 -16 -151q0 -44 6 -85z" />
<glyph unicode="R" horiz-adv-x="1134" d="M170 18l293 1371q0 6 10 6q7 0 15 1t10 1h14q203 35 318 35h12q121 -3 205 -50q62 -26 104 -94q50 -68 50 -157q0 -33 -7 -70q-12 -46 -20 -66q-11 -34 -48 -88v2q-67 -90 -176 -180l-14 -12h1q2 0 -3 -3l-53 -28q26 -12 45.5 -29.5t31.5 -33t18.5 -42t10 -42t2.5 -50 t-2 -48t-4 -52.5q-4 -58 -5 -74.5t-1 -68t5 -78.5t17.5 -66t32.5 -69h2q0 -11 -2 -13l-24 -18q-4 -2 -7 -3q-2 -1 -3 -1h-2t-1 2l-2 2q-28 41 -44 88t-19 102q-2 37 -2 66v28q2 38 8 97q4 45 4 85q0 23 -2 43q-4 56 -38 91t-103 39q-113 -41 -209 -47h-29q-95 0 -207 33 l-131 -609q0 -10 -12 -10h-31q-8 0 -8 10zM360 674q109 -31 212 -31h24q90 4 177.5 36.5t152.5 84.5q113 96 164 170l8 16q20 32 32 56q20 54 20 110v24q-6 68 -36 117q-34 44 -98 84h2q-72 38 -189 41h-15q-100 0 -271 -24q-2 0 -15.5 -1t-15.5 -1z" />
<glyph unicode="S" horiz-adv-x="978" d="M88 66q-1 3 -1 4.5t1 3.5l14 30q5 7 11 7l45 -15q176 -49 278 -49q68 0 129 12q119 25 218 101t147 178q16 38 16 75q0 34 -13 68q-28 71 -104 115q-18 12 -100 47l-35 14l-18 9l-33 10q-10 2 -25 8l-20 8l-23 8l3 -2q-62 20 -113 52q-89 60 -123 145q-21 52 -21 110 q0 37 9 76q4 30 18 62q28 69 78.5 128.5t112.5 96.5q128 64 282 64q70 0 144 -12.5t109 -23t42 -14.5q1 -1 1 -2q0 -2 -3 -10l-12 -22q-9 -9 -15 -7q-159 41 -278 41q-140 0 -252 -59q-107 -59 -162 -186q-22 -58 -22 -112q0 -40 12 -80q28 -92 115 -154q46 -27 116 -50 q7 -2 11 -2h-2q2 -1 23.5 -8t37.5 -14q2 0 9.5 -2t9.5 -2l-5 2q73 -25 162 -76q91 -57 120 -141q13 -36 12 -73q0 -49 -21 -99q-52 -116 -163 -200t-247 -114q-67 -12 -133 -12q-136 0 -338 61l2 -2q-4 1 -6 7z" />
<glyph unicode="T" horiz-adv-x="1103" d="M311 1391l6 30q0 3 4.5 7t8.5 4h1054q3 0 6 -4t3 -7l-7 -30q-4 -9 -12 -9h-502l-292 -1374q0 -8 -11 -8h-30q-9 0 -9 8l293 1374h-504q-4 0 -7 3q-2 2 -2 4q0 1 1 2z" />
<glyph unicode="U" horiz-adv-x="1298" d="M272 526l189 887q3 8 8 8h31q3 0 5 -2.5t1 -5.5l-189 -889l-4.5 -27t-5.5 -59q-2 -26 -1 -50v-32q2 -38 14.5 -87.5t35.5 -86.5q51 -63 137 -99t197 -36q181 0 314 109q46 39 84 91t59.5 97t36.5 87t20.5 64t5.5 25l193 903q5 9 12 9h29q10 -5 8 -9l-192 -903 q0 -5 -6 -29.5t-23 -69.5t-41 -93.5t-66.5 -104t-93.5 -98.5q-152 -125 -348 -125q-254 0 -367 147q-62 91 -62 222q0 72 19 157z" />
<glyph unicode="V" horiz-adv-x="1185" d="M369 1395q-1 4 -1 9q0 10 5 17l30 9l11 -9l153 -1374h49q46 83 212.5 384t254.5 458l297 536q4 8 7 8q1 0 2 -1l34 -11l2 -6l-784 -1421q0 6 -2 6h-107q-5 0 -8 6h2z" />
<glyph unicode="W" horiz-adv-x="1859" d="M416 1415q3 12 8 12l31 7h3l9 -4l18 -1383h66l608 1354q6 6 10 6l160 2q1 0 3 -2t3 -2l-28 -1358h65l133 287q15 32 506 1093q7 7 14 5l27 -9q4 -2 3.5 -5.5t-3.5 -8.5l-651 -1405l2 2q-3 -6 -10 -6h-129q-7 0 -7 6l9 395q14 718 20 959h-96l-604 -1356l2 2q-3 -6 -10 -6 h-132q-8 0 -8 4q-3 225 -11 703.5t-11 707.5z" />
<glyph unicode="X" horiz-adv-x="1181" d="M152 14q-3 1 -3 5q0 6 9 20l-2 -4l561 686l-193 473h2l-86 211q1 1 3 5t3 5l-8 -2l17 4q13 13 20 15q1 1 2 1l6 -6v3l273 -662l540 655q7 7 13 7l26 -19q2 0 -6 -6l-557 -680l285 -698l-4 2q4 -7 -2 -13l-31 -16q-1 -1 -3 -1l-5 3l-277 678l-557 -678q-2 -2 -5 -2t-5 2z " />
<glyph unicode="Y" horiz-adv-x="1062" d="M346 1411l37 16q12 4 12 3l281 -744l604 744q3 3 6 3l4 -1l2 -2l25 -17l-2 -8l-629 -770q-6 -28 -30.5 -147t-34.5 -173q-35 -178 -64 -307q0 -8 -8 -8h-27q-10 0 -10 8l129 627l-291 772l-2 -4z" />
<glyph unicode="Z" horiz-adv-x="1077" d="M53 8l21 90q0 4 6 13v-5l1184 1276h-918q-5 0 -7 3.5t-1 7.5l6 30q6 11 12 11h949q3 0 5 -4t1 -7l-15 -69q0 -5 -6 -11l-372 -401q-467 -508 -824 -887l959 -6q4 0 4 -8l-8 -33q0 -8 -7 -8h-979q-10 0 -10 8z" />
<glyph unicode="[" horiz-adv-x="555" d="M119 -236l391 1835q0 9 12 9h361q10 0 10 -9l-8 -32q-3 -11 -13 -11h-317l-371 -1749h318q4 0 6 -3.5t0 -6.5l-6 -33q-3 -10 -13 -10h-360q-5 0 -8 3t-2 7z" />
<glyph unicode="\" horiz-adv-x="610" d="M313 1417q0 6 4 6h-2l27 11q8 0 12 -2l2 -2l248 -1420h-4q-4 -1 -15.5 -5t-15.5 -5h-6q-2 1 -2.5 3t-1.5 3z" />
<glyph unicode="]" horiz-adv-x="548" d="M-45 -236l6 33q5 10 14 10h318l371 1749h-320q-11 0 -8 11l8 32q0 9 10 9h361q14 0 14 -9l-391 -1835q-3 -10 -16 -10h-359q-11 0 -8 10z" />
<glyph unicode="^" horiz-adv-x="1058" d="M186 573q0 3 4 11l627 968h82q8 0 8 -14l213 -954l-2 -6q0 -5 2 -5l-37 -14v2q-2 0 -4.5 1t-3.5 1l-221 969l-627 -973v2q-2 -2 -14 4l-25 6z" />
<glyph unicode="_" horiz-adv-x="1437" d="M133 -162l6 29q0 3 4.5 6.5t8.5 3.5h1095q6 0 6 -10l-6 -29q-3 -10 -10 -10h-1096q-11 0 -8 10z" />
<glyph unicode="`" horiz-adv-x="296" d="M377 1655q-1 1 3.5 8t8.5 10l23 15q3 2 7 0t3 -5q69 -123 78 -243v2q4 -82 -33 -250l-8 -41q-3 -10 -13 -10h-30q-9 0 -6 10l8 41l8 40t8 39t7 39t5 38.5t3 38t0 38.5q-6 119 -72 230z" />
<glyph unicode="a" d="M223 487q48 231 178 369q120 117 265 117q106 0 205 -76.5t159 -206.5l70 326q0 8 10 8h29q6 0 6 -8l-215 -1008q0 -8 -8 -8h-29q-8 0 -8 8l57 271q-113 -126 -244 -202.5t-237 -76.5q-69 0 -126 30.5t-91 84.5q-41 87 -41 201q0 79 20 171zM266 483q-19 -92 -19 -167 q0 -105 38 -173q53 -100 184 -100q100 0 209 57t196 160.5t113 222.5q8 43 8 83q-1 48 -11 92q-20 84 -68 142t-116.5 93t-142.5 35q-126 0 -227 -101q-115 -118 -164 -344z" />
<glyph unicode="b" horiz-adv-x="1007" d="M170 8l303 1422q0 8 8 8h31q6 0 6 -8l-156 -736q110 127 240.5 203t239.5 76q152 0 217 -117q43 -79 43 -195q0 -80 -21 -178q-21 -96 -68.5 -196t-111.5 -172q-121 -115 -264 -115q-106 0 -206 77t-157 204l-59 -273q0 -8 -8 -8h-31q-6 0 -6 8zM317 483q-8 -42 -8 -83 q1 -46 11 -90q20 -83 68 -140.5t116 -92t141 -34.5q59 0 118.5 26.5t106.5 73.5q53 61 99.5 152t68.5 188q14 77 14 145q0 26 -2 50q-7 90 -34 149q-28 47 -76 74t-106 27q-99 0 -208 -58t-196 -162.5t-113 -224.5z" />
<glyph unicode="c" horiz-adv-x="966" d="M221 506q59 276 262 409q153 105 385 105q127 0 242 -31h4q13 -5 13 -12q0 -2 -1 -4l-14 -33q-2 0 -5.5 -1t-4.5 -1q-124 31 -244 31q-191 0 -356 -95q-176 -117 -230 -368q-15 -70 -15 -131q0 -45 8 -85q19 -94 79 -149q108 -90 307 -90q63 0 130 8.5t103 16.5l36 8 q2 0 5 -2.5t3 -5.5l2 -29q-2 -8 -10 -12l-11 -2q-142 -33 -268 -33q-222 0 -332 98q-105 88 -105 257q0 69 17 151z" />
<glyph unicode="d" horiz-adv-x="1007" d="M124 294v22q0 93 19 167q48 236 174 373q123 117 267 117q106 0 205 -76.5t159 -206.5l158 740q0 8 10 8h29q4 0 4 -8l-303 -1422q0 -8 -6 -8h-29q-8 0 -8 8l57 271q-113 -126 -244 -202.5t-237 -76.5q-70 0 -126.5 30t-92.5 85q-34 73 -36 179zM184 483 q-19 -96 -20 -171q0 -103 37 -169q56 -100 186 -100q99 0 208 57t196.5 160.5t113.5 222.5q8 42 8 82q0 47 -11 92q-21 84 -69 142.5t-116.5 93.5t-141.5 35q-125 0 -229 -101q-109 -112 -162 -344z" />
<glyph unicode="e" horiz-adv-x="1099" d="M226 412q4 60 10 92t12 55q3 16 15.5 48.5t36.5 83t65.5 109t91.5 103.5q147 119 350 119q197 0 278 -119h2q47 -69 46 -172q0 -56 -13 -121q-8 -32 -16 -57l-2 -10l-10 -11h-805q-7 -40 -8 -89v-14q0 -43 5 -94q6 -59 28 -116.5t59 -97.5q87 -74 233 -74q144 0 363 74 q1 1 12 -4l2 -23q3 -6 -2.5 -13.5t-13.5 -10.5h2q-219 -70 -371 -70q-172 0 -260 82q-47 40 -74 100q-28 60 -34 115q-4 36 -4 73zM301 582h766q15 74 15 134q0 97 -40 154h2q-69 103 -249 103q-92 0 -171.5 -29.5t-130.5 -71.5t-93 -99.5t-62.5 -101t-36.5 -89.5z" />
<glyph unicode="f" horiz-adv-x="659" d="M223 4l2 10q59 218 123 521q32 146 72 372h-187q-3 0 -6 2.5t-2 5.5l4 27q3 10 13 10h184l8 31q22 136 75 236.5t132 154.5q86 62 203 62q107 0 107 -18q0 -1 -1 -3q-14 -38 -18 -35q-21 -6 -54 2.5t-44 8.5q-90 0 -177 -54q-63 -42 -110.5 -136t-69.5 -216l-8 -33h283 q9 0 6 -10l-4 -27q-4 -8 -11 -8h-278q-51 -282 -78 -397q-27 -130 -55.5 -251.5t-45 -182.5t-20.5 -68v-8h-6l-31 2q-1 0 -3 1t-3 1z" />
<glyph unicode="g" horiz-adv-x="1107" d="M39 -371q1 4 5 14.5t5 14.5q3 6 17 6q159 -33 315 -33q229 0 367 82q86 63 112 152q47 148 113 457q-120 -148 -263.5 -235t-260.5 -87q-158 0 -228 121q-47 77 -47 198q0 85 23 191q54 253 190 391q121 121 279 121q114 0 219.5 -86t167.5 -227l49 290l2 11q5 10 12 10 h27q10 0 10 -8l-2 -8q-2 -8 -5.5 -28t-6.5 -34q-41 -253 -117 -610q-66 -310 -115 -469q-30 -105 -143 -189q-70 -40 -175.5 -65t-217.5 -25q-105 0 -203 13.5t-129 23.5q-3 1 -3 3t3 5zM244 510q-20 -97 -20 -176q0 -108 38 -182q29 -50 80 -77.5t115 -27.5q103 0 217 60 t205 168.5t118 234.5q10 46 10 91q0 47 -11 93q-22 87 -72.5 148t-121 97t-147.5 36q-60 0 -121.5 -26.5t-109.5 -71.5q-59 -69 -107.5 -165.5t-72.5 -201.5z" />
<glyph unicode="h" horiz-adv-x="1044" d="M211 12q-2 0 -2.5 23.5t2.5 69.5q5 92 20 186q2 25 19 100l221 1036q0 9 8 9h29q8 0 8 -9l-147 -694l32 -8q27 42 70 78q136 112 326 112q209 0 280 -145q28 -57 28 -143q0 -73 -20 -166q-22 -109 -89 -283q-65 -171 -96 -170h-1q-4 0 -13 1t-14 1q-1 1 1.5 6t5.5 7 q0 6 6 12q0 6 6 18v-2q120 243 156 414q17 76 17 140q0 85 -30 149q-64 120 -248 120q-171 0 -288 -102q-146 -125 -209 -412q-2 -10 -8 -35.5t-7 -35.5q-10 -63 -15.5 -129t-6.5 -100v-35q0 -6 -6 -9l-25 -6q-10 0 -10 2z" />
<glyph unicode="i" horiz-adv-x="356" d="M150 12q57 184 118 461q45 213 82 463q1 6 2 19t2 18q3 27 6 35q0 4 13 10h10q3 0 8.5 1t7.5 1h7q4 0 4 -6q-1 -20 -10 -83t-29.5 -184t-46.5 -245q-65 -284 -129 -496q-6 -6 -9 -6l-30 2q-7 0 -7 6q0 2 1 4zM334 1317l4 18q1 3 3 10.5t3 10.5l8 10h-2l21 25l16 14l34 21 l-1 -1l18 7q15 6 31 6q1 0 3 1t3 1h14q15 0 21 -2q1 0 3 -1t3 -1l4 -4l-6 2l18 -9l13 -10l6 -8l4 -8l6 -6l4 -13q4 -16 4 -28l2 -9l-4 -22q-18 -44 -24 -53l-25 -27q-2 -4 -2 -6l-4 -2l-6 -8l-29 -19q-4 -2 -8 -2t-6 -2h8q-10 0 -18 -4h-27q-34 3 -51 16l2 -2l-10 7l-9 8 l-4 4q-4 2 -10 14q-6 6 -6 12q-5 23 -5 43q0 9 1 17zM438 1180q3 12 15 18q1 0 4 1t6 1zM520 1432h4h-4z" />
<glyph unicode="j" horiz-adv-x="544" d="M-70 -365h2q88 15 154.5 42.5t104.5 56t66 70.5t39 70t23 71l19 55l-2 -2q17 43 76 301q30 146 82.5 417.5t54.5 282.5l4 17q3 8 12 8l29 2q4 -4 4 -10q-44 -236 -141 -707q-62 -276 -78 -319l2 2q-5 -11 -16 -53v2q-12 -40 -26.5 -73.5t-47.5 -79.5t-76.5 -81 t-116.5 -67.5t-164 -49.5q-5 0 -5 3q0 2 1 4v30v8zM516 1317l4 18q1 3 3 10.5t3 10.5l9 10h-5l15 14l8 11l16 14l34 21l-1 -1l19 7q15 6 28 6q2 0 4.5 1t3.5 1h15q14 0 20 -2q1 0 3 -1t3 -1l4 -4l-6 2l19 -9l12 -10l6 -8l4 -8l4 -6l7 -13q4 -16 4 -28l2 -9l-4 -22 q-16 -41 -25 -53l-25 -27q-2 -4 -2 -6l-4 -2l-6 -8l-29 -19q-5 -2 -8.5 -2t-5.5 -2h8q-10 0 -18 -4h-27q-21 2 -51 19l2 -5l-10 7l-8 8l-4 4q-5 3 -11 14q-6 6 -6 12q-5 23 -5 43q0 9 1 17zM621 1180q2 12 14 18q1 0 4 1t6 1zM702 1432h5h-5z" />
<glyph unicode="k" horiz-adv-x="860" d="M195 0q-7 5 -7 33q0 76 50 319q105 488 251 1075l-2 -2q3 9 11 9h24q8 0 8 -9q-140 -570 -233 -1007q250 231 664 563q8 4 8 0q1 -2 8 -10t8 -10t1 -4q0 -4 -3 -9q-226 -177 -434 -352q16 -78 93.5 -219.5t141.5 -238.5t72 -105q1 -2 0.5 -6.5t-2.5 -6.5l-27 -18l4 2 q-7 -5 -10 -5q-2 0 -2 3q-52 66 -160 247.5t-149 311.5q-198 -169 -227 -209q-57 -260 -58 -310q0 -8 2 -11q6 -16 -8 -23l-12 -6h-2q-3 -2 -6 -2q-1 0 -2 -1q-1 0 -2 1z" />
<glyph unicode="l" horiz-adv-x="266" d="M88 6q5 145 86 531q92 434 215 897q4 4 10 4q4 0 12.5 -1t12.5 -1q1 -1 3.5 -2.5t4.5 -3t2 -3.5l-6 -22q-3 -13 -31.5 -126t-55 -220.5t-63.5 -265t-65 -285.5q-77 -366 -80 -496q-3 -8 -10 -8l-29 -4q-6 0 -6 6z" />
<glyph unicode="m" horiz-adv-x="1753" d="M176 6q12 84 68 344q68 320 155 707v-2q3 8 11 8h32q7 0 7 -8q-2 -10 -7.5 -30t-7.5 -30l-39 -182q187 207 381 207q165 0 236 -100h-2q35 -56 53 -142q87 106 196.5 174t208.5 68q75 0 148 -31.5t104 -91.5q27 -63 27 -158q0 -106 -33 -252q-5 -30 -16.5 -84.5 t-14.5 -72.5l-30 -144q-6 -29 -23 -92l-2 -8q-7 -41 -18 -66q-7 -11 -13 -8l-30 6q-4 9 0 13q7 16 16 57v6q16 57 23 92l30 142q1 8 12 62t15 79l4 18q19 81 27 135q6 40 6 90q0 17 -1 35q-3 70 -26 121q-26 51 -88.5 77t-126.5 26q-74 0 -138 -23.5t-107.5 -63.5t-76 -82 t-53 -89t-29.5 -74t-14 -47q-3 -11 -90 -399q-26 -142 -30 -168l-13 -13l-24 -8q-3 -2 -6.5 -2.5t-6 0.5t-2.5 2v14t3 23.5t6 31t8 37.5t8 42q33 157 55 251q22 88 43 191v3q15 70 15 128q0 75 -24 131l-15 29q-69 86 -201 86q-68 0 -127.5 -20.5t-100 -52t-74.5 -72.5 t-54 -78.5t-34.5 -74.5t-19.5 -55.5t-6 -25.5q-44 -200 -45 -203l-33 -149l-32 -148q-13 -59 -11 -72h-2q-4 -8 -8 -10l-24 -10l2 2q-9 -2 -21 4z" />
<glyph unicode="n" horiz-adv-x="1050" d="M176 4q5 47 68 346q77 358 155 705q0 8 11 8h32q4 0 4 -8q-2 -10 -7 -30t-7 -30l-39 -182q193 205 385 205q163 0 234 -100h-2q27 -42 39 -94q10 -42 9 -81v-19q-3 -48 -7.5 -78.5t-10.5 -49.5v-2q-43 -178 -96 -422q-23 -111 -26 -147q0 -2 -15 -17q-18 -6 -26 -6 q-10 0 -13 16l29 134q33 157 55 251q22 88 43 191v2q11 69 11 127q0 98 -33 160q-76 86 -201 86q-69 0 -129 -20.5t-101 -52t-75.5 -72t-54.5 -78.5t-34.5 -74.5t-19.5 -56.5t-6 -27l-4 -15q-1 -4 -8 -35t-15 -64.5t-12 -55.5q-16 -66 -69 -314q-16 -87 -15 -90q0 -4 -6 -4 l-35 -12q-2 0 -8 6z" />
<glyph unicode="o" horiz-adv-x="1140" d="M211 288q-5 32 -5 67q0 60 15 126q31 144 98 244q29 52 70 96q81 85 170 133q114 65 238 65q12 0 24 -1q85 -3 154 -41t112 -105v2q60 -93 60 -226q0 -71 -17 -154q-63 -290 -272 -424h2q-69 -38 -138.5 -54t-105.5 -16q-125 0 -213.5 36t-133 100t-58.5 152zM270 481 q-15 -73 -15 -134q0 -298 372 -298q29 0 92 15.5t121 48.5q182 115 241 381q17 84 17 153q0 119 -51 193h4q-78 121 -244 131q-119 0 -229 -60q-89 -51 -152 -114q-17 -18 -76 -103q-55 -97 -80 -213z" />
<glyph unicode="p" horiz-adv-x="1077" d="M72 -457l313 1473q0 8 8 8h31q6 0 6 -8l-68 -322q110 127 240.5 203t239.5 76q139 0 215 -117q43 -83 43 -201q0 -78 -19 -172q-54 -238 -182 -368q-115 -115 -262 -115q-106 0 -206 77t-157 204l-157 -738q0 -8 -11 -8h-30q-4 0 -4 8zM317 483q-8 -42 -8 -83 q0 -46 11 -90q20 -83 68 -140.5t116 -92t141 -34.5q130 0 227 100q114 114 166 340q14 77 14 145q0 25 -2 50q-7 89 -34 149q-28 47 -76 74t-106 27q-99 0 -208 -58t-196 -162.5t-113 -224.5z" />
<glyph unicode="q" horiz-adv-x="1001" d="M158 483q48 237 176 373q127 117 264 117q106 0 206 -76.5t161 -206.5l69 326q0 8 8 8h29q4 0 4 -8l-313 -1473q0 -8 -8 -8h-29q-4 0 -4 8l156 736q-114 -126 -246.5 -202.5t-237.5 -76.5q-149 0 -217 115q-41 73 -41 183q0 82 23 185zM197 483q-18 -95 -18 -170 q0 -105 36 -170q54 -100 186 -100q99 0 209 57t198 160.5t114 222.5q8 42 8 82q0 47 -11 92q-21 84 -70 142.5t-117.5 93.5t-141.5 35q-126 0 -230 -101q-110 -113 -163 -344z" />
<glyph unicode="r" horiz-adv-x="630" d="M172 8l215 1004q0 8 8 8h31q8 0 8 -8l-47 -215l92 84q65 52 149.5 82.5t128 36.5t72.5 6q4 0 7.5 -4t3.5 -7l-6 -28q-9 -13 -15 -13q-14 0 -39 -3t-71.5 -12.5t-101.5 -34.5t-101 -62q-129 -102 -170 -289l-117 -545q0 -8 -8 -8h-31q-8 0 -8 8z" />
<glyph unicode="s" horiz-adv-x="821" d="M98 57q-4 0 -4 3.5t4 11.5l11 26q3 6 10 6q165 -57 280 -57q44 0 74 6q83 15 150 67.5t102 125.5q11 32 11 58v8q-2 29 -18 54t-31.5 39t-29.5 21h2q-25 17 -106 45q-2 0 -3.5 1t-2.5 1h4l-64 27q-21 5 -90 35q-72 53 -96 127q-10 31 -10 63q0 47 20 98q45 107 133 156 v-2q85 45 205 45q106 0 260 -45l-2 2q6 -4 13 -4q0 -2 4 -2q7 -4 7 -8q0 -3 -5 -7l-15 -28q-3 -7 -14 0l-9 2q-8 3 -22.5 6.5t-33 8.5t-42.5 9.5t-48.5 8t-52.5 6t-54 2.5q-107 0 -174 -37q-75 -37 -105 -121q-15 -40 -15 -78q0 -29 9 -57q20 -64 80 -105q36 -22 117 -45 q2 0 5 -2t5 -2q12 -4 18 -4l33 -12h-2q38 -15 84 -43q68 -41 90 -102q9 -25 9 -50q0 -38 -19 -79q-35 -85 -116.5 -146.5t-184.5 -83.5q-30 -6 -78 -6q-101 0 -293 57zM543 475q2 0 4 -2z" />
<glyph unicode="t" horiz-adv-x="677" d="M231 979l7 31q3 10 12 10h225l64 291q0 8 8 8h33q10 0 10 -8l-64 -291h342q10 0 10 -6q0 -2 -1 -4l-7 -31q-3 -10 -12 -10h-342l-154 -721q-4 -25 -5 -47q0 -51 26 -80q70 -70 281 -70q8 0 8 -10l-6 -31q-3 -10 -13 -10q-221 0 -309 86h2q-40 41 -40 110q0 23 5 50 q6 32 17.5 88.5t15.5 77.5l10 34l111 523h-225q-10 0 -10 6q0 2 1 4z" />
<glyph unicode="u" horiz-adv-x="1085" d="M220 206q-1 17 -1 31q0 29 3 47q5 28 18 87q6 30 20.5 99.5t20.5 98.5l59 283q4 37 14 78q17 70 21 82q4 8 8 8t14.5 -1t16.5 -1l8 -8q-15 -59 -19 -80q-1 -5 -7 -34.5t-7 -41.5l-59 -283q0 -3 -41 -202q-12 -53 -17 -81q-4 -21 -4 -50v-18q2 -41 17 -68q32 -53 127 -80 h-4q55 -17 139 -17q133 0 231 82q114 97 172 301l6 17q84 368 142 557q4 9 8 9q1 0 2 -1q2 0 8.5 -1t9.5 -1h11q8 -8 8 -10q-110 -381 -170 -666q-42 -192 -42 -289q0 -24 3 -43q-5 5 -8 2l-4 -2l-29 -10q-10 0 -12 -2q-1 6 -1 17q0 52 25 200q-49 -62 -96 -109h2 q-118 -100 -276 -100q-84 0 -152 19q-106 31 -143 94q-20 37 -22 87z" />
<glyph unicode="v" horiz-adv-x="997" d="M281 1001q1 1 1.5 2.5l1 3t1.5 1.5l41 14q1 0 2 -2.5t2.5 -7.5t3.5 -8l158 -955h67q105 188 268 488q58 105 267 477v-2l14 8l27 -10h-5q11 -7 7 -11h2l-551 -993v2q-4 -8 -8 -8h-127q-6 0 -11 14z" />
<glyph unicode="w" horiz-adv-x="1640" d="M336 999q-2 4 -2 7q0 6 8 8l29 8q4 0 6.5 -0.5t4 -3t2 -4t1.5 -6.5l-2 2l55 -961h56l483 942l8 4h109q4 0 4 -4l78 -942h63l461 965l-2 -2q2 5 6 8q3 2 6 2h2l31 -8q2 -6 2 -8l-475 -996q-7 -10 -8 -10h-129q-8 0 -11 6h2l-71 944h-45l-488 -944h2q-3 -6 -8 -6h-117 q-7 0 -10 6h2z" />
<glyph unicode="x" horiz-adv-x="1044" d="M172 18q0 11 4 15l426 465l-258 491q-2 3 2 10q4 2 17 11l14 8h2q1 1 3 1t5 -3l252 -479l444 481q2 1 4 1q4 0 9 -3l24 -21q0 -1 -2 -3t-2 -3l-452 -491l247 -467l-2 2q0 -3 -8 -19l-22 -14q-9 0 -13 4l-241 453q-250 -270 -418 -453l-10 -4z" />
<glyph unicode="y" horiz-adv-x="942" d="M45 -395q-1 2 -1 4q0 3 2 6q3 6 7 8q87 32 165 83.5t128 99t93 102t60.5 83.5t30.5 54l-200 954q2 5 4 5l41 16q2 -4 2 -8l188 -901l518 899v-2l17 8l22 -10q5 -9 15 4l-568 -987q-11 -23 -26.5 -51t-59.5 -86t-97 -108.5t-140 -106t-187 -91.5h-8zM1122 1006v2l4 -2h-4z " />
<glyph unicode="z" horiz-adv-x="929" d="M84 10l14 72q2 4 6 6q152 143 943 881h-779q-9 0 -6 10l8 33q0 8 9 8h802q11 0 11 -8l-19 -78q0 -2 -4 -6l-932 -877h723q6 0 6 -10l-6 -31q-3 -10 -10 -10h-758q-9 0 -9 6q0 2 1 4z" />
<glyph unicode="{" horiz-adv-x="561" d="M158 668l8 34q4 11 10 11q17 0 40.5 3.5t67.5 21.5t76 50q65 72 82 164q20 90 11 185q-8 74 10 157q25 118 94 187q33 34 75 60t76 38.5t69 20t49.5 9t21.5 1.5q12 0 12 -8l-10 -41q-5 -5 -12 -5q-6 0 -15.5 -0.5t-38.5 -6.5t-57 -16t-64 -32t-65 -53q-66 -81 -80 -156 q-16 -73 -8 -141q6 -115 -12 -199q-24 -119 -99 -194q-8 -12 -26 -25.5t-32 -22t-46 -26.5q94 -49 121 -102q37 -79 16 -187q-15 -71 -59 -157q-53 -106 -68 -189q-21 -87 10 -160q24 -40 74 -58.5t78 -18.5q3 0 6.5 -4t3.5 -7l-8 -34q0 -4 -5 -7.5t-9 -3.5q-20 0 -49.5 5.5 t-75 30t-68.5 65.5q-35 87 -12 192q18 88 74 203l-2 -2q37 72 53 145q15 80 -13 152q-49 83 -198 108q-8 8 -6 13z" />
<glyph unicode="|" horiz-adv-x="270" d="M102 -186l2 4q239 1073 293 1327q90 421 95 495l2 15l12 18h24q4 -2 4.5 -9t-3 -38t-14.5 -89t-33 -165.5t-56 -265.5q-125 -590 -285 -1288q-3 -6 -8 -6h-26q-7 0 -7 2z" />
<glyph unicode="}" horiz-adv-x="561" d="M-2 -233l6 34q0 3 3.5 7t6.5 4q29 0 87 18t100 59q60 74 80 160q16 87 10 189q-6 90 8 157q20 105 96 187q48 48 158 102q-55 45 -70 74q-39 69 -14 194q13 63 74 203v-4q36 73 51 141q15 83 -8 154q-18 27 -45 48.5t-52.5 32.5t-49 18t-37.5 9l-15 2h-8q-2 6 0 13l8 33 q0 8 12 8q7 0 21 -1.5t46 -9t60.5 -20t59 -38.5t47.5 -60q42 -73 20 -187q-14 -64 -61 -157q-55 -118 -70 -185q-16 -87 13 -164q18 -32 54 -50t58.5 -21.5t40.5 -3.5q10 0 6 -11l-4 -34q-3 -6 -10 -13q-15 0 -48.5 -6.5t-94.5 -33.5t-105 -68q-64 -84 -76 -152 q-13 -60 -10 -145q8 -105 -12 -201q-28 -123 -94 -192q-31 -33 -70 -55.5t-75 -31.5t-56.5 -11.5t-36.5 -2.5q-4 0 -4 11z" />
<glyph unicode="~" horiz-adv-x="1245" d="M215 479q1 6 7 21.5t22 45.5t36.5 58.5t54 58.5t71.5 48q53 22 102 22q134 0 280 -119q153 -110 252 -110q37 0 74 16q27 13 50 37.5t36.5 49t23 48.5t13.5 38t4 16q0 8 10 8h31q8 0 8 -8q-57 -172 -162 -232l2 2q-50 -24 -98 -24q-127 0 -276 116q-143 113 -260 113 q-34 0 -80 -16q-41 -18 -76 -58.5t-50 -70.5t-24 -56l-4 -2q-2 -5 -5.5 -9t-4.5 -3q-2 0 -10.5 1t-10.5 1h-12q-4 0 -2 2q-2 2 -2 6z" />
<glyph unicode="&#xa1;" horiz-adv-x="376" d="M80 -406v-8h33q12 0 12 8l219 1002l-8 8h-29q-1 0 -8 -10v2zM258 879l4 -9q-2 -8 2 -30l6 -9q1 -2 7 -7.5t6 -6.5l2 -4v-4l8 -8h4l16 -10l11 -5q6 -2 18 -2h14q1 0 3 1t3 1q15 0 29 7l15 6q8 4 14 4l22 14l21 17q5 4 9 11t5 9l2 10l2.5 2.5t1.5 -0.5q6 9 6 21l7 22 q3 32 -2 54q2 4 -2 8l-5 8l-10 12l-14 15l-10 6l4 -2q-14 11 -51 14h-23q-2 0 -6 -2l-5 -1q-5 -1 -10 -1l-8 -4v2q-2 -2 -5.5 -3.5t-4.5 -2.5l-2 -2l-6 -4l-10 -7l-2 -4l-5 -6l-18 -14l4 2l-18 -21q-16 -29 -23 -55zM281 815l4 -2l-2 -12zM354 1018q1 0 2.5 1t4.5 4t6 5 q-7 -6 -13 -10zM403 797l3 2h6z" />
<glyph unicode="&#xa2;" horiz-adv-x="884" d="M154.5 267q-22.5 103 5.5 241q62 282 258 410q119 79 297 100l57 270q3 6 12 6h31q7 0 4 -6l-55 -266h43q65 0 127.5 -8t90.5 -14.5t38 -10.5h-4q8 -5 6 -10l-14 -35q-5 -9 -23 -2l10 -20q1 3 -29 14.5t-90.5 23t-123.5 11.5q-95 0 -191 -26t-166 -68 q-84 -58 -143.5 -152.5t-85.5 -216.5q-25 -123 -5.5 -216t77.5 -151q119 -90 305 -90q65 0 132.5 8.5t102.5 16.5l35 8q3 1 5.5 -2t4.5 -8v-27q0 -8 -4 -8q-150 -39 -309 -39l-57 -238q-3 -10 -9 -10h-30q-11 0 -8 10l51 240q-166 21 -256 98q-67 64 -89.5 167z" />
<glyph unicode="&#xa3;" horiz-adv-x="1005" d="M72 25.5q1 15.5 16 27.5h4q1 0 3 1t3 1h101q74 12 137 66h-2q98 84 139 276q18 88 25 299h-267q-4 0 -7 3t-1 6l6 32q0 3 4.5 8t8.5 5h256q-6 169 20 292q44 206 172 306q127 92 293 92q49 0 100.5 -9t78 -17t36.5 -13v-10l2 2l-12 -19l-1 -1v-1l-1 -2v-1l-1 -1l-1 -2 l-1 -2l-1 -1l-1 -2l-1 -2l-1 -2l-1 -2l-1 -3l-1 -2v2q-1 0 -6 1t-7 1l-2 2q-10 0 -12 4q-105 24 -178 24q-152 0 -252 -75q-111 -89 -148 -267q-25 -113 -22 -262q0 -7 10 -30h383q3 0 5.5 -5t2.5 -8l-6 -32q-4 -9 -12 -9h-377q-9 -191 -31 -299q-47 -209 -192 -342h350 q51 0 155 -1t156 -1q6 0 6 -10l-6 -33q-3 -10 -10 -10l-795 2h-102q-8 0 -8 4q-7 4 -6 19.5z" />
<glyph unicode="&#xa4;" horiz-adv-x="1228" d="M166 88q-7 4 2 10l223 191q-50 102 -16 258q25 113 67 180q24 40 54 72l-150 186q-2 3 -2 9t2 7l27 21q2 2 14 2l145 -184q65 54 105 73q106 59 211 56q132 -6 211 -115l217 180q11 5 14 2l17 -22q5 -5 -7 -13l-219 -188q40 -113 9 -260q-27 -136 -115 -248l151 -190 q4 -8 -2 -17l2 2l-22 -20q-8 -5 -21 2l-147 180l-49 -35l-15 -10l2 2q-87 -53 -190 -53q-91 0 -153 17t-113 69l-223 -189h-13zM424 547q-35 -172 36 -253t228 -81q87 0 172 49q135 80 180 291q38 176 -26 270h4q-64 94 -182 97q-97 0 -179 -48v2q-64 -33 -116 -88 q-11 -13 -52 -67q-43 -71 -65 -172z" />
<glyph unicode="&#xa5;" horiz-adv-x="972" d="M158 401l6 29q3 10 8 10h389l55 256h-389q-6 0 -6 6l8 31q0 8 7 8h374l-254 664v-2q-4 14 11 18l26 15q4 0 8 -4l254 -668l533 655l-2 -2q1 3 4 3.5t4 -1.5l31 -20l-6 -6l-527 -652h367q10 0 10 -8l-8 -31q0 -6 -10 -6h-387l-56 -256h387q4 0 7 -3t2 -7l-7 -29 q0 -3 -4.5 -5.5t-7.5 -2.5h-385q-10 -54 -41 -205l-39 -180q0 -8 -10 -8h-27q-10 0 -10 8l78 385h-389q-4 0 -4 8z" />
<glyph unicode="&#xa6;" horiz-adv-x="352" d="M119 -240l168 791q0 6 12 6h29q8 0 8 -6l-168 -791q-4 -8 -10 -8h-29q-5 0 -8 2.5t-2 5.5zM354 872l168 787q0 4 5 8t10 4h28q6 0 6 -12l-168 -787q0 -8 -10 -8h-28q-11 0 -11 8z" />
<glyph unicode="&#xa7;" horiz-adv-x="1077" d="M115 -31l2 2l26 43q6 9 17 4q-2 0 4 -4q1 0 21.5 -7t38 -12t48 -13t60 -14t64.5 -12.5t72.5 -9.5t72.5 -3q127 0 215 53q91 57 118 178q31 160 -36 248q-60 86 -199 110q-187 33 -277 99q-58 42 -76.5 116.5t-2.5 157.5q11 47 36 105h-2q29 53 78 100t109 70 q-29 87 -10 176q37 170 165 248q104 67 263 67q72 0 150 -14.5t118.5 -27t54.5 -19.5q9 -9 6 -15l-28 -45q2 2 -11 11l-18 5q-18 6 -48 13t-66.5 14.5t-83 13t-89.5 5.5q-143 0 -225 -56h2q-100 -53 -133 -200q-21 -109 20 -162q51 -60 263 -127q54 -16 92.5 -29.5t84 -34.5 t75 -43.5t51 -54.5t24.5 -69q3 -33 -2 -60q-30 -138 -246 -354q45 -102 17 -248q-35 -158 -156 -227q-92 -60 -248 -60q-183 0 -391 74h2l-8 4q-11 5 -14 4zM338 905q-14 -70 2 -130.5t66 -94.5v2q87 -60 251 -94q144 -24 228 -121q229 229 223 352q-3 25 -15.5 47t-38.5 41 t-47.5 32t-63 29.5t-64 24l-70.5 23.5q-178 50 -264 112q-52 0 -101 -43t-73 -92q-20 -40 -33 -88zM1251 1595l4 7z" />
<glyph unicode="&#xa8;" horiz-adv-x="1447" d="M422 1257l4 21q1 3 3 10t3 10q1 2 4 7l10 16l-4 -4l15 14l12 8q0 1 1 2.5t2.5 3t2.5 3.5l29 20l24 4q12 6 27 6q1 0 3 1t3 1h17q6 0 18 -4l16 -4l6 -2l15 -14l6 -6l4 -9q4 -2 4 -4l6 -12q2 -8 2 -31l4 -8l-4 -20q-4 -13 -8.5 -24.5t-10 -21.5t-7.5 -14l-15 -18l2 2l-8 -8 l-6 -6l-8 -9l-23 -12l-4 -4l-12 -6h-4l-10 -4h-29q-32 4 -51 18l2 -4l-8 6l-9 8l-12 17l-8 8l-1 6q-1 5 -1 10q-5 17 -2 47zM549 1141l6 4h2zM618 1370l7 -2l4 -4zM629 1364h2h-2zM1335 1257l4 21q1 3 3.5 10t3.5 10q1 2 4 7l10 16l-4 -4l14 14l10 8q0 1 4 4t5 5l28 20l23 4 q15 6 28 6q1 0 3.5 1t3.5 1h14q8 0 20 -4l17 -4l6 -2l14 -14l6 -6l4 -9q5 -2 5 -4l6 -12q2 -8 2 -31l2 -8l-4 -20q-14 -44 -23 -56l-16 -22l2 2l-8 -8l-6 -6l-9 -9l-22 -12l-4 -4l-13 -6h-4l-10 -4h-29q-34 4 -51 18l2 -4l-8 6l-8 8l-14 17l-7 8l-1 6q-1 5 -1 10 q-5 17 -2 47zM1462 1141l6 4h2zM1532 1370l4 -2l4 -4zM1540 1364h4h-4z" />
<glyph unicode="&#xa9;" horiz-adv-x="1515" d="M259.5 441.5q-19.5 116.5 8.5 260.5q21 99 60 185t84.5 147t104 112t111.5 83.5t115 58t106 38t94 21t68.5 10.5t39.5 3h8q29 0 69 -5t107.5 -20t135.5 -54t116 -97q133 -168 72 -461q-21 -99 -59.5 -184.5t-84.5 -147t-103.5 -112t-112 -83.5t-115 -58t-106.5 -38 t-93 -21t-69 -10t-38 -3h-10q-21 0 -65.5 8t-108.5 26t-134 56t-120 88q-61 81 -80.5 197.5zM307 461q18 -107 76 -185q45 -50 110.5 -85.5t128.5 -50t101.5 -20t58.5 -5.5h4q19 0 49.5 2.5t93.5 16.5t124 36.5t135 69t134 108t111.5 159t77.5 216.5q55 264 -67 424 q-45 50 -109.5 86.5t-126 52t-102.5 21.5t-66 6q-23 -1 -50.5 -3.5t-93 -17t-125 -37.5t-134 -70t-133.5 -108.5t-111 -158.5t-78 -216q-26 -134 -8 -241zM600.5 519.5q-16.5 77.5 3.5 180.5q43 203 193 308q118 75 290 75q78 0 177 -18h6q4 -4 10 -4q5 -5 2 -14 q-2 -5 -8 -16.5t-8 -16.5q-6 -4 -6 -2q-89 22 -183 22q-147 0 -258 -67q-61 -42 -104 -111t-62 -156q-41 -187 52 -268q78 -65 223 -65q115 0 196 24h4l9 -14l-4 -21q0 -1 1 -3.5t1 -4.5q-1 -2 -2 -2.5t-3.5 -0.5t-3.5 -1q-140 -27 -211 -27q-157 0 -249 76 q-49 49 -65.5 126.5zM1133 356l43 9q0 -1 1 -5.5t1 -5.5l-43 -4z" />
<glyph unicode="&#xab;" horiz-adv-x="913" d="M162 399q7 39 375 416q3 2 3 3t1 1h4l6 2l20 -18v-6v-11q-304 -311 -362 -389q33 -89 180 -377q2 -4 1 -4h-3q0 -2 -4 -6q-3 -1 -11.5 -7t-9.5 -7q-8 -4 -10 -4q-4 0 -8 4q-191 358 -182 403zM535 399q1 8 25 40t115.5 133t235.5 247h4q9 -2 15 -4q4 -2 6 -4l-8 4l14 -14 q0 -17 -2 -19q-300 -303 -360 -383q10 -31 63 -143t117 -233q0 -1 1 -4.5t1 -4.5l-4 -4l-23 -12q-12 -6 -14 -6t-6 4q-189 361 -180 403zM936 811h4h-4z" />
<glyph unicode="&#xad;" horiz-adv-x="868" d="M291 633l8 33q0 2 2 4q4 4 8 4l533 -2q3 0 5 -2.5t1 -5.5l-6 -33q0 -3 -6 -6q-2 -2 -5 -2l-530 4q-10 0 -10 6z" />
<glyph unicode="&#xae;" horiz-adv-x="1091" d="M272 721q18 85 55 155t80 114t96 77.5t98 50.5t90.5 27t69 12t38.5 2q21 0 46.5 -3t71 -12.5t91 -36t77.5 -65.5q88 -114 48 -305q-18 -85 -55 -154.5t-79.5 -113.5t-96.5 -77.5t-97 -50t-91 -27t-68.5 -12.5t-39.5 -3q-19 0 -45 3t-70.5 13t-90 36.5t-76.5 64.5 q-91 121 -52 305zM319 721q-35 -172 43 -268q30 -35 72.5 -59t84.5 -32.5t63.5 -11t35.5 -2.5h5q12 0 31 1.5t59.5 10t79.5 23t86.5 44t86 69t72 102t49.5 139.5q34 155 -38 275q-38 40 -100.5 64.5t-102 30t-66.5 5.5q-18 -1 -32.5 -2.5t-58.5 -11t-80 -23.5t-84.5 -44 t-85.5 -69.5t-70.5 -102t-49.5 -138.5zM526 524l84 394q14 20 35 20q6 0 13 1t8 1q45 10 73 10q31 -2 66 -18q22 -9 35 -27q26 -54 8 -100q0 -2 -4 -10.5t-4 -10.5l-9 -14l3 2q-6 -9 -50 -53q16 -39 13 -84v-4q-8 -57 10 -90q0 -11 -6 -15h2l-25 -18q-2 -2 -8 -2h-4 q-27 43 -18 125q0 20 2 24q0 14 -1 19t-6.5 8.5t-17.5 3.5q-36 -12 -63 -12h-23l-31 6l-33 -156q-4 -8 -10 -8h-33q-3 0 -5 2.5t-1 5.5zM618 727q29 -6 52 -6q48 3 82 33l6 6q2 1 8.5 5t9 6t8 9.5t11.5 18.5q2 2 6 8q7 18 6.5 36.5t-6.5 26.5l-6 7q-9 9 -19 12 q-3 1 -12.5 4.5t-18.5 5.5t-20 2q-17 0 -33 -4h-37z" />
<glyph unicode="&#xb0;" horiz-adv-x="636" d="M416 1401q19 85 91 144t155 59q84 0 131 -59.5t28 -143.5t-91 -143.5t-155 -59.5t-130.5 60t-28.5 143zM463 1401q-14 -65 21.5 -110.5t101.5 -45.5q63 0 118 46t68 110q14 63 -22 109t-99 46q-65 0 -119.5 -45.5t-68.5 -109.5z" />
<glyph unicode="&#xb1;" horiz-adv-x="1175" d="M68 12l6 31q3 8 12 8l1049 -2q10 0 10 -8l-6 -31q-3 -10 -15 -10l-1048 4q-4 0 -7 2.5t-1 5.5zM176 809l8 31q0 2 4 6q5 2 7 2l550 -2q6 28 31 136.5t35 160.5l59 274q0 8 9 8h30q7 0 9 -2v-6l-125 -571l553 -6q4 0 4 -6l-9 -35q-3 -6 -5 -4t-3 2l-551 2 q-9 -49 -32.5 -155t-32.5 -150l-60 -279q-3 -10 -12 -10l-33 2q-2 0 -4 2v6l125 584q-44 0 -142.5 1t-141.5 1h-263q-10 0 -10 8z" />
<glyph unicode="&#xb4;" horiz-adv-x="296" d="M268 1151l8 41q37 167 74 250v-2q54 111 180 243q11 7 13 5l18 -15v-20q-111 -115 -168 -228q-38 -87 -67 -233l-9 -41q-3 -10 -10 -10h-31q-8 0 -8 10z" />
<glyph unicode="&#xb6;" horiz-adv-x="962" d="M264 1042q23 116 139.5 212.5t288.5 148.5q115 33 193 33q48 0 73 -2h146q4 0 8 -4l-2 -7l-10 -34l2 4q-2 -2 -29.5 -95t-76 -284t-89.5 -387q-85 -392 -127 -740q-8 -8 -12 -8l-27 -2q-4 0 -6 2q-2 0 -2 2q46 359 129 746q97 464 191 762q-78 0 -101 2h-127 q-126 -404 -223 -863q-78 -380 -110 -641q-8 -8 -11 -8l-30 -2q-3 0 -5 2q-2 0 -2 2q40 301 136 752q-162 50 -251.5 164t-64.5 245z" />
<glyph unicode="&#xb7;" horiz-adv-x="509" d="M244 594l4 20q1 3 3 9.5t3 9.5l6 10v2l25 27l14 12l25 16q2 1 6.5 3t9.5 3.5t10 2.5q12 6 29 6l20 2q7 0 19 -4q1 0 5.5 -2t6.5 -2l8 -7l21 -18h2l4 -6q4 -2 4 -4l6 -12q1 -2 4 -37l4 -2l-4 -23q-10 -32 -28 -57l2 4l-17 -23l2 2l-22 -24l-23 -13l19 7l-6 -4l-29 -11h4 q-8 0 -16 -4h-33q-35 3 -51 17l4 -5l-9 7l-20 26l-6 8q-4 4 -4 21q-5 13 -2 43zM350 459q3 12 15 18q1 0 4 1t6 1zM438 702l2 3l4 -3h-6zM444 702l11 -4q-3 0 -11 4z" />
<glyph unicode="&#xb8;" horiz-adv-x="454" d="M-27 -414l13 27q6 9 14 6l10 41q-2 0 10.5 -13t36 -25.5t47.5 -12.5q65 0 111 24q24 13 33 52q8 35 -2 61t-26.5 38.5t-39.5 20t-34.5 8.5t-18.5 1h-25q-2 0 -3.5 1.5t-0.5 2.5q-2 1 -1.5 5t3.5 7v-2l131 160q3 3 9 0l24 -23q0 -6 -2 -10l2 2l-84 -98q63 -21 96 -64.5 t19 -109.5q-12 -62 -59 -91q-52 -34 -144 -34q-50 0 -110 12l4 -2q-1 0 -5.5 2t-5.5 2q-6 3 -2 12z" />
<glyph unicode="&#xbb;" horiz-adv-x="913" d="M160 16l2 2q258 272 348 381q-28 75 -199 383v-2q-3 9 6 23l17 12h4q12 4 16 4q2 0 2 -2q205 -369 197 -418q-5 -20 -100.5 -129.5t-251.5 -273.5q-4 -4 -6 -4q-9 0 -15 6l-14 10q-4 0 -4 6zM535 16q0 3 4 7q206 216 340 376q-50 124 -199 387q0 11 8 17l27 16h4h4 q210 -376 203 -420q-8 -41 -357 -403q-4 -4 -6 -4q-8 2 -10 4l-14 14q-4 4 -4 6z" />
<glyph unicode="&#xbf;" horiz-adv-x="585" d="M-35 -92q18 80 90 155q21 29 88 78l19 19l-6 -8q74 55 118 106q69 95 101 182q9 23 18 74q13 64 13 66q1 -1 3.5 2t4.5 8h2l35 4q2 0 2 -4q2 0 2 -6q-12 -61 -13 -68q-16 -62 -24 -82q-48 -122 -113 -198q-47 -63 -117 -115l-22 -12q-45 -36 -78 -74q-62 -69 -74 -127 q-10 -53 2 -109q26 -103 125 -145h-2q46 -19 94 -19q52 0 113 14.5t93 27t42 18.5q4 0 8 -4v2l9 -27q3 -3 0 -8h2q-163 -70 -277 -70q-57 0 -110 17h2q-115 48 -144 176q-18 67 -6 127zM385 868v13l6 22q8 32 21 55l20 21l-4 -2l16 16l9 8l10 7l6 4l2 2l6 2q-3 1 2 2l10 4 q3 0 8 1l5 1l6 2h24q37 -4 52 -16l-4 4l12 -6l12 -15l4 -8l8 -12q2 -2 2 -15q10 -20 7 -47l-7 -22q0 -12 -6 -21q0 1 -1 0.5t-3 -2.5l-2 -6l-24 -29l-4 -4q0 -1 -4 -3.5t-5 -4.5l-20 -14q-13 0 -19 -6l-14 -4q-14 -7 -24 -7q-1 0 -4.5 -1t-4.5 -1h-14l-20 5q-2 0 -7 2t-8 2 l-10 8h-4l-8 8l-4 6l-5 8q-4 2 -6 4l-8 13zM465 1012l6 2z" />
<glyph unicode="&#xc0;" horiz-adv-x="1232" d="M78 20l753 1405h-2q7 7 13 7h151q3 0 8 -2.5t5 -4.5l165 -1405l-2 3q-6 -12 -8 -13h2l-30 -10q-14 0 -17 6h2l-59 522h-660q-103 -193 -139 -266l-135 -252q-7 -8 -11 -10.5t-5 0.5l-29 10q-5 5 -2 10zM428 578h621l-95 804h-96zM961 2064q-2 2 3 9t9 10l22 14q2 1 5 1 t5 -1.5t1 -3.5q68 -120 77 -244v2q4 -84 -32 -249l-9 -41q-4 -11 -12 -11h-31q-3 0 -5 3.5t-1 7.5l8 41l8 40t8 39t7 39t5 38.5t3 38t0 38.5q-6 120 -71 229z" />
<glyph unicode="&#xc1;" horiz-adv-x="1232" d="M78 20l753 1405h-2q7 7 13 7h151q3 0 8 -2.5t5 -4.5l165 -1405l-2 3q-6 -12 -8 -13h2l-30 -10q-14 0 -17 6h2l-59 522h-660q-103 -193 -139 -266l-135 -252q-7 -8 -11 -10.5t-5 0.5l-29 10q-5 5 -2 10zM428 578h621l-95 804h-96zM850 1561l8 41q36 166 74 249v-2 q55 113 180 244q10 6 12 4l19 -14v-21q-112 -116 -168 -227q-40 -91 -68 -233l-8 -41q-4 -11 -10 -11h-31q-8 0 -8 11z" />
<glyph unicode="&#xc2;" horiz-adv-x="1232" d="M78 20l753 1405h-2q7 7 13 7h151q3 0 8 -2.5t5 -4.5l165 -1405l-2 3q-6 -12 -8 -13h2l-30 -10q-14 0 -17 6h2l-59 522h-660q-103 -193 -139 -266l-135 -252q-7 -8 -11 -10.5t-5 0.5l-29 10q-5 5 -2 10zM428 578h621l-95 804h-96zM725 1571h2l4 12v-2q76 96 127 154 l88 102q8 8 12 8h115q1 0 2.5 -2.5t3.5 -3.5l92 -258v-8l-32 -21q-5 -2 -9 2l-26 74l-66 168h-67l-205 -244v2q-5 -9 -10 -4zM1171 1581v2l3 -2h-3zM1171 1583l3 6z" />
<glyph unicode="&#xc3;" horiz-adv-x="1232" d="M78 20l753 1405h-2q7 7 13 7h151q3 0 8 -2.5t5 -4.5l165 -1405l-2 3q-6 -12 -8 -13h2l-30 -10q-14 0 -17 6h2l-59 522h-660q-103 -193 -139 -266l-135 -252q-7 -8 -11 -10.5t-5 0.5l-29 10q-5 5 -2 10zM428 578h621l-95 804h-96zM682 1575q31 92 102 125h-2q30 10 58 10 q68 0 147 -61q40 -30 82 -42.5t68 -2.5q22 12 37.5 38.5t19.5 45.5q5 10 10 10h33q3 0 5 -2.5t1 -5.5q0 -2 -2 -11t-8 -24.5t-15 -31t-24.5 -31.5t-34.5 -25q-27 -19 -59 -19q-63 0 -146 60q-100 74 -151 51q-23 -13 -41.5 -34t-25.5 -35l-7 -15q0 -4 -4 -7t-6 -3 q-3 0 -10 1t-9 1h-12q-3 0 -5 2.5t-1 5.5z" />
<glyph unicode="&#xc4;" horiz-adv-x="1345" d="M154 14l753 1405h-2q6 6 13 6h151q3 0 7.5 -2.5t4.5 -3.5l166 -1405l-2 2q-5 -11 -8 -12h2l-31 -10q-13 0 -16 6h2l-59 522h-660q-103 -193 -139 -266l-135 -252q-7 -7 -11.5 -10t-5.5 0l-28 10q-5 5 -2 10zM504 571h620l-94 805h-96zM508 1665l6 23q0 11 6 20q0 -2 4 2 l2 6l23 27l16 12l25 19l22 8q15 6 31 6q1 0 3 1t3 1h15q12 0 18 -2l8 -4l19 -8l12 -11l4 -6l4 -10q4 -2 6 -4l4 -12l2 -4v-25l2 -8l-4 -23q-9 -29 -20 -53l-19 -23l5 2l-25 -24l-29 -19q-4 -1 -8 -1q-3 0 -4 -1h6q-6 0 -18 -4h-27q-28 3 -53 17l4 -4l-10 6l-6 6l-5 8l-10 12 l-4 9q-6 3 -6 20q-5 13 -2 41zM612 1530q5 14 15 20q1 0 5 1t7 1zM1313 1665l6 23q0 12 8 20q0 -2 4 2l2 6l21 27l16 12l32 22l-1 -1l18 6q15 6 29 6q1 0 3 1t3 1h14q3 0 23 -4q2 0 5 -2t5 -2l12 -6l13 -11l4 -6l4 -10q4 -2 6 -4l6 -12q4 -10 4 -29l2 -8l-4 -25 q-9 -35 -26 -55l4 4l-21 -23l4 2l-24 -24l-19 -12l-8 -4q-2 -1 -3.5 -2t-2.5 -2t-2 -1q-6 0 -14 -4h-33q-31 3 -49 15l4 -2l-10 6l-9 8l-14 18l-4 9q-4 4 -4 20q-4 10 -4 41zM1419 1530q5 14 17 20l4 1q4 1 8 1zM1448 1552l2 2h2zM1452 1554h2h-2z" />
<glyph unicode="&#xc5;" horiz-adv-x="1204" d="M78 20l753 1405h-2q7 7 13 7h151q3 0 8 -2.5t5 -4.5l165 -1405l-2 3q-6 -12 -8 -13h2l-30 -10q-14 0 -17 6h2l-59 522h-660q-103 -193 -139 -266l-135 -252q-7 -8 -11 -10.5t-5 0.5l-29 10q-5 5 -2 10zM428 578h621l-95 804h-96zM899 1776q10 49 52.5 83.5t90.5 34.5 q51 0 79 -34.5t18 -83.5t-53.5 -84t-94.5 -35q-48 0 -75 35t-17 84zM920 1776q-8 -37 15 -67t60 -30q40 0 74.5 29.5t42.5 67.5q9 41 -12.5 67.5t-63.5 26.5q-38 0 -72.5 -27t-43.5 -67z" />
<glyph unicode="&#xc6;" horiz-adv-x="1554" d="M92 16q0 3 4 7q124 234 376 700t376 700h-2q7 7 12 7h909q9 0 9 -11l-7 -30q-4 -11 -12 -11h-725l72 -598h479q3 0 5 -3.5t1 -6.5l-6 -31q0 -10 -10 -10h-465l78 -674h323q3 0 6.5 -3.5t2.5 -6.5l-7 -33q-4 -8 -12 -8h-358q-5 0 -7 2.5t-1 5.5l2 15l-52 475h-675 q-45 -81 -271 -496h2q-3 -6 -14 -6l-27 10q-2 2 -2 0zM432 551h641l-59 479q-7 58 -20.5 176.5t-20.5 171.5h-96q-37 -70 -129 -237t-136 -250z" />
<glyph unicode="&#xc7;" horiz-adv-x="1236" d="M255 367q-31 147 9 342q41 189 137.5 340t231.5 243q215 140 508 140q81 0 163 -11.5t120 -21.5t44 -13q11 -6 7 -10l-15 -28q-7 -10 -20 -2q-1 0 -23.5 5t-47.5 9t-61.5 9t-82 8t-92.5 3q-133 0 -260 -35t-224 -96q-122 -85 -209.5 -224t-124.5 -316q-35 -182 -7 -316.5 t110 -222.5q141 -119 407 -119q181 0 357 45q6 0 10 -4v-2l4 -29q-3 -8 0 -8q-20 -7 -66 -17.5t-137.5 -23t-177.5 -12.5q-274 0 -434 131q-95 89 -126 236zM395 -389l13 27q6 9 14 6l10 41q-2 0 10.5 -13t36 -26t47.5 -13q63 0 111 25q24 13 33 51q8 35 -2 61t-26.5 38.5 t-39.5 20t-34.5 8.5t-18.5 1h-25q-8 0 -4 4q-2 1 -1.5 5.5t3.5 7.5v-2l131 159q3 3 9 0l24 -22q0 -6 -2 -10l2 2l-84 -99q63 -21 96 -64.5t19 -109.5q-12 -60 -60 -90q-53 -35 -143 -35q-46 0 -111 13l5 -3q-1 0 -5.5 2.5t-5.5 2.5q-6 3 -2 12z" />
<glyph unicode="&#xc8;" horiz-adv-x="999" d="M168 8l301 1415q5 11 14 11h756q4 0 7 -4t1 -7l-6 -32q-5 -9 -12 -9h-717l-129 -602h672q5 0 8 -3.5t2 -6.5l-6 -33q0 -8 -15 -8h-671l-144 -678h754q8 0 8 -10l-8 -33q0 -8 -10 -8h-793q-12 0 -12 8zM918 2208q-2 2 3 8.5t9 9.5l22 15q2 1 5 0.5t5 -2t1 -3.5 q68 -121 77 -243v2q4 -85 -32 -250l-9 -41q-3 -10 -12 -10h-31q-9 0 -6 10l8 41l8 40t8 39t7 39t5 38.5t3 38t0 38.5q-6 121 -71 230z" />
<glyph unicode="&#xc9;" horiz-adv-x="983" d="M168 8l301 1415q5 11 14 11h756q4 0 7 -4t1 -7l-6 -32q-5 -9 -12 -9h-717l-129 -602h672q5 0 8 -3.5t2 -6.5l-6 -33q0 -8 -15 -8h-671l-144 -678h754q8 0 8 -10l-8 -33q0 -8 -10 -8h-793q-12 0 -12 8zM725 1561l8 41q36 166 74 249v-2q55 113 180 244q10 6 12 4l19 -14 v-21q-112 -116 -168 -227q-40 -91 -68 -233l-8 -41q-4 -11 -10 -11h-31q-8 0 -8 11z" />
<glyph unicode="&#xca;" horiz-adv-x="983" d="M168 8l301 1415q5 11 14 11h756q4 0 7 -4t1 -7l-6 -32q-5 -9 -12 -9h-717l-129 -602h672q5 0 8 -3.5t2 -6.5l-6 -33q0 -8 -15 -8h-671l-144 -678h754q8 0 8 -10l-8 -33q0 -8 -10 -8h-793q-12 0 -12 8zM600 1571h2l4 12v-2q76 96 127 154l88 102q8 8 13 8h114 q1 0 2.5 -2.5t3.5 -3.5l93 -258v-8l-33 -21q-4 -2 -8 2l-27 74l-66 168h-67l-205 -244v2q-5 -9 -10 -4zM1047 1581v2l2 -2h-2zM1047 1583l2 6z" />
<glyph unicode="&#xcb;" horiz-adv-x="983" d="M166 2l301 1415q5 10 14 10h756q4 0 7 -3.5t1 -6.5l-6 -33q-4 -8 -12 -8h-717l-129 -602h672q5 0 8 -3.5t2 -6.5l-6 -33q0 -8 -15 -8h-671l-144 -678h754q8 0 8 -10l-8 -33q0 -8 -10 -8h-793q-12 0 -12 8zM483 1624q-3 13 0 41l6 23q0 9 7 20q0 1 1 3t1 3l2 2l20 27 l17 12l33 22l-1 -1l-4 -2l9 4q8 3 14 4q15 6 26 6q1 0 3.5 1t3.5 1h16q4 0 20 -4q1 0 5 -2t6 -2l14 -6l12 -11l4 -6l4 -10q5 -2 7 -4l4 -12q4 -10 4 -29l2 -8l-4 -23q-10 -37 -27 -57l4 4l-18 -23l4 2l-25 -24l-12 -6l-6 -6l-10 -7q-3 -1 -6.5 -1t-4.5 -1q-2 -1 -6 -2t-6 -2 h-31q-31 4 -49 17l4 -4l-10 6l-10 8l-14 18l-5 9q-4 4 -4 20zM588 1530q4 14 14 20l4 1q4 1 8 1zM1061 1665l6 23q0 11 6 20q0 -2 4 2l2 6l21 27l16 12l27 19l22 8q15 6 29 6q1 0 4 1t4 1h15q14 0 20 -2q1 0 3 -1t3 -1l2 -4l-2 2l17 -8l14 -11l4 -6l4 -10q4 -2 6 -4l4 -12 l6 -25q-1 -4 -1 -8q0 -3 -1 -4l-4 -23q-9 -29 -20 -53l-19 -23l4 2l-24 -24l-31 -19q-3 -1 -6 -1t-4 -1h6q-6 0 -18 -4h-29q-25 2 -51 17l4 -4l-10 6l-23 26l-4 9q-4 4 -4 20q-5 13 -2 41zM1165 1530q5 14 15 20l4 1q4 1 8 1zM1245 1782h4h-4z" />
<glyph unicode="&#xcc;" horiz-adv-x="344" d="M150 8l301 1415q5 9 10 9h33q3 0 5 -3t1 -6l-301 -1415q0 -8 -9 -8h-32q-8 0 -8 8zM500 2208q-2 2 3 8.5t9 9.5l23 15q3 2 7 0t3 -5q69 -123 78 -243v2q4 -82 -33 -250l-8 -41q-3 -10 -13 -10h-30q-10 0 -7 10l9 41q1 6 7 34.5t7 33.5t6 33.5t5 33.5t3.5 33t2 32.5 t-0.5 32.5q-6 121 -71 230z" />
<glyph unicode="&#xcd;" horiz-adv-x="387" d="M170 8l301 1415q5 9 10 9h33q3 0 5 -3t1 -6l-301 -1415q0 -8 -8 -8h-33q-8 0 -8 8zM428 1561l8 41q36 166 74 249v-2q55 113 180 244q10 6 12 4l19 -14v-21q-112 -116 -168 -227q-40 -91 -68 -233l-8 -41q-4 -11 -10 -11h-31q-8 0 -8 11z" />
<glyph unicode="&#xce;" horiz-adv-x="387" d="M170 8l301 1415q5 9 10 9h33q3 0 5 -3t1 -6l-301 -1415q0 -8 -8 -8h-33q-8 0 -8 8zM305 1571h2l4 12v-2q76 96 127 154l88 102q8 8 13 8h114q1 0 2.5 -2.5t3.5 -3.5l93 -258v-8l-33 -21q-4 -2 -8 2l-27 74l-66 168h-67l-205 -244v2q-5 -9 -10 -4zM752 1581v2l2 -2h-2z M752 1583l2 6z" />
<glyph unicode="&#xcf;" horiz-adv-x="720" d="M338 8l301 1415q5 9 8 9h33q3 0 5 -3t1 -6l-301 -1415q0 -8 -8 -8h-33q-6 0 -6 8zM393 1624q-3 13 0 41l6 23q0 9 7 20l2 2l2 6l20 27l19 12l30 22v-1l-4 -2l9 4q8 3 14 4q15 6 28 6q1 0 3 1t3 1h15q4 0 20 -4q1 0 5 -2t6 -2l16 -6l10 -11l4 -6l4 -10q4 -2 6 -4l5 -12 q4 -10 4 -29l2 -8l-4 -23q-10 -37 -27 -57l4 4l-18 -23l4 2l-25 -24l-10 -6l-8 -6l-10 -7q-3 -1 -6.5 -1t-4.5 -1h6q-6 0 -18 -4h-29q-25 2 -51 17l4 -4l-10 6l-8 8l-17 18l-4 9q-4 4 -4 20zM498 1530q4 14 14 20l4 1q4 1 8 1zM807 1665l6 23q0 11 6 20q0 -2 4 2q0 4 -2 4 l21 27l18 14l34 22l-1 -1l-4 -2q1 0 8.5 3.5t13.5 4.5q15 6 27 6q1 0 3 1t3 1h17q4 0 20 -4q1 0 4.5 -2t5.5 -2l15 -6l10 -11l6 -6l4 -10q4 -2 6 -4l4 -12q4 -10 4 -29l2 -8l-4 -23q-10 -38 -26 -57l4 4l-19 -23l4 2l-26 -24l-8 -6l-19 -13q-3 -1 -6 -1t-4 -1q-2 -1 -6 -2 t-6 -2h-33q-31 4 -47 17l4 -4l-10 6l-11 8l-14 18l-4 9q-2 8 -2 18q-5 15 -2 43zM911 1530q5 14 15 20l4 1q4 1 8 1z" />
<glyph unicode="&#xd0;" horiz-adv-x="1503" d="M221 635l6 29l4 4q4 4 9 4l530 -2q9 0 6 -6l-6 -31q0 -5 -6 -8q-2 -2 -4 -2l-529 4q-10 0 -10 8zM309 35l291 1366q0 3 6 6l15 2q1 0 7.5 1t8.5 1q137 21 250 21q55 0 106.5 -4t112.5 -15t114.5 -28.5t107 -47t95.5 -68t75 -93.5t50 -121.5t16.5 -155t-22.5 -190.5 q-27 -128 -78 -233t-113 -177t-140.5 -127t-154 -87t-160.5 -52t-153.5 -26.5t-138.5 -6.5q-168 0 -276 27q-2 0 -8.5 1t-8.5 1q-2 2 -2 6zM358 74l11 8v2v-2l24 20l13 -14l-33 -12l12 -13q-1 0 -4 1.5t-6 1.5q-4 0 -8.5 2t-6.5 4zM365 66q168 -19 247 -19q78 0 150.5 7.5 t152.5 28t150.5 52.5t139.5 84t123.5 119.5t98.5 162t68 208.5q20 95 20.5 177.5t-15.5 144.5t-47 113.5t-70.5 87t-90.5 63t-101 44t-107.5 26.5t-106.5 13.5t-100 3.5q-89 0 -236 -16z" />
<glyph unicode="&#xd1;" horiz-adv-x="1376" d="M170 8l301 1413q0 9 12 9h107q4 0 4 -5l532 -1370q3 0 23 1t22 1l287 1348q5 10 15 10h32q3 0 5 -3.5t1 -6.5l-294 -1387q0 -10 -13 -10l-108 -6q-11 0 -11 6l-528 1372h-45l-293 -1372q0 -8 -10 -8h-29q-10 0 -10 8zM754 1575q31 92 102 125h-2q30 10 57 10 q69 0 148 -61q40 -30 81.5 -42.5t67.5 -2.5q22 12 38 38.5t20 45.5q5 10 10 10h33q3 0 5 -2.5t1 -5.5q0 -2 -2 -11t-8 -24.5t-15 -31t-24.5 -31.5t-34.5 -25q-27 -19 -60 -19q-62 0 -145 60q-100 75 -152 51q-23 -13 -41 -34t-25 -35l-7 -15q0 -4 -4 -7t-6 -3q-3 0 -10 1 t-9 1h-12q-3 0 -5 2.5t-1 5.5z" />
<glyph unicode="&#xd2;" horiz-adv-x="1478" d="M249 421.5q-17 120.5 11 252.5q31 144 110 280.5t186.5 241t243 169t271.5 67.5q94 -7 175 -41.5t138.5 -89t101 -126.5t63.5 -154t25 -170.5t-15 -176.5q-28 -133 -94 -253t-162 -212q-113 -99 -257.5 -154t-277.5 -55q-149 6 -263.5 58t-178.5 151v-2q-60 94 -77 214.5 zM309 674q-55 -262 58 -434h-2q60 -90 166 -139t247 -52q291 6 494 191q90 84 152.5 196t88.5 238q20 82 17 165t-20.5 159t-58 143t-94.5 118t-130 83.5t-166 39.5q-136 -11 -265 -76.5t-225.5 -165t-165.5 -221t-96 -245.5zM1114 2208q-2 2 3 8.5t9 9.5l23 15q3 2 7 0 t3 -5q69 -123 78 -243v2q4 -82 -33 -250l-8 -41q-3 -10 -12 -10h-31q-9 0 -6 10l8 41l8 40t8 39t7 39t5 38.5t3 38t0 38.5q-6 119 -72 230z" />
<glyph unicode="&#xd3;" horiz-adv-x="1529" d="M249 421.5q-17 120.5 11 252.5q31 144 110 280.5t186.5 241t243 169t271.5 67.5q94 -7 175 -41.5t138.5 -89t101 -126.5t63.5 -154t25 -170.5t-15 -176.5q-28 -133 -94 -253t-162 -212q-113 -99 -257.5 -154t-277.5 -55q-149 6 -263.5 58t-178.5 151v-2q-60 94 -77 214.5 zM309 674q-55 -262 58 -434h-2q60 -90 166 -139t247 -52q291 6 494 191q90 84 152.5 196t88.5 238q20 82 17 165t-20.5 159t-58 143t-94.5 118t-130 83.5t-166 39.5q-136 -11 -265 -76.5t-225.5 -165t-165.5 -221t-96 -245.5zM999 1561l9 41q37 170 73 249v-2 q54 111 181 244q10 6 12 4l18 -14v-21q-112 -116 -168 -227q-38 -87 -67 -233l-8 -41q-4 -11 -11 -11h-30q-9 0 -9 11z" />
<glyph unicode="&#xd4;" horiz-adv-x="1529" d="M249 421.5q-17 120.5 11 252.5q31 144 110 280.5t186.5 241t243 169t271.5 67.5q94 -7 175 -41.5t138.5 -89t101 -126.5t63.5 -154t25 -170.5t-15 -176.5q-28 -133 -94 -253t-162 -212q-113 -99 -257.5 -154t-277.5 -55q-149 6 -263.5 58t-178.5 151v-2q-60 94 -77 214.5 zM309 674q-55 -262 58 -434h-2q60 -90 166 -139t247 -52q291 6 494 191q90 84 152.5 196t88.5 238q20 82 17 165t-20.5 159t-58 143t-94.5 118t-130 83.5t-166 39.5q-136 -11 -265 -76.5t-225.5 -165t-165.5 -221t-96 -245.5zM872 1571h2q-1 0 1 4l4 8v-2q76 96 127 154 l88 102q8 8 12 8h115q1 0 2.5 -2.5t3.5 -3.5l92 -258v-8l-33 -21q-4 -2 -8 2l-27 74l-65 168h-68l-205 -244v2q-5 -9 -10 -4zM1319 1581v2l2 -2h-2zM1319 1583l2 6z" />
<glyph unicode="&#xd5;" horiz-adv-x="1529" d="M249 421.5q-17 120.5 11 252.5q31 144 110 280.5t186.5 241t243 169t271.5 67.5q94 -7 175 -41.5t138.5 -89t101 -126.5t63.5 -154t25 -170.5t-15 -176.5q-28 -133 -94 -253t-162 -212q-113 -99 -257.5 -154t-277.5 -55q-149 6 -263.5 58t-178.5 151v-2q-60 94 -77 214.5 zM309 674q-55 -262 58 -434h-2q60 -90 166 -139t247 -52q291 6 494 191q90 84 152.5 196t88.5 238q20 82 17 165t-20.5 159t-58 143t-94.5 118t-130 83.5t-166 39.5q-136 -11 -265 -76.5t-225.5 -165t-165.5 -221t-96 -245.5zM831 1575q31 92 103 125h-2q30 10 57 10 q69 0 148 -61q40 -30 81.5 -42.5t67.5 -2.5q22 12 37.5 38.5t19.5 45.5q5 10 11 10h32q3 0 5.5 -2.5t1.5 -5.5q0 -2 -2 -11t-8 -24.5t-15 -31t-24.5 -31.5t-34.5 -25q-27 -19 -60 -19q-62 0 -145 60q-100 75 -152 51q-23 -13 -41 -34t-25 -35l-7 -15q0 -4 -4.5 -7t-6.5 -3 q-3 0 -9.5 1t-8.5 1h-12q-3 0 -5.5 2.5t-1.5 5.5z" />
<glyph unicode="&#xd6;" horiz-adv-x="1519" d="M249 415.5q-17 120.5 11 252.5q31 144 110 280.5t186.5 240.5t243 168.5t271.5 67.5q94 -7 174.5 -41t138.5 -89t101.5 -127t63.5 -153.5t25 -170t-15 -176.5q-28 -133 -94 -253t-162 -212q-113 -99 -257.5 -154t-277.5 -55q-149 6 -263.5 58t-178.5 151v-2 q-60 94 -77 214.5zM309 668q-55 -263 58 -435h-2q122 -184 413 -190q292 6 494 190q89 83 152 196t89 239q20 82 17 165t-20.5 159t-58 143t-94.5 118t-130 83.5t-166 39.5q-136 -11 -265 -76.5t-225.5 -165t-165.5 -221t-96 -245.5zM600 1665l6 23q0 11 6 20q0 -1 1 -0.5 t3 2.5l2 6l21 27l18 12l31 21l21 6q15 6 26 6q1 0 3 1t3 1h15q4 0 20 -4q1 0 4.5 -2t5.5 -2l11 -6l16 -11l4 -6l4 -10q4 -2 6 -4l4 -12q5 -13 5 -29l2 -8l-4 -25q-9 -34 -27 -55l4 4l-18 -23l4 2l-25 -24l-20 -12l-9 -7q-3 -1 -6 -1t-4 -1h6q-6 0 -18 -4h-31q-23 2 -49 17 l4 -4l-10 6l-8 8l-17 18l-4 9q-4 4 -4 20q-5 13 -2 41zM707 1530q4 14 14 20q1 0 5 1t7 1zM797 1776v2l4 -2h-4zM801 1776l10 -4q-1 0 -2 0.5t-3.5 1.5t-4.5 2zM1407 1665l6 23q0 11 6 20q0 -2 4 2l2 6l27 31l10 8l32 22l-1 -1l-4 -2q1 0 8.5 3.5t13.5 4.5q18 6 31 6 q1 0 3 1t3 1h13q4 0 20 -4q1 0 5 -2t7 -2l15 -6l12 -11l4 -6l4 -10l4 -6l4 -10q4 -10 4 -29l2 -8l-4 -25q-9 -35 -26 -55l4 4l-23 -29q-4 -4 -4 -6l-2 -2l-8 -8l-29 -19q-4 -1 -8 -1q-3 0 -4 -1q-2 -1 -6 -2t-6 -2h-27q-28 3 -53 17l4 -4l-10 6l-8 8l-13 14v6q-10 13 -10 27 q-5 13 -2 41zM1417 1595l2 -4l2 -10zM1511 1530q5 14 15 20l4 1q4 1 8 1z" />
<glyph unicode="&#xd7;" horiz-adv-x="1329" d="M197 231l1218 1006q10 5 15 -4l16 -16q6 -3 -4 -17l-1217 -1001q-8 -8 -12 0l-14 20q-11 3 -2 12zM406 1202q-4 12 4 15l24 20q4 4 12 0l793 -1004q4 -4 -6 -14l-27 -20q-6 -6 -12 0z" />
<glyph unicode="&#xd8;" horiz-adv-x="1492" d="M230.5 415q-16.5 121 11.5 253q31 144 110 280.5t186.5 240.5t243 168.5t271.5 67.5q94 -7 174.5 -41t138.5 -89t101.5 -127t63 -153.5t24.5 -170t-15 -176.5q-28 -133 -94 -253t-162 -212q-113 -99 -257.5 -154t-276.5 -55q-149 6 -264 58t-179 151v-2q-60 93 -76.5 214 zM291 668q-55 -264 57 -435h-2q60 -90 166 -138.5t248 -51.5q291 6 493 190q90 84 153 197t89 238q20 82 17 165t-20.5 159t-58 143t-95 118t-130.5 83.5t-166 39.5q-136 -11 -264.5 -76.5t-225.5 -165t-165.5 -221t-95.5 -245.5zM359.5 -98q0.5 2 2.5 4l973 1626q11 6 15 4 l24 -10l-2 -4l-969 -1624l-18 -13l-23 13q-1 0 -2 1t-0.5 3z" />
<glyph unicode="&#xd9;" horiz-adv-x="993" d="M272 526l189 887q3 8 8 8h31q3 0 5 -2.5t1 -5.5l-189 -889l-4.5 -27t-5.5 -58.5t-1 -82t14.5 -88t35.5 -86.5q51 -63 137 -99t197 -36q181 0 314 109q46 39 84 91t59.5 97t36.5 87t20.5 64t5.5 25l193 903q5 9 12 9h29q10 -5 8 -9l-192 -903q0 -5 -6 -29.5t-23 -69.5 t-41 -93.5t-66.5 -104t-93.5 -98.5q-152 -125 -348 -125q-254 0 -367 147q-97 142 -43 379zM1014 2208q-2 2 3 8.5t9 9.5l23 15q3 2 7 0t3 -5q69 -123 78 -243v2q4 -82 -33 -250l-8 -41q-3 -10 -13 -10h-30q-9 0 -6 10l8 41q1 6 7 34.5t7 33.5t6 33.5t5 33.5t3.5 33t2 32.5 t-0.5 32.5q-6 121 -71 230z" />
<glyph unicode="&#xda;" horiz-adv-x="1298" d="M272 526l189 887q3 8 8 8h31q3 0 5 -2.5t1 -5.5l-189 -889l-4.5 -27t-5.5 -58.5t-1 -82t14.5 -88t35.5 -86.5q51 -63 137 -99t197 -36q181 0 314 109q46 39 84 91t59.5 97t36.5 87t20.5 64t5.5 25l193 903q5 9 12 9h29q10 -5 8 -9l-192 -903q0 -5 -6 -29.5t-23 -69.5 t-41 -93.5t-66.5 -104t-93.5 -98.5q-152 -125 -348 -125q-254 0 -367 147q-97 142 -43 379zM883 1561l8 41q36 166 74 249v-2q55 113 180 244q10 6 12 4l19 -14v-21q-112 -116 -168 -227q-40 -91 -68 -233l-8 -41q-4 -11 -10 -11h-31q-8 0 -8 11z" />
<glyph unicode="&#xdb;" horiz-adv-x="1298" d="M272 526l189 887q3 8 8 8h31q3 0 5 -2.5t1 -5.5l-189 -889l-4.5 -27t-5.5 -58.5t-1 -82t14.5 -88t35.5 -86.5q51 -63 137 -99t197 -36q181 0 314 109q46 39 84 91t59.5 97t36.5 87t20.5 64t5.5 25l193 903q5 9 12 9h29q10 -5 8 -9l-192 -903q0 -5 -6 -29.5t-23 -69.5 t-41 -93.5t-66.5 -104t-93.5 -98.5q-152 -125 -348 -125q-254 0 -367 147q-97 142 -43 379zM758 1571h2l4 12v-2q76 96 127 154l88 102q8 8 12 8h115q1 0 2.5 -2.5t3.5 -3.5l92 -258v-8l-33 -21q-4 -2 -8 2l-26 74l-66 168h-67l-205 -244v2q-1 -3 -5.5 -4.5t-5.5 0.5z M1204 1581v2l2 -2h-2zM1204 1583l2 6z" />
<glyph unicode="&#xdc;" horiz-adv-x="1298" d="M272 526l189 887q3 8 8 8h31q3 0 5 -2.5t1 -5.5l-189 -889l-4.5 -27t-5.5 -58.5t-1 -82t14.5 -88t35.5 -86.5q51 -63 137 -99t197 -36q181 0 314 109q46 39 84 91t59.5 97t36.5 87t20.5 64t5.5 25l193 903q5 9 12 9h29q10 -5 8 -9l-192 -903q0 -5 -6 -29.5t-23 -69.5 t-41 -93.5t-66.5 -104t-93.5 -98.5q-152 -125 -348 -125q-254 0 -367 147q-97 142 -43 379zM434 1667l4 21q1 3 3 10t3 10l15 23l-4 -5l14 15l12 8q0 1 2.5 3.5t3.5 4.5l29 21l25 4q12 6 26 6q1 0 3 1t3 1h17q6 0 18 -4l17 -4l6 -2l14 -15l6 -6l4 -8q4 -2 4 -4l7 -12 q2 -8 2 -31l4 -8l-4 -21q-4 -13 -9 -24t-10.5 -20.5t-7.5 -14.5l-14 -19l2 2l-8 -8l-7 -6l-8 -8l-22 -12l-4 -4l-13 -7h-4l-10 -4h-29q-30 3 -51 19l2 -4l-8 6l-8 8l-13 16l-8 9l-1 6q-1 5 -1 10q-5 17 -2 47zM561 1550l6 4h2zM631 1780l6 -2l4 -4zM641 1774h2h-2z M1348 1667l4 21q1 3 3 10t3 10q1 2 4 7l10 16l-4 -5l14 15l11 8q0 1 3.5 3.5t4.5 4.5l29 21l22 4q15 6 29 6q1 0 3 1t3 1h14q9 0 21 -4l16 -4l6 -2l15 -15l6 -6l4 -8q4 -2 4 -4l6 -12q2 -8 2 -31l2 -8l-4 -21q-14 -42 -23 -55l-16 -23l2 2l-8 -8l-6 -6l-8 -8l-23 -12l-4 -4 l-12 -7h-4l-11 -4h-28q-34 4 -52 19l3 -4l-9 6l-8 8l-14 16l-6 9l-1 6q-1 5 -1 10q-5 17 -2 47zM1475 1550l6 4h2zM1544 1780l4 -2l4 -4zM1552 1774h4h-4z" />
<glyph unicode="&#xdd;" horiz-adv-x="1062" d="M346 1411l37 16q12 4 12 3l281 -744l604 744q5 5 10 2l2 -2l25 -17l-2 -8l-629 -770q-6 -28 -30.5 -147t-34.5 -173q-35 -178 -64 -307q0 -8 -8 -8h-27q-10 0 -10 8l129 627l-291 772l-2 -4zM766 1561l8 41q36 166 74 249v-2q55 113 180 244q10 6 12 4l19 -14v-21 q-112 -116 -168 -227q-40 -91 -68 -233l-8 -41q-4 -11 -10 -11h-31q-8 0 -8 11z" />
<glyph unicode="&#xde;" horiz-adv-x="1003" d="M168 8l313 1469q0 8 13 8h28q4 0 4 -8l-69 -326q117 129 247 205t236 76q135 0 211 -117q73 -144 25 -367l-2 -4q-49 -237 -181 -366q-112 -115 -258 -115q-105 0 -204.5 75.5t-161.5 200.5l-156 -731q0 -8 -6 -8h-29q-10 0 -10 8zM414 946q-18 -90 2.5 -173t68 -140.5 t116 -92t142.5 -34.5q128 0 226 98q111 111 164 342q44 226 -21 342q-58 98 -182 98q-100 0 -208.5 -56.5t-195 -160t-112.5 -223.5z" />
<glyph unicode="&#xdf;" horiz-adv-x="1107" d="M160 8l221 1039q54 253 192 364q125 99 334 96q111 -3 207.5 -73t102.5 -168q2 -58 -40.5 -124t-146.5 -124q-92 -60 -135 -105q-32 -45 -39 -77q-7 -44 -2 -76q4 -23 16.5 -44.5t25 -34.5t34.5 -32l26 -26l2 -2q64 -66 86.5 -167.5t-2.5 -215.5q-22 -108 -108 -168 q-109 -64 -254 -64h-12q-4 0 -11 1t-10 1h-12q-5 5 -4 6l18 41q3 3 10 0h31q134 0 221 54q68 50 84 129q23 105 2.5 197.5t-79.5 152.5l-27 24q-24 22 -37 36.5t-28.5 41.5t-20.5 55v-4q-3 59 4 95q14 59 51 102l-2 -2q36 39 81 74t77 51l-2 -2q65 33 110.5 82t42.5 108 q-6 77 -90 141.5t-182 67.5q-186 6 -295 -82q-121 -97 -170 -329l-221 -1039q0 -8 -10 -8h-29q-10 0 -10 8zM958 621v2l13 -5z" />
<glyph unicode="&#xe0;" d="M223 487q48 231 178 369q120 117 265 117q106 0 205 -76.5t159 -206.5l70 326q0 8 10 8h29q6 0 6 -8l-215 -1008q0 -8 -8 -8h-29q-8 0 -8 8l57 271q-113 -126 -244 -202.5t-237 -76.5q-69 0 -126 30.5t-91 84.5q-69 147 -21 372zM266 483q-46 -223 19 -340 q53 -100 184 -100q100 0 209 57t196 160.5t113 222.5q18 91 -2.5 174.5t-68.5 142t-116.5 93.5t-142.5 35q-126 0 -227 -101q-115 -118 -164 -344zM803 1655q-1 1 3 8t9 10l23 15q3 2 7 0t3 -5q69 -123 78 -243v2q4 -82 -33 -250l-8 -41q-3 -10 -13 -10h-30q-9 0 -6 10l8 41 q1 6 7 34.5t7 33.5t6 33.5t5 33.5t3.5 33t2 32.5t-0.5 32.5q-6 121 -71 230z" />
<glyph unicode="&#xe1;" d="M223 487q48 231 178 369q120 117 265 117q106 0 205 -76.5t159 -206.5l70 326q0 8 10 8h29q6 0 6 -8l-215 -1008q0 -8 -8 -8h-29q-8 0 -8 8l57 271q-113 -126 -244 -202.5t-237 -76.5q-69 0 -126 30.5t-91 84.5q-69 147 -21 372zM266 483q-46 -223 19 -340 q53 -100 184 -100q100 0 209 57t196 160.5t113 222.5q18 91 -2.5 174.5t-68.5 142t-116.5 93.5t-142.5 35q-126 0 -227 -101q-115 -118 -164 -344zM692 1151l8 41q37 167 74 250v-2q54 111 180 243q11 7 13 5l18 -15v-20q-111 -115 -168 -228q-38 -87 -67 -233l-9 -41 q-3 -10 -10 -10h-31q-8 0 -8 10z" />
<glyph unicode="&#xe2;" d="M223 487q48 231 178 369q120 117 265 117q106 0 205 -76.5t159 -206.5l70 326q0 8 10 8h29q6 0 6 -8l-215 -1008q0 -8 -8 -8h-29q-8 0 -8 8l57 271q-113 -126 -244 -202.5t-237 -76.5q-69 0 -126 30.5t-91 84.5q-69 147 -21 372zM266 483q-46 -223 19 -340 q53 -100 184 -100q100 0 209 57t196 160.5t113 222.5q18 91 -2.5 174.5t-68.5 142t-116.5 93.5t-142.5 35q-126 0 -227 -101q-115 -118 -164 -344zM567 1161h2q-1 1 -0.5 2t2 5t2.5 6v-3q76 96 127 154l88 102q9 9 13 9h114q1 0 3 -2.5t4 -3.5l92 -259v-8l-33 -20 q-4 -2 -8 2l-27 74l-65 167h-68l-205 -243v2q-5 -9 -10 -4zM1014 1171v3l2 -3h-2zM1014 1174l2 6z" />
<glyph unicode="&#xe3;" d="M223 487q48 231 178 369q120 117 265 117q106 0 205 -76.5t159 -206.5l70 326q0 8 10 8h29q6 0 6 -8l-215 -1008q0 -8 -8 -8h-29q-8 0 -8 8l57 271q-113 -126 -244 -202.5t-237 -76.5q-69 0 -126 30.5t-91 84.5q-69 147 -21 372zM266 483q-46 -223 19 -340 q53 -100 184 -100q100 0 209 57t196 160.5t113 222.5q18 91 -2.5 174.5t-68.5 142t-116.5 93.5t-142.5 35q-126 0 -227 -101q-115 -118 -164 -344zM524 1165q31 92 103 125h-2q30 10 57 10q68 0 147 -61q40 -30 82 -42.5t68 -2.5q22 12 37.5 38.5t19.5 45.5q5 10 11 10h32 q3 0 5 -2.5t1 -5.5q0 -2 -2 -11t-8 -24.5t-15 -31t-24.5 -31.5t-34.5 -25q-26 -18 -59 -18q-64 0 -145 59q-100 75 -152 51q-23 -13 -41.5 -34t-25.5 -35l-7 -15q0 -4 -4 -7t-6 -3q-3 0 -9.5 1t-8.5 1h-13q-3 0 -5 2.5t-1 5.5z" />
<glyph unicode="&#xe4;" d="M219 481q48 231 178 369q120 117 265 117q106 0 205 -76.5t159 -206.5l70 326q0 8 10 8h29q6 0 6 -8l-215 -1008q0 -8 -8 -8h-29q-8 0 -8 8l57 270q-113 -126 -244 -202t-237 -76q-69 0 -126 30.5t-91 84.5q-69 147 -21 372zM262 477q-46 -223 19 -340q53 -100 184 -100 q100 0 209 57t196 160.5t113 222.5q18 91 -2.5 174.5t-68.5 142t-116.5 93.5t-142.5 35q-126 0 -227 -101q-115 -118 -164 -344zM471 1257l4 21q1 3 3 10t3 10l15 23l-4 -4l14 14l10 8q0 1 1 2.5t2.5 3t2.5 3.5l31 20l22 4q15 6 29 6q1 0 3 1t3 1h15q8 0 20 -4l17 -4l6 -2 l14 -14l6 -6l4 -9q4 -2 4 -4l6 -12q3 -12 3 -31l2 -8l-5 -20q-3 -11 -24 -60l-14 -18l2 2l-9 -8l-6 -6l-8 -9l-22 -12l-5 -4l-12 -6h-4l-10 -4h-29q-34 4 -51 18l2 -4l-8 6l-8 8l-15 17l-6 8l-1 6q-1 5 -1 10q-5 17 -2 47zM598 1141l6 4h2zM668 1370l4 -2l4 -4zM676 1364h2 h-2zM928 1257l4 21q1 3 3 10t3 10q1 2 4 7l10 16l-4 -4l15 14l10 8q0 1 1 2.5t2.5 3t2.5 3.5l31 20l22 4q12 6 29 6q1 0 3 1t3 1h14q5 0 21 -4l16 -4l6 -2l13 -14l8 -6l4 -9q4 -2 4 -4l6 -12q2 -8 2 -31l2 -8l-4 -20q-3 -11 -24 -60l-15 -18l2 2l-8 -8l-6 -6l-10 -9l-21 -12 l-4 -4l-12 -6h-4l-10 -4h-29q-34 4 -51 18l2 -4l-8 6l-9 8l-14 17l-6 8l-1 6q-1 5 -1 10q-5 17 -2 47zM1055 1141l6 4h2zM1124 1370l4 -2l5 -4zM1133 1364h2h-2z" />
<glyph unicode="&#xe5;" d="M223 487q48 231 178 369q120 117 265 117q106 0 205 -76.5t159 -206.5l70 326q0 8 10 8h29q6 0 6 -8l-215 -1008q0 -8 -8 -8h-29q-8 0 -8 8l57 271q-113 -126 -244 -202.5t-237 -76.5q-69 0 -126 30.5t-91 84.5q-69 147 -21 372zM266 483q-46 -223 19 -340 q53 -100 184 -100q100 0 209 57t196 160.5t113 222.5q18 91 -2.5 174.5t-68.5 142t-116.5 93.5t-142.5 35q-126 0 -227 -101q-115 -118 -164 -344zM692 1260q10 49 53 83.5t91 34.5q51 0 79 -34t17 -84q-10 -49 -53.5 -84t-94.5 -35q-48 0 -75 35t-17 84zM713 1260 q-8 -37 15 -67t60 -30q40 0 74.5 29.5t42.5 67.5q9 41 -12.5 67.5t-63.5 26.5q-38 0 -72.5 -27t-43.5 -67z" />
<glyph unicode="&#xe6;" horiz-adv-x="1753" d="M168 219q40 205 190 303q121 80 304 80q74 0 217 -29l12 54q42 202 -57 272h2q-61 45 -164 45q-133 0 -305 -65h-9l-8 32q5 9 8 11q15 7 57.5 21.5t121.5 31t145 16.5q119 0 190 -49q68 -49 80 -207q87 121 142 168q146 119 350 119q194 0 278 -119h2q71 -110 33 -289 q-11 -50 -20 -73l2 2q-7 -13 -10 -13h-805q-6 -43 -7 -91t5 -107t28.5 -115.5t59.5 -95.5q83 -74 233 -74q145 0 361 74q3 1 14 -4l2 -29q-7 -14 -18 -18h2q-216 -70 -369 -70q-167 0 -264 82q-68 56 -111 223q-31 -92 -36 -143.5t1 -159.5v-29q-3 -10 -8 -12l-26 -4 q-5 0 -7.5 0.5t-4.5 2t-1 5.5q-1 21 -2 60t-2 57l2 22q-2 1 2 17q-290 -119 -434 -119q-69 0 -123 33q-37 23 -51 71.5t-2 112.5zM217 219q-19 -108 37 -145q41 -23 100 -23q129 0 404 109q4 1 6 2t5 2t5 2q4 42 23 98l2 8q0 5 4 9q23 75 63 241q-121 31 -215 31 q-159 0 -274 -72q-123 -82 -160 -262zM940 580h762q37 192 -23 290q-77 103 -247 103q-93 0 -172.5 -29.5t-130 -71.5t-92 -99.5t-62 -102t-35.5 -90.5z" />
<glyph unicode="&#xe7;" horiz-adv-x="966" d="M221 506q59 276 262 409q153 105 385 105q127 0 242 -31h4q17 -7 12 -16l-14 -33q-2 0 -5.5 -1t-4.5 -1q-124 31 -244 31q-191 0 -356 -95q-176 -117 -230 -368q-26 -122 -7 -215.5t79 -149.5q108 -90 307 -90q63 0 130 8.5t103 16.5l36 8q2 0 5 -2.5t3 -5.5l2 -29 q-2 -8 -10 -12l-11 -2q-142 -33 -268 -33q-222 0 -332 98q-148 124 -88 408zM367 -389l12 27q6 9 14 6l10 41q-2 0 11 -13t36.5 -26t47.5 -13q62 0 110 25q24 13 33 51q8 35 -2 61t-26.5 38.5t-39.5 20t-34.5 8.5t-18.5 1h-24q-2 0 -3.5 1.5t-0.5 2.5q-2 1 -1.5 5.5t3.5 7.5 v-2l131 159q3 3 8 0l24 -22q0 -6 -2 -10l2 2l-84 -99q63 -21 96 -64.5t19 -109.5q-12 -61 -59 -90q-53 -35 -144 -35q-45 0 -110 13l4 -3q-1 0 -5 2.5t-5 2.5q-6 3 -2 12z" />
<glyph unicode="&#xe8;" horiz-adv-x="1099" d="M225.5 411.5q3.5 59.5 10 92t12.5 55.5q3 16 15.5 48.5t36.5 83t65.5 109t91.5 103.5q147 119 350 119q197 0 278 -119h2q72 -106 33 -293q-8 -32 -16 -57l-2 -10l-10 -11h-805q-7 -40 -8 -89t5 -108t28 -116.5t59 -97.5q87 -74 233 -74q144 0 363 74q1 1 12 -4l2 -23 q3 -6 -2.5 -13.5t-13.5 -10.5h2q-219 -70 -371 -70q-172 0 -260 82q-47 40 -74 100t-33.5 115t-3 114.5zM301 582h766q40 195 -25 288h2q-69 103 -249 103q-92 0 -171.5 -29.5t-130.5 -71.5t-93 -99.5t-62.5 -101t-36.5 -89.5zM809 1655q-1 1 3 8t9 10l23 15q3 2 7 0t3 -5 q69 -123 78 -243v2q4 -82 -33 -250l-8 -41q-3 -10 -12 -10h-31q-9 0 -6 10l8 41l8 40t8 39t7 39t5 38.5t3 38t0 38.5q-6 119 -72 230z" />
<glyph unicode="&#xe9;" horiz-adv-x="1099" d="M225.5 411.5q3.5 59.5 10 92t12.5 55.5q3 16 15.5 48.5t36.5 83t65.5 109t91.5 103.5q147 119 350 119q197 0 278 -119h2q72 -106 33 -293q-8 -32 -16 -57l-2 -10l-10 -11h-805q-7 -40 -8 -89t5 -108t28 -116.5t59 -97.5q87 -74 233 -74q144 0 363 74q1 1 12 -4l2 -23 q3 -6 -2.5 -13.5t-13.5 -10.5h2q-219 -70 -371 -70q-172 0 -260 82q-47 40 -74 100t-33.5 115t-3 114.5zM301 582h766q40 195 -25 288h2q-69 103 -249 103q-92 0 -171.5 -29.5t-130.5 -71.5t-93 -99.5t-62.5 -101t-36.5 -89.5zM719 1253l8 41q37 167 74 250v-2 q55 113 180 244q10 6 12 4l19 -14v-21q-112 -116 -168 -227q-39 -91 -68 -234l-8 -41q-3 -10 -10 -10h-31q-8 0 -8 10z" />
<glyph unicode="&#xea;" horiz-adv-x="1099" d="M225.5 411.5q3.5 59.5 10 92t12.5 55.5q3 16 15.5 48.5t36.5 83t65.5 109t91.5 103.5q147 119 350 119q197 0 278 -119h2q72 -106 33 -293q-8 -32 -16 -57l-2 -10l-10 -11h-805q-7 -40 -8 -89t5 -108t28 -116.5t59 -97.5q87 -74 233 -74q144 0 363 74q1 1 12 -4l2 -23 q3 -6 -2.5 -13.5t-13.5 -10.5h2q-219 -70 -371 -70q-172 0 -260 82q-47 40 -74 100t-33.5 115t-3 114.5zM301 582h766q40 195 -25 288h2q-69 103 -249 103q-92 0 -171.5 -29.5t-130.5 -71.5t-93 -99.5t-62.5 -101t-36.5 -89.5zM571 1161h2q-1 1 0 2t2.5 5t2.5 6v-3 q76 96 127 154l88 102q9 9 12 9h115q1 0 2.5 -2.5t3.5 -3.5l92 -259v-8l-33 -20q-4 -2 -8 2l-27 74l-65 167h-68l-205 -243v2q-5 -9 -10 -4zM1018 1171v3l2 -3h-2zM1018 1174l2 6z" />
<glyph unicode="&#xeb;" horiz-adv-x="1099" d="M221.5 405.5q3.5 59.5 10 92t12.5 55.5q3 16 15.5 48.5t36.5 83t65.5 109t91.5 103.5q147 119 350 119q197 0 278 -119h2q72 -106 33 -293q-8 -32 -16 -57l-2 -10l-11 -11h-804q-7 -40 -8 -89t5 -108t28 -116.5t59 -97.5q87 -74 233 -74q144 0 363 74q1 1 12 -4l2 -23 q3 -6 -2.5 -14t-13.5 -11h2q-216 -69 -371 -69q-172 0 -260 82q-47 40 -74 100t-33.5 115t-3 114.5zM297 575h766q40 196 -25 289h2q-69 103 -249 103q-78 0 -146 -20t-117.5 -54.5t-88.5 -74t-67.5 -87t-45 -83.5t-29.5 -73zM469 1257l4 21q1 3 3 10t3 10l4 6t3.5 5 t3.5 4.5t2.5 3.5t1.5 2.5t2 1.5l-4 -4l16 16l16 15l27 18l24 6q12 6 29 6q1 0 3 1t3 1h15q6 0 18 -4l19 -4l12 -4q1 0 3 -2t3 -2l-12 6l12 -14l6 -6l4 -9q4 -2 6 -4l6 -12q5 -25 5 -31l2 -8l-4 -20q-13 -40 -25 -56l-18 -22l4 2l-11 -8l-6 -6l-8 -9l-20 -12l-7 -8 q-4 -1 -7.5 -1t-6.5 -1h8q-10 0 -18 -4h-29q-34 3 -51 18l2 -4l-10 6l-10 15l-11 10l-6 8l-1 6q-1 5 -1 10q-6 23 -4 47zM575 1122q3 13 15 19l3 1q3 1 7 1zM926 1257l4 21q1 3 3 10t3 10q13 23 16 23l-4 -4l15 14l18 17l25 18l26 6q12 6 29 6l20 2q7 0 19 -4l18 -4l12 -4 q1 0 3.5 -2t3.5 -2l-13 6l13 -14l6 -6l4 -9q4 -2 4 -4l8 -12q4 -20 4 -31l2 -8l-4 -22q-12 -38 -24 -54l-19 -22l2 2l-8 -8l-6 -6l-8 -9l-21 -12l-6 -8q-5 -1 -8.5 -1t-5.5 -1h8q-10 0 -18 -4h-31q-34 3 -49 18l2 -4l-11 6l-10 15l-10 10l-6 8l-1 6q-1 5 -1 10q-7 16 -4 47z M1032 1122q3 13 15 19q1 0 4 1t6 1z" />
<glyph unicode="&#xec;" horiz-adv-x="356" d="M150 12q64 214 118 461q45 213 82 463q1 6 2 19t2 18q3 27 6 35q0 4 13 10h10q3 0 8.5 1t7.5 1h7q4 0 4 -6q-1 -19 -10.5 -83t-30.5 -184t-47 -245q-71 -310 -127 -496q-6 -6 -9 -6l-30 2q-9 0 -6 10zM432 1649q-2 1 3 8t9 10l23 14q2 1 4.5 1t4.5 -1.5t1 -3.5 q69 -123 78 -243v2q4 -82 -33 -250l-8 -41q-3 -10 -12 -10h-31q-9 0 -6 10l8 41l8 40t8 39t7 39t5 38.5t3 38t0 38.5q-6 119 -72 230z" />
<glyph unicode="&#xed;" horiz-adv-x="356" d="M150 12q64 214 118 461q45 213 82 463q1 6 2 19t2 18q3 27 6 35q0 4 13 10h10q3 0 8.5 1t7.5 1h7q4 0 4 -6q-1 -20 -10 -83t-29.5 -184t-46.5 -245q-65 -284 -129 -496q-6 -6 -9 -6l-30 2q-9 0 -6 10zM340 1237l8 41q37 167 74 250v-2q54 111 180 243q10 7 12 5l19 -15 v-20q-111 -115 -168 -228q-40 -91 -68 -233l-8 -41q-3 -10 -10 -10h-31q-8 0 -8 10z" />
<glyph unicode="&#xee;" horiz-adv-x="356" d="M150 12q56 189 116 461q52 245 84 463q1 6 2 19t2 18q3 27 6 35q0 4 13 10h8q5 0 11 1t7 1h7q4 0 4 -6q-1 -19 -10.5 -83t-30.5 -184t-47 -245q-71 -310 -127 -496q-6 -6 -9 -6l-30 2q-9 0 -6 10zM199 1155h2l4 12v-2q76 96 127 154l88 102q9 9 12 9h115q1 0 2.5 -3 t3.5 -4l92 -258v-8l-33 -20q-4 -2 -8 2l-26 73l-66 168h-68l-204 -243v2q-1 -3 -5.5 -4.5t-5.5 0.5zM645 1165v2l2 -2h-2zM645 1167l2 7z" />
<glyph unicode="&#xef;" horiz-adv-x="573" d="M213 1323l2 12q1 3 3 10.5t3 10.5q12 15 12 20q1 1 3.5 3t3.5 3l18 15q6 6 6 8l31 20l-4 -2q2 1 6.5 3t9.5 3.5t10 2.5q15 6 27 6q1 0 3 1t3 1h17q4 0 20 -4q2 0 5 -2t5 -2l11 -7l14 -10l6 -8l4 -8l4 -4l6 -15q2 -4 2 -28l5 -9l-5 -22q-15 -41 -28 -59l4 6l-17 -21l3 2 l-23 -24l-23 -13l-4 -2l-12 -8h-4l-10 -4h-29q-18 3 -51 19l-4 2l-8 6q-1 0 -7 6l-4 12l-12 21q-5 22 0 59h-2zM254 12q61 195 119 461q45 213 82 463q1 6 2 19t2 18q3 27 6 35q3 7 10 10h10q3 0 9 1t8 1h6q6 0 6 -6q-1 -19 -10.5 -83t-30.5 -184t-47 -245 q-55 -242 -127 -496q-6 -6 -10 -6l-31 2q-7 0 -4 10zM338 1198l6 4h2zM668 1317l4 18q1 3 3 10.5t3 10.5l6 10q0 2 -2 0q4 6 23 25l6 6l5 3q4 3 5 5l31 20l-4 -2q2 1 6.5 3t9.5 3.5t10 2.5q15 6 27 6q1 0 3 1t3 1h14q7 0 23 -4q2 0 5 -2t5 -2l10 -7l15 -10l6 -8l4 -8l4 -4 l6 -15q2 -4 2 -28l2 -9l-4 -20q-12 -40 -27 -61l5 6l-17 -21l2 2l-22 -24l-23 -13l-4 -2l-12 -8h-4l-11 -4h-30q-30 3 -49 19l2 -5l-9 7l-8 8q-2 2 -2 0l-10 16q-8 12 -8 17q-8 25 -4 57zM795 1198l6 4h2z" />
<glyph unicode="&#xf0;" horiz-adv-x="1101" d="M175 404q1 46 9 83q25 127 119 234q70 76 176 122t228 46q71 0 129.5 -24.5t98 -68t65.5 -90.5t44 -102l37 10q35 201 -32 377t-215 283l-263 -207q-7 -7 -10 0v-2l-16 25q-5 5 4 10l242 200q-168 84 -326 84q-6 0 -6 9l8 34q0 3 3.5 6t6.5 3q187 0 359 -99l219 183 q2 2 14 2l18 -23q4 -8 -2 -14l-211 -170q162 -122 232.5 -317.5t23.5 -413.5q-19 -94 -65 -195q-63 -184 -209.5 -286.5t-327.5 -102.5q-85 0 -151 26.5t-103.5 70t-61.5 96t-31 109t-6 102.5zM223.5 341.5q6.5 -61.5 24 -107t50 -78t64.5 -53t69 -32t62.5 -16t45.5 -4.5 q114 0 229 49q135 64 246 289q0 26 1 61.5t-8.5 78t-22 85.5t-38.5 83t-59 71t-83 49.5t-110 18.5q-84 0 -156 -22.5t-122 -58t-88.5 -83t-60 -94.5t-31.5 -95q-19 -80 -12.5 -141.5z" />
<glyph unicode="&#xf1;" horiz-adv-x="1050" d="M176 4q5 47 68 346q77 358 155 705q0 8 11 8h32q4 0 4 -8q-2 -10 -7 -30t-7 -30l-39 -182q193 205 385 205q163 0 234 -100h-2q27 -41 39 -93.5t9 -100.5t-7.5 -78.5t-10.5 -49.5v-2q-43 -178 -96 -422q-23 -111 -26 -147q0 -2 -15 -17q-18 -6 -26 -6q-10 0 -13 16 l29 134q33 157 55 251q22 88 43 191v2q31 188 -22 287q-76 86 -201 86q-69 0 -129 -20.5t-101 -52t-75.5 -72t-54.5 -78.5t-34.5 -74.5t-19.5 -56.5t-6 -27l-4 -15q-1 -4 -8 -35t-15 -64.5t-12 -55.5q-16 -66 -69 -314q-16 -87 -15 -90q0 -4 -6 -4l-35 -12q-2 0 -8 6z M530 1288q31 92 103 125h-2q30 10 57 10q69 0 148 -61q40 -30 81.5 -42.5t67.5 -2.5q22 12 37.5 38.5t19.5 45.5q5 10 11 10h32q3 0 5.5 -2.5t1.5 -5.5q0 -2 -2 -11t-8 -24.5t-15 -31t-24.5 -31.5t-34.5 -25q-26 -18 -60 -18q-64 0 -145 59q-100 75 -152 51q-23 -13 -41 -34 t-25 -36l-7 -14q0 -4 -4.5 -7t-6.5 -3q-3 0 -9.5 1t-8.5 1h-12q-3 0 -5.5 2.5t-1.5 5.5z" />
<glyph unicode="&#xf2;" horiz-adv-x="1140" d="M211 288q-14 88 10 193q31 144 98 244q29 52 70 96q81 85 170 133q125 71 262 64q85 -3 154 -41t112 -105v2q92 -142 43 -380q-63 -290 -272 -424h2q-69 -38 -138.5 -54t-105.5 -16q-125 0 -213.5 36t-133 100t-58.5 152zM270 481q-91 -432 357 -432q29 0 92 15.5 t121 48.5q182 115 241 381q47 228 -34 346h4q-78 121 -244 131q-119 0 -229 -60q-89 -51 -152 -114q-17 -18 -76 -103q-55 -97 -80 -213zM850 1757q-2 2 3 9t9 10l23 14q2 1 4.5 1t4.5 -1.5t1 -3.5q69 -122 78 -244v2q4 -82 -33 -250l-8 -41q-3 -10 -12 -10h-31q-9 0 -6 10 l8 41q2 8 8.5 39.5t7.5 39.5t7 39.5t5.5 39t2.5 38.5t0 38q-6 118 -72 229z" />
<glyph unicode="&#xf3;" horiz-adv-x="1140" d="M211 288q-14 88 10 193q31 144 98 244q29 52 70 96q81 85 170 133q125 71 262 64q85 -3 154 -41t112 -105v2q92 -142 43 -380q-63 -290 -272 -424h2q-69 -38 -138.5 -54t-105.5 -16q-125 0 -213.5 36t-133 100t-58.5 152zM270 481q-91 -432 357 -432q29 0 92 15.5 t121 48.5q182 115 241 381q47 228 -34 346h4q-78 121 -244 131q-119 0 -229 -60q-89 -51 -152 -114q-17 -18 -76 -103q-55 -97 -80 -213zM739 1253l9 41q38 172 73 250v-2q55 113 180 244q10 7 13 4l18 -14v-21q-112 -116 -168 -227q-37 -86 -67 -234l-9 -41q-3 -10 -10 -10 h-30q-9 0 -9 10z" />
<glyph unicode="&#xf4;" horiz-adv-x="1140" d="M211 288q-14 88 10 193q31 144 98 244q29 52 70 96q81 85 170 133q125 71 262 64q85 -3 154 -41t112 -105v2q92 -142 43 -380q-63 -290 -272 -424h2q-69 -38 -138.5 -54t-105.5 -16q-125 0 -213.5 36t-133 100t-58.5 152zM270 481q-91 -432 357 -432q29 0 92 15.5 t121 48.5q182 115 241 381q47 228 -34 346h4q-78 121 -244 131q-119 0 -229 -60q-89 -51 -152 -114q-17 -18 -76 -103q-55 -97 -80 -213zM592 1161h2q-1 1 -0.5 2t2 5t2.5 6v-3q76 96 127 154l88 102q9 9 12 9h115q1 0 2.5 -2.5t3.5 -3.5l92 -259v-8l-32 -20q-5 -2 -9 2 l-26 74l-66 167h-67l-205 -243v2q-5 -9 -10 -4zM1038 1171v3l2 -3h-2zM1038 1174l2 6z" />
<glyph unicode="&#xf5;" horiz-adv-x="1140" d="M211 288q-14 88 10 193q31 144 98 244q29 52 70 96q81 85 170 133q125 71 262 64q85 -3 154 -41t112 -105v2q92 -142 43 -380q-63 -290 -272 -424h2q-69 -38 -138.5 -54t-105.5 -16q-125 0 -213.5 36t-133 100t-58.5 152zM270 481q-91 -432 357 -432q29 0 92 15.5 t121 48.5q182 115 241 381q47 228 -34 346h4q-78 121 -244 131q-119 0 -229 -60q-89 -51 -152 -114q-17 -18 -76 -103q-55 -97 -80 -213zM575 1288q31 92 103 125h-2q30 10 57 10q69 0 148 -61q40 -30 81.5 -42.5t67.5 -2.5q22 12 37.5 38.5t19.5 45.5q5 10 11 10h32 q3 0 5.5 -2.5t1.5 -5.5q0 -2 -2 -11t-8 -24.5t-15 -31t-24.5 -31.5t-34.5 -25q-26 -18 -60 -18q-64 0 -145 59q-100 75 -152 51q-23 -13 -41 -34t-25 -36l-7 -14q0 -4 -4.5 -7t-6.5 -3q-3 0 -9.5 1t-8.5 1h-12q-3 0 -5.5 2.5t-1.5 5.5z" />
<glyph unicode="&#xf6;" horiz-adv-x="1140" d="M207 282q-14 88 10 193q31 144 98 244q29 52 70 96q81 85 170 133q125 71 262 64q85 -3 154 -41t112 -105v2q92 -142 43 -381q-63 -290 -272 -424h2q-68 -38 -137.5 -53.5t-106.5 -15.5q-125 0 -213.5 36t-133 100t-58.5 152zM266 475q-91 -432 357 -432q30 0 92.5 15 t120.5 48q182 115 241 381q47 228 -35 347h5q-78 121 -244 131q-120 0 -230 -60q-87 -50 -151 -114q-17 -18 -76 -103q-55 -97 -80 -213zM469 1257l4 21q1 3 3 10t3 10l15 23l-5 -4q7 7 19 16l16 15l25 18l26 6q12 6 29 6q1 0 3.5 1t4.5 1h13q6 0 18 -4l19 -4l6 -4l12 -12 l6 -6l4 -9q4 -2 4 -4l8 -12q5 -25 5 -31l2 -8l-4 -20q-13 -40 -25 -56l-18 -22l2 2l-9 -8l-6 -6l-8 -9l-10 -6l-8 -6l-9 -8q-5 -1 -8.5 -1t-5.5 -1t-5.5 -2t-4.5 -2h-29q-28 2 -53 18l4 -4l-10 6l-10 15l-11 10l-6 8l-1 6q-1 5 -1 10q-7 16 -4 47zM575 1122q3 13 15 19l3 1 q3 1 7 1zM668 1368l2 2v-2h-2zM670 1368h4l4 -4zM678 1364h4h-4zM926 1257l4 21q1 3 3 10t3 10q1 2 4 7l10 16l-4 -4q12 12 19 16l16 15l25 18l26 6q12 6 29 6q1 0 3 1t3 1h14q7 0 19 -4l16 -4l8 -4l13 -12l6 -6l4 -9q4 -2 4 -4l6 -12q6 -15 6 -31l2 -8l-4 -20 q-13 -41 -26 -56l-17 -22l2 2l-8 -8l-6 -6l-8 -9l-11 -6l-8 -6l-10 -8q-4 -1 -7 -1t-5 -1t-5.5 -2t-4.5 -2h-31q-26 2 -51 18l2 -4l-9 6l-10 15l-10 10l-6 8l-2 6q-2 5 -2 10q-5 17 -2 47zM1032 1122q3 13 15 19q1 0 4 1t6 1zM1124 1368l2 2v-2h-2zM1126 1368h4l5 -4z M1135 1364h4h-4z" />
<glyph unicode="&#xf7;" horiz-adv-x="911" d="M193 502l6 30q9 9 12 9l737 -4q10 0 10 -7l-8 -30q0 -4 -4 -8h-6l-739 4q-5 0 -7 1.5t-1 4.5zM391 115l10 43q0 -3 5 2l2 6l22 29l14 12l27 16h2q4 4 4 2l27 11q2 2 20 2q1 0 3 1t3 1h15q12 0 20 -2l8 -5l17 -10h4l4 -6l2 -2l10 -14q4 -2 6 -4l7 -13q4 -22 2 -30l4 -9 l-6 -24q-6 -22 -23 -53l-18 -21l4 2l-8 -8l-19 -16v-2l-14 -9l-2 -2q-1 -1 -5 -2.5t-6 -3.5v2l-8 -4q-4 0 -8 -1l-4 -1l-8 -2h-21q-40 3 -53 14l4 -2l-10 6l-14 15l-11 12l-4 8q-2 2 -2 15q-8 21 -2 47zM520 -4q4 3 8 7q3 3 4 3zM559 862q-6 14 0 43l8 39l8 10v2l23 27 l14 10q3 3 33 21q2 2 17 6q15 6 30 6q1 0 3 1t3 1h15q12 0 20 -2l8 -4l17 -8l8 -8l2 -2l10 -15q4 -2 6 -4l4 -12q6 -28 5 -33l2 -8l-4 -21q-9 -35 -27 -57l4 4l-18 -22l2 2l-7 -9l-18 -14v-4l-8 -4l-8 -6q-16 0 -21 -8q-2 -1 -6 -2.5t-6 -2.5h-31q-36 4 -49 15l4 -2l-10 6 l-8 8l-17 19l-4 8q-4 8 -4 20zM598 217l2 14l2 -16zM662 770q4 12 16 18l4 2q4 1 8 1zM688 791l2 2zM690 793l4 4l-2 -4h-2zM766 1006v12l4 -14zM946 492l2 2zM948 494l4 2q-2 -2 -4 -2z" />
<glyph unicode="&#xf8;" horiz-adv-x="1050" d="M211 288q-14 88 10 193q31 144 98 244q29 52 70 96q81 85 170 133q125 71 262 64q85 -3 154 -41t112 -105v2q92 -142 43 -380q-63 -290 -272 -424h2q-69 -38 -138.5 -54t-105.5 -16q-125 0 -213.5 36t-133 100t-58.5 152zM224.5 -190.5q-0.5 2.5 0.5 4.5l848 1413l2 2h10 l9 -4l-2 2q3 -6 18 -6h-2l4 -4l-846 -1412l-8 -8h-6l-25 10q-2 0 -2.5 2.5zM270 481q-91 -432 357 -432q29 0 92 15.5t121 48.5q182 115 241 381q47 228 -34 346h4q-78 121 -244 131q-119 0 -229 -60q-89 -51 -152 -114q-17 -18 -76 -103q-55 -97 -80 -213zM1094 1225h2h-2z " />
<glyph unicode="&#xf9;" horiz-adv-x="1085" d="M219.5 206q-2.5 50 2.5 78.5t18 86.5q6 30 20.5 99.5t20.5 98.5l59 283q4 37 14 78q17 70 21 82q4 8 8 8t14.5 -1t16.5 -1l8 -8q-15 -59 -19 -80q-1 -5 -7 -34.5t-7 -41.5l-59 -283q0 -3 -41 -202q-12 -53 -17 -80.5t-3.5 -68.5t16.5 -68q32 -53 127 -80h-4 q55 -17 139 -17q133 0 231 82q114 97 172 301l6 17q84 368 142 557q6 12 10 8q2 0 8.5 -1t9.5 -1h11q8 -8 8 -10q-110 -381 -170 -666q-52 -240 -39 -332q-5 5 -8 2l-4 -2l-29 -10q-10 0 -12 -2q-6 39 24 217q-49 -62 -96 -109h2q-118 -100 -276 -100q-84 0 -152 19 q-106 31 -143 94q-20 37 -22.5 87zM821 1757q-1 1 3.5 8.5t9.5 10.5l22 14q2 1 4.5 1t4.5 -1.5t1 -3.5q69 -122 78 -244v2q4 -82 -33 -250l-8 -41q-3 -10 -12 -10h-31q-9 0 -6 10l8 41q2 8 8.5 39.5t7.5 39.5t7 39.5t5.5 39t2.5 38.5t0 38q-6 118 -72 229z" />
<glyph unicode="&#xfa;" horiz-adv-x="1085" d="M219.5 206q-2.5 50 2.5 78.5t18 86.5q6 30 20.5 99.5t20.5 98.5l59 283q4 37 14 78q17 70 21 82q4 8 8 8t14.5 -1t16.5 -1l8 -8q-15 -59 -19 -80q-1 -5 -7 -34.5t-7 -41.5l-59 -283q0 -3 -41 -202q-12 -53 -17 -80.5t-3.5 -68.5t16.5 -68q32 -53 127 -80h-4 q55 -17 139 -17q133 0 231 82q114 97 172 301l6 17q84 368 142 557q6 12 10 8q2 0 8.5 -1t9.5 -1h11q8 -8 8 -10q-110 -381 -170 -666q-52 -240 -39 -332q-5 5 -8 2l-4 -2l-29 -10q-10 0 -12 -2q-6 39 24 217q-49 -62 -96 -109h2q-118 -100 -276 -100q-84 0 -152 19 q-106 31 -143 94q-20 37 -22.5 87zM711 1253l8 41q37 167 74 250v-2q55 113 180 244q10 6 12 4l19 -14v-21q-112 -116 -168 -227q-39 -91 -68 -234l-8 -41q-3 -10 -10 -10h-31q-8 0 -8 10z" />
<glyph unicode="&#xfb;" horiz-adv-x="1085" d="M219.5 206q-2.5 50 2.5 78.5t18 86.5q6 30 20.5 99.5t20.5 98.5l59 283q4 37 14 78q17 70 21 82q4 8 8 8t14.5 -1t16.5 -1l8 -8q-15 -59 -19 -80q-1 -5 -7 -34.5t-7 -41.5l-59 -283q0 -3 -41 -202q-12 -53 -17 -80.5t-3.5 -68.5t16.5 -68q32 -53 127 -80h-4 q55 -17 139 -17q133 0 231 82q114 97 172 301l6 17q84 368 142 557q6 12 10 8q2 0 8.5 -1t9.5 -1h11q8 -8 8 -10q-110 -381 -170 -666q-52 -240 -39 -332q-5 5 -8 2l-4 -2l-29 -10q-10 0 -12 -2q-6 39 24 217q-49 -62 -96 -109h2q-118 -100 -276 -100q-84 0 -152 19 q-106 31 -143 94q-20 37 -22.5 87zM565 1161h2q-1 1 -0.5 2t2 5t2.5 6v-3q76 96 127 154l88 102q9 9 13 9h114q1 0 3 -2.5t4 -3.5l92 -259v-8l-33 -20q-4 -2 -8 2l-27 74l-65 167h-68l-205 -243v2q-5 -9 -10 -4zM1012 1171v3l2 -3h-2zM1012 1174l2 6z" />
<glyph unicode="&#xfc;" horiz-adv-x="1085" d="M217.5 200q-2.5 50 2.5 78.5t18 86.5q6 29 20.5 99t20.5 99l59 283q4 37 14 78q17 70 21 82q4 8 8 8t14.5 -1t16.5 -1l8 -8q-15 -58 -19 -80q-1 -5 -7 -34.5t-7 -41.5l-59 -283q-1 -9 -41 -203q-12 -53 -17 -80.5t-3.5 -68.5t16.5 -68q31 -52 127 -79h-4q55 -17 139 -17 q133 0 231 82q114 97 172 301l6 17q84 368 142 557q6 12 10 8q2 0 8.5 -1t9.5 -1h11q8 -8 8 -11q-111 -384 -170 -665q-52 -240 -39 -332q-5 5 -8 2l-4 -2l-29 -10q-10 0 -12 -2q-6 39 24 217q-49 -62 -96 -109h2q-118 -100 -276 -100q-87 0 -152 18q-105 31 -143 95 q-20 37 -22.5 87zM471 1257l4 21q1 3 3 10t3 10l15 23l-4 -4l14 14l18 17l27 18l24 6q12 6 29 6q1 0 3 1t3 1h15q6 0 18 -4l19 -4l6 -2l12 -14l6 -6l6 -9q4 -2 4 -4l6 -12q5 -25 5 -31l2 -8l-4 -22q-12 -36 -25 -54l-16 -22l2 2l-9 -8l-8 -6l-8 -9l-20 -12l-7 -6 q-2 -1 -6 -2t-6 -2t-6.5 -2t-5.5 -2h-29q-34 3 -51 18l2 -4l-8 6l-10 8q3 -1 -2 2l-3 3l3 -3l-11 15l-6 8l-1 6q-1 5 -1 10q-5 17 -2 47zM575 1122q3 13 15 19l4 1q3 1 8 1zM668 1370l4 -2l4 -4zM676 1364h2h-2zM926 1257l4 21q5 16 8 20q1 2 4 7l10 16l-4 -4l15 14l18 17 l27 18l24 6q12 6 29 6q1 0 3 1t3 1h14q7 0 19 -4l18 -4l6 -2l13 -14l6 -6l4 -9q6 -2 6 -4l6 -12q4 -20 4 -31l2 -8l-4 -22q-12 -38 -24 -54l-17 -22l2 2l-10 -8l-6 -6l-8 -9l-21 -12l-6 -6q-2 -1 -6 -2t-6 -2t-5 -1.5t-4.5 -1t-2.5 -1.5h-29q-34 3 -51 18l2 -4l-8 6l-11 8 q3 -1 0 1l-2 2l-2 2l2 -3l-10 15l-6 8l-1 6q-1 5 -1 10q-4 14 -4 47zM1032 1122q3 13 15 19l3 1q4 1 9 1zM1124 1370l4 -2l5 -4zM1133 1364h2h-2z" />
<glyph unicode="&#xfd;" horiz-adv-x="942" d="M45 -395q-3 4 0.5 10t7.5 8q87 32 165 83.5t128 99t93 102t60.5 83.5t30.5 54l-200 954q2 5 4 5l41 16q2 -4 2 -8l188 -901l518 899v-2l17 8l22 -10q5 -9 15 4l-568 -987q-11 -23 -26.5 -51t-59.5 -86t-97 -108.5t-140 -106t-187 -91.5h-8zM659 1151l9 41q38 172 73 250 v-2q53 109 181 243q10 7 12 5l18 -15v-20q-111 -115 -168 -228q-38 -87 -67 -233l-8 -41q-3 -10 -11 -10h-30q-9 0 -9 10zM1122 1006v2l4 -2h-4z" />
<glyph unicode="&#xfe;" horiz-adv-x="978" d="M99.5 -330.5q-1.5 3.5 0.5 6.5l373 1754q0 8 8 8h31q6 0 6 -8l-156 -736q110 127 240.5 203t239.5 76q73 0 129.5 -31t87.5 -86q71 -145 22 -369l-2 -6q-49 -230 -178 -366q-118 -115 -264 -115q-106 0 -206 77t-157 204l-129 -605q-5 -10 -10 -10h-31q-3 0 -4.5 3.5z M317 483q-18 -90 2.5 -173t68.5 -140.5t116 -92t141 -34.5q59 0 118.5 26.5t106.5 73.5q53 61 99.5 152t68.5 188q19 105 12 194.5t-34 149.5q-28 47 -76 74t-106 27q-99 0 -208 -58t-196 -162.5t-113 -224.5z" />
<glyph unicode="&#xff;" horiz-adv-x="942" d="M41 -401q-3 4 0.5 10t7.5 8q87 32 165 83.5t128 99t93 102t60.5 83.5t30.5 54l-200 954q2 4 4 4l41 17q2 -4 2 -8l188 -902l518 900v-3l17 9l22 -11q4 -8 15 5l-568 -988q-11 -23 -26.5 -51t-59.5 -86t-97 -108t-140 -105.5t-187 -91.5h-8zM471 1257l4 21q1 3 3 10t3 10 l15 23l-4 -4l16 16l8 6q0 1 8 9l29 20l22 4q15 6 29 6q1 0 3 1t3 1h15q8 0 20 -4l14 -4l7 -4l16 -12l6 -6l4 -9q4 -2 4 -4l6 -12v8l3 -10l2 -37l-5 -20q-3 -11 -24 -60l-14 -18l2 2l-9 -8l-6 -6l-8 -9l-31 -20q-13 -3 -14 -4l2 2l-10 -4h-31q-27 2 -49 18l2 -4l-8 6l-8 8 l-15 17l-6 8l-1 6q-1 5 -1 10q-5 17 -2 47zM666 1368l2 2v-2h-2zM668 1368h4l4 -4zM676 1364h6h-6zM928 1257l4 21q1 3 3 10t3 10q1 2 4 7l10 16l-4 -4q13 13 17 16l8 6q0 1 1 2.5t2.5 3t2.5 3.5l31 20l22 4q15 6 29 6q1 0 3 1t3 1h14q9 0 21 -4l14 -4l6 -4l15 -12l8 -6 l4 -9q4 -2 4 -4l6 -12v8l2 -10l2 -37l-4 -20q-3 -11 -24 -60l-15 -18l2 2l-8 -8l-6 -6l-10 -9l-29 -20q-13 -3 -14 -4l2 2l-10 -4h-31q-27 2 -49 18l2 -4l-8 6l-9 8l-14 17l-6 8l-1 6q-1 5 -1 10q-5 17 -2 47zM1118 999v2l4 -2h-4zM1122 1368l2 2v-2h-2zM1124 1368h4l5 -4z M1133 1364h4h-4z" />
<glyph unicode="&#x152;" horiz-adv-x="1947" d="M287 729q39 185 131.5 330.5t222.5 236.5q104 63 234 99.5t266 36.5q143 0 280 -35q2 0 9.5 -1t9.5 -1h721q3 0 5 -3t1 -6l-6 -30q0 -8 -11 -8h-686l-121 -576h644q8 0 8 -6l-6 -33q-4 -8 -13 -8h-643l-137 -647h719q10 0 10 -10l-8 -33q0 -6 -14 -6h-738 q-131 -29 -284 -29q-322 0 -484 152q-192 183 -110 577zM336 729q-78 -371 102 -539q148 -141 453 -141q127 0 258 23l270 1276q-150 34 -289 34q-274 0 -471 -125q-246 -165 -323 -528z" />
<glyph unicode="&#x153;" horiz-adv-x="1986" d="M239.5 244.5q-24.5 102.5 2.5 242.5q28 135 88 228q27 50 78 108q70 73 172 133q127 70 258 64q172 -6 268 -148q43 -69 57 -182q84 141 162 203q140 119 346 119q198 0 277 -119q29 -42 40.5 -95.5t6.5 -105.5t-11 -82.5t-14 -58.5q-4 -4 -4 -8q-7 -17 -14 -17h-797 q-8 -46 -10.5 -91t1.5 -105.5t27.5 -116t65.5 -92.5q83 -74 231 -74q133 0 355 70v-2q10 2 14 4q0 -2 2 -2l-2 -2q1 -3 3 -13.5t3 -13.5q-1 -1 -1 -3.5t-1 -4.5l-12 -8l12 4l-6 -4q-222 -72 -375 -72q-163 0 -258 82q-84 68 -114 237q-97 -175 -216 -245q-71 -40 -138 -55 t-105 -15h-47q-55 0 -126.5 17.5t-123.5 58.5q-70 62 -94.5 164.5zM275 368q-2 -55 6 -95.5t24.5 -74t37 -56t47 -39.5t52 -26.5t55 -15.5t52 -8t45.5 -2q4 0 10.5 1t9.5 1h27q35 0 94.5 13.5t120.5 48.5q89 58 152 155.5t90 227.5q48 222 -33 344v-2q-75 121 -246 131 q-4 2 -10 2q-105 0 -215 -60q-97 -60 -150 -116q-38 -43 -71 -92q-56 -100 -82 -218q-14 -64 -16 -119zM1169 575h758q39 191 -22 287q-34 48 -98 75.5t-146 27.5q-92 0 -170.5 -29.5t-129.5 -71t-93 -99t-62.5 -101t-36.5 -89.5zM1825 117l4 41q1 0 6 2t6 2l-2 -39z" />
<glyph unicode="&#x178;" horiz-adv-x="1062" d="M344 1405l37 16q6 2 8.5 2.5t3.5 -0.5l281 -743l604 743q5 5 10 2l2 -2l25 -16l-2 -8l-629 -770q-7 -35 -31.5 -151t-34.5 -169q-42 -212 -63 -307q0 -8 -8 -8h-27q-10 0 -10 8l129 627l-291 772l-2 -4zM481 1665l6 23q0 9 7 20q0 -2 4 2l2 6l20 27l19 12l30 21l21 6 q15 6 26 6q1 0 3.5 1t3.5 1h14q4 0 20 -4q1 0 5 -2t6 -2l10 -6l16 -11l4 -6l4 -10q5 -2 7 -4l4 -12q4 -10 4 -29l2 -8l-4 -25q-9 -34 -27 -55l4 4l-18 -23l4 2l-25 -24l-20 -12l-8 -7q-3 -1 -6.5 -1t-4.5 -1h7q-7 0 -19 -4h-31q-23 2 -49 17l4 -4l-10 6l-8 8l-16 18l-5 9 q-4 4 -4 20q-5 13 -2 41zM588 1530q4 14 14 20l4 1q4 1 8 1zM678 1776v2l6 -2h-6zM684 1776l8 -4zM1061 1665l6 23q0 11 6 20q0 -2 4 2l2 6l21 27l18 12l25 19l22 8q15 6 31 6q1 0 3 1t3 1h15q12 0 18 -2l8 -4l19 -8l12 -11l4 -6l4 -10q4 -2 6 -4l4 -12l2 -4v-25l2 -8 l-4 -23q-9 -29 -20 -53l-19 -23l4 2l-24 -24l-31 -19q-3 -1 -6 -1t-4 -1h6q-6 0 -18 -4h-27q-27 2 -53 17l4 -4l-10 6l-7 6l-4 8l-12 12l-4 9q-4 4 -4 20q-5 13 -2 41zM1165 1530q5 14 15 20l4 1q4 1 8 1z" />
<glyph unicode="&#x2c6;" horiz-adv-x="624" d="M334 1161h2q-1 1 -0.5 2t2 5t2.5 6v-3q76 96 127 154l88 102q9 9 12 9h115q1 0 2.5 -2.5t3.5 -3.5l92 -259v-8l-32 -20q-5 -2 -9 2l-26 74l-66 167h-67l-205 -243v2q-5 -9 -10 -4zM780 1171v3l2 -3h-2zM780 1174l2 6z" />
<glyph unicode="&#x2dc;" horiz-adv-x="759" d="M367 1165q31 92 102 125h-2q30 10 57 10q69 0 148 -61q40 -30 81.5 -42.5t67.5 -2.5q22 12 38 38.5t20 45.5q5 10 10 10h33q3 0 5 -2.5t1 -5.5q0 -2 -2 -11t-8 -24.5t-15 -31t-24.5 -31.5t-34.5 -25q-26 -18 -60 -18q-64 0 -145 59q-100 75 -152 51q-23 -13 -41 -34 t-25 -35l-7 -15q0 -4 -4.5 -7t-6.5 -3q-3 0 -9.5 1t-8.5 1h-12q-3 0 -5 2.5t-1 5.5z" />
<glyph unicode="&#x2000;" horiz-adv-x="1121" />
<glyph unicode="&#x2001;" horiz-adv-x="2242" />
<glyph unicode="&#x2002;" horiz-adv-x="1121" />
<glyph unicode="&#x2003;" horiz-adv-x="2242" />
<glyph unicode="&#x2004;" horiz-adv-x="747" />
<glyph unicode="&#x2005;" horiz-adv-x="560" />
<glyph unicode="&#x2006;" horiz-adv-x="373" />
<glyph unicode="&#x2007;" horiz-adv-x="373" />
<glyph unicode="&#x2008;" horiz-adv-x="280" />
<glyph unicode="&#x2009;" horiz-adv-x="448" />
<glyph unicode="&#x200a;" horiz-adv-x="124" />
<glyph unicode="&#x2010;" horiz-adv-x="868" d="M291 633l8 33q0 2 2 4q4 4 8 4l533 -2q3 0 5 -2.5t1 -5.5l-6 -33q0 -3 -6 -6q-2 -2 -5 -2l-530 4q-10 0 -10 6z" />
<glyph unicode="&#x2011;" horiz-adv-x="868" d="M291 633l8 33q0 2 2 4q4 4 8 4l533 -2q3 0 5 -2.5t1 -5.5l-6 -33q0 -3 -6 -6q-2 -2 -5 -2l-530 4q-10 0 -10 6z" />
<glyph unicode="&#x2012;" horiz-adv-x="868" d="M291 633l8 33q0 2 2 4q4 4 8 4l533 -2q3 0 5 -2.5t1 -5.5l-6 -33q0 -3 -6 -6q-2 -2 -5 -2l-530 4q-10 0 -10 6z" />
<glyph unicode="&#x2013;" horiz-adv-x="929" d="M291 633l8 33q0 2 2 4q4 4 8 4l592 -2q3 0 7 -2.5t3 -5.5l-6 -33q0 -3 -6 -6q-4 -2 -8 -2l-590 4q-10 0 -10 6z" />
<glyph unicode="&#x2014;" horiz-adv-x="1384" d="M291 633l8 33q0 2 4 4q4 4 6 4l1051 -2q3 0 5 -2.5t1 -5.5l-6 -33q0 -3 -6 -6q-2 -2 -4 -2l-1049 4q-10 0 -10 6z" />
<glyph unicode="&#x2018;" horiz-adv-x="299" d="M299 1008l8 39q36 166 74 249v-2q59 121 182 244q3 3 7 3.5t5 -1.5l-2 4l19 -16q4 -8 0 -21q-108 -113 -168 -227q-39 -87 -68 -233l-8 -39q-4 -13 -10 -13h-31q-8 0 -8 13z" />
<glyph unicode="&#x2019;" horiz-adv-x="296" d="M244.5 1023q-0.5 4 1.5 5q114 114 170 232q35 73 67 231l11 43q0 8 8 8h33q3 0 5.5 -3t2.5 -5l-11 -43q-33 -163 -73 -250l2 2q-63 -123 -185 -242q-4 -11 -12 -2l-16 17q-3 3 -3.5 7z" />
<glyph unicode="&#x201a;" horiz-adv-x="296" d="M-16 -215q107 101 168 227q36 81 67 234l8 43q5 10 11 10h32q3 0 5 -3.5t1 -6.5l-8 -43q-32 -159 -73 -248l2 2q-61 -122 -185 -246q-3 -6 -12 -2l-12 15q-9 13 -4 18z" />
<glyph unicode="&#x201c;" horiz-adv-x="770" d="M348 1008l8 39q36 166 74 249v-2q62 126 182 244q3 3 7.5 3.5t5.5 -1.5l-2 4l16 -16q4 -8 0 -21q-50 -52 -96 -114.5t-70 -112.5q-37 -83 -67 -233l-9 -39q-4 -13 -10 -13h-31q-8 0 -8 13zM702 1008l9 39q37 170 71 249v-2q55 119 183 244q3 3 7 3.5t5 -1.5v2l16 -14 q0 -23 -10 -31q-103 -97 -158 -217q-37 -83 -67 -233l-8 -39q-4 -13 -11 -13h-30q-7 0 -7 13z" />
<glyph unicode="&#x201d;" horiz-adv-x="770" d="M317 1018v10q107 101 172 232q36 77 68 231l10 43q0 8 8 8h33q6 0 6 -8l-10 -43q-32 -159 -72 -250l3 2q-61 -119 -187 -242q-2 -6 -10 -6zM670.5 1023q-0.5 4 1.5 5q114 114 170 232q35 73 67 231l11 43q0 8 10 8h31q3 0 5.5 -3t2.5 -5l-11 -43q-33 -163 -73 -250l2 2 q-63 -123 -185 -242q-4 -11 -12 -2l-16 17q-3 3 -3.5 7z" />
<glyph unicode="&#x201e;" horiz-adv-x="770" d="M51.5 -221.5q-0.5 5.5 1.5 6.5q103 93 172 227q38 85 68 234l8 43q5 10 10 10h33q3 0 4.5 -3.5t-0.5 -6.5l-8 -43q-31 -155 -72 -248l2 2q-60 -120 -192 -252q-2 0 -2 2l-21 19q-3 4 -3.5 9.5zM408 -215q108 100 170 227q36 81 67 234l8 43q5 10 13 10h30q3 0 5 -3.5 t1 -6.5l-8 -43q-32 -159 -73 -248l2 2q-61 -122 -191 -252q-2 2 -4 2l-18 17q-5 15 -2 18z" />
<glyph unicode="&#x2022;" horiz-adv-x="468" d="M246 606l6 21q0 8 6 20l6 8v2l23 27l16 12l23 17l26 8q15 6 29 6l20 2q5 0 21 -4q1 0 4.5 -2t5.5 -2l10 -6l17 -10l4 -7l4 -10l8 -8l2 -6q6 -30 6 -31l2 -10l-4 -21q-8 -34 -28 -57l4 4l-19 -22l4 4l-24 -27l-21 -12l-8 -6l-6 -2l-6 2l-10 -4h-31q-37 4 -51 14l4 -4 l-10 6l-21 27l-6 10q-4 4 -4 18q-5 13 -2 43zM442 715v2l7 -2h-7zM449 715l8 -4q-4 0 -8 4z" />
<glyph unicode="&#x2026;" horiz-adv-x="1204" d="M150 115l6 22q0 12 6 21q0 -1 1 -0.5t3 2.5q2 4 0 4l18 29l19 14l22 14q7 0 15 4l14 6q14 7 29 7q1 0 3 1t3 1h14q15 0 21 -2q2 0 4.5 -1t3.5 -1l4 -5l-4 2l16 -10h4l8 -8l5 -6l6 -8l6 -6l4 -11q4 -22 2 -30l4 -9l-6 -22q-7 -26 -23 -55l-24 -29l-2 -2l-13 -12l-10 -7 l-6 -4l-2 -2q-1 -1 -4.5 -2.5t-5.5 -3.5v2l-8 -4q-5 0 -13 -1l-8 -1q-2 -2 0 -2h-22q-38 3 -52 14l5 -2l-11 6l-14 15l-10 12l-4 8q-4 4 -2 8q-5 22 -2 54zM233 225l9 2l-2 -2h-7zM279 -4q4 3 8 7q3 3 4 3zM336 231h4h-4zM516 76l2 8v10l4 23l4 18q6 18 29 51v2l4 5l14 14 l11 6l16 10l16 8l9 5q3 0 7 1t5 1h8l14 2q13 0 19 -2l20 -5q1 0 2 -3t2 -3h-2l13 -6l10 -4l2 -4l10 -12v2l8 -21q1 -2 2.5 -4t2 -3.5t1 -3.5t1.5 -3l6 -12l4 -11l-4 7v-39l-4 -21q0 -1 -2 -4t-2 -4q-7 -7 -7 -16q-2 -3 -4 -4.5t-4 -4.5l-6 -6l-10 -8l-8 -8l-17 -12l8 4 l-12 -6l-22 -11l-4 -2q-6 -2 -13 -2l-10 -2q-8 -2 -18 -2q-13 0 -21 2l-20 4q-1 0 -3.5 2t-3.5 2l-16 6l-6 5q-1 0 -2 3t-2 3q-4 0 -4 4q-1 1 -3.5 0.5t-2.5 -2.5v8l-11 6l-4 8q4 -4 4 0l-6 13zM537 32v1l4 -8zM733 215l2 -10v-2zM895 109v4l4 18q7 27 12 35q1 2 17 24 l22 21l6 4l-8 -4l2 2l8 45l3 -41q3 1 22 8l25 11q4 2 16 2h10q13 0 17 -2q1 0 4 -1.5t4 -1.5l6 -2t4 -2t2 -1.5t2 -0.5l25 -8h-6l8 -4l16 -22l2 -5l2 -4q-1 -1 1 -6q0 -2 0.5 -3.5t0.5 -2.5l4 -8q-2 -7 11 -14q-3 1 -4 -1.5t-3 -11.5q0 -14 -6 -26l-16 -29v-2l-12 -21l-2 -6 l-7 -6l-6 -8l-47 -31q-3 -1 -6 -4h-2q-6 -2 -22 -2q-25 -3 -46 4q-8 2 -32 17h-4l-7 10q-4 2 -8 10l-8 20q-2 2 -2 11v8q-2 6 -2 27zM1026 4l2 2zM1118 188v11l4 -15zM1137 150h2h-2z" />
<glyph unicode="&#x202f;" horiz-adv-x="448" />
<glyph unicode="&#x2039;" horiz-adv-x="464" d="M109 399q1 8 24.5 39.5t113.5 130.5t234 246q6 4 13 4h6l-2 2l18 -18v-6v-11q-308 -315 -360 -389q43 -116 182 -377l-2 -4l-4 -4l-29 -18q-4 -2 -6 -2t-6 4q-192 357 -182 403z" />
<glyph unicode="&#x203a;" horiz-adv-x="464" d="M139 16q0 3 4 7q290 308 340 376q-14 38 -71.5 152t-126.5 235q-3 4 10 17l-4 -2l28 18h5h4q210 -371 202 -420q-8 -41 -354 -403q-4 -4 -6 -4q-10 2 -12 4l-15 14q-4 4 -4 6z" />
<glyph unicode="&#x205f;" horiz-adv-x="560" />
<glyph unicode="&#x20ac;" horiz-adv-x="1196" d="M162 547l6 31q3 10 12 10h223q5 55 25 151l21 92h-218q-3 0 -5 3.5t-1 7.5l6 32q4 11 11 11h225q107 307 317 444q180 107 392 107q131 0 256 -37l-2 2q15 -6 16 -6q7 -5 0 -9l-12 -32q-14 -14 -19 -11l4 -6q-8 5 -38.5 14.5t-92.5 20t-125 10.5q-204 0 -356 -98 q-190 -110 -291 -399h721q3 0 6 -3.5t2 -7.5l-6 -32q-4 -11 -12 -11h-725q-18 -50 -27 -92q-15 -73 -18 -151h719q9 0 6 -10l-6 -31q0 -4 -5 -8t-8 -4h-712q9 -245 124 -363q70 -63 173 -91t202 -28q76 0 191 17l10 2q2 0 5 -2.5t3 -3.5v-31q0 -10 2 -10q-6 -3 -34 -8.5 t-81 -11t-106 -5.5q-262 0 -405 133q-145 130 -136 402h-231q-6 0 -6 12zM1419 1337h2h-2z" />
<glyph unicode="&#x2122;" horiz-adv-x="1439" d="M328 1290l4 15h514l-4 -15h-248l-141 -667h-17l142 667h-250zM791 627l188 678h2h68q0 -5 4 -7l2 5l78 -666l165 311h-2q19 35 86 157.5t103 190.5q7 9 4 9h2h86l-113 -676v-2h-16l108 663h-59l-180 -338l-172 -323l2 4q-9 -12 -10 -12h-21q-2 2 -4 10l4 -2l-80 661h-47 l-184 -663h-12h-2z" />
<glyph unicode="&#x25fc;" horiz-adv-x="1024" d="M0 0v1024h1024v-1024h-1024z" />
<glyph unicode="&#xfb01;" horiz-adv-x="1040" d="M248 14q64 237 127 527q10 48 67 368h-182q-9 0 -6 6l4 27q3 10 10 10h183q1 1 3 15t3 16l2 12q38 227 147 336q104 107 258 107q58 0 125 -15q25 -6 69.5 -19t63.5 -18q9 -2 11 -2h-3q38 -11 56.5 -39.5t9.5 -68.5q-9 -44 -48 -76.5t-85 -32.5t-71.5 32.5t-16.5 76.5 q5 28 57 92l-59 12q-67 13 -117 13q-138 0 -223 -88q-87 -90 -117 -242q-8 -31 -12 -62l-2 -12l-4 -37h524q4 0 4 -24l-2 -8q-11 -161 -80 -490q-51 -230 -108 -424q0 -2 -4 -4t-7 -2q-4 0 -12 1t-12 1l-6 10q56 193 106 426q55 252 82 471h-494q-52 -281 -71 -366 q-28 -135 -60 -267.5t-48.5 -195t-20.5 -74.5q0 -6 -6 -6q-4 0 -14.5 1t-14.5 1q-9 4 -6 12z" />
<glyph unicode="&#xfb02;" horiz-adv-x="1013" d="M244 2v12q1 3 11.5 42.5t22.5 86.5t28 112t35 146.5t36 163.5q41 184 65 342h-186q-8 0 -4 8l4 27q3 10 8 10h182q1 1 3.5 15t3.5 16l2 10q33 220 147 338q107 107 258 107q58 0 125 -15q34 -7 162 -45q4 -4 0 -12l-8 -39q-7 -32 -38 -162.5t-67 -287.5t-65 -293 q-86 -401 -97 -570q-3 -10 -4 -10h2l-32 -4q-5 0 -11 6q10 159 101 598q115 531 174 742q-20 7 -113 30q-10 0 -18 4q-89 13 -119 13q-137 0 -219 -88q-102 -109 -133 -306l-2 -12l-4 -35h274q5 0 2 -10l-4 -27q-4 -8 -6 -8h-275q-52 -281 -71 -366q-28 -134 -60 -266 t-48.5 -194.5t-20.5 -74.5q0 -6 -6 -6q-17 0 -35 2z" />
<glyph unicode="&#xfb03;" horiz-adv-x="1675" d="M221 6l2 8q77 286 127 521q43 193 70 372h-189q-8 0 -4 8l4 27q3 10 9 10h184l8 31q22 135 75.5 236t131.5 155q86 62 207 62q27 0 49.5 -2.5t33 -5.5t11.5 -5q12 -3 -8 -39q0 -3 -10.5 -12t-14.5 -8q-36 27 -71 27q-99 0 -179 -54q-65 -43 -112.5 -136t-67.5 -216 l-8 -33h283q7 0 4 -10l-4 -27q-4 -8 -9 -8h-278q-51 -282 -78 -397q-27 -130 -55.5 -251.5t-45 -182.5t-20.5 -68q0 -1 -1 -3t-1 -3q-4 -2 -6 -2l-29 2q-4 0 -8 4zM760 14q64 237 127 527q10 48 67 368h-184q-7 0 -4 6l4 27q3 10 8 10h185q1 1 3 15t3 16l2 12 q38 227 145 336q104 107 260 107q56 0 123 -15q24 -6 141 -39q36 -11 55.5 -40t12.5 -68q-9 -44 -49 -76.5t-86 -32.5q-44 0 -69.5 32.5t-16.5 76.5q4 25 55 92l-59 12q-67 13 -115 13q-138 0 -223 -88q-87 -90 -117 -242q-8 -31 -12 -62l-2 -12l-4 -37h524q4 0 4 -24l-2 -8 q-23 -216 -80 -490q-52 -238 -110 -424q0 -6 -9 -6q-4 0 -12 1t-12 1l-8 10q57 186 108 426q61 282 80 471h-492q-52 -281 -71 -366q-28 -135 -60 -267.5t-48.5 -195t-20.5 -74.5q0 -6 -10 -6q-4 0 -12.5 1t-12.5 1q-9 4 -6 12z" />
<glyph unicode="&#xfb04;" horiz-adv-x="1585" d="M284.5 7.5q-1.5 -1.5 0.5 -3.5q1 0 3 -1t3 -1l31 -2h6v8q4 7 20.5 68t45 182.5t55.5 251.5q22 94 77 397h279q6 0 10 8l4 27q3 10 -6 10h-283l9 33q22 122 69.5 216t110.5 136q87 54 176 54q11 0 44 -8.5t54 -2.5l5 3q5 8 14 32q1 20 -107 21q-117 0 -203 -62 q-79 -54 -131.5 -154.5t-74.5 -236.5l-9 -31h-184q-9 0 -12 -10l-4 -27q-1 -3 2 -5.5t6 -2.5h186q-43 -247 -71 -372q-64 -303 -123 -521q-1 -5 -2.5 -6.5zM815 2q5 0 8 12q74 288 129 551q42 190 68 342h-186q-3 0 -5.5 2.5t-1.5 5.5l4 27q3 10 11 10h182l10 41 q33 218 144 338q110 107 260 107q56 0 123 -15q22 -4 46.5 -10.5t61 -17.5t55.5 -17q5 -5 2 -12l-2 -16q-1 -6 -7 -27.5t-7 -26.5q-124 -518 -166 -712q-85 -399 -94 -572q-3 -8 -4 -8l-33 -4q-2 0 -8 6q10 166 100 598q103 477 172 742q-56 17 -102 28l-27 6 q-67 13 -118 13q-138 0 -220 -88q-56 -60 -89 -144t-44 -162l-2 -12l-4 -35h272q2 0 4 -3t1 -7l-5 -27q-4 -8 -8 -8h-272q-46 -247 -72 -366q-28 -134 -60.5 -266t-49.5 -194t-21 -75q0 -6 -4 -6q-17 0 -35 2h-6z" />
</font>
</defs>
</svg>
