<?xml version="1.0" standalone="no"?>
<!DOCTYPE svg PUBLIC "-//W3C//DTD SVG 1.1//EN" "http://www.w3.org/Graphics/SVG/1.1/DTD/svg11.dtd" >
<svg xmlns="http://www.w3.org/2000/svg">
<metadata></metadata>
<defs>
<font id="kiddysansregular" horiz-adv-x="1089" >
<font-face units-per-em="2048" ascent="1536" descent="-512" />
<missing-glyph horiz-adv-x="819" />
<glyph horiz-adv-x="2048" />
<glyph horiz-adv-x="2048" />
<glyph unicode="&#xd;" horiz-adv-x="2048" />
<glyph unicode=" "  horiz-adv-x="819" />
<glyph unicode="&#x09;" horiz-adv-x="819" />
<glyph unicode="&#xa0;" horiz-adv-x="819" />
<glyph unicode="!" horiz-adv-x="360" d="M49 131v6v15q0 14 2 20q0 6 4 10q0 7 2 11q6 12 15 24l6 6l12 13l27 18q3 1 11 4t13 4q12 6 31 6q1 0 3 1t3 1h15q6 0 26 -4l8 -4l15 -6l8 -2l16 -12l6 -6l4 -9l11 -10l8 -12q9 -18 12 -33q4 -8 4 -12v-8v-15q-3 -33 -16 -63l-12 -21l-7 -8l-4 -8l-6 -6l-8 -6l-8 -7 l-8 -4l-4 -2q-8 -4 -11 -4l-8 -4h-4q-12 -4 -14 -4h-8h-15q-37 3 -61 18l-11 7l-8 6q-4 2 -8 6q-4 0 -4 4l-8 8q0 1 -1 2t-1 2q-12 19 -13 21q-2 2 -2 4q-9 24 -12 53zM131 432l6 961q2 11 10 19.5t19 8.5h33q22 -7 22 -28l-6 -961q-2 -11 -9.5 -20t-17.5 -9h-32 q-25 7 -25 29z" />
<glyph unicode="&#x22;" horiz-adv-x="720" d="M150 983l2 510q0 10 8.5 19.5t19.5 9.5h33q27 -7 27 -29l-4 -510q0 -12 -8.5 -21.5t-18.5 -9.5h-33q-26 6 -26 31zM477 983l2 510q0 10 9 19.5t20 9.5h31q28 -6 28 -29l-4 -510q0 -12 -8 -21.5t-20 -9.5h-31q-27 6 -27 31z" />
<glyph unicode="#" horiz-adv-x="1046" d="M45 475v29q0 10 11 20.5t20 10.5l182 -3l51 353h-184q-12 0 -20.5 8.5t-8.5 19.5v35q7 25 29 25l197 -2l61 426q11 30 35 24q4 0 13 -2t13 -2q10 0 18.5 -10.5t8.5 -22.5l-61 -413h266l63 426q8 30 33 24q4 0 13.5 -2t13.5 -2q10 0 18 -10.5t8 -22.5l-61 -415h203 q11 0 20.5 -9t9.5 -22l-2 -27q0 -13 -8 -21.5t-20 -8.5l-215 2l-52 -353q35 0 110 -1t110 -1q12 0 20 -8t8 -20v-29q0 -14 -9 -21.5t-19 -7.5h-234l-59 -417q-5 -25 -33 -25l-27 4q-12 0 -20 10t-8 23l59 407h-264l-62 -424q-6 -20 -30 -20l-29 4q-11 0 -19 11t-8 22l60 407 q-28 0 -85 1t-85 1q-12 0 -21.5 8.5t-9.5 20.5zM346 532q47 0 133.5 -1t132.5 -1l54 353q-47 0 -134 1t-135 1z" />
<glyph unicode="$" horiz-adv-x="880" d="M20 109.5q-3 11.5 3 21.5l14 29q9 21 35 14q4 0 10 -4q23 -12 61.5 -27t114 -33t143.5 -18h2v541q-52 16 -92.5 32t-87 46t-76.5 66.5t-50.5 92.5t-20.5 125q0 51 8 95q13 72 52 129.5t95 91.5q66 39 172 49v268q0 11 9 20t22 9h33q9 0 19 -9.5t10 -19.5v-266 q92 -5 178 -27t127 -39q13 -1 19.5 -16.5t0.5 -24.5v2l-12 -30q-8 -19 -39 -19q-2 2 -38.5 15t-105 28t-130.5 19v-565h2q91 -22 120 -35q82 -35 141.5 -110t71.5 -159q23 -176 -139 -305q-81 -72 -196 -90v-270q0 -13 -9.5 -22t-19.5 -9h-33q-14 0 -22.5 8.5t-8.5 22.5v262 h-2q-84 0 -176.5 24t-136.5 43.5t-55 26.5h2q-12 6 -15 17.5zM168 991q0 -59 18.5 -104t54 -75t73 -48.5t89.5 -34.5v541q-65 -5 -127 -39q-82 -46 -100 -158q-8 -39 -8 -82zM496 100q82 16 139 66q123 97 104 221q-10 68 -56.5 122.5t-100.5 76.5q-32 14 -86 26v-512z" />
<glyph unicode="%" horiz-adv-x="1624" d="M92 965q0 75 18.5 147t52 130.5t87.5 94t119 35.5q73 0 131 -34.5t93 -91t53 -124.5t18 -141q0 -161 -70 -268q-81 -129 -223 -129q-137 0 -215 123q-64 106 -64 258zM176 965q0 -124 51 -211q53 -86 144 -86q98 0 151 92q60 98 60 221q0 79 -22 146.5t-72 114t-119 46.5 q-60 0 -105 -48t-66.5 -120.5t-21.5 -154.5zM360 35q-6 9 7 22l-2 -4q128 226 387 676.5t387 675.5q6 10 17 13.5t20 -1.5l30 -18q1 -1 3 -2t2.5 -2t1.5 -4t1 -9q2 -7 -4 -18l-776 -1354q-10 -10 -22 -10q-13 0 -19 6l4 -2l-20 12q-14 5 -17 19zM942 426q0 103 30 195 t94.5 154.5t150.5 62.5q73 0 131 -35t92.5 -93t52.5 -126.5t18 -141.5t-18 -141.5t-52 -126t-92 -92.5t-130 -35q-63 0 -120 34t-93 91q-64 103 -64 254zM1026 426q0 -125 49 -209q57 -86 144 -86q95 0 153 92q55 90 55 219q0 80 -21.5 148.5t-70.5 116t-118 47.5 q-87 0 -139 -99.5t-52 -228.5z" />
<glyph unicode="&#x26;" horiz-adv-x="1316" d="M139 438q0 59 18.5 109.5t45.5 85.5t72.5 68t83 53t92.5 45q-70 100 -136 219v-2q-39 65 -39 137q0 83 64 154q47 51 126 82.5t161 31.5q90 0 147 -32q76 -36 110 -107t23 -166q-11 -69 -44.5 -127t-83 -100.5t-95.5 -70.5t-102 -54q151 -214 364 -445 q79 114 130.5 248.5t37.5 218.5q0 20 25 33l30 4q25 0 31 -20q16 -109 -43.5 -267t-152.5 -282q130 -137 161 -164l21 -22q17 -9 2 -39l-19 -21q-9 -9 -23 -8.5t-20 10.5l11 -4q-11 5 -65.5 57t-121.5 123q-44 -44 -80 -67q-187 -109 -356 -109q-78 0 -139 27v-2 q-153 59 -215 262q-21 89 -21 141zM223 440q0 -47 19 -118q51 -163 166 -209h-2q63 -19 106 -19q65 0 150.5 27t160.5 69q31 19 68 62q-222 245 -389 477q-57 -25 -91 -42t-74.5 -44t-62 -53.5t-36.5 -65t-15 -84.5zM360 1149q0 -35 27 -88q81 -137 143 -227q127 60 202 127 t91 167q17 133 -84 187q-49 22 -112 22q-66 0 -127.5 -24t-98.5 -64q-41 -45 -41 -100z" />
<glyph unicode="'" horiz-adv-x="337" d="M129 983l2 510q0 10 9 19.5t20 9.5h33q26 -6 26 -29l-4 -510q0 -12 -8.5 -21.5t-18.5 -9.5h-30q-14 0 -21.5 10t-7.5 21z" />
<glyph unicode="(" horiz-adv-x="804" d="M336 608q0 146 29 292.5t66.5 246.5t82.5 188.5t68.5 124t33.5 47.5q8 15 21 15q12 4 20 -4l23 -19q11 -7 13 -19.5t-5 -21.5q-262 -393 -262 -848q0 -441 264 -848v-2q4 -8 4 -18q-9 -17 -16 -21l-23 -16q-8 -4 -16 -4q-13 0 -25 12q-278 428 -278 895z" />
<glyph unicode=")" horiz-adv-x="806" d="M102 -258q0 10 4 18v2q265 409 265 848q0 136 -26.5 271.5t-60 227.5t-77.5 178t-64.5 118t-35.5 52l-1 1q-5 9 -3 21.5t12 19.5l24 19q12 8 21 4q14 0 18 -15q18 -24 41.5 -60.5t69.5 -128t81.5 -189t63 -239t27.5 -282.5q0 -466 -281 -895q-9 -12 -22 -12q-9 0 -17 4 l-24 16q-6 3 -15 21z" />
<glyph unicode="*" horiz-adv-x="995" d="M80 1104v31q0 4 8 20q6 6 16 6q1 0 3.5 1t3.5 1l266 -2l-187 189q-8 12 -8 20q0 13 8 21l21 20q10 8 22.5 7t20.5 -9l235 -235l238 235q7 13 23 8q10 0 18 -8l25 -23q8 -20 0 -36l-193 -189q44 0 134 -1t134 -1q9 0 19 -10t10 -19v-30q0 -11 -10 -21q-8 -8 -19 -8l-282 2 l200 -201q9 -9 9 -20q0 -12 -9 -21l-20 -20q-8 -8 -23 -8q-12 0 -20 8l-234 240l-239 -238q-8 -8 -21 -8q-8 0 -20 8l-21 23q-9 7 -9 18t9 20l201 199q-47 0 -140.5 1t-139.5 1q-12 0 -20.5 8.5t-8.5 20.5z" />
<glyph unicode="+" horiz-adv-x="1177" d="M0 598v33q7 24 29 24l510 -2q0 89 1 264.5t1 264.5q0 26 26 26h31q29 0 29 -26l-4 -529q85 0 256 -2t256 -2q11 0 18.5 -7.5t7.5 -18.5v-33q-6 -27 -28 -27l-510 2v-536q0 -12 -10 -21.5t-21 -9.5l-31 2q-12 0 -19 9t-7 20l2 536q-86 0 -254.5 1t-253.5 1 q-12 0 -20.5 9.5t-8.5 21.5z" />
<glyph unicode="," horiz-adv-x="296" d="M11 -194.5q-2 12.5 3 20.5v-2q85 108 111 213q18 74 18 219v41q0 11 8.5 21t18.5 10h31q10 0 20 -11t10 -20v-41q0 -162 -20 -242q-32 -123 -137 -252q-14 -14 -31 2l-23 21q-7 8 -9 20.5z" />
<glyph unicode="-" horiz-adv-x="868" d="M139 629v30q0 15 11 21q8 8 20 8l510 -2q10 0 19.5 -9t9.5 -20v-30q0 -10 -11 -21q-8 -8 -18 -8l-510 4q-12 0 -21.5 8.5t-9.5 18.5z" />
<glyph unicode="." horiz-adv-x="468" d="M98 152q0 43 41 80.5t103 37.5q46 0 83 -38.5t37 -79.5q0 -66 -35.5 -109t-84.5 -43q-66 0 -105 42t-39 110zM98 152q0 43 41 80.5t103 37.5q46 0 83 -38.5t37 -79.5q0 -66 -35.5 -109t-84.5 -43q-66 0 -105 42t-39 110zM98 152q0 43 41 80.5t103 37.5q46 0 83 -38.5 t37 -79.5q0 -66 -35.5 -109t-84.5 -43q-66 0 -105 42t-39 110z" />
<glyph unicode="/" horiz-adv-x="610" d="M2 25.5q-5 12.5 2 21.5l-2 -2l524 1356l11 12q16 7 26 0l-4 4q4 -1 13.5 -5t13.5 -5q11 -3 15.5 -15.5t-1.5 -23.5l2 2l-524 -1354l-15 -16h-20l-25 10q-11 3 -16 15.5z" />
<glyph unicode="0" horiz-adv-x="1175" d="M106 686q0 73 11.5 153t34 163t61 157.5t87 133.5t116.5 93.5t147 34.5h33q100 -8 180.5 -60.5t131 -128.5t84.5 -173.5t47.5 -190t13.5 -182.5q-3 -98 -19.5 -190.5t-52.5 -184t-88 -159.5t-133.5 -110t-181.5 -42q-95 1 -174 40t-133.5 104.5t-92 154t-55 186 t-17.5 201.5zM195 686q0 -91 14.5 -176t45.5 -162t75 -134.5t108 -91t140 -34.5q96 1 172 52t122 137t69.5 190t23.5 219q0 119 -25.5 232.5t-73 206.5t-122.5 149.5t-166 56.5q-90 0 -164 -56.5t-121 -149.5t-72.5 -206.5t-25.5 -232.5z" />
<glyph unicode="1" horiz-adv-x="614" d="M-6 1239q-9 25 12 39l291 143h131q12 0 20.5 -9.5t8.5 -20.5v-1360q0 -13 -8.5 -22t-20.5 -9h-33q-12 0 -20 9t-8 22v1298h-52l-268 -131q-10 -5 -22.5 -2t-18.5 12z" />
<glyph unicode="2" horiz-adv-x="1040" d="M96 1241q28 81 134 129t229 51q66 2 132 -10t129 -37t113.5 -71.5t75.5 -108.5h-2q21 -50 21 -113q0 -74 -31.5 -161.5t-103.5 -202t-209 -260.5t-330 -310q0 -13 -1 -30.5t-1 -28.5h713q10 0 19 -9t9 -22v-28q0 -11 -9 -20t-19 -9h-772q-13 0 -21 8.5t-8 20.5l2 151 q0 7 8 15l6 6q157 133 276.5 253.5t190.5 211t115.5 172t60 137t15.5 104.5q0 39 -15 82q-25 59 -86.5 99.5t-132.5 57t-143 13.5q-106 -3 -184 -34.5t-93 -77.5q-19 -31 -39 -25l-24 8q-42 17 -25 39z" />
<glyph unicode="3" horiz-adv-x="980" d="M59 156q-9 20 7 32l34 17q25 12 33 -4q28 -56 82 -85.5t127 -29.5q43 0 111 14h-2q134 31 239.5 115t104.5 178q0 97 -145.5 182.5t-399.5 141.5q-10 0 -17.5 6.5t-9.5 17.5l-6 27q-2 11 1.5 18.5t8 10.5t15.5 8q129 25 226.5 57t149.5 61t84 60.5t40.5 52t9.5 39.5 q3 73 -79.5 139.5t-191.5 96.5q-74 22 -133 22q-138 0 -196 -92q-17 -20 -29 -16l-39 20q-10 14 -10 35q80 139 274 139q75 0 158 -22q137 -40 237.5 -130t96.5 -194q-2 -40 -21.5 -78t-62 -80t-124 -82t-194.5 -71q104 -32 184 -69.5t128.5 -74.5t79 -77.5t42 -75 t11.5 -70.5q1 -85 -60.5 -166t-154.5 -135.5t-197 -79.5q-66 -14 -129 -14q-208 0 -283 156z" />
<glyph unicode="4" horiz-adv-x="1118" d="M6 461v84q0 10 6 16l613 848q14 14 26 14h133q12 0 20.5 -9.5t8.5 -20.5v-871h211q12 0 20.5 -8.5t8.5 -21.5v-31q0 -12 -8.5 -20.5t-20.5 -8.5h-211v-401q0 -13 -8.5 -22t-20.5 -9h-32q-12 0 -20.5 9t-8.5 22v401h-688q-12 0 -20.5 8.5t-8.5 20.5zM96 522h627v809h-41 l-586 -807v-2z" />
<glyph unicode="5" horiz-adv-x="1007" d="M39 59l6 33q3 10 13.5 17.5t19.5 7.5q174 -23 289 -23q104 0 185.5 15.5t129 42t74 51t41.5 51.5q30 50 30 113q0 120 -94 233q-66 85 -172 146t-227 61q-66 0 -133 -21l-21 -6q-17 -7 -30 6q-11 11 -11 25v23q0 212 72 563q2 9 10.5 16.5t18.5 7.5h675q10 0 19.5 -9.5 t9.5 -20.5v-35q0 -10 -9 -19.5t-20 -9.5h-626q-47 -253 -56 -434q47 8 101 8q144 0 269.5 -72.5t203.5 -171.5q115 -149 115 -292q0 -89 -43 -162q-23 -39 -59 -71.5t-95 -64t-151.5 -49.5t-208.5 -18q-140 0 -299 27q-12 1 -19.5 11.5t-7.5 20.5z" />
<glyph unicode="6" horiz-adv-x="1144" d="M106 582q0 142 51 284t146 258q117 143 278 219t347 76q11 0 20.5 -8t9.5 -20v-33q0 -10 -9.5 -19.5t-20.5 -9.5q-163 0 -307.5 -68.5t-249.5 -193.5q-75 -98 -122.5 -217t-51.5 -232q54 111 131 177q115 100 270 100q36 0 74 -6q202 -30 295 -164q69 -99 69 -238 q0 -11 -0.5 -22t-1.5 -19.5t-2 -15t-2 -10.5v-4q-9 -89 -47 -160q-23 -49 -70 -100v2q-40 -52 -96 -88q-60 -40 -149 -64q-34 -6 -80 -6q-55 0 -107 8t-137 47q-47 24 -83.5 60t-61 80.5t-39.5 86t-27 91.5q-7 22 -10 41l-4 22q-13 56 -13 146zM221 397q53 -206 164 -262 q63 -31 111 -37q50 -8 92 -8q34 0 61 6q76 18 117 47q57 42 82 74q34 39 57 80q24 49 37 137q8 148 -49 240q-74 100 -236 125q-23 4 -59 4q-121 0 -209 -76q-76 -64 -119 -162.5t-49 -167.5z" />
<glyph unicode="7" horiz-adv-x="933" d="M2 1360v31q0 11 9.5 20.5t21.5 9.5h839q11 0 21 -10t10 -20v-80q0 -10 -8 -21l-637 -1280q-8 -10 -33 -10l-32 16q-11 6 -14 17t3 22l631 1268v8h-780q-12 0 -21.5 8.5t-9.5 20.5z" />
<glyph unicode="8" horiz-adv-x="1144" d="M102 391q13 109 90.5 207.5t186.5 151.5q-75 34 -131 96q-91 114 -72 256q22 113 81 189t151 108q67 22 151 22q154 0 254 -78v3q120 -94 129 -238q9 -150 -100 -266q-59 -59 -94 -84q124 -58 202.5 -189.5t69.5 -259.5q-16 -155 -182 -246h2q-105 -63 -277 -63 q-95 0 -168 20q-29 9 -73 25v-2q-26 10 -70 35q-65 43 -111 108q-24 38 -33 96t-6 109zM193 381q-4 -32 3 -75t21 -68q43 -62 82 -82q23 -16 57 -29q22 -11 62 -18q74 -19 145 -19q144 0 232 49q125 73 137 180q12 108 -62.5 218t-187.5 151q-55 14 -119 14 q-129 0 -242 -97.5t-128 -223.5zM264 1087q-10 -106 51 -182v2q41 -49 101.5 -76.5t124.5 -27.5h37q60 -3 88 10q47 23 112 92q83 86 74 197q-10 104 -92 172q-75 57 -201 57q-67 0 -123 -20q-64 -22 -109.5 -81.5t-62.5 -142.5z" />
<glyph unicode="9" horiz-adv-x="1144" d="M94 930q0 11 0.5 22.5t1.5 19.5t2 14.5t2 10.5v4q6 89 45 162q26 50 70 101v-2q54 61 98 88q63 44 148 63q30 6 80 6q57 0 106 -8q60 -10 137 -49q90 -43 137.5 -124.5t73.5 -193.5q2 -5 2 -8l13 -53q14 -66 14 -145q0 -143 -51 -285t-146 -258q-117 -143 -278 -219 t-348 -76q-12 0 -20.5 8.5t-8.5 20.5v30q0 11 8.5 21t20.5 10q164 0 308 67.5t249 192.5q75 98 122.5 217.5t51.5 233.5q-47 -102 -131 -178q-114 -99 -269 -99q-38 0 -73 6q-200 27 -295 164q-70 95 -70 236zM186 985q-8 -147 52 -240q73 -102 233 -124q29 -5 61 -5 q124 0 209 76q76 63 119 163t47 167q-52 205 -162 260q-74 34 -112 39q-46 8 -92 8q-35 0 -62 -6q-65 -17 -117 -47q-40 -30 -81 -74q-24 -28 -56 -80q-26 -50 -39 -137z" />
<glyph unicode=":" horiz-adv-x="497" d="M115 131v6v15q0 14 2 20q0 6 4 10q0 3 4 11q8 16 14 24l6 6l13 13l24 18l12 4t15 4q12 6 29 6q1 0 3 1t3 1h14q9 0 29 -4l8 -4l12 -6l8 -2l17 -12l6 -6l6 -9l10 -10l8 -12q11 -21 13 -33q4 -8 4 -12v-8v-15q-2 -30 -17 -63l-12 -21l-6 -8l-6 -8l-6 -6l-8 -6l-9 -7l-8 -4 l-2 -2q-8 -4 -10 -4l-8 -4h-4q-12 -4 -15 -4h-10h-14q-35 3 -62 18l-10 7l-8 6l-6 6q-4 0 -4 4l-9 8q0 1 -1 2t-1 2q-11 16 -12 21q-2 2 -2 4q-11 22 -14 53zM115 889v6v14q0 13 2 19q0 4 4 12q0 2 4 10q9 19 14 25l6 6l13 10l24 19q15 8 27 10q12 6 29 6q1 0 3 1t3 1h14 q9 0 29 -4l8 -4l12 -6l8 -4l17 -13l6 -6l6 -6l10 -10l8 -12q11 -21 13 -35q4 -8 4 -13v-6v-14q-3 -36 -17 -64l-12 -20l-6 -8l-6 -8l-6 -9l-8 -6l-9 -6l-8 -6h-2q-2 0 -10 -4q-1 0 -4 -1t-4 -1t-2 -1t-2 -1q-3 0 -8 -1t-7 -1h-10h-14q-32 3 -62 16l-10 6l-8 6q-3 3 -6 9 q-4 0 -4 4l-9 8q0 1 -1 2t-1 2q-11 17 -12 20q-2 2 -2 5q-11 18 -14 53z" />
<glyph unicode=";" horiz-adv-x="397" d="M63 -194.5q-2 12.5 3 20.5v-2q83 106 110 213q19 78 19 219v41q0 11 8 21t18 10h31q14 0 20 -11q11 -11 11 -20v-41q0 -158 -21 -242q-30 -118 -129 -241l2 2q-7 -15 -24 -15q-11 0 -17 4l-22 21q-7 8 -9 20.5zM100 889v6v14q0 13 2 19q0 4 4 12l5 10q9 19 14 25l6 6 l12 10l25 19q15 8 27 10q12 6 28 6q1 0 3 1t3 1h15q8 0 28 -4l9 -4l12 -6l8 -4l16 -13l7 -6l6 -6l10 -10l8 -12q9 -19 12 -35q2 -4 2 -13v-6v-14q0 -36 -14 -64l-12 -20l-6 -8l-6 -8l-7 -9l-8 -6l-8 -6l-8 -6h-2q-2 0 -10 -4q-1 0 -4.5 -1t-4.5 -1t-2 -1t-2 -1q-3 0 -7.5 -1 t-6.5 -1h-10h-15q-31 3 -61 16l-10 6l-8 6q-7 4 -7 9q-4 0 -4 4l-8 8q0 1 -1 2t-1 2q-11 17 -12 20q-2 2 -2 5q-12 21 -15 53z" />
<glyph unicode="&#x3c;" horiz-adv-x="1150" d="M2 483v72q0 24 16 29l-2 -2l947 458q7 7 22 7q18 -7 21 -21l12 -22q6 -12 1.5 -24t-15.5 -15l2 2l-920 -447l926 -461q1 -1 3 -2t2.5 -2t1.5 -3.5t1 -6.5q2 -7 -2 -18l-14 -27l2 2q-5 -18 -27 -18q-8 0 -14 4l-949 471l2 -2q-16 5 -16 26z" />
<glyph unicode="=" horiz-adv-x="1353" d="M92 375v26q0 13 8.5 22t20.5 9h1091q11 0 21 -9t10 -22v-26q0 -13 -10 -22t-21 -9h-1091q-12 0 -20.5 9t-8.5 22zM92 788v31q0 12 8.5 19.5t20.5 7.5h1091q11 0 21 -8t10 -19v-31q0 -11 -10 -19.5t-21 -8.5h-1091q-12 0 -20.5 8t-8.5 20z" />
<glyph unicode="&#x3e;" horiz-adv-x="1150" d="M117 985q-4 7 2 19l14 26l-2 -2q3 19 25 19q6 0 14 -5l948 -471l-2 2q19 -5 19 -26v-72q0 -24 -19 -29l2 3l-946 -459q-6 -6 -22 -6q-16 7 -19 20l-12 23q-6 9 -1 22.5t15 16.5l-2 -3l922 445l-4 2l-924 461q-1 1 -3.5 2t-3.5 3.5t-1 8.5z" />
<glyph unicode="?" horiz-adv-x="690" d="M23 1337q0 13 14 17q134 67 254 67q65 0 117 -18q124 -47 184 -178q33 -65 33 -131q0 -79 -58 -160q-25 -41 -69 -78l-11 -12q-62 -55 -88 -96q-41 -72 -57 -168q-4 -23 -4 -68q0 -36 2 -61q0 -9 -8 -25q-8 -8 -21 -8l-30 -2q-11 0 -19 8t-8 18q-2 20 -2 68t6 82 q19 120 68 199q34 58 100 116l14 11q42 42 58 67q39 51 39 109q0 38 -23 96q-45 98 -137 129q-43 16 -86 16q-49 0 -103 -13.5t-83 -27.5l-29 -14q-25 -9 -37 12l-14 25q-6 12 -2 20zM158 131v6v15q0 14 2 20q0 6 4 10q0 3 4 11q8 16 14 24l6 6l11 13l26 18l12 4t15 4 q12 6 29 6q1 0 3 1t3 1h14q9 0 29 -4l8 -4l12 -6l8 -2l17 -12l6 -6l6 -9l10 -10l9 -12q9 -18 12 -33q0 -2 1 -6t1 -6v-8v-15q-3 -38 -14 -63l-13 -21l-6 -8l-6 -8l-6 -6l-8 -6l-9 -7l-8 -4l-4 -2q-4 -4 -8 -4l-8 -4h-4q-12 -4 -15 -4h-10h-14q-35 3 -62 18l-10 7l-8 6 q-4 2 -8 6q-2 2 -2 4l-9 8q0 1 -1 2t-1 2q-11 16 -12 21q-2 2 -2 4q-11 22 -14 53z" />
<glyph unicode="@" horiz-adv-x="1640" d="M115 528q0 173 55.5 318t157.5 246q72 63 163.5 108.5t175 66t142.5 29.5t98 9h21q205 0 348 -111.5t199 -312.5q26 -95 26 -203q0 -155 -55 -281t-150 -182q-83 -51 -157 -51q-46 0 -82 20q-74 44 -96 154q-31 -36 -66.5 -70.5t-84 -74.5t-100.5 -64.5t-96 -24.5 q-60 0 -96 39q-30 30 -46.5 106t-18.5 163q4 93 28 170t60 129t84.5 92.5t96.5 63t101.5 37t94.5 19.5t79 5q20 0 46 -2t30 -2l19 -2q22 -7 22 -29l-2 -16q0 -10 -6 -67t-21.5 -149.5t-33.5 -156.5l-13 -39q-2 -57 12.5 -119.5t53.5 -85.5q47 -28 147 31q73 47 117.5 153.5 t44.5 231.5q0 84 -22 180q-52 169 -173.5 265t-291.5 96h-15q-34 0 -80.5 -5.5t-126.5 -21.5t-165 -58t-150 -104q-184 -175 -184 -500q0 -175 57 -314t152 -218q136 -86 321 -86q147 0 361 61l-2 -2q10 6 21.5 0.5t17.5 -18.5l10 -25q3 -12 -3.5 -23.5t-15.5 -13.5 q-4 0 -12 -4q-27 -10 -70 -22.5t-132 -27.5t-173 -15q-228 0 -372 102q-250 173 -250 606zM541 410q-5 -157 41 -203q14 -14 32 -14q63 0 163 87t153 158q9 9 20 41l15 49q32 123 55 312q-3 0 -11.5 1t-11.5 1q-33 0 -67 -3.5t-79.5 -14.5t-86 -29.5t-81.5 -51.5t-71 -77 t-49.5 -110t-21.5 -146zM1020 840h2h12l-12 12q0 -2 -1 -6.5t-1 -5.5z" />
<glyph unicode="A" horiz-adv-x="1232" d="M59 47l445 1364q7 21 28 21h148q24 0 31 -21l450 -1364v-5q0 -8 -4 -17q-6 -12 -16 -15l-29 -10q-30 0 -37 20l-162 494h-608q-26 -82 -77 -244.5t-78 -244.5q-8 -13 -20 -21q-8 -5 -14 -5q-3 0 -7 1l-29 10q-12 3 -18 14q-4 7 -4 15q0 4 1 8zM336 602h547l-246 741h-64z " />
<glyph unicode="B" horiz-adv-x="1093" d="M152 39v1345q0 10 9.5 19t28.5 12q68 17 207 17q118 0 235 -27.5t195 -91.5q105 -91 105 -238q0 -159 -98 -254q-59 -56 -158 -86q130 -46 207 -123q102 -95 102 -241q0 -159 -96 -252q-127 -119 -434 -119q-62 0 -160 4h-12q-78 4 -101 4q-13 0 -21.5 10.5t-8.5 20.5z M240 94h20q6 0 18.5 -1t18.5 -1q94 -4 158 -4q274 0 372 94q70 73 70 189q0 102 -76 178q-117 114 -411 153q-38 0 -105 5q-20 2 -65 2v-615zM240 803q73 0 184 -12q245 0 346 94q74 71 74 190q0 109 -78 172q-108 94 -369 94q-87 0 -157 -8v-530z" />
<glyph unicode="C" horiz-adv-x="1204" d="M100 709q0 193 63.5 342t180.5 241q185 140 479 140q81 0 165.5 -11t120.5 -19.5t48 -12.5q11 -3 19 -13q5 -8 5 -16q0 -3 -1 -6v2l-9 -31q-16 -32 -45 -18l2 -2q-150 36 -303 36q-271 0 -430 -122q-205 -155 -205 -510q0 -165 54 -295.5t149 -210.5q157 -113 408 -113 q158 0 332 45q26 6 34 -18l13 -35v-2q0 -28 -21 -31q-19 -6 -58.5 -15.5t-127.5 -21.5t-172 -12q-281 0 -459 131q-118 90 -180 237t-62 341z" />
<glyph unicode="D" horiz-adv-x="1361" d="M154 55v1325q0 22 41 29q115 23 251 23q72 0 140 -6.5t151 -27t153.5 -53t139 -88.5t116.5 -129.5t77.5 -181t29.5 -237.5q0 -128 -28.5 -233t-75 -177t-113.5 -127t-135.5 -87t-149 -52t-147.5 -26.5t-137 -6.5q-71 0 -140.5 7t-103 13.5t-37.5 8.5l2 -2q-34 8 -34 28z M227 106l15 -14v10l-4 2q-1 0 -5.5 1t-5.5 1zM242 102q120 -16 225 -16q73 0 139.5 7.5t138 26.5t131.5 49t114.5 79t92.5 112.5t60 152.5t22 196q0 115 -26.5 209t-69 158.5t-104 114t-124.5 77.5t-136.5 45.5t-134 23.5t-124.5 6q-99 0 -204 -14v-1227z" />
<glyph unicode="E" horiz-adv-x="983" d="M152 29v1374q0 11 9 21t21 10h736q13 0 21.5 -10t8.5 -21v-31q0 -12 -8.5 -20.5t-21.5 -8.5h-676v-544h632q10 0 20.5 -10.5t10.5 -20.5v-31q0 -11 -10 -19.5t-21 -8.5h-632v-619h710q10 0 20.5 -10t10.5 -21v-30q0 -12 -10 -20.5t-21 -8.5h-770q-12 0 -21 8.5t-9 20.5z " />
<glyph unicode="F" horiz-adv-x="954" d="M152 31v1370q0 11 9 21t21 10h744q10 0 19 -10t9 -21v-31q0 -12 -8.5 -21.5t-19.5 -9.5h-682v-548h639q11 0 19.5 -9.5t8.5 -19.5v-33q0 -12 -8 -21.5t-20 -9.5h-639v-667q0 -13 -9.5 -22t-19.5 -9h-33q-12 0 -21 9t-9 22z" />
<glyph unicode="G" horiz-adv-x="1327" d="M104 678q0 416 252 606q192 148 508 148q188 0 338 -43q21 -6 21 -33l-9 -33q-3 -12 -13 -19t-19 -4q-5 3 -44.5 11.5t-118.5 19t-155 10.5q-278 0 -456 -129q-215 -174 -215 -534q0 -395 249 -526q119 -64 293 -64q207 0 410 74v477h-354q-12 0 -20.5 9t-8.5 20v30 q0 12 8.5 20.5t20.5 8.5h415q11 0 19 -8.5t8 -20.5v-561q0 -44 -175 -90.5t-323 -46.5q-265 0 -428 135q-203 178 -203 543z" />
<glyph unicode="H" horiz-adv-x="1269" d="M154 29v1374q0 12 8.5 20.5t17.5 8.5h31q12 0 20.5 -8.5t8.5 -20.5v-615h780v615q0 12 8.5 20.5t20.5 8.5h28q11 0 19 -8.5t8 -20.5v-1374q0 -12 -8 -20.5t-19 -8.5h-28q-12 0 -20.5 8.5t-8.5 20.5v673h-780v-673q0 -12 -8.5 -20.5t-20.5 -8.5h-31q-9 0 -17.5 8.5 t-8.5 20.5z" />
<glyph unicode="I" horiz-adv-x="387" d="M147 29v1374q0 10 9 19.5t20 9.5h31q11 0 20 -9.5t9 -19.5v-1374q0 -12 -8.5 -20.5t-20.5 -8.5h-31q-12 0 -20.5 8.5t-8.5 20.5z" />
<glyph unicode="J" horiz-adv-x="720" d="M-10 68l6 28q9 26 33 21q146 -31 204 -31q110 0 173 66q55 56 74 150q16 85 16 197v25q0 69 -4 205q-5 255 -5 309q2 63 2 193q0 107 -2 168q0 11 8.5 21t18.5 10l31 2q23 0 30 -25v-176q0 -130 -2 -193q0 -112 5 -307q4 -126 4 -207v-24q0 -134 -20 -232 q-23 -107 -93 -178q-87 -90 -236 -90q-73 0 -213 31q-1 0 -5 1t-5 1q-20 6 -20 35z" />
<glyph unicode="K" horiz-adv-x="1132" d="M152 37v1356q0 12 8 20t20 8h31q12 0 20.5 -8t8.5 -20v-727q661 742 673 755q7 6 19 8q3 1 6 1q8 0 14 -5l25 -24q11 -13 0 -35l-494 -551l529 -756v-2q4 -6 4 -14v-6q-2 -11 -12 -17l-23 -16q-7 -6 -17 -6h-4q-12 2 -18 14v-2l-516 738l-186 -207v-504q0 -12 -8.5 -21.5 t-20.5 -9.5h-31q-12 0 -20 9.5t-8 21.5z" />
<glyph unicode="L" horiz-adv-x="905" d="M152 29v1372q0 12 9 20.5t21 8.5h29q10 0 19.5 -9t9.5 -20v-1315h639q12 0 20 -8.5t8 -20.5v-28q0 -12 -8 -20.5t-20 -8.5h-697q-12 0 -21 8.5t-9 20.5z" />
<glyph unicode="M" horiz-adv-x="1693" d="M135 45l88 1358q2 11 10.5 20t20.5 9h141q8 0 17 -7.5t12 -15.5l416 -1259l409 1259q14 23 29 23h174q12 0 20.5 -9t8.5 -22l61 -1360q-8 -27 -31 -27l-28 -2q-25 0 -31 29l-57 1302h-72q-76 -241 -223.5 -690.5t-206.5 -634.5q-7 -20 -29 -20h-49q-22 0 -29 20 l-434 1325h-43l-86 -1302q-2 -11 -11 -20t-19 -9l-33 2q-25 7 -25 31z" />
<glyph unicode="N" horiz-adv-x="1376" d="M154 29v1372q0 12 9 20.5t21 8.5h105q17 0 24 -15v2l793 -1323q2 0 5.5 1t6.5 1v1288q0 11 9.5 21t21.5 10h33q11 0 19.5 -10t8.5 -21v-1345q0 -13 -8 -22t-20 -9l-109 -6q-18 0 -26 16v-2l-793 1325h-10v-1312q0 -12 -9 -20.5t-22 -8.5h-29q-12 0 -21 8.5t-9 20.5z" />
<glyph unicode="O" horiz-adv-x="1529" d="M106 676q0 145 49 282t133.5 242t207.5 168.5t262 63.5q119 -3 224 -48t181 -119t132 -170t84 -203t30 -216q0 -134 -41.5 -255t-118.5 -212q-92 -103 -222.5 -156t-268.5 -53q-320 13 -490 209q-78 92 -120 213t-42 254zM195 676q0 -251 139 -408q73 -85 182 -131 t242 -49q273 6 424 180q68 78 104.5 184t36.5 224q0 117 -40 231.5t-111 208t-179.5 155.5t-234.5 72q-125 -10 -233 -72t-179 -155.5t-111 -208t-40 -231.5z" />
<glyph unicode="P" horiz-adv-x="1001" d="M152 29v1341q0 11 9 19t21 8q25 0 33 2q2 0 7 1t7 1l25 4q167 27 268 27h13q124 -3 217 -50q73 -33 133 -96q92 -98 92 -239q0 -34 -6 -64q-8 -34 -33 -94q-41 -80 -137 -180q-60 -57 -149 -93.5t-187 -42.5q-8 -2 -33 -2q-86 0 -192 25v-567q0 -12 -7.5 -20.5 t-19.5 -8.5h-31q-12 0 -21 8.5t-9 20.5zM227 1313h13v14zM240 688q102 -27 187 -27q16 0 32 1q171 9 280 110q82 82 121 156q19 47 23 71t4 47q0 37 -10 75q-17 62 -56 106q-48 51 -106 78q-71 35 -183 38h-12q-99 0 -280 -30v-625z" />
<glyph unicode="Q" horiz-adv-x="1517" d="M84 684q0 143 49 279t133 239.5t206 166.5t259 63q119 -3 223.5 -46.5t180.5 -116t130.5 -167t81.5 -201.5t27 -217q0 -131 -41.5 -250.5t-118.5 -210.5q-110 -125 -276 -178q99 -64 182 -86q72 -16 193 -16h65q11 0 21 -8.5t10 -20.5l-2 -31q0 -14 -9 -21t-20 -7h-65 q-145 0 -215 18q-60 17 -143 61.5t-140 88.5l-6 -3h2q-43 -6 -80 -6q-147 2 -273.5 56t-213.5 153q-77 91 -118.5 210.5t-41.5 250.5zM172 684q0 -245 139 -403q147 -173 420 -179q271 6 418 179q139 154 139 403q0 95 -23 188.5t-70 177.5t-112 148.5t-156 104.5t-196 43 q-105 -3 -196.5 -43t-157 -104.5t-112.5 -148.5t-70 -177.5t-23 -188.5z" />
<glyph unicode="R" horiz-adv-x="1134" d="M152 39v1331q0 11 9 19t21 8q10 0 20 1t13 1q201 33 305 33h12q122 -3 218 -50q73 -30 129 -96q43 -46 67.5 -108.5t24.5 -126.5q0 -36 -6 -66q-5 -34 -31 -92q-43 -84 -137 -178q-6 -5 -10 -10t-7.5 -8.5t-11.5 -8.5q38 -17 63.5 -45.5t40 -71.5t20.5 -77.5t13 -92.5 q7 -54 12.5 -87.5t18.5 -81.5t34 -88.5t52 -75.5l2 -2q7 -10 7 -20t-9 -19l-23 -21q-13 -7 -23 -7q-11 0 -18 9q-38 42 -64 89.5t-40.5 102.5t-21 93.5t-13.5 97.5q-5 43 -11 73t-18 61.5t-29 50.5t-44.5 32t-63.5 15q-96 -39 -192 -45h-31q-89 0 -188 24v-563 q0 -12 -9 -21.5t-22 -9.5h-29q-12 0 -21 9.5t-9 21.5zM242 692q95 -26 190 -26h25q81 4 154.5 34t123.5 76q85 85 121 156q22 63 23 69q5 24 5 48q0 37 -10 73q-18 62 -57 105q-46 51 -106 78q-66 35 -181 38h-12q-88 0 -270 -26h-6v-625z" />
<glyph unicode="S" horiz-adv-x="978" d="M57 98l9 29q3 12 13 17.5t21 2.5l47 -12q180 -49 275 -49q58 0 119 12q110 22 184 89.5t94 164.5q4 19 4 38q0 46 -25 90q-36 62 -114 102q-31 15 -143 59l-21 8l-20 6l-58 17q-112 38 -147 59q-102 60 -156.5 147.5t-54.5 192.5q0 37 6 64q29 159 150 233q106 64 270 64 q70 0 145 -12t112 -22.5t44 -13.5q12 -2 17 -13t-1 -23l2 2l-8 -27q-16 -25 -39 -20q-155 40 -274 40q-133 0 -221 -53q-87 -56 -109 -170q-4 -24 -4 -48q0 -68 32 -128q42 -82 134 -137h-2q43 -24 123 -45q1 0 4 -1t4 -1q21 -6 61 -23l-2 2l19 -6q99 -32 176 -74 q107 -59 155 -145q34 -61 34 -126q0 -27 -5 -56v2q-28 -122 -122 -208t-228 -114q-67 -12 -133 -12q-127 0 -346 59q-11 5 -18 18q-4 7 -4 13q0 5 3 10z" />
<glyph unicode="T" horiz-adv-x="1103" d="M4 1372v29q0 11 9.5 21t19.5 10h1026q11 0 21 -10t10 -21v-29q0 -12 -10 -20.5t-21 -8.5h-467v-1314q0 -12 -10 -20.5t-21 -8.5h-31q-11 0 -19.5 8.5t-8.5 20.5v1314h-469q-11 0 -20 8.5t-9 20.5z" />
<glyph unicode="U" horiz-adv-x="1298" d="M145 535v858q0 14 9 21t18 7h31q12 0 20 -8t8 -20v-863q0 -9 1 -25.5t7 -55.5t16 -76t31 -83t50 -81q59 -57 146 -90t190 -33q166 0 266 100q35 36 60.5 85.5t36.5 88t17 84t6.5 58t0.5 24.5v877q0 12 9.5 20.5t21.5 8.5h30q27 -9 27 -29v-877q0 -15 -0.5 -30.5t-8 -68 t-21.5 -97t-44.5 -102.5t-73.5 -101q-124 -127 -327 -127q-259 0 -400 150q-46 50 -75.5 113.5t-39 122t-11.5 91.5q-1 22 -1 40v18z" />
<glyph unicode="V" horiz-adv-x="1185" d="M55 1382q-2 4 -2 8q1 7 5 15q6 13 16 16l28 9q9 0 20.5 -6.5t16.5 -14.5l428 -1323h19q387 1135 452 1325q3 9 14 15q8 4 15 5q3 0 6 -1l31 -9q18 -12 18 -26q0 -6 -4 -13h2l-465 -1362q-2 -8 -9.5 -14t-16.5 -6h-103q-19 0 -26 20z" />
<glyph unicode="W" horiz-adv-x="1859" d="M106 1391q0 33 21 36l29 7q4 1 8 1q8 0 15 -4q11 -6 14 -18l301 -1327h30l305 1298q10 20 25 23l160 2q20 0 28 -20l248 -1303h31q167 663 332 1325q3 12 14 18t23 3l28 -9h-2q15 -3 21 -15q3 -6 3 -12t-3 -12l2 2l-344 -1366q-7 -20 -29 -20h-125q-24 0 -27 25 q-194 1003 -249 1296h-60l-303 -1301q-7 -20 -29 -20h-127q-25 0 -28 20z" />
<glyph unicode="X" horiz-adv-x="1181" d="M128 1395q4 14 15 18l-2 -2q1 0 9.5 7t13.5 9h-2q6 5 14 5q3 0 7 -1q12 -3 18 -12l383 -614l374 612v-2q6 17 20 17q7 0 17 -5l31 -18q23 -16 4 -35l-397 -651l414 -666v-2q4 -7 4 -13q0 -11 -11 -22l-28 -16h2q-6 -4 -15 -4h-7q-13 2 -19 12l-389 629l-383 -629 q-6 -8 -20.5 -9.5t-20.5 3.5l-19 12q-14 7 -14 22q0 11 8 26l397 657q-19 31 -403 651q-3 4 -3 9t2 12z" />
<glyph unicode="Y" horiz-adv-x="1062" d="M38 1396q1 10 7 13l33 18h-2q6 4 15 4q3 0 7 -1q13 -2 17 -11l407 -692l416 692q6 9 19 11q4 1 7 1q9 0 15 -4h-2l33 -18q6 -4 6 -31l-451 -747q0 -101 2 -302t2 -300q0 -12 -8 -20.5t-20 -8.5h-27q-29 0 -29 29l-4 602l-442 745q-2 6 -2 13q0 3 1 7z" />
<glyph unicode="Z" horiz-adv-x="1077" d="M29 1374v29q0 11 8.5 21t21.5 10h922q12 0 20.5 -10t8.5 -21v-68q0 -10 -9 -22q-70 -98 -388.5 -545t-483.5 -674v-6h891q12 0 19.5 -8.5t7.5 -20.5v-30q0 -12 -7.5 -20.5t-19.5 -8.5h-950q-12 0 -21.5 8.5t-9.5 20.5v88q0 4 8 20l864 1206h-852q-13 0 -21.5 8.5 t-8.5 22.5z" />
<glyph unicode="[" horiz-adv-x="555" d="M150 -205v1761q0 12 9.5 20.5t22.5 8.5h346q13 0 22 -8.5t9 -20.5v-32q0 -13 -8.5 -21t-22.5 -8h-284v-1638h284q13 0 22 -10t9 -21v-31q0 -13 -8.5 -22t-22.5 -9h-346q-14 0 -23 9t-9 22z" />
<glyph unicode="\" horiz-adv-x="610" d="M0 1370l2 -2q-7 11 -2 23.5t16 15.5h-2l27 10l-2 -2q3 2 11.5 1.5t15.5 -3.5l10 -12l524 -1356l-2 2q6 -9 1.5 -21.5t-15.5 -15.5l-27 -10h-18l-15 16z" />
<glyph unicode="]" horiz-adv-x="548" d="M-12 -174q0 11 8.5 21t21.5 10h285v1638h-285q-30 0 -30 29v32q0 12 8.5 20.5t21.5 8.5h347q13 0 22.5 -8.5t9.5 -20.5v-1761q0 -13 -9 -22t-23 -9h-347q-13 0 -21.5 8.5t-8.5 22.5v31z" />
<glyph unicode="^" horiz-adv-x="1058" d="M55 569q0 17 2 21l402 923l-2 -2q7 21 26 21h74q22 0 29 -21l-2 2l403 -923q7 -18 -2 -27q-6 -11 -20 -14l-19 -8q-3 -2 -12 -2q-10 0 -25 10l-389 891l-387 -891q-11 -19 -37 -6l2 -2l-26 8q-4 1 -9.5 8t-7.5 12z" />
<glyph unicode="_" horiz-adv-x="1437" d="M156 -106q0 12 8.5 20t19.5 8h1053q12 0 20.5 -8t8.5 -20v-29q0 -12 -8.5 -21.5t-20.5 -9.5h-1053q-11 0 -19.5 9.5t-8.5 21.5v29z" />
<glyph unicode="`" horiz-adv-x="296" d="M9 1617.5q2 12.5 9 20.5l23 19q9 7 24.5 3t18.5 -13l-4 2q98 -119 129 -240q20 -80 20 -244v-39q0 -11 -10 -20.5t-20 -9.5h-29q-12 0 -20.5 9t-8.5 21v39q0 147 -18 219q-26 105 -111 213v-2q-5 10 -3 22.5z" />
<glyph unicode="a" d="M106 487q0 235 101 367q92 121 246 121q108 0 213 -60.5t174 -162.5v243q0 12 8 20.5t20 8.5h27q12 0 20.5 -8.5t8.5 -20.5v-966q0 -12 -8.5 -20.5t-20.5 -8.5h-27q-12 0 -20 8.5t-8 20.5v194q-69 -101 -175 -162t-212 -61q-153 0 -246 119q-101 141 -101 368zM188 485 q3 -211 84 -315q67 -88 181 -88q90 0 178.5 52.5t148 147t60.5 203.5q-1 82 -36 158.5t-90.5 130t-124.5 85.5t-136 32q-112 0 -181 -88q-81 -104 -84 -318z" />
<glyph unicode="b" horiz-adv-x="1007" d="M154 29v1364q0 12 7.5 20t18.5 8h29q12 0 20.5 -8t8.5 -20v-641q67 102 172 162.5t213 60.5q155 0 247 -121q101 -131 101 -369q0 -226 -101 -366q-93 -119 -247 -119q-106 0 -212 61t-173 162v-194q0 -12 -8.5 -20.5t-20.5 -8.5h-29q-11 0 -18.5 8.5t-7.5 20.5zM238 485 q1 -109 60 -203.5t147.5 -147t177.5 -52.5q113 0 180 88q83 105 86 315q-3 213 -86 318q-69 88 -180 88q-66 0 -134.5 -32t-124 -85.5t-90.5 -130t-36 -158.5z" />
<glyph unicode="c" horiz-adv-x="966" d="M100 506q0 276 174 409q135 105 363 105q100 0 250 -31q1 0 2 -1t2 -1q12 -4 19 -16t5 -21l-8 -30q-3 -10 -13.5 -16t-21.5 -3q-4 2 -33.5 8.5t-87.5 13.5t-114 7q-89 0 -171 -24t-138 -62q-138 -110 -138 -338q0 -231 136 -334q107 -82 299 -82q58 0 119.5 8t93.5 16 l32 7q9 3 20 -3.5t17 -17.5l8 -30v-2q0 -23 -20 -33l-14 -4q-151 -31 -256 -31q-220 0 -351 98q-174 125 -174 408z" />
<glyph unicode="d" horiz-adv-x="1007" d="M27 485q0 241 98 369q92 121 248 121q108 0 213 -60.5t174 -162.5v641q0 12 7 20t19 8h29q12 0 19.5 -8t7.5 -20v-1364q0 -12 -7.5 -20.5t-19.5 -8.5h-29q-12 0 -19 8.5t-7 20.5v194q-69 -101 -175 -162t-212 -61q-155 0 -248 119q-98 138 -98 366zM109 485 q3 -215 81 -315q70 -88 183 -88q89 0 178 52.5t148.5 147t60.5 203.5q-1 82 -36.5 158.5t-91 130t-124.5 85.5t-135 32q-110 0 -183 -88q-78 -100 -81 -318z" />
<glyph unicode="e" horiz-adv-x="1099" d="M114 506v19q0 18 1 34q15 216 137 342q121 121 326 121q203 0 309 -121q96 -107 96 -295q0 -22 -2 -46l-2 -25q-7 -23 -29 -23h-750q2 -51 15 -108t49.5 -130.5t91.5 -119.5q93 -68 228 -68q131 0 325 70l-2 -2q11 6 24.5 -0.5t16.5 -16.5l10 -26h-2q6 -10 -1 -21.5 t-23 -19.5q-204 -70 -348 -70q-169 0 -279 82q-55 41 -95 102.5t-58 115.5t-28 115t-10 91zM205 600h692q0 159 -76 242q-80 92 -243 92q-85 0 -151.5 -25.5t-104.5 -61t-65 -85t-37 -86.5t-15 -76z" />
<glyph unicode="f" horiz-adv-x="659" d="M18 885v28q0 11 8.5 19t20.5 8h158v25q-1 24 -1 47q0 246 128 344v-2q74 65 194 65q73 0 103 -10q12 -8 19 -19q4 -8 4 -14q0 -3 -1 -6l-6 -24v2q-3 -15 -15 -21t-24 0l2 -2q-37 10 -82 10q-86 0 -145 -47q-95 -72 -95 -272q0 -23 1 -47v-29h250q12 0 20 -8t8 -19v-28 q0 -12 -8 -20.5t-20 -8.5h-246q8 -175 8 -358q0 -123 -3 -238t-6.5 -170.5t-4.5 -64.5q-3 -25 -27 -25l-33 2q-22 6 -22 35q12 198 12 485q0 167 -8 334h-160q-12 0 -20.5 8.5t-8.5 20.5z" />
<glyph unicode="g" horiz-adv-x="1107" d="M76 510q0 253 106 387q96 125 258 125q114 0 228 -69t186 -181l-8 207v10q0 11 8.5 21t19.5 10h27q13 0 22 -8.5t9 -20.5v-8q12 -480 12 -643q0 -308 -12 -453q-9 -112 -109 -196q-62 -41 -159 -65.5t-211 -24.5q-103 0 -197 12.5t-133 21.5q-10 3 -16 16.5t-3 18.5h-2 l7 27v-2q3 15 10.5 19.5t25.5 4.5q144 -32 308 -32q216 0 321 75q63 53 72 132q12 166 12 360q-68 -115 -184.5 -184.5t-233.5 -69.5q-162 0 -258 125q-106 133 -106 385zM162 510q0 -223 86 -332q71 -92 192 -92q69 0 141.5 33t130.5 88.5t95.5 135.5t38.5 167 q-1 116 -64 216t-155.5 155t-186.5 55q-53 0 -103.5 -25t-86.5 -67q-39 -61 -63.5 -148.5t-24.5 -185.5z" />
<glyph unicode="h" horiz-adv-x="1044" d="M152 395v996q0 12 7.5 20t18.5 8h29q12 0 20.5 -8t8.5 -20v-658q14 30 51 72q112 115 303 115q211 0 317 -148q74 -110 74 -309q1 -110 -37 -285q-36 -170 -72 -170h-2h-2l-26 2q-9 4 -12.5 16t-0.5 21q0 4 5 12l-3 -2q1 3 8.5 31t14 53t16 67t16 81t11 87t4.5 91 q0 168 -67 264q-77 109 -244 109q-158 0 -244 -92q-110 -118 -110 -381q0 -45 2 -68q3 -60 11 -122t15 -94l6 -32q3 -11 -2.5 -21.5t-17.5 -13.5l-25 -6q-31 0 -35 21q-6 17 -18.5 97t-17.5 169q-2 27 -2 98z" />
<glyph unicode="i" horiz-adv-x="356" d="M33 1282v6v15q0 14 2 20q0 4 4 12q0 3 4 11q2 9 12 22l6 6l13 12l26 19q15 7 25 10q12 6 31 6q1 0 3 1t3 1h14q7 0 27 -4l8 -4l14 -6l8 -4l17 -12l6 -7l6 -8l8 -10l9 -12q9 -15 12 -33q4 -8 4 -12v-8v-15q-3 -34 -16 -63l-13 -19l-4 -8l-6 -8l-6 -8l-8 -6l-9 -7l-8 -6 q-4 0 -4 -2q-2 0 -10 -4q-1 0 -4 -1t-4 -1t-2 -1t-2 -1q-3 0 -7 -1t-6 -1h-10h-14q-38 3 -62 18l-10 7l-8 6q-5 3 -8 8q-4 0 -4 4l-9 8q0 1 -1 2t-1 2q-10 10 -12 19q-2 2 -2 4q-9 23 -12 53zM121 35q18 198 18 440q0 238 -14 443q-1 13 -2 30t-1.5 26t-0.5 13q0 25 26 31 q3 0 14 1t15 1h6q8 0 16 -7t9 -18q3 -20 7 -79.5t8.5 -176.5t4.5 -237q0 -243 -20 -477q-1 -11 -10 -18t-19 -7l-28 2q-12 0 -20.5 9t-8.5 24z" />
<glyph unicode="j" horiz-adv-x="544" d="M-8 -342q0 30 16 33q57 10 102.5 25.5t75.5 32t52 40t33.5 42.5t18.5 47t9 45.5t4 45.5l6 54q8 44 8 284q0 352 -8 672v16q0 14 9 21.5t20 7.5l29 2q10 0 17 -9.5t9 -19.5q8 -368 8 -680q0 -254 -8 -309q-4 -24 -4 -47q-2 -27 -3.5 -40.5t-7 -43t-12.5 -47t-20.5 -45 t-31 -46t-45 -41t-61 -38t-79 -30t-100.5 -23.5q-27 0 -31 22zM213 1282v6v15q0 14 2 20q0 4 4 12q0 3 4 11q7 14 13 22l6 6l12 12l27 19q16 8 24 10q12 6 31 6q1 0 3 1t3 1h14q7 0 27 -4l8 -4l15 -6l8 -4l16 -12l6 -7l6 -8l9 -10l8 -12q9 -15 12 -33q4 -8 4 -12v-8v-15 q-3 -34 -16 -63l-13 -19l-4 -8l-6 -8l-6 -8l-8 -6l-8 -7l-8 -6q-5 0 -5 -2q-2 0 -10 -4q-1 0 -4 -1t-4 -1t-2 -1t-2 -1q-3 0 -6.5 -1t-5.5 -1h-11h-14q-33 3 -61 18l-11 7l-8 6q-5 3 -8 8q-4 0 -4 4l-8 8q0 1 -1 2t-1 2q-11 11 -13 19v4q-10 21 -14 53z" />
<glyph unicode="k" horiz-adv-x="860" d="M147 358q0 361 21 1033q3 26 29 26h24q12 0 20.5 -8t8.5 -20q-19 -638 -19 -910q141 164 488 498q9 7 20 6.5t17 -6.5l22 -23q12 -18 0 -36q-159 -145 -336 -330q29 -70 131.5 -203.5t176.5 -218t90 -100.5q9 -9 9 -19q0 -9 -7 -18l-23 -21q-14 -9 -23 -9q-11 0 -16 11 q-64 64 -203 233t-198 281q-133 -140 -148 -170q0 -273 11 -295q14 -25 -6 -45l-21 -10q-10 -4 -17.5 -4t-13.5 4q-33 26 -37 354z" />
<glyph unicode="l" horiz-adv-x="266" d="M41 537q0 173 5.5 384.5t10 331.5t6.5 146q7 22 29 22l31 -2q24 -7 24 -28v-21q-22 -506 -22 -862q0 -336 22 -471q0 -13 -6.5 -23t-19.5 -10l-29 -4q-22 0 -26 23q-25 147 -25 514z" />
<glyph unicode="m" horiz-adv-x="1753" d="M160 356q0 208 6 678q3 27 29 27h30q12 0 20.5 -9t8.5 -20q0 -18 -1 -54t-1 -54v-58q106 154 305 154q169 0 260 -102q46 -52 66 -103q53 90 144.5 147.5t193.5 57.5q78 0 157 -31.5t125 -95.5q82 -121 82 -406q2 -51 2 -149v-139q0 -59 -2 -88v-9q0 -49 -6 -69 q-1 -12 -12 -18t-23 -3h2l-35 6q-22 17 -16 35q4 14 4 51v9q2 29 2 86v137q0 88 -2 135v16q0 87 -2 131.5t-18 111t-49 112.5q-31 47 -90 68.5t-119 21.5q-61 0 -111 -19t-81 -46.5t-53.5 -66t-33 -70.5t-16.5 -68t-7 -50t-1 -24q-5 -332 -5 -383q0 -113 5 -158 q0 -7 -6.5 -17.5t-14.5 -15.5l-29 -10q-6 -4 -12 -4t-11 4q-11 6 -14 19v-3q-6 16 -6 146q0 160 2 242q2 70 2 182q0 72 -7 111q-17 100 -70 155q-70 76 -195 76q-61 0 -110.5 -19t-80.5 -46.5t-53.5 -66t-33.5 -71t-17 -68t-7 -50t-1 -23.5q0 -67 -1 -181.5t-1 -156.5 q-2 -59 -2 -141q0 -56 2 -62q3 -11 -3 -21.5t-18 -13.5l-20 -10q-7 -2 -13 -2q-16 0 -28 12q-10 30 -10 344z" />
<glyph unicode="n" horiz-adv-x="1050" d="M154 356q0 206 6 676q0 11 8 20t20 9h31q11 0 19 -8.5t8 -20.5q0 -18 -1 -55t-1 -55v-58q110 154 307 154q166 0 258 -103q35 -41 58.5 -93.5t31 -101.5t9.5 -79q1 -20 1 -36v-15q-6 -208 -6 -404q0 -107 4 -139q0 -23 -16 -35q-29 -10 -39 -10q-22 0 -29 21v-3 q-6 16 -6 146q0 160 2 242q2 70 2 182q0 16 -3 49.5t-22 103t-51 113.5q-77 74 -194 74q-62 0 -111.5 -18.5t-80.5 -46.5t-54 -66t-34 -70.5t-17 -68t-7 -50t-1 -24.5v-15q0 -21 -2 -197.5t-2 -252.5q0 -74 2 -78q3 -9 -3.5 -18.5t-15.5 -12.5l-22 -10l2 2q-6 -4 -13 -4 q-5 0 -11 2q-14 5 -21 21v2q-6 41 -6 331z" />
<glyph unicode="o" horiz-adv-x="1140" d="M106 483q0 137 41 230l-2 -2q21 61 56 110q63 82 143 131q107 66 229 66h21q87 -3 165.5 -41t135.5 -105q121 -142 121 -378q0 -291 -182 -422q-61 -39 -128 -55.5t-104 -16.5q-246 0 -371 131.5t-125 351.5zM195 483q0 -395 407 -395q100 0 182 57q144 99 144 349 q0 210 -97 319q-93 109 -241 119q-112 0 -197 -53q-76 -51 -119 -107q-27 -40 -49 -92h2q-32 -79 -32 -197z" />
<glyph unicode="p" horiz-adv-x="1077" d="M154 -418v1413q0 12 7.5 20.5t18.5 8.5h29q12 0 20.5 -8.5t8.5 -20.5v-243q67 102 172 162.5t213 60.5q147 0 245 -121q103 -131 103 -369q0 -235 -103 -366q-91 -119 -245 -119q-106 0 -212 61t-173 162v-641q0 -12 -8.5 -20t-20.5 -8h-29q-11 0 -18.5 8t-7.5 20z M238 485q1 -109 60 -203.5t147.5 -147t177.5 -52.5q113 0 182 88q81 104 84 315q-3 213 -86 318q-69 88 -180 88q-66 0 -134.5 -32t-124 -85.5t-90.5 -130t-36 -158.5z" />
<glyph unicode="q" horiz-adv-x="1001" d="M41 485q0 238 98 369q98 121 248 121q108 0 213 -60.5t174 -162.5v243q0 12 7.5 20.5t19.5 8.5h28q12 0 19.5 -8.5t7.5 -20.5v-1413q0 -12 -7.5 -20t-19.5 -8h-28q-12 0 -19.5 8t-7.5 20v641q-69 -101 -175 -162t-212 -61q-157 0 -248 119q-98 127 -98 366zM121 485 q3 -211 84 -315q69 -88 182 -88q89 0 178 52.5t148.5 147t60.5 203.5q-1 82 -36.5 158.5t-91 130t-124.5 85.5t-135 32q-109 0 -182 -88q-81 -104 -84 -318z" />
<glyph unicode="r" horiz-adv-x="630" d="M152 29v962q0 12 8 20.5t20 8.5h31q11 0 20 -8.5t9 -20.5v-149q25 30 32 37q43 42 97 70.5t104 39t78 14t49 3.5q10 0 21.5 -10.5t11.5 -18.5v-33q-3 -13 -12.5 -21t-20.5 -8q-15 0 -36 -2.5t-62.5 -10.5t-86 -30.5t-79.5 -56.5q-96 -89 -96 -264v-522q0 -12 -9 -20.5 t-20 -8.5h-31q-12 0 -20 8.5t-8 20.5z" />
<glyph unicode="s" horiz-adv-x="821" d="M66 90l6 29q10 22 37 22q179 -55 274 -55q36 0 66 6q73 13 122 58t64 110q4 15 4 29q-1 36 -25 65q-34 41 -69 58q-31 17 -113 45l-51 18q-34 9 -111 43q-84 54 -126 132q-29 55 -30 115q0 25 5 50q21 108 106 162q76 45 197 45q30 0 62.5 -3t57 -6.5t54 -10t44 -10 t36.5 -9.5l22 -6q1 0 3.5 -1t3.5 -1q22 -15 22 -29q0 -6 -4 -12l2 2l-10 -27q-3 -12 -15 -17t-24 1l2 -2q-5 3 -40 12t-99.5 20t-118.5 11q-89 0 -150 -33q-55 -31 -65 -100q-2 -13 -2 -26q0 -47 23 -91q29 -55 89 -92h-2q48 -25 115 -41q4 -1 13.5 -4t13.5 -4l41 -15 q42 -16 90 -41q82 -43 118 -108q24 -43 24 -88q0 -24 -7 -49v2q-19 -90 -88.5 -154t-169.5 -84q-35 -6 -80 -6q-112 0 -297 55q-12 3 -18 13q-4 6 -4 14q0 4 2 8z" />
<glyph unicode="t" horiz-adv-x="677" d="M10 961v28q0 13 9.5 22t21.5 9h195v258q0 12 8 20.5t20 8.5h31q13 0 22 -8.5t9 -20.5v-258h309q10 0 19.5 -9t9.5 -22v-28q0 -13 -9.5 -22t-19.5 -9h-309v-672q3 -73 39 -104q73 -64 270 -64q10 0 19.5 -9t9.5 -22v-28q0 -13 -9.5 -22t-19.5 -9q-221 0 -326 86 q-69 59 -73 170q-3 83 -3 160l3 33v481h-195q-12 0 -21.5 9t-9.5 22z" />
<glyph unicode="u" horiz-adv-x="1085" d="M141 913q0 60 2 80q2 11 10.5 19t18.5 8l35 -2q24 -7 24 -31q-2 -23 -2 -74t2 -71v-273q2 -57 2 -194q0 -22 -0.5 -40.5t0.5 -32.5q1 -28 10 -64t27 -60q40 -47 125 -67q55 -17 131 -17q122 0 191 72q88 92 96 274l2 21q6 337 23 532q2 13 12 21q7 6 15 7q3 0 7 -1 q4 0 13.5 -1t13.5 -1q27 -6 27 -31q-27 -348 -27 -639q0 -243 27 -309q1 -2 1 -5q0 -6 -5 -11q-7 -8 -19 -11l2 2l-31 -14q-5 -1 -9 -1q-8 0 -14 4q-9 6 -11 15q-18 51 -21 136q-10 -17 -39 -50q-94 -98 -254 -98q-85 0 -153 19q-120 29 -170 98h2q-29 38 -43 87 q-14 50 -16 82q-1 20 -1 46v39q0 127 -2 190v269q-2 18 -2 77z" />
<glyph unicode="v" horiz-adv-x="997" d="M57 973q-1 4 -1 7q0 7 4 15q6 12 16 13l30 12q2 1 5 1q7 -1 15 -7q11 -8 17 -23l342 -903h37q53 152 157 455.5t157 455.5q4 8 15.5 14.5t18.5 6.5l29 -10l2 -2q20 -11 20 -27q0 -4 -1 -8l-328 -953q-8 -20 -27 -20h-121q-18 0 -30 27z" />
<glyph unicode="w" horiz-adv-x="1640" d="M113 979l2 -2q-3 6 -3 11.5t3 11.5q6 11 18 14l27 8q18 0 26 -6t15 -21l243 -907h19l270 891q7 18 27 18h104q20 0 27 -18l260 -891h29l241 911q5 10 16 18q8 6 15 6q3 0 6 -1l29 -8q20 -12 20 -35l-254 -959q-3 -20 -26 -20h-123q-22 0 -29 20l-258 891h-10l-270 -891 q-7 -20 -27 -20h-113q-21 0 -28 20z" />
<glyph unicode="x" horiz-adv-x="1044" d="M123 958q-7 8 -7 16q0 10 11 21l27 19h-2q10 7 19 7q12 0 22 -13l323 -437l311 439q13 10 24 10q10 0 17 -8l-4 2l31 -21q7 -6 7 -18q0 -9 -5 -17l-326 -460l324 -437h-2q13 -17 -4 -38l-23 -19q-6 -4 -14 -4q-4 0 -8 1q-13 3 -19 11l-307 412l-293 -412q-7 -7 -18 -10 q-4 -1 -8 -1q-7 0 -13 3l-24 19q-6 6 -8 17.5t2 20.5l307 437z" />
<glyph unicode="y" horiz-adv-x="942" d="M6 988q5 13 17 16l-3 -3l33 17q3 1 5 1q6 0 14 -5q11 -6 12 -19l344 -815l297 815q4 8 16.5 14.5t20.5 6.5l26 -10l5 -2q15 -12 15 -26q0 -5 -1 -9l-334 -920q-5 -22 -15.5 -53t-42.5 -89t-74.5 -110.5t-118 -108.5t-167.5 -91q-27 0 -32 16l-11 27q-4 10 2.5 21.5 t16.5 14.5h-2q75 30 138 77t99 89t65.5 93.5t39.5 75.5t18 50l-383 906v-2q-3 5 -3 11q0 5 3 12z" />
<glyph unicode="z" horiz-adv-x="929" d="M41 961v30q0 12 8.5 20.5t20.5 8.5h772q10 0 19 -9t9 -20v-73q0 -11 -8 -19l-686 -809h649q13 0 21 -8.5t8 -22.5v-28q0 -14 -8 -22.5t-21 -8.5h-727q-12 0 -21 9t-9 22v67q0 7 12 23q395 466 690 809h-700q-12 0 -20.5 9.5t-8.5 21.5z" />
<glyph unicode="{" horiz-adv-x="561" d="M0 662l2 32q0 12 8.5 21.5t20.5 9.5q14 0 34.5 3.5t55 19.5t55.5 43q41 61 41 143q0 70 -29 172q-22 76 -22 158q0 115 57 190q26 36 63 62.5t69.5 39.5t66 20.5t48.5 9t22 1.5q14 0 23 -8t9 -20v-33q0 -18 -8 -23q-8 -8 -22 -8q-5 0 -13.5 -0.5t-33.5 -5.5t-48 -14 t-50.5 -28.5t-47.5 -45.5q-41 -64 -41 -139q0 -56 21 -129q30 -108 30 -199q0 -126 -59 -199q-20 -31 -59 -55q69 -37 110 -88q57 -82 57 -193q0 -75 -24 -157q-27 -99 -27 -174q0 -84 39 -142q29 -35 74.5 -50t71.5 -15q10 0 20 -10t10 -21v-33q0 -13 -9.5 -21.5 t-20.5 -8.5q-17 0 -36.5 2.5t-54.5 11.5t-71 32t-62 58q-55 76 -55 197q0 82 29 198q20 73 20 133q0 66 -39 138q-19 23 -46.5 41t-52.5 27t-49.5 15t-36.5 7.5t-15 1.5q-10 2 -17.5 11t-7.5 22z" />
<glyph unicode="|" horiz-adv-x="270" d="M121 -154q12 921 12 1274q0 439 -12 475q0 17 4 25v6q9 18 22 21h25l6 -2q11 -5 16.5 -27t11 -153t5.5 -384q0 -537 -12 -1235q-3 -26 -27 -26h-25q-12 0 -20 8q-6 6 -6 18z" />
<glyph unicode="}" horiz-adv-x="561" d="M31 -170q0 11 8.5 21t19.5 10q13 0 35 4t56.5 20t54.5 41q41 61 41 142q0 68 -29 174q-24 82 -24 157q0 113 59 193q36 48 108 88q-35 21 -59 55q-57 71 -57 199q0 87 28 199q21 73 21 129q0 73 -39 139q-31 36 -80 59.5t-82 29.5l-33 5q-14 0 -22 8q-6 9 -6 23v33 q0 12 8.5 20t21.5 8q7 0 22 -1.5t48.5 -9t66 -20.5t69.5 -39.5t63 -62.5q59 -77 59 -190q0 -76 -24 -158q-29 -102 -29 -172q0 -82 41 -143q21 -27 55.5 -43t55 -19.5t34.5 -3.5q13 0 21 -9t8 -22l2 -32q0 -13 -7.5 -22t-17.5 -11q-3 0 -15 -1.5t-36 -7.5t-48.5 -15t-52 -27 t-46.5 -41q-41 -66 -41 -138q0 -60 20 -133q29 -104 29 -198q0 -125 -55 -197q-26 -35 -62 -58t-71 -32t-54.5 -11.5t-36.5 -2.5q-12 0 -20 8.5t-8 21.5v33z" />
<glyph unicode="~" horiz-adv-x="1245" d="M102 481q0 5 2.5 21t12.5 47t24.5 61t42.5 61t64 50q46 24 102 24q130 0 307 -118q161 -103 252 -103q30 0 60 15q20 11 35 32t21.5 40.5t10 43t4 31.5t0.5 14q0 12 8.5 20.5t20.5 8.5h25q12 3 23 -7t11 -22q0 -6 -1.5 -20.5t-8.5 -45t-18.5 -59.5t-35 -60.5t-54.5 -51.5 q-56 -27 -99 -27q-125 0 -301 117q-155 104 -260 104q-34 0 -65 -14q-69 -30 -95 -162l-2 -6q-3 -11 -13.5 -19t-20.5 -5q-4 0 -13 1t-12 1q-10 0 -18 8q-9 9 -9 20z" />
<glyph unicode="&#xa1;" horiz-adv-x="376" d="M59 864v8v15q2 30 17 63l12 21l6 8l4 8l6 6l9 6l8 7l8 4l4 2q8 4 10 4l9 4h4q12 4 14 4h8h15q37 -3 61 -18l10 -7l8 -6q6 -3 9 -6q4 0 4 -4l8 -8q0 -1 1 -2t1 -2q11 -16 12 -21q2 -2 2 -4q11 -28 13 -53v-6v-15q0 -11 -3 -20q0 -6 -4 -10q0 -7 -2 -11q-8 -16 -14 -24 l-6 -6l-12 -13l-27 -18q-3 -1 -11 -4t-14 -4q-12 -6 -30 -6q-1 0 -3 -1t-3 -1h-15q-6 0 -26 4l-9 4l-14 6l-8 2l-17 12l-6 6l-4 9l-10 10l-8 12q-11 21 -13 33q-4 8 -4 12zM150 -369l6 961q2 11 9 20t17 9h33q25 -7 25 -29l-7 -961q-2 -11 -9.5 -19.5t-18.5 -8.5h-33 q-22 7 -22 28z" />
<glyph unicode="&#xa2;" horiz-adv-x="884" d="M39 508q0 282 172 410q106 80 258 98v241q0 12 8.5 19.5t20.5 7.5h30q12 0 19.5 -7.5t7.5 -19.5v-235h20q62 0 126 -8t93.5 -14.5t41.5 -10.5q18 -10 18 -33l-6 -32q-3 -11 -18.5 -17t-30.5 -2q0 2 -29 8t-84.5 12.5t-110.5 6.5q-89 0 -172 -24t-139 -62 q-137 -112 -137 -338q0 -224 135 -336q124 -82 299 -82q60 0 122 8t94 16l32 7q10 3 21.5 -3.5t17.5 -17.5l6 -30v-2q0 -31 -18 -31q-123 -37 -275 -37h-6v-207q0 -14 -7.5 -22.5t-19.5 -8.5h-30q-12 0 -20.5 9t-8.5 22v211q-149 18 -258 96q-172 128 -172 408z" />
<glyph unicode="&#xa3;" horiz-adv-x="1005" d="M56 56q2 16 16 30q6 6 16 6q1 0 3 1t3 1h92q68 13 107 58q69 75 69 249q0 104 -32 267h-240q-11 0 -20 9t-9 19v33q0 11 9.5 21t19.5 10h219q-35 140 -35 262q0 205 111 307q105 94 277 94q49 0 101 -8.5t79.5 -16.5t36.5 -12v3q9 -3 14.5 -15t3.5 -22q-1 -5 -6 -17.5 t-6 -17.5q-1 -9 -12.5 -14t-22.5 -3q-1 0 -4 1.5t-4 1.5q-117 26 -180 26q-143 0 -213 -67q-82 -79 -82 -240q0 -112 34 -248q0 -4 5 -14h358q10 0 20.5 -10t10.5 -21v-33q0 -10 -10 -19t-21 -9h-338q27 -147 27 -267q0 -203 -88 -307q97 0 293 -1t296 -1q12 0 20.5 -10 t8.5 -21v-30q0 -13 -9.5 -22t-19.5 -9l-764 2h-102q-8 2 -16 10h2q-8 7 -14 17.5t-4 26.5z" />
<glyph unicode="&#xa4;" horiz-adv-x="1228" d="M121 975q0 13 6 20l20 21q16 16 41 4l164 -164q33 33 76 59q92 59 201 56q133 -6 227 -103l160 164q23 14 39 -2l20 -22q16 -16 0 -39l-164 -170q56 -100 56 -248q0 -142 -54 -236l174 -172q10 -26 0 -41l-18 -22q-25 -10 -43 0l-170 166q-5 -6 -35 -31q-80 -55 -186 -55 q-89 0 -152 15t-118 61l-166 -170q-19 -16 -37 2l-21 20q-9 6 -9.5 19t7.5 22l164 170q-61 86 -61 246q0 108 28 182q12 30 31 57l-174 170q-6 8 -6 21zM330 545q0 -154 79.5 -226.5t219.5 -72.5q80 0 143 43q107 73 107 262q0 163 -74 246v-2q-72 85 -178 88 q-88 0 -150 -41q-59 -34 -88 -78q-14 -20 -39 -70q-20 -59 -20 -149z" />
<glyph unicode="&#xa5;" horiz-adv-x="972" d="M49 1360q-15 29 12 41l23 16q22 11 39 -10l360 -612l359 598q6 9 17 11.5t20 -3.5l32 -19q8 -5 10 -15t-6 -19l-354 -594h316q11 0 20.5 -8.5t9.5 -20.5v-31q0 -10 -9.5 -18t-20.5 -8h-351v-205h351q11 0 20.5 -8.5t9.5 -20.5v-28q0 -10 -9.5 -19.5t-20.5 -9.5h-349 q0 -59 1 -175t1 -173q0 -12 -9.5 -20.5t-20.5 -8.5h-27q-13 0 -22 9.5t-9 19.5l-2 348h-354q-12 0 -19.5 9t-7.5 20v28q0 12 7.5 20.5t19.5 8.5h354v205h-354q-12 0 -19.5 7.5t-7.5 18.5v31q0 12 7.5 20.5t19.5 8.5h324z" />
<glyph unicode="&#xa6;" horiz-adv-x="352" d="M147 -209v758q0 10 9.5 18t21.5 8h29q12 0 20.5 -7.5t8.5 -18.5v-758q0 -12 -8.5 -20.5t-20.5 -8.5h-29q-12 0 -21.5 8.5t-9.5 20.5zM147 858v756q0 11 9.5 21t21.5 10h29q12 0 20.5 -10t8.5 -21v-756q0 -12 -8.5 -20.5t-20.5 -8.5h-29q-12 0 -21.5 8.5t-9.5 20.5z" />
<glyph unicode="&#xa7;" horiz-adv-x="1077" d="M78 889q0 52 14 106q46 132 133 168q-37 69 -37 160q0 174 117 254q92 68 250 68q71 0 153 -15t120.5 -26t58.5 -19t20 -33l-14 -39l2 3q-3 -11 -15.5 -17t-25.5 0l2 -2q-18 6 -50 15t-110 22.5t-143 13.5q-129 0 -193 -49q-75 -50 -75 -176q0 -94 47 -141 q23 -22 71.5 -45t88 -36.5t108.5 -35.5q57 -16 98 -29.5t91.5 -35t85 -44.5t63 -56t39.5 -71q10 -33 10 -63q0 -141 -160 -342q62 -95 62 -236q0 -161 -111 -235q-86 -62 -239 -62q-38 0 -80 4t-80 10.5t-72 14t-65.5 16.5t-52 15t-38.5 12l-18 6q-9 6 -17 15t-5 16l16 41 q4 13 14.5 17t20.5 1q4 0 10 -4l-2 2q207 -71 371 -71q119 0 184 47q70 48 70 155q0 140 -78 224q-66 75 -205 100q-179 28 -291 98q-70 44 -106.5 120t-36.5 159zM172 889q0 -62 25 -115t75 -82q91 -57 254 -86q154 -28 238 -106q152 198 123 301q-8 26 -32.5 49.5 t-48.5 38.5t-73 33.5t-74 26.5t-84 26q-186 52 -276 108h-4q-36 0 -67.5 -36.5t-43.5 -77.5t-12 -80z" />
<glyph unicode="&#xa8;" horiz-adv-x="1447" d="M143 1227v6v14q0 15 2 21q0 2 5 12l4 8q9 19 14 25l6 6l10 12l27 19q9 4 27 8q12 6 28 6q1 0 3 1t3 1h15q8 0 28 -4l9 -4l12 -4l8 -4l16 -13l7 -6l6 -8l10 -10l8 -13q7 -14 10 -32q5 -10 5 -13v-8v-14q-2 -25 -15 -64l-12 -20l-6 -8l-6 -6l-7 -9l-8 -6l-8 -6l-8 -6 q-4 0 -4 -2q-4 0 -8 -4q-1 0 -4.5 -1t-4.5 -1t-2 -1t-2 -1q-3 0 -7.5 -1t-6.5 -1h-10h-15q-34 3 -61 18l-10 6l-8 6q-6 3 -9 9q-4 0 -4 2l-6 8q0 1 -1 2t-1 2q-11 17 -12 20q-2 2 -2 5q-12 24 -15 53zM1020 1227v6v14q0 15 2 21q0 4 4 12l4 8q9 19 14 25l7 6l10 12l26 19 q9 4 27 8q12 6 29 6q1 0 3 1t3 1h14q9 0 29 -4l8 -4l12 -4l9 -4l16 -13l6 -6l6 -8l11 -10l8 -13q7 -14 10 -32q4 -8 4 -13v-8v-14q-3 -40 -14 -64l-13 -20l-6 -8l-6 -6l-6 -9l-8 -6l-8 -6l-9 -6q-4 0 -4 -2q-4 0 -8 -4q-1 0 -4 -1t-4 -1t-2 -1t-2 -1q-3 0 -7.5 -1t-6.5 -1 h-11h-14q-35 3 -62 18l-10 6l-8 6q-5 2 -8 9q-4 0 -4 2l-6 8q0 1 -1 2t-1 2q-13 19 -13 20q-2 2 -2 5q-11 22 -14 53z" />
<glyph unicode="&#xa9;" horiz-adv-x="1515" d="M111 694q0 98 20 183t52.5 146t79 111.5t93 83t101 57t97.5 37.5t87.5 21t66 10t37.5 3h9q30 0 70 -5t110.5 -19.5t146.5 -53.5t136 -97q167 -167 167 -456q0 -125 -33 -228t-82 -168.5t-117.5 -116t-127.5 -75.5t-124 -40.5t-96 -19t-54 -4.5h-9q-25 0 -68.5 6.5 t-112 23t-145 55t-136.5 92.5q-80 81 -124 197.5t-44 256.5zM197 694q0 -254 145 -393q51 -50 118 -83.5t130.5 -46t96.5 -16t56 -3.5h5q12 0 31 1.5t56.5 7.5t75.5 17t84.5 31.5t88 48.5t81.5 71.5t69 96.5t46.5 127.5t17.5 161.5q0 254 -145 393q-51 50 -117 83.5 t-128 46.5t-98.5 17.5t-64.5 4.5q-21 -1 -46 -3.5t-82.5 -16t-107.5 -34.5t-110 -64.5t-102.5 -100.5t-71 -147t-28.5 -200zM432 692q0 211 131 312q105 77 277 77q63 0 188 -20q1 0 3 -1t3 -1q10 -3 16.5 -14.5t4.5 -22.5l-11 -35q-3 -7 -13.5 -12t-20.5 -2q-80 20 -170 20 q-137 0 -224 -61q-96 -80 -96 -240q0 -170 96 -239q75 -60 215 -60q102 0 179 23q12 0 24 -6l15 -17l6 -28l-4 6q4 -8 4 -21q-6 -11 -23 -20h-6h2q-104 -25 -197 -25q-164 0 -268 76q-131 105 -131 311z" />
<glyph unicode="&#xab;" horiz-adv-x="913" d="M63 403q0 52 281 414q10 10 21 10q12 4 20 -4l23 -18q24 -23 6 -41q-238 -311 -262 -361q54 -93 243 -350q4 -6 4 -16q0 -17 -12 -23h2l-22 -16q-12 -6 -19 -6q-18 0 -24 14v-2q-261 354 -261 399zM420 403q0 52 280 416q8 8 19 8q4 1 7.5 0t9 -4t9.5 -4l19 -14 q19 -19 4 -45q-213 -276 -260 -357q31 -59 244 -350q6 -18 6 -22l-13 -17l-20 -14q-16 -8 -23 -8q-10 0 -22 12q-260 348 -260 399z" />
<glyph unicode="&#xad;" horiz-adv-x="868" d="M139 629v30q0 15 11 21q8 8 20 8l510 -2q10 0 19.5 -9t9.5 -20v-30q0 -10 -11 -21q-8 -8 -18 -8l-510 4q-12 0 -21.5 8.5t-9.5 18.5z" />
<glyph unicode="&#xae;" horiz-adv-x="1091" d="M106 713q0 86 22.5 156t56 114.5t79.5 78t87.5 50t85 27t66.5 12.5t38 2q21 0 48 -3t75 -12.5t99 -36t91 -65.5q115 -112 115 -307q0 -85 -22.5 -155t-55.5 -114.5t-80.5 -78.5t-87 -50.5t-85.5 -27.5t-67 -13t-39 -3q-20 0 -46.5 3t-73.5 13.5t-98 37t-91 65.5 q-117 114 -117 307zM193 713q0 -157 90 -244q43 -41 106.5 -64.5t93.5 -26.5t52 -3h4q11 0 27.5 1.5t51.5 9.5t68 21t70.5 40t65 63t45.5 92.5t18 126.5q0 142 -90 246q-42 37 -102.5 59.5t-96 27.5t-59.5 5q-14 -1 -20.5 -1.5t-35 -5t-48 -10.5t-52 -19.5t-55.5 -30.5 t-50 -44.5t-43.5 -61t-28 -80t-11.5 -101.5zM389 524v381q18 37 51 37q3 0 7.5 1t7.5 1q36 8 73 8q39 -3 74 -18q37 -18 49 -33q40 -54 31 -113q-1 -4 -4.5 -16t-5.5 -18q-9 -18 -29 -43q17 -24 25 -76v-6q4 -53 22 -76q8 -6 8.5 -18t-8.5 -23l-20 -18q-9 -9 -23 -9 q-11 0 -20 9q-38 45 -47 127q-1 6 -2 11.5t-1.5 9t-1.5 6.5t-1.5 5t-1 3.5t-1.5 2t-2 0.5q-32 -12 -59 -12h-10h-23v-123q0 -11 -9 -19.5t-19 -8.5h-31q-12 0 -20.5 8t-8.5 20zM477 735q10 -2 29 -2q37 3 59 25q24 24 27 30q0 7 4 13q0 2 2 4q0 27 -10 37q-17 13 -21 14 q-20 8 -43 8q-11 0 -39 -4h-8v-125z" />
<glyph unicode="&#xb0;" horiz-adv-x="636" d="M100 1366q0 89 63 152t152 63q88 0 151.5 -63t63.5 -152t-63.5 -152t-151.5 -63q-89 0 -152 63t-63 152zM186 1366q0 -54 37.5 -91.5t91.5 -37.5q53 0 90 37.5t37 91.5q0 53 -37.5 91t-89.5 38q-54 0 -91.5 -38t-37.5 -91z" />
<glyph unicode="&#xb1;" horiz-adv-x="1175" d="M-2 797v30q0 11 8 19t21 8l510 -2q0 89 1 264.5t1 263.5q0 12 7 20.5t19 8.5h31q14 0 22 -8q7 -7 7 -21l-2 -528l510 -4q11 0 18.5 -7.5t7.5 -19.5v-30q0 -13 -8 -21q-8 -6 -21 -6l-507 2q0 -90 -1 -271t-1 -268q0 -12 -10 -21t-21 -9l-31 2q-10 0 -18 8q-9 9 -9 20 l3 539q-86 0 -254.5 1t-253.5 1q-12 0 -20.5 8.5t-8.5 20.5zM53 33v28q0 14 10 21.5t21 7.5l1008 -2q11 0 20.5 -8.5t9.5 -20.5v-28q0 -13 -10 -22t-20 -9l-1008 4q-12 0 -21.5 8.5t-9.5 20.5z" />
<glyph unicode="&#xb4;" horiz-adv-x="296" d="M6 1126v39q0 160 19 244q30 109 129 240q8 11 21 13t18 -5l24 -19q6 -8 8 -20.5t-4 -22.5l2 2q-86 -110 -112 -213q-17 -76 -17 -219v-39q0 -12 -8 -21t-20 -9h-31q-10 0 -19.5 10.5t-9.5 19.5z" />
<glyph unicode="&#xb6;" horiz-adv-x="962" d="M29 1022q-1 122 93 218.5t259 148.5q99 30 184 30q49 0 74 -2h137q13 0 23 -10q6 -6 6 -21l-4 -32l-4 -11q-2 -2 -7.5 -89t-11.5 -265.5t-6 -365.5q0 -393 29 -711q0 -10 -9 -19.5t-20 -9.5l-27 -2q-12 0 -18 6q-10 5 -10 17q-29 360 -29 719q0 454 25 710q-53 0 -76 2 h-100q-37 -355 -37 -807q0 -335 24 -616q0 -10 -8.5 -19.5t-19.5 -9.5l-29 -2q-10 0 -16 6q-11 5 -11 17q-24 279 -24 708q-165 46 -274 160.5t-113 249.5z" />
<glyph unicode="&#xb7;" horiz-adv-x="509" d="M98 590v6v14q0 13 2 19q0 4 4 12l5 10q9 19 14 25l6 6l12 12l25 17q15 8 27 10q12 6 30 6l4 2h15q8 0 28 -4l9 -4l14 -6l6 -4l16 -13l7 -4l6 -8l10 -10l8 -12q9 -18 12 -35q4 -8 4 -11v-8v-14q-3 -38 -16 -64l-12 -20l-6 -8l-6 -8l-7 -9l-8 -6l-8 -6l-6 -4q-4 0 -4 -2 q-2 0 -10 -4q-1 0 -4.5 -1t-4.5 -1t-2 -1t-2 -1q-3 0 -7.5 -1t-6.5 -1h-10h-15q-31 3 -61 16l-10 6l-6 6q-6 3 -9 9q-4 0 -4 4l-8 8q0 1 -1 2t-1 2q-11 17 -12 20q-2 2 -2 5q-12 21 -15 53z" />
<glyph unicode="&#xb8;" horiz-adv-x="454" d="M41 -377l8 31q7 27 35 20h-2q51 -8 102 -8q62 0 90 19v-2q13 13 13 34q0 28 -12.5 49t-28 31.5t-35.5 16.5t-30 7t-15 1h-25q-16 0 -24 16q-7 14 0 27l94 153q5 9 15.5 12t21.5 -3l31 -21q15 -15 6 -37l-47 -71q59 -19 97 -65t38 -116q0 -66 -45 -102q-52 -37 -146 -37 q-62 0 -112 10l-7 2q-22 12 -22 33z" />
<glyph unicode="&#xbb;" horiz-adv-x="913" d="M133 760q-15 26 2 45l23 16l7.5 2.5t8.5 2.5t8 1q11 0 21 -10q278 -361 278 -414q0 -51 -260 -399q-12 -12 -22 -12q-7 0 -23 8l-20 14l-13 17q0 15 7 22q206 282 243 350q-35 66 -260 357zM487 764q-17 17 7 41l22 18q12 8 21 4q5 0 20 -10q281 -362 281 -414 q0 -47 -263 -399v2q-3 -14 -22 -14q-6 0 -18 6l-23 16h2q-14 6 -14 23q0 12 6 18l-2 -2q195 260 244 350q-23 38 -98.5 143.5t-162.5 217.5z" />
<glyph unicode="&#xbf;" horiz-adv-x="585" d="M-16 -68q0 80 57 160q24 39 70 78l10 12q61 54 88 97q41 72 57 167q4 23 4 68q0 36 -2 61q0 9 8 25q8 8 21 8l31 2q10 0 18 -8t8 -18q2 -20 2 -68t-6 -82q-20 -121 -67 -198q-34 -58 -101 -117l-14 -10q-37 -37 -57 -68q-39 -51 -39 -109q0 -41 22 -96q45 -98 137 -129 q43 -16 86 -16q49 0 103 13.5t83 27.5l29 14q25 9 37 -12l15 -25q6 -12 2 -20q0 -13 -15 -17q-134 -67 -254 -67q-63 0 -116 18q-126 47 -185 178q-32 63 -32 131zM188 866v8v15q3 36 15 63l12 21l6 8l6 8l6 6l9 6l8 7l8 4l4 2q4 4 8 4l9 4h4q12 4 14 4h10h15q34 -3 61 -18 l10 -7l8 -6q6 -3 9 -6q2 -2 2 -4l8 -8q0 -1 1 -2t1 -2q11 -16 12 -21q2 -2 2 -4q12 -24 15 -53v-6v-15q0 -14 -2 -20q0 -5 -5 -10q0 -2 -4 -10q-10 -19 -14 -25l-6 -6l-10 -12l-27 -19l-12 -4t-15 -4q-12 -6 -28 -6q-1 0 -3 -1t-3 -1h-15q-8 0 -28 4l-9 4l-12 6l-8 2l-17 12 l-6 7l-6 8l-10 10l-8 12q-11 21 -13 33q0 2 -1 6t-1 6z" />
<glyph unicode="&#xc0;" horiz-adv-x="1232" d="M59 47l445 1364q7 21 28 21h148q24 0 31 -21l450 -1364q2 -10 -4 -22t-16 -15l-29 -10q-30 0 -37 20l-162 494h-608q-26 -82 -77 -244.5t-78 -244.5q-8 -14 -20 -21.5t-21 -3.5l-29 10q-12 3 -18 14t-3 23zM336 602h547l-246 741h-64zM507 2027.5q2 12.5 9 20.5l23 18 q9 7 24.5 3t18.5 -13l-4 2q98 -119 129 -239q20 -80 20 -244v-39q0 -11 -10.5 -21t-20.5 -10h-28q-12 0 -20.5 9.5t-8.5 21.5v39q0 147 -18 219q-26 105 -111 213v-2q-5 10 -3 22.5z" />
<glyph unicode="&#xc1;" horiz-adv-x="1232" d="M59 47l445 1364q7 21 28 21h148q24 0 31 -21l450 -1364q2 -10 -4 -22t-16 -15l-29 -10q-30 0 -37 20l-162 494h-608q-26 -82 -77 -244.5t-78 -244.5q-8 -14 -20 -21.5t-21 -3.5l-29 10q-12 3 -18 14t-3 23zM336 602h547l-246 741h-64zM502 1536v39q0 164 18 244 q30 107 129 239q8 11 21 13t18 -5l25 -18q6 -8 8 -20.5t-4 -22.5l2 2q-88 -112 -113 -213q-16 -72 -16 -219v-39q0 -12 -8.5 -21.5t-20.5 -9.5h-31q-10 0 -19 10.5t-9 20.5z" />
<glyph unicode="&#xc2;" horiz-adv-x="1232" d="M59 47l445 1364q7 21 28 21h148q24 0 31 -21l450 -1364q2 -10 -4 -22t-16 -15l-29 -10q-30 0 -37 20l-162 494h-608q-26 -82 -77 -244.5t-78 -244.5q-8 -14 -20 -21.5t-21 -3.5l-29 10q-12 3 -18 14t-3 23zM336 602h547l-246 741h-64zM377.5 1544q-1.5 12 3.5 21 q26 43 82.5 131t75.5 119q14 14 24 14h111q16 0 24 -17v3l146 -250v-2q7 -22 -6 -35l-31 -19q-24 -12 -37 13v-2q-15 26 -42 70t-48.5 80.5t-40.5 70.5h-43l-141 -223q-7 -10 -19 -13t-22 6l4 -2l-33 19q-6 4 -7.5 16z" />
<glyph unicode="&#xc3;" horiz-adv-x="1232" d="M59 47l445 1364q7 21 28 21h148q24 0 31 -21l450 -1364q2 -10 -4 -22t-16 -15l-29 -10q-30 0 -37 20l-162 494h-608q-26 -82 -77 -244.5t-78 -244.5q-8 -14 -20 -21.5t-21 -3.5l-29 10q-12 3 -18 14t-3 23zM332 1552q0 8 3.5 22.5t11.5 36t26 43t43 34.5q27 12 61 12 q74 0 166 -62q101 -62 133 -43q25 13 25 62q0 11 9 21t19 10h31q12 0 20.5 -8.5t8.5 -20.5q0 -14 -1.5 -31t-19 -54t-49.5 -54h2q-26 -17 -63 -17q-65 0 -162 62q-98 64 -141 45q-13 -8 -22 -24.5t-12 -29.5l-3 -12q0 -13 -11 -21t-22 -5q-5 0 -14 1t-13 1q-13 0 -21 10 t-5 22zM336 602h547l-246 741h-64z" />
<glyph unicode="&#xc4;" horiz-adv-x="1345" d="M141 1638v7v14q0 14 2 20q0 7 4 11l5 10q8 16 14 24l6 7l12 12l25 18q19 9 27 11q12 6 30 6q1 0 3 1t3 1h15q6 0 26 -4l9 -4l14 -7l8 -4l16 -12l7 -6l6 -8l10 -11l8 -12q9 -26 10 -33q5 -10 5 -12v-8v-14q-2 -31 -15 -64l-12 -20l-6 -9l-6 -8l-7 -8l-8 -6l-8 -6l-8 -6 q-4 0 -4 -2l-10 -5q-1 0 -4.5 -1t-4.5 -1t-2 -1t-2 -1q-3 0 -7.5 -1t-6.5 -1h-8h-15q-34 3 -63 19l-10 6l-9 6q-4 4 -6 8q-4 0 -4 4l-8 8q0 1 -1 2.5t-1 2.5q-11 17 -12 20q-2 2 -2 4q-12 21 -15 53zM145 61l445 1364q7 21 28 21h148q24 0 31 -21l450 -1364q2 -10 -4 -21.5 t-16 -14.5l-29 -11q-30 0 -37 21l-162 493h-608q-27 -82 -78 -244.5t-77 -244.5q-8 -14 -20 -21.5t-21 -3.5l-29 11q-12 3 -18 13.5t-3 22.5zM422 616h547l-246 742h-64zM924 1638v7v14q0 14 2 20q0 7 4 11q0 2 4 10q8 16 14 24l6 7l13 12l26 18q19 9 25 11q12 6 31 6 q1 0 3 1t3 1h14q9 0 29 -4l8 -4l12 -7l8 -4l17 -12l6 -6l6 -8l10 -11l9 -12q9 -18 12 -33q4 -8 4 -12v-8v-14q-3 -38 -16 -64l-13 -20l-6 -9l-6 -8l-6 -8l-8 -6l-9 -6l-8 -6q-4 0 -4 -2q-1 0 -2 -1t-2.5 -2t-3.5 -2q-1 0 -4 -1t-4 -1t-2 -1t-2 -1q-3 0 -8 -1t-7 -1h-10h-14 q-36 3 -62 19l-10 6l-8 6q-5 3 -8 8q-4 0 -4 4l-9 8q0 1 -1 2.5t-1 2.5q-11 17 -12 20q-2 2 -2 4q-11 18 -14 53z" />
<glyph unicode="&#xc5;" horiz-adv-x="1204" d="M59 47l445 1364q7 21 28 21h148q24 0 31 -21l450 -1364q2 -10 -4 -22t-16 -15l-29 -10q-30 0 -37 20l-162 494h-608q-26 -82 -77 -244.5t-78 -244.5q-8 -14 -20 -21.5t-21 -3.5l-29 10q-12 3 -18 14t-3 23zM336 602h547l-246 741h-64zM504 1745q0 56 39 95.5t94 39.5 q56 0 96.5 -40t40.5 -95t-40.5 -94t-96.5 -39q-55 0 -94 39t-39 94zM565 1745q0 -28 22 -50t50 -22q30 0 51 22t21 50q0 31 -20.5 51.5t-51.5 20.5q-28 0 -50 -21t-22 -51z" />
<glyph unicode="&#xc6;" horiz-adv-x="1554" d="M80 49l442 1360q7 21 29 21h883q11 0 20.5 -9t9.5 -22v-29q0 -12 -9.5 -21.5t-20.5 -9.5h-678l182 -540h453q11 0 19.5 -10t8.5 -21v-29q0 -13 -8 -21.5t-20 -8.5h-426l202 -615h301q12 0 20.5 -10t8.5 -21v-30q0 -12 -8.5 -20.5t-20.5 -8.5h-348q-12 0 -21 8.5t-9 20.5 v8l-146 446h-627q-61 -186 -151 -467q-7 -20 -37 -20l-29 10q-13 6 -16 13q-9 9 -2 28zM346 575h567q-47 145 -135 404t-121 360h-63q-47 -148 -134 -414t-114 -350z" />
<glyph unicode="&#xc7;" horiz-adv-x="1236" d="M100 709q0 193 63.5 342t180.5 241q185 140 479 140q81 0 165.5 -11t120.5 -19.5t48 -12.5q11 -3 18.5 -13.5t4.5 -21.5v2l-9 -31q-16 -32 -45 -18l2 -2q-150 36 -303 36q-271 0 -430 -122q-205 -155 -205 -510q0 -165 54 -295.5t149 -210.5q157 -113 408 -113 q158 0 332 45q26 6 34 -18l13 -35v-2q0 -28 -21 -31q-19 -6 -58.5 -15.5t-127.5 -21.5t-172 -12q-281 0 -459 131q-118 90 -180 237t-62 341zM459 -352l8 30q3 12 13 18t22 3h-2q51 -8 102 -8q63 0 90 18v-2q13 13 13 35q0 28 -12.5 49t-28 31t-35.5 16t-29.5 7t-15.5 1h-25 q-15 0 -24 17q-7 13 0 26l94 154q5 9 15.5 11.5t21.5 -3.5l30 -20q15 -15 6 -37l-47 -72q59 -19 97.5 -64.5t38.5 -115.5q0 -65 -46 -102q-52 -37 -145 -37q-63 0 -113 10l-6 2q-22 12 -22 33z" />
<glyph unicode="&#xc8;" horiz-adv-x="999" d="M152 29v1374q0 11 9 21t21 10h736q13 0 21.5 -10t8.5 -21v-31q0 -12 -8.5 -20.5t-21.5 -8.5h-676v-544h632q10 0 20.5 -10.5t10.5 -20.5v-31q0 -11 -10 -19.5t-21 -8.5h-632v-619h710q10 0 20.5 -10t10.5 -21v-30q0 -12 -10 -20.5t-21 -8.5h-770q-12 0 -21 8.5t-9 20.5z M433 2170.5q2 12.5 9 20.5l23 19q9 7 24.5 3t18.5 -13l-4 2q98 -119 129 -240q20 -80 20 -244v-39q0 -11 -10 -20.5t-20 -9.5h-29q-12 0 -20.5 9t-8.5 21v39q0 147 -18 219q-26 105 -111 213v-2q-5 10 -3 22.5z" />
<glyph unicode="&#xc9;" horiz-adv-x="983" d="M152 29v1374q0 11 9 21t21 10h736q13 0 21.5 -10t8.5 -21v-31q0 -12 -8.5 -20.5t-21.5 -8.5h-676v-544h632q10 0 20.5 -10.5t10.5 -20.5v-31q0 -11 -10 -19.5t-21 -8.5h-632v-619h710q10 0 20.5 -10t10.5 -21v-30q0 -12 -10 -20.5t-21 -8.5h-770q-12 0 -21 8.5t-9 20.5z M377 1536v39q0 164 18 244q30 107 129 239q8 11 21 13t18 -5l25 -18q6 -8 8 -20.5t-4 -22.5l2 2q-88 -112 -113 -213q-16 -72 -16 -219v-39q0 -12 -8.5 -21.5t-20.5 -9.5h-30q-10 0 -19.5 11t-9.5 20z" />
<glyph unicode="&#xca;" horiz-adv-x="983" d="M152 29v1374q0 11 9 21t21 10h736q13 0 21.5 -10t8.5 -21v-31q0 -12 -8.5 -20.5t-21.5 -8.5h-676v-544h632q10 0 20.5 -10.5t10.5 -20.5v-31q0 -11 -10 -19.5t-21 -8.5h-632v-619h710q10 0 20.5 -10t10.5 -21v-30q0 -12 -10 -20.5t-21 -8.5h-770q-12 0 -21 8.5t-9 20.5z M252.5 1544q-1.5 12 3.5 21q26 43 82.5 131t75.5 119q14 14 24 14h111q15 0 24 -17v3l146 -250v-2q7 -22 -6 -35l-31 -19q-24 -12 -37 13v-2q-15 26 -42 70t-48.5 80.5t-40.5 70.5h-43l-141 -223q-7 -10 -19 -13t-22 6l4 -2l-33 19q-6 4 -7.5 16z" />
<glyph unicode="&#xcb;" horiz-adv-x="983" d="M115 1638v7v14q0 14 2 20q0 2 1 6t1 5q0 2 4 10q8 16 14 24l6 7l13 12l26 18q19 9 27 11q12 6 29 6q1 0 3 1t3 1h14q9 0 29 -4l8 -4l14 -7l8 -4l15 -12l6 -6l6 -8l10 -11l8 -12q11 -21 13 -33q4 -8 4 -12v-8v-14q-3 -36 -17 -64l-12 -20l-6 -9l-6 -8l-6 -8l-8 -6l-7 -6 l-8 -6q-4 0 -4 -2l-10 -5q-1 0 -4 -1t-4 -1t-2 -1t-2 -1q-3 0 -8 -1t-7 -1h-10h-14q-33 3 -62 19l-10 6l-8 6q-5 3 -8 8q-4 0 -4 4l-9 8q0 1 -1 2.5t-1 2.5q-11 17 -12 20q-2 2 -2 4q-8 14 -12 53zM158 43v1374q0 11 9 21t21 10h736q13 0 21.5 -10t8.5 -21v-31 q0 -12 -8.5 -20t-21.5 -8h-676v-545h633q10 0 20 -10t10 -21v-30q0 -12 -9.5 -20.5t-20.5 -8.5h-633v-619h710q11 0 21 -10t10 -20v-31q0 -12 -10 -20.5t-21 -8.5h-770q-12 0 -21 8.5t-9 20.5zM676 1638v7v14q0 14 2 20q0 7 4 11q0 2 4 10q8 16 14 24l7 7l12 12l24 18 q19 9 27 11q12 6 31 6q1 0 3 1t3 1h14q7 0 27 -4l8 -4l14 -7l9 -4l16 -12l6 -6l6 -8l11 -11l8 -12q9 -18 12 -33q0 -2 1 -6t1 -6v-8v-14q-3 -43 -14 -64l-13 -20l-6 -9l-6 -8l-6 -8l-8 -6l-8 -6l-9 -6q-4 0 -4 -2l-10 -5q-1 0 -4 -1t-4 -1t-2 -1t-2 -1q-3 0 -7 -1t-6 -1h-10 h-14q-35 3 -64 19l-10 6l-6 6q-5 3 -8 8q-4 0 -4 4l-8 8q0 1 -1 2.5t-1 2.5q-13 19 -13 20q-2 2 -2 4q-11 18 -14 53z" />
<glyph unicode="&#xcc;" horiz-adv-x="344" d="M18 2148q-12 19 7 43l22 19q9 7 24.5 3t18.5 -13l-4 2q98 -119 129 -240q21 -84 21 -244v-39q0 -11 -10.5 -20.5t-20.5 -9.5h-29q-12 0 -20.5 9t-8.5 21v39q0 147 -18 219q-26 105 -111 213v-2zM127 29v1374q0 10 9 19.5t20 9.5h30q11 0 20 -9.5t9 -19.5v-1374 q0 -12 -8.5 -20.5t-20.5 -8.5h-30q-12 0 -20.5 8.5t-8.5 20.5z" />
<glyph unicode="&#xcd;" horiz-adv-x="387" d="M80 1536v39q0 164 18 244q30 107 129 239q8 11 21 13t18 -5l25 -18q6 -8 8 -20.5t-4 -22.5l2 2q-88 -112 -113 -213q-16 -72 -16 -219v-39q0 -12 -8.5 -21.5t-20.5 -9.5h-30q-10 0 -19.5 11t-9.5 20zM147 29v1374q0 10 9 19.5t20 9.5h31q11 0 20 -9.5t9 -19.5v-1374 q0 -12 -8.5 -20.5t-20.5 -8.5h-31q-12 0 -20.5 8.5t-8.5 20.5z" />
<glyph unicode="&#xce;" horiz-adv-x="387" d="M-44.5 1544q-1.5 12 3.5 21q26 43 82.5 131t75.5 119q14 14 24 14h111q16 0 24 -17v3l146 -250v-2q7 -22 -6 -35l-31 -19q-24 -12 -37 13v-2q-15 26 -42 70t-48.5 80.5t-40.5 70.5h-43l-141 -223q-7 -10 -19 -13t-22 6l4 -2l-33 19q-6 4 -7.5 16zM147 29v1374 q0 10 9 19.5t20 9.5h31q11 0 20 -9.5t9 -19.5v-1374q0 -12 -8.5 -20.5t-20.5 -8.5h-31q-12 0 -20.5 8.5t-8.5 20.5z" />
<glyph unicode="&#xcf;" horiz-adv-x="720" d="M25 1638v7v14q0 14 2 20q0 9 2 11q0 2 4 10q8 16 14 24l6 7l13 12l26 18q19 9 27 11q12 6 28 6q1 0 3.5 1t3.5 1h14q9 0 29 -4l8 -4l14 -7l8 -4l15 -12l6 -6l6 -8l10 -11l8 -12q11 -21 13 -33q4 -8 4 -12v-8v-14q-3 -36 -17 -64l-12 -20l-6 -9l-6 -8l-6 -8l-9 -6l-6 -6 l-8 -6q-4 0 -4 -2l-10 -5q-1 0 -4 -1t-4 -1t-2 -1t-2 -1q-3 0 -8 -1t-7 -1h-10h-14q-32 3 -62 19l-10 6l-8 6q-5 3 -8 8q-5 0 -5 4l-8 8q0 1 -1 2.5t-1 2.5q-11 17 -12 20q-2 2 -2 4q-8 14 -12 53zM313 29v1374q0 10 8.5 19.5t18.5 9.5h31q11 0 19.5 -9.5t8.5 -19.5v-1374 q0 -12 -8 -20.5t-20 -8.5h-31q-11 0 -19 8.5t-8 20.5zM426 1638v7v14q0 14 2 20q0 7 4 11q0 2 4 10q2 10 13 24l6 7l12 12l27 18q19 10 26 11q12 6 29 6q1 0 3 1t3 1h14q9 0 29 -4l8 -4l15 -7l8 -4l14 -12l6 -6l6 -8l11 -11l8 -12q9 -18 12 -33q4 -8 4 -12v-8v-14 q-3 -38 -16 -64l-12 -20l-7 -9l-6 -8l-6 -8l-6 -6l-8 -6l-8 -6q-5 0 -5 -2l-10 -5q-1 0 -4 -1t-4 -1t-2 -1t-2 -1q-3 0 -7.5 -1t-6.5 -1h-11h-14q-32 3 -61 19l-11 6l-8 6q-5 3 -8 8q-4 0 -4 4l-8 8q0 1 -1 2.5t-1 2.5q-13 19 -13 20q-2 2 -2 4q-9 20 -12 53z" />
<glyph unicode="&#xd0;" horiz-adv-x="1503" d="M76 637v29q0 15 10 20q8 8 20 8l515 -2q10 0 19 -8t9 -18v-31q0 -13 -10 -23q-8 -8 -18 -8l-515 4q-12 0 -21 8.5t-9 20.5zM285 55v1325q0 8 6.5 16t15.5 11l17 2q155 23 254 23q72 0 140 -6.5t151 -27t153.5 -53t138.5 -88.5t116 -129.5t77.5 -181t29.5 -237.5 q0 -128 -28.5 -233t-75 -177t-113.5 -127t-135.5 -87t-149 -52t-147.5 -26.5t-137 -6.5q-68 0 -135 6.5t-99.5 12t-44.5 8.5q-1 0 -5.5 1t-6.5 1q-9 3 -15.5 10.5t-6.5 15.5zM358 106l15 -14v10l-4 2q-1 0 -5.5 1t-5.5 1zM373 102q120 -16 225 -16q73 0 139.5 7.5t138 26.5 t131.5 49t114.5 79t92.5 112.5t60 152.5t22 196q0 115 -26.5 209t-69 158.5t-103.5 114t-124 77.5t-137 45.5t-134 23.5t-124 6q-100 0 -205 -14v-1227z" />
<glyph unicode="&#xd1;" horiz-adv-x="1376" d="M154 29v1372q0 12 9 20.5t21 8.5h105q17 0 24 -15v2l793 -1323q2 0 5.5 1t6.5 1v1288q0 11 9.5 21t21.5 10h33q11 0 19.5 -10t8.5 -21v-1345q0 -13 -8 -22t-20 -9l-109 -6q-18 0 -26 16v-2l-793 1325h-10v-1312q0 -12 -9 -20.5t-22 -8.5h-29q-12 0 -21 8.5t-9 20.5z M403 1552q0 8 3.5 22.5t11.5 36t26 43t43 34.5q27 12 62 12q74 0 166 -62q101 -62 133 -43q24 12 24 62q0 11 9.5 21t19.5 10h31q12 0 20.5 -8.5t8.5 -20.5q0 -14 -1.5 -31t-19 -54t-49.5 -54h2q-26 -17 -64 -17q-64 0 -161 62q-99 64 -142 45q-13 -8 -22 -24.5t-12 -29.5 l-3 -12q0 -13 -10.5 -21t-21.5 -5q-5 0 -14 1t-13 1q-13 0 -21.5 10t-5.5 22z" />
<glyph unicode="&#xd2;" horiz-adv-x="1478" d="M106 676q0 145 49 282t133.5 242t207.5 168.5t262 63.5q119 -3 224 -48t181 -119t132 -170t84 -203t30 -216q0 -134 -41.5 -255t-118.5 -212q-92 -103 -222.5 -156t-268.5 -53q-320 13 -490 209q-78 92 -120 213t-42 254zM195 676q0 -251 139 -408q73 -85 182 -131 t242 -49q273 6 424 180q68 78 104.5 184t36.5 224q0 117 -40 231.5t-111 208t-179.5 155.5t-234.5 72q-125 -10 -233 -72t-179 -155.5t-111 -208t-40 -231.5zM630 2170.5q2 12.5 9 20.5l23 19q9 7 24.5 3t18.5 -13l-5 2q98 -119 129 -240q21 -84 21 -244v-39 q0 -11 -10.5 -20.5t-20.5 -9.5h-28q-12 0 -20.5 9t-8.5 21v39q0 143 -19 219q-27 107 -110 213v-2q-5 10 -3 22.5z" />
<glyph unicode="&#xd3;" horiz-adv-x="1529" d="M106 676q0 145 49 282t133.5 242t207.5 168.5t262 63.5q119 -3 224 -48t181 -119t132 -170t84 -203t30 -216q0 -134 -41.5 -255t-118.5 -212q-92 -103 -222.5 -156t-268.5 -53q-320 13 -490 209q-78 92 -120 213t-42 254zM195 676q0 -251 139 -408q73 -85 182 -131 t242 -49q273 6 424 180q68 78 104.5 184t36.5 224q0 117 -40 231.5t-111 208t-179.5 155.5t-234.5 72q-125 -10 -233 -72t-179 -155.5t-111 -208t-40 -231.5zM651 1536v39q0 160 19 244q30 107 129 239q8 11 21 13t18 -5l24 -18q6 -8 8 -20.5t-4 -22.5l2 2 q-86 -110 -112 -213q-17 -76 -17 -219v-39q0 -12 -8 -21.5t-20 -9.5h-31q-10 0 -19.5 11t-9.5 20z" />
<glyph unicode="&#xd4;" horiz-adv-x="1529" d="M106 676q0 145 49 282t133.5 242t207.5 168.5t262 63.5q119 -3 224 -48t181 -119t132 -170t84 -203t30 -216q0 -134 -41.5 -255t-118.5 -212q-92 -103 -222.5 -156t-268.5 -53q-320 13 -490 209q-78 92 -120 213t-42 254zM195 676q0 -251 139 -408q73 -85 182 -131 t242 -49q273 6 424 180q68 78 104.5 184t36.5 224q0 117 -40 231.5t-111 208t-179.5 155.5t-234.5 72q-125 -10 -233 -72t-179 -155.5t-111 -208t-40 -231.5zM524.5 1544q-1.5 12 3.5 21q26 43 82.5 131t75.5 119q14 14 25 14h110q17 0 25 -17v3l145 -250v-2q7 -22 -6 -35 l-31 -19q-24 -12 -36 13v-2q-12 21 -59.5 99t-72.5 122h-43l-141 -223q-7 -10 -19 -13t-22 6l4 -2l-33 19q-6 4 -7.5 16z" />
<glyph unicode="&#xd5;" horiz-adv-x="1529" d="M106 676q0 145 49 282t133.5 242t207.5 168.5t262 63.5q119 -3 224 -48t181 -119t132 -170t84 -203t30 -216q0 -134 -41.5 -255t-118.5 -212q-92 -103 -222.5 -156t-268.5 -53q-320 13 -490 209q-78 92 -120 213t-42 254zM195 676q0 -251 139 -408q73 -85 182 -131 t242 -49q273 6 424 180q68 78 104.5 184t36.5 224q0 117 -40 231.5t-111 208t-179.5 155.5t-234.5 72q-125 -10 -233 -72t-179 -155.5t-111 -208t-40 -231.5zM481 1552q0 8 3.5 22.5t11.5 36t26 43t43 34.5q27 12 62 12q74 0 166 -62q101 -62 133 -43q24 12 24 62 q0 11 9.5 21t19.5 10h31q12 0 20 -8.5t8 -20.5q0 -102 -69 -139h2q-26 -17 -64 -17q-65 0 -162 62q-98 64 -141 45q-13 -8 -22 -24.5t-12 -29.5l-3 -12q0 -13 -10.5 -21t-21.5 -5q-5 0 -14 1t-13 1q-13 0 -21.5 10t-5.5 22z" />
<glyph unicode="&#xd6;" horiz-adv-x="1519" d="M117 690q0 145 49 282t133 242t207 168.5t262 63.5q119 -3 224 -48t181 -119t132 -170t84 -203t30 -216q0 -135 -41 -255.5t-118 -211.5q-92 -103 -223 -156t-269 -53q-319 13 -489 209q-78 92 -120 213t-42 254zM205 690q0 -250 139 -407q73 -86 182 -132t242 -49 q272 6 424 181q68 78 104.5 183.5t36.5 223.5q0 93 -25 186t-74 176t-116.5 148.5t-158 107.5t-191.5 50q-125 -10 -233 -72t-179 -155.5t-111 -208.5t-40 -232zM231 1638v7v14q0 14 2 20q0 6 5 11q0 2 4 10q8 16 14 24l6 7l12 12l27 18q19 9 27 11q9 6 28 6q1 0 3 1t3 1h15 q9 0 29 -4l8 -4l14 -7l6 -4l17 -12l6 -6l6 -8l10 -11l8 -12q11 -21 13 -33q4 -8 4 -12v-8v-14q-3 -36 -17 -64l-12 -20l-6 -9l-6 -8l-6 -8l-9 -6l-8 -6l-6 -6q-4 0 -4 -2l-10 -5q-1 0 -4 -1t-4 -1t-2.5 -1t-2.5 -1q-3 0 -7.5 -1t-6.5 -1h-10h-15q-31 3 -61 19l-10 6l-8 6 q-7 3 -9 8q-4 0 -4 4l-8 8q0 1 -1 2.5t-1 2.5q-11 17 -12 20q-2 2 -2 4q-12 21 -15 53zM1016 1638v7v14q0 14 2 20q0 7 4 11q0 2 4 10q8 16 14 24l4 7l13 12l26 18q19 9 27 11q12 6 31 6q1 0 3 1t3 1h12q9 0 29 -4l8 -4l14 -7l9 -4l16 -12l6 -6l6 -8l8 -11l9 -12 q9 -18 12 -33q4 -8 4 -12v-8v-14q-3 -38 -16 -64l-13 -20l-4 -9l-6 -8l-6 -8l-8 -6l-8 -6l-9 -6q-4 0 -4 -2l-10 -5q-1 0 -4 -1t-4 -1t-2 -1t-2 -1q-3 0 -8 -1t-7 -1h-10h-12q-35 3 -64 19l-10 6l-8 6q-5 3 -8 8q-4 0 -4 4l-9 8v5q-11 17 -12 20q-2 2 -2 4q-11 18 -14 53z " />
<glyph unicode="&#xd7;" horiz-adv-x="1329" d="M135 236.5q-1 13.5 8 21.5l965 967q7 6 21 5.5t20 -9.5l18 -17q7 -6 8 -20t-4 -21l-966 -966q-9 -9 -23 -8t-20 10l-17 18q-9 6 -10 19.5zM135.5 1184q0.5 14 9.5 20l17 17q6 9 20 9.5t21 -5.5l966 -967q7 -8 6.5 -21.5t-8.5 -19.5l-18 -18q-8 -9 -21 -10t-22 8l-965 966 q-6 7 -5.5 21z" />
<glyph unicode="&#xd8;" horiz-adv-x="1492" d="M100 690q0 145 49 282t133.5 242t207.5 168.5t262 63.5q119 -3 224 -48t181 -119t132 -170t84 -203t30 -216q0 -134 -41.5 -255t-118.5 -212q-92 -103 -222.5 -156t-268.5 -53q-320 13 -490 209q-78 92 -120 213t-42 254zM188 690q0 -249 140 -407q73 -86 182 -132 t242 -49q272 6 424 181q68 78 104.5 183.5t36.5 223.5q0 93 -25 186t-74 176t-116.5 148.5t-158 107.5t-191.5 50q-125 -10 -233 -72t-179.5 -155.5t-111.5 -208.5t-40 -232zM365 -63l610 1581v-2q3 9 13 15t22 3l26 -10q9 -3 14 -15.5t-1 -23.5l2 2l-611 -1579 q-10 -13 -15.5 -16t-16.5 -3l-27 11q-11 3 -16 15.5t2 23.5z" />
<glyph unicode="&#xd9;" horiz-adv-x="993" d="M145 535v858q0 14 9 21t18 7h31q12 0 20 -8t8 -20v-863q0 -9 1 -25.5t7 -55.5t16 -76t31 -83t50 -81q59 -57 146 -90t190 -33q166 0 266 100q35 36 60.5 85.5t36.5 88t17 84t6.5 58t0.5 24.5v877q0 12 9.5 20.5t21.5 8.5h30q27 -9 27 -29v-877q0 -15 -0.5 -30.5t-8 -68 t-21.5 -97t-44.5 -102.5t-73.5 -101q-124 -127 -327 -127q-259 0 -400 150q-46 50 -75.5 113.5t-39 122t-11.5 91.5t-1 58zM532 2148q-12 19 7 43l22 19q9 7 24.5 3t18.5 -13l-4 2q98 -119 129 -240q21 -84 21 -244v-39q0 -11 -10.5 -20.5t-20.5 -9.5h-29q-12 0 -20 9t-8 21 v39q0 143 -19 219q-26 105 -111 213v-2z" />
<glyph unicode="&#xda;" horiz-adv-x="1298" d="M145 535v858q0 14 9 21t18 7h31q12 0 20 -8t8 -20v-863q0 -9 1 -25.5t7 -55.5t16 -76t31 -83t50 -81q59 -57 146 -90t190 -33q166 0 266 100q35 36 60.5 85.5t36.5 88t17 84t6.5 58t0.5 24.5v877q0 12 9.5 20.5t21.5 8.5h30q27 -9 27 -29v-877q0 -15 -0.5 -30.5t-8 -68 t-21.5 -97t-44.5 -102.5t-73.5 -101q-124 -127 -327 -127q-259 0 -400 150q-46 50 -75.5 113.5t-39 122t-11.5 91.5t-1 58zM535 1536v39q0 164 18 244q30 107 129 239q8 11 21 13t18 -5l24 -18q7 -8 8.5 -20.5t-3.5 -22.5l2 2q-88 -112 -113 -213q-16 -72 -16 -219v-39 q0 -12 -8.5 -21.5t-20.5 -9.5h-31q-10 0 -19 10.5t-9 20.5z" />
<glyph unicode="&#xdb;" horiz-adv-x="1298" d="M145 535v858q0 14 9 21t18 7h31q12 0 20 -8t8 -20v-863q0 -9 1 -25.5t7 -55.5t16 -76t31 -83t50 -81q59 -57 146 -90t190 -33q166 0 266 100q35 36 60.5 85.5t36.5 88t17 84t6.5 58t0.5 24.5v877q0 12 9.5 20.5t21.5 8.5h30q27 -9 27 -29v-877q0 -15 -0.5 -30.5t-8 -68 t-21.5 -97t-44.5 -102.5t-73.5 -101q-124 -127 -327 -127q-259 0 -400 150q-46 50 -75.5 113.5t-39 122t-11.5 91.5t-1 58zM410.5 1544q-1.5 12 3.5 21q26 44 82.5 132.5t74.5 117.5q14 14 25 14h111q15 0 24 -17v3l146 -250v-2q7 -21 -7 -35l-30 -19q-24 -12 -37 13v-2 q-15 26 -42 70t-48.5 80.5t-40.5 70.5h-43l-142 -223q-7 -10 -19 -13t-22 6l5 -2l-33 19q-6 4 -7.5 16z" />
<glyph unicode="&#xdc;" horiz-adv-x="1298" d="M70 1636v6v15q0 14 2 20q0 5 4 13l4 8q8 16 14 24l6 7l11 12l26 18q9 4 27 8q14 7 29 7q1 0 3 1t3 1h14q9 0 29 -4l8 -5l12 -4l8 -4l17 -12l6 -6l6 -8l10 -11l8 -12q8 -17 11 -33q4 -8 4 -12v-8v-15q-2 -24 -15 -63l-12 -20l-6 -9l-6 -6l-6 -8l-8 -6l-9 -6l-8 -6 q-4 0 -4 -2q-3 0 -8 -5q-1 0 -4 -1t-4 -1t-2 -1t-2 -1q-3 0 -8 -1t-7 -1h-10h-14q-33 3 -62 19l-10 6l-8 6q-5 3 -8 8q-5 0 -5 2l-6 8q0 1 -1 2.5t-1 2.5q-11 17 -12 20q-2 2 -2 4q-11 22 -14 53zM145 535v858q0 14 9 21t18 7h31q12 0 20 -8t8 -20v-863q0 -9 1 -25.5 t7 -55.5t16 -76t31 -83t50 -81q59 -57 146 -90t190 -33q166 0 266 100q35 36 60.5 85.5t36.5 88t17 84t6.5 58t0.5 24.5v877q0 12 9.5 20.5t21.5 8.5h30q27 -9 27 -29v-877q0 -15 -0.5 -30.5t-8 -68t-21.5 -97t-44.5 -102.5t-73.5 -101q-124 -127 -327 -127q-259 0 -400 150 q-46 50 -75.5 113.5t-39 122t-11.5 91.5t-1 58zM946 1636v6v15q0 14 2 20q0 5 4 13l4 8q6 12 15 24l6 7l10 12l27 18q9 5 26 8q14 7 29 7q1 0 3 1t3 1h15q8 0 28 -4l8 -5l13 -4l8 -4l16 -12l6 -6l7 -8l10 -11l8 -12q7 -14 10 -33q4 -8 4 -12v-8v-15q-3 -38 -14 -63l-12 -20 l-6 -9l-7 -6l-6 -8l-8 -6l-8 -6l-8 -6q-4 0 -4 -2q-4 0 -9 -5q-1 0 -4 -1t-4 -1t-2 -1t-2 -1q-3 0 -7.5 -1t-6.5 -1h-10h-15q-32 3 -61 19l-10 6l-9 6q-5 3 -8 8q-4 0 -4 2l-6 8q0 1 -1 2.5t-1 2.5q-11 17 -12 20q-2 2 -2 4q-12 24 -15 53z" />
<glyph unicode="&#xdd;" horiz-adv-x="1062" d="M37.5 1395.5q1.5 10.5 7.5 13.5l33 18h-2q9 6 22 3.5t17 -11.5l407 -692l416 692q6 9 19 11.5t22 -3.5h-2l33 -18q6 -4 6 -31l-451 -747q0 -101 2 -302t2 -300q0 -12 -8 -20.5t-20 -8.5h-27q-29 0 -29 29l-4 602l-442 745q-3 9 -1.5 19.5zM418 1536v39q0 164 18 244 q30 107 129 239q8 11 21 13t18 -5l25 -18q6 -8 8 -20.5t-4 -22.5l2 2q-88 -112 -113 -213q-16 -72 -16 -219v-39q0 -12 -8.5 -21.5t-20.5 -9.5h-31q-10 0 -19 10.5t-9 20.5z" />
<glyph unicode="&#xde;" horiz-adv-x="1003" d="M152 29v1425q0 12 8 20.5t20 8.5h29q12 0 19.5 -8.5t7.5 -20.5v-248q70 104 176 165t215 61q147 0 245 -121q103 -133 103 -369v-4q0 -239 -103 -369q-90 -118 -245 -118q-107 0 -213.5 61t-177.5 162v-645q0 -12 -7.5 -20.5t-19.5 -8.5h-29q-12 0 -20 8.5t-8 20.5z M236 940q1 -110 61 -206t149.5 -149t180.5 -53q112 0 182 89q81 104 84 319q-3 212 -86 320q-73 88 -180 88q-91 0 -180.5 -53t-149.5 -149t-61 -206z" />
<glyph unicode="&#xdf;" horiz-adv-x="1107" d="M143 29v997q0 249 117 363q109 103 315 100q72 -2 149 -33.5t138.5 -89.5t79.5 -125q9 -24 6 -57t-14.5 -65.5t-44 -69.5t-82.5 -68q-78 -53 -105 -96q-18 -27 -18 -62t12 -65q7 -20 23 -39.5t28 -29.5t37 -30l31 -24h2q78 -66 123 -169t45 -218q0 -111 -78 -176 q-92 -66 -243 -66q-2 0 -14 1t-17 1h-19q-11 3 -17 14t-3 21v-2l10 37q7 20 33 16h27q125 0 188 47q47 41 47 107q0 96 -37 180.5t-102 140.5h2l-31 23q-90 69 -117 135q-16 53 -16 96q0 53 31 109q54 76 131 123q120 72 98 162q-22 68 -109 124.5t-176 59.5 q-171 3 -251 -74q-91 -88 -91 -301v-997q0 -12 -8 -20.5t-20 -8.5h-29q-12 0 -21.5 8.5t-9.5 20.5z" />
<glyph unicode="&#xe0;" d="M106 487q0 235 101 367q92 121 246 121q108 0 213 -60.5t174 -162.5v243q0 12 8 20.5t20 8.5h27q12 0 20.5 -8.5t8.5 -20.5v-966q0 -12 -8.5 -20.5t-20.5 -8.5h-27q-12 0 -20 8.5t-8 20.5v194q-69 -101 -175 -162t-212 -61q-153 0 -246 119q-101 141 -101 368zM188 485 q3 -211 84 -315q67 -88 181 -88q90 0 178.5 52.5t148 147t60.5 203.5q-1 82 -36 158.5t-90.5 130t-124.5 85.5t-136 32q-112 0 -181 -88q-81 -104 -84 -318zM435 1617.5q2 12.5 9 20.5l23 19q9 7 24.5 3t18.5 -13l-4 2q98 -119 129 -240q20 -80 20 -244v-39q0 -11 -10 -20.5 t-20 -9.5h-29q-12 0 -20.5 9t-8.5 21v39q0 147 -18 219q-26 105 -111 213v-2q-5 10 -3 22.5z" />
<glyph unicode="&#xe1;" d="M106 487q0 235 101 367q92 121 246 121q108 0 213 -60.5t174 -162.5v243q0 12 8 20.5t20 8.5h27q12 0 20.5 -8.5t8.5 -20.5v-966q0 -12 -8.5 -20.5t-20.5 -8.5h-27q-12 0 -20 8.5t-8 20.5v194q-69 -101 -175 -162t-212 -61q-153 0 -246 119q-101 141 -101 368zM188 485 q3 -211 84 -315q67 -88 181 -88q90 0 178.5 52.5t148 147t60.5 203.5q-1 82 -36 158.5t-90.5 130t-124.5 85.5t-136 32q-112 0 -181 -88q-81 -104 -84 -318zM430 1126v39q0 160 19 244q30 109 129 240q8 11 20.5 13t17.5 -5l25 -19q6 -8 8 -20.5t-4 -22.5l2 2 q-86 -110 -112 -213q-17 -76 -17 -219v-39q0 -12 -8.5 -21t-20.5 -9h-30q-10 0 -19.5 10.5t-9.5 19.5z" />
<glyph unicode="&#xe2;" d="M106 487q0 235 101 367q92 121 246 121q108 0 213 -60.5t174 -162.5v243q0 12 8 20.5t20 8.5h27q12 0 20.5 -8.5t8.5 -20.5v-966q0 -12 -8.5 -20.5t-20.5 -8.5h-27q-12 0 -20 8.5t-8 20.5v194q-69 -101 -175 -162t-212 -61q-153 0 -246 119q-101 141 -101 368zM188 485 q3 -211 84 -315q67 -88 181 -88q90 0 178.5 52.5t148 147t60.5 203.5q-1 82 -36 158.5t-90.5 130t-124.5 85.5t-136 32q-112 0 -181 -88q-81 -104 -84 -318zM305.5 1134q-1.5 12 3.5 21q26 43 82.5 131t75.5 119q14 14 25 14h110q17 0 25 -16v2l145 -250v-2q7 -22 -6 -35 l-31 -18q-25 -12 -37 12v-2q-15 26 -42 70t-48.5 80.5t-40.5 70.5h-43l-141 -223q-7 -10 -19 -13t-22 7l4 -2l-33 18q-6 4 -7.5 16z" />
<glyph unicode="&#xe3;" d="M106 487q0 235 101 367q92 121 246 121q108 0 213 -60.5t174 -162.5v243q0 12 8 20.5t20 8.5h27q12 0 20.5 -8.5t8.5 -20.5v-966q0 -12 -8.5 -20.5t-20.5 -8.5h-27q-12 0 -20 8.5t-8 20.5v194q-69 -101 -175 -162t-212 -61q-153 0 -246 119q-101 141 -101 368zM188 485 q3 -211 84 -315q67 -88 181 -88q90 0 178.5 52.5t148 147t60.5 203.5q-1 82 -36 158.5t-90.5 130t-124.5 85.5t-136 32q-112 0 -181 -88q-81 -104 -84 -318zM260 1143q0 8 3.5 22.5t11.5 36t26 42.5t43 34q27 12 62 12q74 0 165 -61q102 -63 134 -43q24 12 24 61 q0 11 9.5 21t19.5 10h30q12 0 20.5 -8.5t8.5 -20.5q0 -102 -69 -139h2q-24 -16 -64 -16q-67 0 -162 61q-98 64 -141 45q-13 -8 -22 -24.5t-12 -28.5l-3 -12q0 -13 -11 -21.5t-22 -5.5q-5 0 -13.5 1t-12.5 1q-13 0 -21.5 10.5t-5.5 22.5z" />
<glyph unicode="&#xe4;" d="M113 502q0 235 100 366q92 121 246 121q108 0 213 -60.5t174 -162.5v244q0 12 8 20t20 8h27q12 0 20.5 -8t8.5 -20v-967q0 -12 -8.5 -20.5t-20.5 -8.5h-27q-12 0 -20 8.5t-8 20.5v195q-69 -101 -175 -162.5t-212 -61.5q-153 0 -246 119q-100 140 -100 369zM186 1227v6v14 q0 15 2 21q0 2 5 12l4 8q9 19 14 25l6 6l10 12l27 19q9 4 27 8q12 6 28 6q1 0 3 1t3 1h15q8 0 28 -4l9 -4l12 -4l8 -4l16 -13l7 -6l6 -8l10 -10l8 -13q7 -14 10 -32q5 -10 5 -13v-8v-14q-2 -25 -15 -64l-12 -20l-6 -8l-6 -6l-7 -9l-8 -6l-8 -6l-8 -6q-4 0 -4 -2q-4 0 -8 -4 q-1 0 -4.5 -1t-4.5 -1t-2 -1t-2 -1q-3 0 -7.5 -1t-6.5 -1h-10h-15q-34 3 -61 18l-10 6l-8 6q-6 3 -9 9q-4 0 -4 2l-6 8q0 1 -1 2t-1 2q-11 17 -12 20q-2 2 -2 5q-12 24 -15 53zM195 500q3 -212 84 -316q67 -88 180 -88q90 0 178.5 52.5t148 147.5t60.5 204q-1 109 -60.5 204 t-148 148t-178.5 53q-111 0 -180 -88q-81 -104 -84 -317zM625 1227v6v14q0 15 2 21q0 4 4 12l4 8q9 19 14 25l6 6l11 12l26 19q9 4 27 8q12 6 29 6q1 0 3 1t3 1h14q9 0 29 -4l8 -4l12 -4l8 -4l17 -13l6 -6l6 -8l10 -10l8 -13q8 -17 11 -32q4 -8 4 -13v-8v-14q-2 -25 -15 -64 l-12 -20l-6 -8l-6 -6l-6 -9l-8 -6l-9 -6l-8 -6q-4 0 -4 -2q-4 0 -8 -4q-1 0 -4 -1t-4 -1t-2 -1t-2 -1q-3 0 -8 -1t-7 -1h-10h-14q-35 3 -62 18l-10 6l-8 6q-5 2 -8 9q-4 0 -4 2l-7 8q0 1 -1 2t-1 2q-11 17 -12 20q-2 2 -2 5q-11 22 -14 53z" />
<glyph unicode="&#xe5;" d="M106 487q0 235 101 367q92 121 246 121q108 0 213 -60.5t174 -162.5v243q0 12 8 20.5t20 8.5h27q12 0 20.5 -8.5t8.5 -20.5v-966q0 -12 -8.5 -20.5t-20.5 -8.5h-27q-12 0 -20 8.5t-8 20.5v194q-69 -101 -175 -162t-212 -61q-153 0 -246 119q-101 141 -101 368zM188 485 q3 -211 84 -315q67 -88 181 -88q90 0 178.5 52.5t148 147t60.5 203.5q-1 82 -36 158.5t-90.5 130t-124.5 85.5t-136 32q-112 0 -181 -88q-81 -104 -84 -318zM406 1229q0 56 39 95.5t94 39.5q56 0 96.5 -40t40.5 -95t-40.5 -94t-96.5 -39q-55 0 -94 39t-39 94zM467 1229 q0 -28 22 -50t50 -22q30 0 50.5 21.5t20.5 50.5q0 31 -20 51t-51 20q-29 0 -50.5 -20.5t-21.5 -50.5z" />
<glyph unicode="&#xe6;" horiz-adv-x="1753" d="M115 231q-3 207 129 308q104 79 286 79q105 0 195 -20v25q0 181 -100 243q-59 41 -154 41q-125 0 -272 -61q-24 -9 -37 14l-12 27q-10 23 14 37q13 7 52 21.5t114 31t141 16.5q123 0 203 -51q78 -52 114 -160q35 72 82 119q121 121 324 121t309 -121q99 -111 99 -291 q0 -40 -7 -75q-8 -25 -26 -25h-750q4 -53 16 -108.5t48.5 -129t91.5 -118.5q93 -68 227 -68q132 0 326 70l-2 -2q11 6 24.5 -0.5t16.5 -16.5l8 -28q3 -24 -27 -39q-198 -70 -346 -70q-170 0 -280 82q-81 61 -129 160q-4 -33 3 -70t40 -172q0 -11 -6 -22.5t-15 -14.5l-29 -4 q-32 0 -34 18q-18 71 -27 117q-1 5 -2 6t-2 6q-230 -104 -373 -104q-74 0 -135 33q-95 56 -98 196zM203 231q3 -92 55 -120q40 -21 90 -21q131 0 357 103q-2 32 4 83q0 2 1 8t1 9q10 97 12 213q-98 24 -193 24q-150 0 -235 -63v2q-95 -76 -92 -238zM823 598h690 q0 158 -75 244q-86 92 -244 92q-84 0 -150.5 -25t-104.5 -61t-64.5 -85t-37 -87.5t-14.5 -77.5z" />
<glyph unicode="&#xe7;" horiz-adv-x="966" d="M100 506q0 276 174 409q135 105 363 105q100 0 250 -31q1 0 2 -1t2 -1q12 -4 19 -16t5 -21l-8 -30q-3 -10 -13.5 -16t-21.5 -3q-4 2 -33.5 8.5t-87.5 13.5t-114 7q-89 0 -171 -24t-138 -62q-138 -110 -138 -338q0 -231 136 -334q107 -82 299 -82q58 0 119.5 8t93.5 16 l32 7q9 3 20 -3.5t17 -17.5l8 -30v-2q0 -23 -20 -33l-14 -4q-151 -31 -256 -31q-220 0 -351 98q-174 125 -174 408zM430 -352l8 30q3 12 13 18t22 3h-2q51 -8 102 -8q64 0 91 18v-2q12 12 12 35q0 28 -12.5 49t-28 31t-35.5 16t-29.5 7t-15.5 1h-25q-6 0 -13.5 5.5 t-10.5 11.5q-6 13 0 26l94 154q5 9 15.5 11.5t21.5 -3.5l31 -20q15 -15 6 -37l-47 -72q59 -19 97 -64.5t38 -115.5q0 -66 -45 -102q-52 -37 -146 -37q-62 0 -112 10l-6 2q-23 13 -23 33z" />
<glyph unicode="&#xe8;" horiz-adv-x="1099" d="M114.5 505.5q-0.5 29.5 0.5 53.5q15 216 137 342q121 121 326 121q203 0 309 -121q96 -107 96 -295q0 -22 -2 -46l-2 -25q-7 -23 -29 -23h-749q2 -51 14.5 -108t49 -130.5t91.5 -119.5q93 -68 228 -68q131 0 325 70l-2 -2q11 6 24.5 -0.5t16.5 -16.5l10 -26h-2 q6 -10 -1 -21.5t-23 -19.5q-204 -70 -348 -70q-169 0 -279 82q-55 41 -95 102.5t-58 115.5t-27.5 115t-10 90.5zM205 600h692q0 159 -76 242q-80 92 -243 92q-85 0 -151.5 -25.5t-104.5 -61t-65 -85t-37 -86.5t-15 -76zM444 1595q-12 19 7 43l22 19q9 7 24.5 3t18.5 -13 l-4 2q98 -119 129 -240q21 -84 21 -244v-39q0 -11 -10.5 -20.5t-20.5 -9.5h-29q-12 0 -20.5 9t-8.5 21v39q0 147 -18 219q-26 105 -111 213v-2z" />
<glyph unicode="&#xe9;" horiz-adv-x="1099" d="M114.5 505.5q-0.5 29.5 0.5 53.5q15 216 137 342q121 121 326 121q203 0 309 -121q96 -107 96 -295q0 -22 -2 -46l-2 -25q-7 -23 -29 -23h-749q2 -51 14.5 -108t49 -130.5t91.5 -119.5q93 -68 228 -68q131 0 325 70l-2 -2q11 6 24.5 -0.5t16.5 -16.5l10 -26h-2 q6 -10 -1 -21.5t-23 -19.5q-204 -70 -348 -70q-169 0 -279 82q-55 41 -95 102.5t-58 115.5t-27.5 115t-10 90.5zM205 600h692q0 159 -76 242q-80 92 -243 92q-85 0 -151.5 -25.5t-104.5 -61t-65 -85t-37 -86.5t-15 -76zM436 1229v39q0 159 19 243q30 109 129 240q8 11 21 13 t18 -5l24 -18q6 -8 8 -20.5t-4 -22.5l2 2q-86 -110 -112 -213q-17 -77 -17 -219v-39q0 -12 -8 -21.5t-20 -9.5h-31q-10 0 -19.5 11t-9.5 20z" />
<glyph unicode="&#xea;" horiz-adv-x="1099" d="M114.5 505.5q-0.5 29.5 0.5 53.5q15 216 137 342q121 121 326 121q203 0 309 -121q96 -107 96 -295q0 -22 -2 -46l-2 -25q-7 -23 -29 -23h-749q2 -51 14.5 -108t49 -130.5t91.5 -119.5q93 -68 228 -68q131 0 325 70l-2 -2q11 6 24.5 -0.5t16.5 -16.5l10 -26h-2 q6 -10 -1 -21.5t-23 -19.5q-204 -70 -348 -70q-169 0 -279 82q-55 41 -95 102.5t-58 115.5t-27.5 115t-10 90.5zM205 600h692q0 159 -76 242q-80 92 -243 92q-85 0 -151.5 -25.5t-104.5 -61t-65 -85t-37 -86.5t-15 -76zM309.5 1134q-1.5 12 3.5 21q26 43 82.5 131t75.5 119 q14 14 25 14h110q17 0 25 -16v2l145 -250v-2q7 -22 -6 -35l-31 -18q-25 -12 -37 12v-2q-15 26 -42 70t-48.5 80.5t-40.5 70.5h-43l-141 -223q-7 -10 -19 -13t-22 7l4 -2l-33 18q-6 4 -7.5 16z" />
<glyph unicode="&#xeb;" horiz-adv-x="1099" d="M122.5 519.5q-0.5 29.5 0.5 53.5q15 216 137 342q121 121 326 121q203 0 309 -121q96 -107 96 -294q0 -22 -2 -47l-2 -25q-7 -23 -29 -23h-749q2 -36 10 -78t24.5 -93t48 -101.5t73.5 -85.5q93 -68 227 -68q132 0 326 70l-3 -2q11 6 24.5 0t16.5 -16l11 -27h-2 q6 -10 -1.5 -21.5t-23.5 -19.5q-204 -70 -348 -70q-169 0 -279 82q-55 41 -95 102.5t-58 115.5t-27.5 115t-10 90.5zM186 1227v6v14q0 15 2 21q0 2 5 12l4 8q9 19 14 25l6 6l12 12l25 19q9 4 27 8q12 6 28 6q1 0 3 1t3 1h15q8 0 28 -4l9 -4l14 -4l6 -4l16 -13l7 -6l6 -8 l10 -10l8 -13q10 -20 12 -32q5 -10 5 -13v-8v-14q-3 -31 -17 -64l-12 -20l-6 -8l-6 -6l-7 -9l-8 -6l-8 -6l-6 -6q-4 0 -4 -2q-2 0 -10 -4q-1 0 -4.5 -1t-4.5 -1t-2 -1t-2 -1q-3 0 -7.5 -1t-6.5 -1h-10h-15q-34 3 -61 18l-10 6l-6 6q-6 3 -9 9q-4 0 -4 2l-8 8q0 1 -1 2t-1 2 q-11 17 -12 20q-2 2 -2 5q-12 24 -15 53zM213 614h692q0 159 -76 242q-80 92 -243 92q-85 0 -151.5 -25.5t-104.5 -61t-65 -85t-37 -86.5t-15 -76zM625 1227v6v14q0 15 2 21q0 4 4 12l4 8q9 19 14 25l6 6l13 12l24 19q9 4 27 8q12 6 31 6q2 2 4 2h14q9 0 29 -4l8 -4l14 -4 l6 -4l17 -13l6 -6l6 -8l10 -10l8 -13q12 -23 13 -32q4 -8 4 -13v-8v-14q-3 -31 -17 -64l-12 -20l-6 -8l-6 -6l-6 -9l-8 -6l-9 -6l-6 -6q-4 0 -4 -2q-2 0 -10 -4q-1 0 -4 -1t-4 -1t-2 -1t-2 -1q-3 0 -8 -1t-7 -1h-10h-14q-35 3 -62 18l-10 6l-6 6q-5 2 -8 9q-4 0 -4 2l-9 8 q0 1 -1 2t-1 2q-11 17 -12 20q-2 2 -2 5q-11 22 -14 53z" />
<glyph unicode="&#xec;" horiz-adv-x="356" d="M69 1632.5q2 12.5 9 20.5l22 18q9 7 24.5 3t18.5 -13l-4 2q98 -119 129 -240q21 -84 21 -243v-39q0 -11 -10.5 -21t-20.5 -10h-29q-12 0 -20 9.5t-8 21.5v39q0 143 -19 219q-27 107 -110 213v-2q-5 10 -3 22.5zM125 35q18 198 18 440q0 238 -14 443q-1 13 -2 30t-1.5 26 t-0.5 13q0 25 27 31q3 0 13.5 1t14.5 1h6q22 0 25 -25q3 -20 7 -79.5t8.5 -176.5t4.5 -237q0 -243 -20 -477q-3 -25 -29 -25l-28 2q-12 0 -20.5 9t-8.5 24z" />
<glyph unicode="&#xed;" horiz-adv-x="356" d="M63 1229v39q0 159 19 243q30 109 129 240q8 11 21 13t18 -5l24 -18q7 -8 8.5 -20.5t-3.5 -22.5l2 2q-88 -112 -113 -213q-16 -72 -16 -219v-39q0 -12 -8.5 -21.5t-20.5 -9.5h-31q-10 0 -19.5 11t-9.5 20zM125 35q18 198 18 440q0 238 -14 443q-1 13 -2 30t-1.5 26 t-0.5 13q0 25 27 31q3 0 13.5 1t14.5 1h6q8 0 16 -7t9 -18q3 -20 7 -79.5t8.5 -176.5t4.5 -237q0 -243 -20 -477q-3 -25 -29 -25l-28 2q-12 0 -20.5 9t-8.5 24z" />
<glyph unicode="&#xee;" horiz-adv-x="356" d="M-54.5 1149q-1.5 11 3.5 20q26 44 82.5 132.5t74.5 117.5q15 15 25 15h111q16 0 24 -17v2l146 -250v-2q7 -21 -6 -34l-31 -19q-25 -12 -37 12v-2q-121 205 -131 222h-43l-141 -224q-7 -10 -19 -13t-22 7l4 -2l-33 19q-6 5 -7.5 16zM125 35q18 198 18 440q0 238 -14 443 q-1 13 -2 30t-1.5 26t-0.5 13q0 25 27 31q3 0 13.5 1t14.5 1h6q8 0 16 -7t9 -18q3 -20 7 -79.5t8.5 -176.5t4.5 -237q0 -243 -20 -477q-3 -25 -29 -25l-28 2q-12 0 -20.5 9t-8.5 24z" />
<glyph unicode="&#xef;" horiz-adv-x="573" d="M-80 1288v15q0 14 2 20l4 12q4 8 4 11q2 5 9 12.5t8 9.5l6 6q4 8 8 12l27 19q16 8 26 10q12 6 29 6q1 0 3 1t3 1h14q9 0 29 -4l8 -4l13 -6l8 -4l16 -12l6 -7l7 -8l10 -10l8 -12q6 -10 10 -33q4 -8 4 -12v-8v-15q-2 -28 -14 -63l-12 -19l-6 -8l-7 -8l-6 -8l-8 -6l-8 -7 l-8 -6q-4 0 -4 -2q-5 0 -9 -4q-1 0 -4 -1t-4 -1t-2 -1t-2 -1q-3 0 -7.5 -1t-6.5 -1h-11h-14q-34 3 -61 18l-8 7l-11 6l-8 8l-4 4l-4 8l-4 4l-12 19q0 1 -3 4q-9 23 -12 53q0 1 -1 3t-1 3zM227 35q19 209 19 440q0 223 -15 443q-1 13 -2 30t-1.5 26t-0.5 13q0 25 25 31 q3 0 14 1t15 1h6q9 0 17 -6.5t9 -18.5q3 -19 7 -79t8 -176.5t4 -237.5q0 -217 -19 -477q-1 -11 -10 -18t-20 -7l-29 2q-11 0 -19 9t-8 24zM358 1282v6v15q0 14 2 20q0 2 5 12q0 3 4 11q5 10 14 22l6 6l10 12l27 19q15 8 27 10q12 6 28 6q1 0 3 1t3 1h15q8 0 28 -4l9 -4 l12 -6l8 -4l16 -12l7 -7l6 -8l10 -10l8 -12q6 -10 10 -33q5 -10 5 -12v-8v-15q-2 -24 -15 -63l-12 -19l-6 -8l-6 -8l-7 -8l-8 -6l-8 -7l-8 -6q-4 0 -4 -2q-4 0 -8 -4q-1 0 -4.5 -1t-4.5 -1t-2 -1t-2 -1q-3 0 -7.5 -1t-6.5 -1h-10h-15q-34 3 -61 18l-10 7l-8 6q-7 3 -9 8 q-4 0 -4 4l-6 8q0 1 -1 2t-1 2q-10 10 -12 19q-2 2 -2 4q-12 23 -15 53z" />
<glyph unicode="&#xf0;" horiz-adv-x="1101" d="M70 487q0 139 69 238q55 77 151 123.5t218 46.5q72 0 136.5 -24t113 -65.5t84 -87.5t63.5 -100q-7 184 -101.5 344.5t-248.5 256.5l-197 -187q-6 -12 -19 -12.5t-22 10.5l-22 25q-14 19 4 37l172 172q-143 65 -295 65q-12 0 -20.5 9t-8.5 20v33q0 12 8.5 20t20.5 8 q189 0 361 -90l168 168q22 13 38 0l23 -24q17 -22 -2 -41l-150 -148q176 -114 280.5 -301t104.5 -401q0 -100 -26 -199v2q-24 -182 -149 -283.5t-306 -101.5q-86 0 -157.5 26.5t-118.5 70.5t-82 95.5t-54 108.5t-27.5 103t-8.5 83zM160 485q0 -96 31 -171t74 -115.5 t96.5 -66.5t91 -34t65.5 -8q104 0 203 45q106 55 164 262q-4 36 -18 83t-44.5 105.5t-71 105.5t-104.5 79.5t-139 32.5q-93 0 -164 -30t-109 -78.5t-56.5 -101.5t-18.5 -108z" />
<glyph unicode="&#xf1;" horiz-adv-x="1050" d="M154 356q0 206 6 676q0 11 8 20t20 9h31q11 0 19 -8.5t8 -20.5q0 -18 -1 -55t-1 -55v-58q110 154 307 154q166 0 258 -103q35 -41 58.5 -93.5t31 -101.5t9.5 -79t1 -51q-6 -208 -6 -404q0 -107 4 -139q0 -23 -16 -35q-29 -10 -39 -10q-22 0 -29 21v-3q-6 16 -6 146 q0 160 2 242q2 70 2 182q0 16 -3 49.5t-22 103t-51 113.5q-77 74 -194 74q-62 0 -111.5 -18.5t-80.5 -46.5t-54 -66t-34 -70.5t-17 -68t-7 -50t-1 -24.5v-15q0 -21 -2 -197.5t-2 -252.5q0 -74 2 -78q3 -9 -3.5 -18.5t-15.5 -12.5l-22 -10l2 2q-10 -7 -24 -2t-21 21v2 q-6 41 -6 331zM242 1266q0 8 3.5 22.5t11.5 36t26 42.5t43 34q27 12 61 12q75 0 166 -61q101 -62 133 -43q25 13 25 61q0 11 9 21t19 10h31q12 0 20.5 -8.5t8.5 -20.5q0 -14 -1.5 -31t-19 -54t-49.5 -54h2q-24 -16 -63 -16q-67 0 -162 61q-98 64 -141 45q-13 -8 -22 -24.5 t-12 -28.5l-3 -13q0 -13 -11 -21t-22 -5q-5 0 -14 1t-13 1q-13 0 -21 10.5t-5 22.5z" />
<glyph unicode="&#xf2;" horiz-adv-x="1140" d="M106 483q0 137 41 230l-2 -2q21 61 56 110q63 82 143 131q116 72 250 66q87 -3 165.5 -41t135.5 -105q121 -142 121 -378q0 -291 -182 -422q-61 -39 -128 -55.5t-104 -16.5q-246 0 -371 131.5t-125 351.5zM195 483q0 -395 407 -395q100 0 182 57q144 99 144 349 q0 210 -97 319q-93 109 -241 119q-112 0 -197 -53q-76 -51 -119 -107q-27 -40 -49 -92h2q-32 -79 -32 -197zM462 1720.5q2 12.5 9 20.5l23 18q9 7 24.5 3t18.5 -13l-5 2q99 -120 130 -240q20 -80 20 -243v-39q0 -11 -10.5 -21t-20.5 -10h-28q-12 0 -20.5 9.5t-8.5 21.5v39 q0 143 -19 219q-27 107 -110 213v-2q-5 10 -3 22.5z" />
<glyph unicode="&#xf3;" horiz-adv-x="1140" d="M106 483q0 137 41 230l-2 -2q21 61 56 110q63 82 143 131q116 72 250 66q87 -3 165.5 -41t135.5 -105q121 -142 121 -378q0 -291 -182 -422q-61 -39 -128 -55.5t-104 -16.5q-246 0 -371 131.5t-125 351.5zM195 483q0 -395 407 -395q100 0 182 57q144 99 144 349 q0 210 -97 319q-93 109 -241 119q-112 0 -197 -53q-76 -51 -119 -107q-27 -40 -49 -92h2q-32 -79 -32 -197zM457 1229v39q0 163 18 243q30 109 129 240q8 11 21 13t18 -5l25 -18q6 -8 8 -20.5t-4 -22.5l2 2q-88 -112 -113 -213q-16 -72 -16 -219v-39q0 -12 -8.5 -21.5 t-20.5 -9.5h-31q-10 0 -19 10.5t-9 20.5z" />
<glyph unicode="&#xf4;" horiz-adv-x="1140" d="M106 483q0 137 41 230l-2 -2q21 61 56 110q63 82 143 131q116 72 250 66q87 -3 165.5 -41t135.5 -105q121 -142 121 -378q0 -291 -182 -422q-61 -39 -128 -55.5t-104 -16.5q-246 0 -371 131.5t-125 351.5zM195 483q0 -395 407 -395q100 0 182 57q144 99 144 349 q0 210 -97 319q-93 109 -241 119q-112 0 -197 -53q-76 -51 -119 -107q-27 -40 -49 -92h2q-32 -79 -32 -197zM330.5 1134q-1.5 12 3.5 21q26 43 82.5 131t75.5 119q14 14 24 14h111q16 0 24 -16v2l146 -250v-2q7 -22 -6 -35l-31 -18q-25 -12 -37 12v-2q-15 26 -42 70 t-48.5 80.5t-40.5 70.5h-43l-141 -223q-7 -10 -19 -13t-22 7l4 -2l-33 18q-6 4 -7.5 16z" />
<glyph unicode="&#xf5;" horiz-adv-x="1140" d="M106 483q0 137 41 230l-2 -2q21 61 56 110q63 82 143 131q116 72 250 66q87 -3 165.5 -41t135.5 -105q121 -142 121 -378q0 -291 -182 -422q-61 -39 -128 -55.5t-104 -16.5q-246 0 -371 131.5t-125 351.5zM195 483q0 -395 407 -395q100 0 182 57q144 99 144 349 q0 210 -97 319q-93 109 -241 119q-112 0 -197 -53q-76 -51 -119 -107q-27 -40 -49 -92h2q-32 -79 -32 -197zM287 1266q0 8 3.5 22.5t11.5 36t26 42.5t43 34q27 12 61 12q75 0 166 -61q101 -62 133 -43q25 13 25 61q0 11 9 21t19 10h31q12 0 20.5 -8.5t8.5 -20.5 q0 -14 -1.5 -31t-19 -54t-49.5 -54h2q-24 -16 -63 -16q-67 0 -162 61q-98 64 -141 45q-13 -8 -22 -24.5t-12 -28.5l-3 -13q0 -13 -11 -21t-22 -5q-5 0 -14 1t-13 1q-13 0 -21 10.5t-5 22.5z" />
<glyph unicode="&#xf6;" horiz-adv-x="1140" d="M115 498q0 136 41 229l-2 -2q22 65 55 111q63 82 143 131q114 71 250 65q87 -3 165.5 -41t135.5 -104q121 -142 121 -379q0 -291 -182 -422q-61 -39 -128 -55.5t-104 -16.5q-125 0 -220.5 36t-155 101t-89.5 152.5t-30 194.5zM186 1227v6v14q0 15 2 21q0 2 5 12l4 8 q9 19 14 25l6 6l12 12l25 19q9 4 27 8q12 6 30 6q1 0 3 1t3 1h13q8 0 28 -4l9 -4l14 -4l8 -4l14 -13l7 -6l6 -8l10 -10l8 -13q10 -20 12 -32q5 -10 5 -13v-8v-14q-3 -31 -17 -64l-12 -20l-6 -8l-6 -6l-7 -9l-8 -6l-6 -6l-8 -6q-4 0 -4 -2q-2 0 -10 -4q-1 0 -4.5 -1t-4.5 -1 t-2 -1t-2 -1q-3 0 -7.5 -1t-6.5 -1h-10h-13q-36 3 -63 18l-10 6l-6 6q-6 3 -9 9q-4 0 -4 2l-8 8q0 1 -1 2t-1 2q-11 17 -12 20q-2 2 -2 5q-12 24 -15 53zM203 498q0 -396 407 -396q100 0 183 58q143 98 143 348q0 211 -96 319q-93 109 -242 119q-112 0 -197 -53 q-74 -50 -118 -107q-30 -43 -50 -92h3q-33 -82 -33 -196zM625 1227v6v14q0 15 2 21q0 4 4 12l4 8q9 19 14 25l6 6l13 12l24 19q9 4 27 8q12 6 31 6q1 0 3 1t3 1h12q9 0 29 -4l8 -4l14 -4l8 -4l15 -13l6 -6l6 -8l10 -10l8 -13q12 -23 13 -32q4 -8 4 -13v-8v-14 q-3 -31 -17 -64l-12 -20l-6 -8l-6 -6l-6 -9l-8 -6l-7 -6l-8 -6q-4 0 -4 -2q-2 0 -10 -4q-1 0 -4 -1t-4 -1t-2 -1t-2 -1q-3 0 -8 -1t-7 -1h-10h-12q-37 3 -64 18l-10 6l-6 6q-5 2 -8 9q-4 0 -4 2l-9 8q0 1 -1 2t-1 2q-11 17 -12 20q-2 2 -2 5q-11 22 -14 53z" />
<glyph unicode="&#xf7;" horiz-adv-x="911" d="M72 502v30q0 16 10 19q8 8 20 8l709 -2q11 0 21 -8t10 -19v-30q0 -12 -11 -23q-12 -6 -20 -6l-709 4q-12 0 -21 7.5t-9 19.5zM342 131v6v15v20q0 6 4 10q0 3 4 11q6 12 15 24l6 6l12 13l27 18l24 8q12 6 31 6q1 0 3 1t3 1h14q7 0 27 -4l8 -4l15 -6l8 -2l16 -12l4 -6l6 -9 l11 -10l8 -12q9 -18 12 -33q4 -8 4 -12v-8v-15q-3 -33 -16 -63l-13 -21l-6 -8l-6 -8l-4 -6l-8 -6l-8 -7l-8 -4l-5 -2q-8 -4 -10 -4l-8 -4h-4q-12 -4 -14 -4h-9h-14q-37 3 -61 18l-11 7l-8 6q-4 2 -8 6q-4 0 -4 4l-8 8q0 1 -1 2t-1 2q-12 19 -13 21q-2 2 -2 4q-12 24 -12 53z M342 889v6v14v19q0 4 4 12q0 2 4 10q8 15 15 25l6 6l12 10l27 19q11 7 24 10q12 6 31 6q1 0 3 1t3 1h14q7 0 27 -4l8 -4l15 -6l8 -4l16 -13l4 -6l6 -6l11 -10l8 -12q9 -19 12 -35q4 -8 4 -13v-6v-14q-3 -38 -16 -64l-13 -20l-6 -8l-6 -8l-4 -9l-8 -6l-8 -6l-8 -6h-5 q-2 0 -10 -4q-1 0 -4 -1t-4 -1t-2 -1t-2 -1q-3 0 -7.5 -1t-6.5 -1h-9h-14q-35 3 -61 16l-11 6l-8 6q-5 2 -8 9q-4 0 -4 4l-8 8q0 1 -1 2t-1 2q-13 19 -13 20q-2 2 -2 5q-12 21 -12 53z" />
<glyph unicode="&#xf8;" horiz-adv-x="1050" d="M106 483q0 137 41 230l-2 -2q21 61 56 110q63 82 143 131q116 72 250 66q87 -3 165.5 -41t135.5 -105q121 -142 121 -378q0 -291 -182 -422q-61 -39 -128 -55.5t-104 -16.5q-246 0 -371 131.5t-125 351.5zM195 483q0 -395 407 -395q100 0 182 57q144 99 144 349 q0 210 -97 319q-93 109 -241 119q-112 0 -197 -53q-76 -51 -119 -107q-27 -40 -49 -92h2q-32 -79 -32 -197zM256 -158l524 1356l11 12q16 6 26 0l-4 4q4 -1 13.5 -5t13.5 -5q11 -3 15.5 -15.5t-1.5 -23.5l2 2l-524 -1353l-15 -17h-20l-25 10q-11 3 -16 15.5t2 21.5z" />
<glyph unicode="&#xf9;" horiz-adv-x="1085" d="M141 913q0 60 2 80q2 11 10.5 19t18.5 8l35 -2q24 -7 24 -31q-2 -23 -2 -74t2 -71v-273q2 -57 2 -194q-1 -45 0 -73.5t10 -64t27 -59.5q40 -47 125 -67q55 -17 131 -17q122 0 191 72q88 92 96 274l2 21q6 337 23 532q2 13 11.5 21.5t22.5 5.5q4 0 13.5 -1t13.5 -1 q27 -6 27 -31q-27 -348 -27 -639q0 -243 27 -309q3 -8 -4 -16t-19 -11l2 2l-31 -14q-14 -3 -23 3t-11 15q-18 51 -21 136q-10 -17 -39 -50q-94 -98 -254 -98q-85 0 -153 19q-120 29 -170 98h2q-29 38 -43.5 87t-16 81.5t-0.5 85.5q0 127 -2 190v269q-2 18 -2 77zM433 1720.5 q2 12.5 9 20.5l23 18q9 7 24.5 3t18.5 -13l-4 2q98 -119 129 -240q20 -80 20 -243v-39q0 -11 -10 -21t-20 -10h-29q-12 0 -20.5 9.5t-8.5 21.5v39q0 147 -18 219q-26 105 -111 213v-2q-5 10 -3 22.5z" />
<glyph unicode="&#xfa;" horiz-adv-x="1085" d="M141 913q0 60 2 80q2 11 10.5 19t18.5 8l35 -2q24 -7 24 -31q-2 -23 -2 -74t2 -71v-273q2 -57 2 -194q-1 -45 0 -73.5t10 -64t27 -59.5q40 -47 125 -67q55 -17 131 -17q122 0 191 72q88 92 96 274l2 21q6 337 23 532q2 13 11.5 21.5t22.5 5.5q4 0 13.5 -1t13.5 -1 q27 -6 27 -31q-27 -348 -27 -639q0 -243 27 -309q3 -8 -4 -16t-19 -11l2 2l-31 -14q-14 -3 -23 3t-11 15q-18 51 -21 136q-10 -17 -39 -50q-94 -98 -254 -98q-85 0 -153 19q-120 29 -170 98h2q-29 38 -43.5 87t-16 81.5t-0.5 85.5q0 127 -2 190v269q-2 18 -2 77zM428 1229 v39q0 163 18 243q30 109 129 240q8 11 21 13t18 -5l25 -18q6 -8 8 -20.5t-4 -22.5l2 2q-88 -112 -113 -213q-16 -72 -16 -219v-39q0 -12 -8.5 -21.5t-20.5 -9.5h-30q-10 0 -19.5 11t-9.5 20z" />
<glyph unicode="&#xfb;" horiz-adv-x="1085" d="M141 913q0 60 2 80q2 11 10.5 19t18.5 8l35 -2q24 -7 24 -31q-2 -23 -2 -74t2 -71v-273q2 -57 2 -194q-1 -45 0 -73.5t10 -64t27 -59.5q40 -47 125 -67q55 -17 131 -17q122 0 191 72q88 92 96 274l2 21q6 337 23 532q2 13 11.5 21.5t22.5 5.5q4 0 13.5 -1t13.5 -1 q27 -6 27 -31q-27 -348 -27 -639q0 -243 27 -309q3 -8 -4 -16t-19 -11l2 2l-31 -14q-14 -3 -23 3t-11 15q-18 51 -21 136q-10 -17 -39 -50q-94 -98 -254 -98q-85 0 -153 19q-120 29 -170 98h2q-29 38 -43.5 87t-16 81.5t-0.5 85.5q0 127 -2 190v269q-2 18 -2 77zM303.5 1134 q-1.5 12 3.5 21q26 43 82.5 131t75.5 119q14 14 24 14h111q17 0 25 -16v2l145 -250v-2q7 -22 -6 -35l-31 -18q-25 -12 -37 12v-2q-15 26 -42 70t-48.5 80.5t-40.5 70.5h-43l-141 -223q-7 -10 -19 -13t-22 7l4 -2l-33 18q-6 4 -7.5 16z" />
<glyph unicode="&#xfc;" horiz-adv-x="1085" d="M150 928q0 60 2 80q2 11 10 18.5t18 7.5l35 -2q25 -7 25 -31q-2 -23 -2 -73q0 -52 2 -72v-272q2 -57 2 -195q-1 -45 0 -73t10 -63.5t27 -59.5q41 -48 124 -68q52 -16 132 -16q122 0 190 71q88 92 96 275l2 20q6 338 23 533q2 13 12 21t23 5q4 0 13 -1t13 -1q27 -6 27 -31 q-27 -348 -27 -639q0 -243 27 -309q3 -7 -4 -15t-19 -11l2 2l-30 -15q-14 -3 -23.5 3.5t-11.5 15.5q-18 51 -21 135q-8 -13 -39 -49q-94 -99 -253 -99q-86 0 -154 19q-120 29 -170 98h2q-29 38 -43.5 87t-15.5 81t0 86q0 128 -2 191v268q-2 18 -2 78zM186 1227v6v14 q0 15 2 21q0 2 5 12l4 8q9 19 14 25l6 6l12 12l25 19q9 4 27 8q12 6 28 6q1 0 3 1t3 1h15q8 0 28 -4l9 -4l12 -4l8 -4l16 -13l7 -6l6 -8l10 -10l8 -13q10 -20 12 -32q5 -10 5 -13v-8v-14q-3 -31 -17 -64l-12 -20l-6 -8l-6 -6l-7 -9l-8 -6l-8 -6l-8 -6q-2 0 -2 -2 q-2 0 -10 -4q-1 0 -4.5 -1t-4.5 -1t-2 -1t-2 -1q-3 0 -7.5 -1t-6.5 -1h-10h-15q-34 3 -61 18l-10 6l-8 6q-3 2 -7 9q-4 0 -4 2l-8 8q0 1 -1 2t-1 2q-11 17 -12 20q-2 2 -2 5q-12 24 -15 53zM625 1227v6v14q0 15 2 21q0 4 4 12l4 8q9 19 14 25l6 6l13 12l24 19q9 4 27 8 q12 6 29 6q1 0 3 1t3 1h14q9 0 29 -4l8 -4l12 -4l8 -4l17 -13l6 -6l6 -8l10 -10l8 -13q12 -23 13 -32q4 -8 4 -13v-8v-14q-3 -31 -17 -64l-12 -20l-6 -8l-6 -6l-6 -9l-8 -6l-9 -6l-8 -6q-2 0 -2 -2q-2 0 -10 -4q-1 0 -4 -1t-4 -1t-2 -1t-2 -1q-3 0 -8 -1t-7 -1h-10h-14 q-35 3 -62 18l-10 6l-8 6q-2 1 -6 9q-4 0 -4 2l-9 8q0 1 -1 2t-1 2q-11 17 -12 20q-2 2 -2 5q-11 22 -14 53z" />
<glyph unicode="&#xfd;" horiz-adv-x="942" d="M108 987.5q5 13.5 17 16.5l-2 -3l33 17q8 3 18.5 -3.5t11.5 -19.5l344 -815l297 815q4 8 16.5 14.5t20.5 6.5l27 -10l4 -2q20 -16 14 -35l-334 -920q-3 -14 -9 -33t-21 -54.5t-35.5 -70.5t-54 -78t-74 -80t-98.5 -73.5t-125 -62.5q-28 0 -33 16l-10 27q-4 10 2 21.5 t16 14.5h-2q75 30 138 77t99.5 89.5t66 93.5t39.5 75.5t18 49.5l-383 906v-2q-6 9 -1 22.5zM397 1126v39q0 160 19 244q30 109 129 240q8 11 21 13t18 -5l24 -19q6 -8 8 -20.5t-4 -22.5l2 2q-86 -110 -112 -213q-17 -76 -17 -219v-39q0 -12 -8 -21t-20 -9h-31 q-10 0 -19.5 10.5t-9.5 19.5z" />
<glyph unicode="&#xfe;" horiz-adv-x="978" d="M154 -291v1684q0 12 7.5 20t18.5 8h29q12 0 20.5 -8t8.5 -20v-641q67 102 172 162.5t213 60.5q155 0 247 -121q101 -132 101 -367v-4q0 -225 -101 -364q-93 -119 -247 -119q-106 0 -212 61t-173 162v-514q0 -12 -8.5 -20t-20.5 -8h-29q-11 0 -18.5 8t-7.5 20zM238 485 q1 -109 60 -203.5t147.5 -147t177.5 -52.5q113 0 180 88q83 105 86 315q-3 213 -86 318q-69 88 -180 88q-66 0 -134.5 -32t-124 -85.5t-90.5 -130t-36 -158.5z" />
<glyph unicode="&#xff;" horiz-adv-x="942" d="M114 1001.5q5 13.5 17 16.5l-2 -2l33 16q8 3 19 -3t12 -19l344 -815l297 815q4 8 16 14t20 6l27 -10l4 -2q20 -16 14 -35l-333 -920q-5 -22 -15.5 -53t-42.5 -89t-74.5 -110.5t-118 -108.5t-167.5 -91q-28 0 -33 16l-10 27q-4 10 2 22t16 15h-2q75 30 138 77t99.5 89.5 t66 93.5t39.5 75.5t18 49.5l-383 905v-2q-6 9 -1 22.5zM186 1227v6v14q0 15 2 21q0 2 5 12l4 8q9 19 14 25l6 6l10 12l27 19q9 4 27 8q12 6 28 6q1 0 3 1t3 1h15q8 0 28 -4l7 -4l14 -4l8 -4l16 -13l7 -6l6 -8l10 -10l8 -13q9 -28 10 -32q5 -10 5 -13v-8v-14q-2 -25 -15 -64 l-12 -20l-6 -8l-6 -6l-7 -9l-8 -6l-8 -6l-8 -6q-4 0 -4 -2q-2 0 -10 -4q-5 -2 -7 -2q-1 0 -2 -1t-2 -1q-3 0 -7.5 -1t-6.5 -1h-10h-15q-33 3 -61 18l-10 6l-8 6q-6 3 -9 9q-4 0 -4 2l-6 8q0 1 -1 2t-1 2q-11 17 -12 20q-2 2 -2 5q-12 24 -15 53zM625 1227v6v14q0 15 2 21 q0 4 4 12l4 8q9 19 14 25l6 6l11 12l26 19q9 4 27 8q12 6 29 6q1 0 3 1t3 1h14q9 0 29 -4l6 -4l14 -4l8 -4l17 -13l6 -6l6 -8l10 -10l8 -13q1 -4 4 -10.5t4.5 -11.5t2.5 -10q4 -8 4 -13v-8v-14q-2 -25 -15 -64l-12 -20l-6 -8l-6 -6l-6 -9l-8 -6l-9 -6l-8 -6q-4 0 -4 -2 q-2 0 -10 -4q-4 -2 -6 -2q-1 0 -2 -1t-2 -1q-3 0 -8 -1t-7 -1h-10h-14q-35 3 -62 18l-10 6l-8 6q-5 2 -8 9q-4 0 -4 2l-7 8q0 1 -1 2t-1 2q-11 17 -12 20q-2 2 -2 5q-11 22 -14 53z" />
<glyph unicode="&#x152;" horiz-adv-x="1947" d="M123 729q0 383 235 567q185 136 469 136q113 0 299 -35h701q12 0 20 -9t8 -20v-31q0 -12 -8 -20t-20 -8h-645v-518h604q10 0 19.5 -8.5t9.5 -18.5v-31q0 -11 -9.5 -19.5t-19.5 -8.5h-604v-588h678q10 0 20 -10t10 -21v-31q0 -10 -9.5 -18t-20.5 -8h-713 q-131 -29 -277 -29q-317 0 -512 152q-235 182 -235 577zM211 729q0 -349 203 -508q170 -133 456 -133q129 0 226 18v1207q-147 30 -269 30q-263 0 -417 -118q-199 -153 -199 -496z" />
<glyph unicode="&#x153;" horiz-adv-x="1986" d="M133 487q0 133 39 228l-2 -2q20 58 57 110q56 76 144 131q115 72 245 66q178 -6 304 -148q51 -59 77 -131q32 85 99 152q119 119 321 119q203 0 307 -119q37 -43 60 -99.5t28.5 -102t8 -88t-1.5 -56.5q0 -2 -1 -9t-1 -8q-7 -24 -29 -24h-744q2 -39 8.5 -78t22 -91 t47 -100.5t76.5 -82.5q93 -68 225 -68t326 70l-6 -4q14 4 22 4q16 -8 19 -21l10 -26l-2 2q3 -10 0 -23q-1 -3 -23 -18q-201 -70 -346 -70q-160 0 -276 82q-94 67 -143 188q-42 -124 -146 -194q-107 -72 -233 -72h-45q-57 0 -131 17t-138 59q-85 63 -131.5 166.5t-46.5 240.5 zM221 487q0 -74 14.5 -135t37 -101.5t55 -71t64 -47t69 -26.5t64.5 -13t55 -3q8 0 18.5 1t13.5 1h13q97 0 184 55q68 50 105.5 140.5t37.5 210.5q0 204 -98 317q-91 111 -244 117q-6 2 -10 2q-97 0 -182 -53q-81 -56 -117 -107q-36 -57 -51 -92q-29 -85 -29 -195zM1049 594 h684q0 153 -74 242q-87 90 -242 90q-83 0 -149 -25t-103.5 -60.5t-64 -84.5t-36.5 -86t-15 -76z" />
<glyph unicode="&#x178;" horiz-adv-x="1062" d="M45 1391q-8 25 6 32l33 19h-2q9 6 22 3.5t17 -11.5l407 -693l416 693q6 9 19 11.5t22 -3.5h-2l33 -19q6 -4 6 -30l-451 -748q0 -101 2 -302t2 -300q0 -12 -8 -20.5t-20 -8.5h-27q-28 0 -28 29l-5 602zM113 1638v7v14q0 14 2 20q0 7 4 11q0 2 4 10q8 16 14 24l6 7l13 12 l26 18q19 9 27 11q9 6 29 6q1 0 3 1t3 1h14q9 0 29 -4l8 -4l14 -7l6 -4l17 -12l6 -6l6 -8l10 -11l8 -12q11 -21 13 -33q4 -8 4 -12v-8v-14q-3 -36 -17 -64l-12 -20l-6 -9l-6 -8l-6 -8l-8 -6l-9 -6l-6 -6q-4 0 -4 -2l-10 -5q-1 0 -4 -1t-4 -1t-2 -1t-2 -1q-3 0 -8 -1t-7 -1 h-10h-14q-32 3 -62 19l-10 6l-8 6q-5 3 -8 8q-4 0 -4 4l-9 8q0 1 -1 2.5t-1 2.5q-11 17 -12 20q-2 2 -2 4q-11 18 -14 53zM676 1638v7v14q0 14 2 20q0 7 4 11q0 2 4 10q8 16 14 24l7 7l12 12l24 18q19 9 27 11q12 6 31 6q1 0 3 1t3 1h14q7 0 27 -4l8 -4l14 -7l9 -4l16 -12 l6 -6l6 -8l11 -11l8 -12q8 -26 10 -33q4 -8 4 -12v-8v-14q-3 -34 -14 -64l-13 -20l-6 -9l-6 -8l-6 -8l-8 -6l-8 -6l-9 -6q-4 0 -4 -2l-10 -5q-1 0 -4 -1t-4 -1t-2 -1t-2 -1q-3 0 -8 -1t-7 -1h-8h-14q-35 3 -64 19l-10 6l-8 6q-4 4 -6 8q-4 0 -4 4l-8 8q0 1 -1 2.5t-1 2.5 q-13 19 -13 20q-2 2 -2 4q-11 18 -14 53z" />
<glyph unicode="&#x2c6;" horiz-adv-x="624" d="M72.5 1134q-1.5 12 3.5 21q26 44 82.5 132.5t74.5 117.5q14 14 25 14h111q16 0 24 -16v2l146 -250v-2q7 -21 -7 -35l-30 -18q-25 -12 -37 12v-2q-15 26 -42 70t-48.5 80.5t-40.5 70.5h-43l-141 -223q-7 -10 -19 -13t-22 7l4 -2l-33 18q-6 4 -7.5 16z" />
<glyph unicode="&#x2dc;" horiz-adv-x="759" d="M102 1143q0 8 3.5 22.5t11.5 36t26 42.5t43 34q27 12 62 12q75 0 166 -61q101 -62 133 -43q24 12 24 61q0 11 9.5 21t19.5 10h31q12 0 20 -8.5t8 -20.5q0 -102 -69 -139h2q-24 -16 -64 -16q-66 0 -161 61q-99 64 -142 45q-13 -8 -22 -24.5t-12 -28.5l-3 -12 q0 -13 -10.5 -21.5t-21.5 -5.5q-5 0 -14 1t-13 1q-13 0 -21.5 10.5t-5.5 22.5z" />
<glyph unicode="&#x2000;" horiz-adv-x="1107" />
<glyph unicode="&#x2001;" horiz-adv-x="2214" />
<glyph unicode="&#x2002;" horiz-adv-x="1107" />
<glyph unicode="&#x2003;" horiz-adv-x="2214" />
<glyph unicode="&#x2004;" horiz-adv-x="738" />
<glyph unicode="&#x2005;" horiz-adv-x="553" />
<glyph unicode="&#x2006;" horiz-adv-x="369" />
<glyph unicode="&#x2007;" horiz-adv-x="369" />
<glyph unicode="&#x2008;" horiz-adv-x="276" />
<glyph unicode="&#x2009;" horiz-adv-x="442" />
<glyph unicode="&#x200a;" horiz-adv-x="123" />
<glyph unicode="&#x2010;" horiz-adv-x="868" d="M139 629v30q0 15 11 21q8 8 20 8l510 -2q10 0 19.5 -9t9.5 -20v-30q0 -10 -11 -21q-8 -8 -18 -8l-510 4q-12 0 -21.5 8.5t-9.5 18.5z" />
<glyph unicode="&#x2011;" horiz-adv-x="868" d="M139 629v30q0 15 11 21q8 8 20 8l510 -2q10 0 19.5 -9t9.5 -20v-30q0 -10 -11 -21q-8 -8 -18 -8l-510 4q-12 0 -21.5 8.5t-9.5 18.5z" />
<glyph unicode="&#x2012;" horiz-adv-x="868" d="M139 629v30q0 15 11 21q8 8 20 8l510 -2q10 0 19.5 -9t9.5 -20v-30q0 -10 -11 -21q-8 -8 -18 -8l-510 4q-12 0 -21.5 8.5t-9.5 18.5z" />
<glyph unicode="&#x2013;" horiz-adv-x="929" d="M139 629v30q0 15 11 21q8 8 20 8l569 -2q11 0 21 -8.5t10 -20.5v-30q0 -11 -10 -21q-8 -8 -21 -8l-569 4q-12 0 -21.5 8.5t-9.5 18.5z" />
<glyph unicode="&#x2014;" horiz-adv-x="1384" d="M145 629v30q0 15 11 21q8 8 18 8l1010 -2q10 0 19 -9t9 -20v-30q0 -11 -10 -21q-8 -8 -18 -8l-1010 4q-11 0 -20 8.5t-9 18.5z" />
<glyph unicode="&#x2018;" horiz-adv-x="299" d="M66 987v39q0 164 20 244q30 116 129 239h-2q6 9 20 11.5t21 -2.5l22 -19q7 -8 8.5 -20.5t-3.5 -22.5l2 2q-85 -108 -111 -213q-18 -72 -18 -219v-39q0 -12 -8.5 -21.5t-20.5 -9.5h-29q-11 0 -20.5 10.5t-9.5 20.5z" />
<glyph unicode="&#x2019;" horiz-adv-x="296" d="M11 1000q-2 12 3 20q85 108 111 213q18 72 18 219v41q0 10 8.5 19.5t18.5 9.5h31q10 0 20 -10.5t10 -18.5v-41q0 -164 -20 -244q-31 -117 -129 -239h2q-6 -9 -20 -11t-21 3l-23 20q-7 7 -9 19z" />
<glyph unicode="&#x201a;" horiz-adv-x="296" d="M11 -194.5q-2 12.5 3 20.5v-2q85 108 111 213q18 74 18 219v41q0 11 8.5 21t18.5 10h31q10 0 20 -11t10 -20v-41q0 -162 -20 -242q-30 -118 -129 -241h2q-6 -9 -20 -11.5t-21 2.5l-23 21q-7 8 -9 20.5z" />
<glyph unicode="&#x201c;" horiz-adv-x="770" d="M117 987v39q0 164 20 244q30 116 129 239h-2q6 9 20 11.5t21 -2.5l23 -19q6 -8 8 -20.5t-4 -22.5l2 2q-89 -113 -111 -213q-18 -72 -18 -219v-39q0 -12 -8.5 -21.5t-20.5 -9.5h-29q-11 0 -20.5 10.5t-9.5 20.5zM457 987v39q0 164 18 244q30 116 129 239h-2q6 9 20 11.5 t21 -2.5l25 -19q6 -8 7 -21t-3 -22l2 2q-86 -106 -113 -213q-18 -72 -18 -219v-39q0 -12 -8.5 -21.5t-18.5 -9.5h-31q-11 0 -19.5 10.5t-8.5 20.5z" />
<glyph unicode="&#x201d;" horiz-adv-x="770" d="M85 1000q-2 12 3 20q86 106 113 213q18 72 18 219v41q0 10 8 19.5t19 9.5h30q10 0 19.5 -10.5t9.5 -18.5v-41q0 -164 -18 -244q-30 -113 -131 -239h2q-6 -9 -19 -11t-20 3l-25 20q-7 7 -9 19zM425 1000q-2 12 3 20q85 108 111 213q18 72 18 219v41q0 10 9 19.5t20 9.5h28 q10 0 20.5 -10.5t10.5 -18.5v-41q0 -164 -20 -244q-31 -117 -129 -239h2q-6 -9 -20 -11t-21 3l-23 20q-7 7 -9 19z" />
<glyph unicode="&#x201e;" horiz-adv-x="770" d="M85 -194.5q-2 12.5 3 20.5v-2q86 106 113 213q18 74 18 219v41q0 11 8 21t19 10h30q10 0 19.5 -11t9.5 -20v-41q0 -162 -18 -242q-29 -115 -131 -241l4 4q-3 -13 -18.5 -16.5t-22.5 3.5l-25 21q-7 8 -9 20.5zM425 -194.5q-2 12.5 3 20.5v-2q85 108 111 213q18 74 18 219 v41q0 11 8.5 21t20.5 10h28q10 0 20.5 -11t10.5 -20v-41q0 -162 -20 -242q-30 -118 -129 -241l4 4q-3 -13 -19.5 -16.5t-23.5 3.5l-23 21q-7 8 -9 20.5z" />
<glyph unicode="&#x2022;" horiz-adv-x="468" d="M98 602v6v15q0 12 2 18q0 4 4 12q0 1 5 11q8 16 14 24l6 6l12 11l25 18q15 8 27 10q12 6 30 6l4 2h15q8 0 28 -4l9 -4l14 -6l6 -4l16 -12l7 -6l6 -9l10 -8l8 -12q9 -18 12 -35q4 -8 4 -12v-6v-15q-3 -37 -16 -63l-12 -21l-6 -8l-6 -8l-7 -8l-8 -6l-8 -7l-6 -6q-4 0 -4 -2 q-2 0 -10 -4h-9q-1 0 -2 -1t-2 -1q-3 0 -7.5 -1t-6.5 -1h-10h-15q-38 3 -61 16l-10 7l-6 6q-7 3 -9 8q-4 0 -4 4l-8 8q0 1 -1 2t-1 2q-11 16 -12 21q-2 2 -2 4q-12 21 -15 53z" />
<glyph unicode="&#x2026;" horiz-adv-x="1204" d="M113 131v6v15q0 14 2 20q0 6 4 10q0 3 4 11q3 12 12 24l6 6l13 13l26 18q3 1 11 4t14 4q12 6 31 6q1 0 3 1t3 1h14q7 0 27 -4l8 -4l14 -6l8 -2l17 -12l6 -6l6 -9l8 -10l8 -12q11 -21 13 -33q4 -8 4 -12v-8v-15q-2 -30 -17 -63l-12 -21l-4 -8l-6 -8l-6 -6l-8 -6l-9 -7 l-8 -4l-4 -2q-8 -4 -10 -4l-8 -4h-4q-12 -4 -13 -4h-10h-14q-38 3 -62 18l-10 7l-8 6q-4 2 -8 6q-4 0 -4 4l-9 8q0 1 -1 2t-1 2q-11 16 -12 21q-2 2 -2 4q-9 24 -12 53zM469 113v20v19q3 27 18 53q0 1 1 3t1 3l7 6q0 2 2 4l8 10l6 7l8 6l15 10l16 6q2 2 6 2l8 4h4q1 0 3 1 t3 1h5q1 0 4 1t4 1h10q12 0 18 -2h5l14 -4l8 -4q13 -3 23 -10q2 0 4 -2t4 -2l6 -6l12 -13l4 -6l11 -14q4 -4 8 -12l6 -11l6 -10q6 -14 10 -43v-8v-12q0 -1 -1 -5t-1 -6q-2 -4 -2 -8q-2 -2 -2 -8q-2 -6 -10 -18q-2 -3 -2 -5l-4 -4l-2 -2q-2 -2 -4.5 -5.5t-3.5 -4.5l-7 -6 q-2 -2 -6 -2l-4 -4l-8 -6l-6 -4q-2 -1 -2 -3l-15 -6q-1 0 -4 -1t-4 -1q-12 -4 -14 -4q-2 -2 -4 -2h-6q-6 -2 -17 -2q-16 0 -24 2l-17 4l-6 4h-4l-14 6l-4 5h-2l-7 4l-18 10l-4 4q-2 0 -2 2l-10 6l-7 8q0 1 -1 3.5t-1 3.5q-4 4 -8 16l-4 8v2q-2 2 -2 8q0 1 -1 2t-1 2v7 q-2 0 -2 2zM829 125v20q0 26 11 52l10 18l16 21l8 8q1 0 3.5 1t3.5 1q0 2 2 2h-2q2 2 4 2q6 4 22 8l17 6h4q8 4 20 4h10h7q8 0 12 -2q3 0 7.5 -1t6.5 -1q8 -4 10 -4l21 -8q2 0 6 -4l10 -6l6 -6l9 -9l8 -8l6 -8l4 -6l6 -10q0 -5 4 -9q0 -1 1 -3t1 -3q7 -10 7 -24q3 -16 0 -33 q-1 -4 -11 -35l-6 -14q0 -7 -2 -11l-6 -8l-4 -4l-6 -10l-19 -14q-9 -9 -18 -15q-4 0 -4 -2q-4 0 -6 -2q-1 0 -4 -1t-5 -1q-12 -4 -22 -4q-26 -3 -51 6q-22 7 -35 15l-8 4l-4 4q-19 14 -21 18q-4 4 -4 8q0 2 -2 4l-6 13l-6 14q0 1 -1 4t-1 4q-6 16 -9 29z" />
<glyph unicode="&#x202f;" horiz-adv-x="442" />
<glyph unicode="&#x2039;" horiz-adv-x="464" d="M6 403q0 52 281 414q10 10 20 10q11 3 21 -4l22 -18q24 -23 6 -41q-238 -311 -262 -361q82 -130 246 -350l-2 2q6 -6 6 -18q0 -17 -14 -23h2l-23 -16q-12 -6 -18 -6q-17 0 -23 14v-2q-262 351 -262 399z" />
<glyph unicode="&#x203a;" horiz-adv-x="464" d="M102 764q-14 17 7 41l24 18q12 8 21 4q5 0 20 -10q281 -362 281 -414q0 -48 -262 -399v2q-7 -14 -23 -14q-6 0 -18 6l-23 16h2q-14 6 -14 23q0 12 6 18l-2 -2q203 274 244 350q-24 39 -99.5 144t-163.5 217z" />
<glyph unicode="&#x205f;" horiz-adv-x="553" />
<glyph unicode="&#x20ac;" horiz-adv-x="1196" d="M37 545v30q0 13 8.5 22t20.5 9h190q-4 39 -4 125v68h-186q-12 0 -20.5 9t-8.5 21v31q0 13 8.5 22t20.5 9h196q38 289 221 422q145 106 365 106q133 0 260 -35l10 -4q29 -15 21 -34l-6 -29q-6 -15 -18 -22.5t-23 -4.5q-2 2 -32.5 10.5t-91.5 17.5t-120 9q-186 0 -311 -90 q-151 -107 -185 -346h668q11 0 21 -9t10 -22v-31q0 -12 -10 -21t-21 -9h-678q-2 -25 -2 -68q0 -73 8 -125h672q11 0 21 -9t10 -22v-30q0 -12 -10 -21.5t-21 -9.5h-658q47 -206 181 -311q139 -111 370 -111q79 0 177 17l10 2q11 2 20.5 -4.5t12.5 -18.5l6 -31q4 -28 -23 -34 h2q-92 -23 -205 -23q-259 0 -426 131v-2q-173 132 -219 385h-202q-12 0 -20.5 9.5t-8.5 21.5z" />
<glyph unicode="&#x2122;" horiz-adv-x="1439" d="M47 1260v14q0 6 8 13t13 7h491q7 0 15 -7t8 -13v-14q0 -5 -8 -13t-15 -8h-217v-623q0 -18 -20 -18h-15q-20 0 -20 18v623h-219q-4 0 -12.5 8.5t-8.5 12.5zM625 625l43 651q4 18 22 18h68q9 0 22 -20l189 -576q25 79 88.5 272t97.5 304q11 20 25 20h82q20 0 20 -20 l31 -649q0 -6 -8 -14.5t-13 -8.5h-16q-17 0 -21 21l-28 616h-21q-33 -103 -100 -310t-100 -311q-7 -12 -12 -17t-15 -5h-21q-11 0 -22 22l-205 621h-10l-41 -616q0 -7 -5 -14t-13 -7h-17q-20 8 -20 23z" />
<glyph unicode="&#x25fc;" horiz-adv-x="1024" d="M0 0v1024h1024v-1024h-1024z" />
<glyph unicode="&#xfb01;" horiz-adv-x="1040" d="M47 899v27q0 12 8 20t19 8h155q0 3 -1 11.5t-1 11.5q-9 222 76 334q82 110 244 110q64 0 127 -14q25 -5 145 -37q45 -14 73 -47t28 -78q0 -53 -36.5 -89t-90.5 -36t-90.5 36t-36.5 89q0 34 24 74l-33 6q-61 12 -108 12q-123 0 -180 -75q-60 -78 -60 -222q0 -39 2 -57v-29 h488q25 0 28 -41q23 -259 23 -479q0 -183 -19 -409q-3 -25 -28 -25l-29 2q-14 3 -19 10t-5 21q16 193 16 407q0 251 -16 432h-435q7 -205 7 -331q0 -131 -3.5 -257t-7 -188t-4.5 -71q-3 -25 -26 -25l-31 2q-15 3 -20 9.5t-5 25.5q15 263 15 502q0 149 -9 333h-157 q-10 0 -18.5 8t-8.5 19z" />
<glyph unicode="&#xfb02;" horiz-adv-x="1013" d="M43 899v27q0 10 8 19t19 9h155q0 3 -1 10.5t-1 10.5q-10 222 76 336q82 110 244 110q64 0 127 -14q70 -14 166 -43q10 -3 15 -13.5t3 -21.5v-12q-12 -456 -12 -735q0 -387 22 -545v-2q0 -28 -18 -31l-33 -4q-26 0 -31 23q-24 161 -24 577q0 374 14 696q-45 14 -117 29 q-59 12 -110 12q-118 0 -178 -75q-72 -107 -60 -281v-27h246q8 0 16.5 -9.5t8.5 -18.5v-27q0 -11 -8.5 -20t-16.5 -9h-242q6 -176 6 -331q0 -130 -3 -255.5t-6.5 -188t-4.5 -70.5q-1 -11 -9 -18t-18 -7q-7 0 -34 2q-21 3 -21 35q15 277 15 526q0 113 -7 307h-159 q-12 0 -19.5 8.5t-7.5 20.5z" />
<glyph unicode="&#xfb03;" horiz-adv-x="1675" d="M25 899v27q0 12 7 20t19 8h158v11q-6 135 26.5 236.5t100.5 154.5v-2q77 65 196 65q69 0 99 -10q21 -13 24 -18l2 -9l-4 -18l4 6l-8 -24q-2 -9 -10 -17q-17 -7 -27 -2l2 -2q-37 10 -82 10q-89 0 -145 -47q-109 -83 -94 -319v-15h250q11 0 18.5 -8t7.5 -20v-27 q0 -12 -7.5 -20.5t-18.5 -8.5h-246q8 -175 8 -360q0 -124 -3 -242.5t-6.5 -176t-4.5 -66.5q0 -11 -8 -19q-12 -6 -21 -6l-26 2q-13 0 -23 10q-6 6 -6 25q14 245 14 498q0 168 -8 335h-162q-12 0 -19 8.5t-7 20.5zM543 899v27q0 12 7 20t19 8h156q0 3 -1 11.5t-1 11.5 q-9 222 76 334q82 110 243 110q64 0 127 -14q37 -8 146 -37q45 -14 72.5 -46.5t27.5 -78.5q0 -52 -37.5 -88.5t-91.5 -36.5q-52 0 -88.5 36t-36.5 89q0 32 25 74l-33 6q-61 12 -109 12q-123 0 -180 -75q-59 -77 -59 -222q0 -39 2 -57q0 -3 -0.5 -14.5t0.5 -14.5h487 q26 0 29 -41q23 -259 23 -479q0 -183 -19 -409q-3 -25 -29 -25l-28 2q-25 5 -25 31q17 205 17 407q0 239 -17 432h-434q6 -175 6 -331q0 -131 -3 -257t-6.5 -188t-4.5 -71q-3 -25 -29 -25l-29 2q-15 3 -19.5 9.5t-4.5 25.5q14 245 14 502q0 169 -8 333h-158q-12 0 -19 8 t-7 19z" />
<glyph unicode="&#xfb04;" horiz-adv-x="1585" d="M84 899v27q0 12 8.5 20t20.5 8h157v11q-13 284 127 391v-2q74 65 195 65q70 0 100 -10q20 -12 23 -18l2 -9l-4 -18l4 6l-6 -24q-2 -8 -11 -17q-18 -7 -28 -2l2 -2q-37 10 -82 10q-87 0 -146 -47q-106 -80 -94 -319v-15h250q12 0 20.5 -8t8.5 -20v-27q0 -12 -8.5 -20.5 t-20.5 -8.5h-246q9 -196 9 -360q0 -124 -3.5 -242.5t-6.5 -176t-5 -66.5q0 -10 -6 -19q-12 -6 -20 -6l-29 2q-13 0 -23 10q-4 6 -4 25q13 227 13 498q0 147 -9 335h-159q-12 0 -20.5 8.5t-8.5 20.5zM602 899v27q0 10 9 19t20 9h153v21q-10 222 74 336q85 110 244 110 q64 0 127 -14q66 -12 166 -43q10 -3 16 -13.5t4 -21.5v-12q-14 -532 -14 -735q0 -392 24 -545v-2q0 -28 -20 -31l-33 -4q-11 0 -19 7.5t-10 15.5q-26 157 -26 577q0 374 14 696q-36 11 -114 29q-61 12 -113 12q-119 0 -176 -75q-74 -106 -62 -281v-27h246q9 0 18 -9.5 t9 -18.5v-27q0 -11 -8.5 -20t-18.5 -9h-242q7 -205 7 -331q0 -130 -3.5 -255.5t-7 -187.5t-4.5 -71q-3 -25 -24 -25q-8 0 -37 2q-19 3 -19 35q13 241 13 526q0 113 -7 307h-157q-12 0 -20.5 8.5t-8.5 20.5z" />
</font>
</defs>
</svg>
